/* XPM */
static char *image[] = {
"16 16 45 1",
"  c None",
"0 c #e4e5e2",
"1 c #f8f8f8",
"2 c #f9f9f8",
"3 c #f5f6f5",
"4 c #f1f1ef",
"5 c #e1e1df",
"6 c #d0d2cd",
"7 c #d6d8d4",
"8 c #dddedb",
"9 c #f4f4f3",
": c #e0e2df",
"; c #caccc6",
"A c #d1d2cd",
"B c #d7d8d4",
"C c #dddeda",
"D c #e4e4e1",
"E c #eaeae8",
"F c #d5d6d3",
"G c #c5c7c2",
"H c #c0c2bd",
"I c #d1d2cf",
"J c #dbdcd9",
"K c #e7e7e5",
"L c #dfe0de",
"M c #d2d3d0",
"N c #8c8e89",
"O c #eeeeec",
"P c #ffffff",
"Q c #bbbdb9",
"R c #898a85",
"S c #e2e2e1",
"T c #b5b6b3",
"U c #888a85",
"V c #888a84",
"W c #898c86",
"X c #898b86",
"Y c #4374af",
"Z c #4071ac",
"a c #3c6daa",
"b c #4c7db5",
"c c #cc0000",
"d c #4574b0",
"e c #3e6fab",
"f c #5685bc",
"                ",
"      fed cc    ",
"    baZYd cc    ",
"  YZ            ",
" f       XW     ",
"      VUTSV     ",
"    RQPPPPPQR   ",
"    UPOOOOOPU   ",
"    NMPPPPPLN   ",
"    NKJIHGGFN   ",
"    NEDCBA;:N   ",
"    N9D876;5N   ",
"     N43210N    ",
"      NNNNN     ",
"                ",
"                "};
