/* XPM */
static char *image[] = {
"48 48 137 2",
"   c None",
"00 c #565656",
"10 c #818181",
"20 c #5f5f5f",
"30 c #bababa",
"40 c #797979",
"50 c #dbdbdb",
"60 c #5d5d5d",
"70 c #c1c1c1",
"80 c #dddddd",
"90 c #3d3d3d",
":0 c #7a7a7a",
";0 c #cbcbcb",
"A0 c #8f8f8f",
"B0 c #dedede",
"C0 c #4e4e4e",
"D0 c #e0e0e0",
"E0 c #696969",
"F0 c #848484",
"G0 c #b6b6b6",
"H0 c #e1e1e1",
"I0 c #5b5b5b",
"J0 c #484848",
"K0 c #5e5e5e",
"L0 c #4f4f4f",
"M0 c #b5b5b5",
"N0 c #535353",
"O0 c #393939",
"P0 c #d3d3d3",
"Q0 c #adadad",
"R0 c #434343",
"S0 c #858585",
"T0 c #d2d2d2",
"U0 c #868686",
"V0 c #686868",
"W0 c #9c9c9c",
"X0 c #dfdfdf",
"Y0 c #e5e5e5",
"Z0 c #dadada",
"a0 c #8a8a8a",
"b0 c #3b3b3b",
"c0 c #767676",
"d0 c #cacaca",
"e0 c #e7e7e7",
"f0 c #363636",
"g0 c #e2e2e2",
"h0 c #e8e8e8",
"i0 c #e3e3e3",
"j0 c #aaaaaa",
"k0 c #757575",
"l0 c #454545",
"m0 c #474747",
"n0 c #d8d8d8",
"o0 c #cccccc",
"p0 c #808080",
"q0 c #ebebeb",
"r0 c #626262",
"s0 c #e9e9e9",
"t0 c #ececec",
"u0 c #eaeaea",
"v0 c #525252",
"w0 c #7f7f7f",
"x0 c #ededed",
"y0 c #eeeeee",
"z0 c #a0a0a0",
"01 c #8b8b8b",
"11 c #b7b7b7",
"21 c #8d8d8d",
"31 c #f1f1f1",
"41 c #b9b9b9",
"51 c #383838",
"61 c #c3c3c3",
"71 c #f2f2f2",
"81 c #c0c0c0",
"91 c #3a3a3a",
":1 c #949494",
";1 c #c6c6c6",
"A1 c #b3b3b3",
"B1 c #e6e6e6",
"C1 c #7e7e7e",
"D1 c #c8c8c8",
"E1 c #f3f3f3",
"F1 c #a2a2a2",
"G1 c #a8a8a8",
"H1 c #f4f4f4",
"I1 c #c5c5c5",
"J1 c #f5f5f5",
"K1 c #8e8e8e",
"L1 c #d6d6d6",
"M1 c #969696",
"N1 c #373737",
"O1 c #999999",
"P1 c #efefef",
"Q1 c #c9c9c9",
"R1 c #3c3c3c",
"S1 c #bfbfbf",
"T1 c #3e3e3e",
"U1 c #555555",
"V1 c #636363",
"W1 c #4a4a4a",
"X1 c #9d9d9d",
"Y1 c #cecece",
"Z1 c #a3a3a3",
"a1 c #9a9a9a",
"b1 c #cfcfcf",
"c1 c #3f3f3f",
"d1 c #343434",
"e1 c #ababab",
"f1 c #b1b1b1",
"g1 c #929292",
"h1 c #d1d1d1",
"i1 c #404040",
"j1 c #afafaf",
"k1 c #909090",
"l1 c #d9d9d9",
"m1 c #444444",
"n1 c #b0b0b0",
"o1 c #bcbcbc",
"p1 c #4b4b4b",
"q1 c #424242",
"r1 c #9f9f9f",
"s1 c #dcdcdc",
"t1 c #464646",
"u1 c #353535",
"v1 c #898989",
"w1 c #d7d7d7",
"x1 c #e4e4e4",
"y1 c #aeaeae",
"z1 c #414141",
"02 c #303030",
"12 c #2c2c2c",
"22 c #2f2f2f",
"32 c #323232",
"42 c #333333",
"52 c #313131",
"62 c #2e2e2e",
"72 c #2d2d2d",
"                                                                                                ",
"                                            72727272                                            ",
"                                  6252424242424242424242325222                                  ",
"                            12324242424242424242424242424242424252                              ",
"                          32424242424242424242424242424242424242424232                          ",
"                      0242424242424242424242424242424242424242424242424222                      ",
"                    52424242424242424242424242424242424242424242424242424252                    ",
"                  324242424242424242424242424242424242424242424242424242424242                  ",
"                4242424242424242424242424242424242424242424242424242424242424242                ",
"              32424242424242424242424242424242424242424242424242424242424242424242              ",
"            524242424242424242424242424242424242424242424242424242424242424242424252            ",
"          02424242424242424242424242424242z1y1x1w1v1u142424242424242424242424242424222          ",
"          424242424242424242424242424242t1s1r1q1p1o1n1u1424242424242424242424242424242          ",
"        324242424242424242424242424242m1l1k132424232n1j1u1424242424242424242424242424252        ",
"      724242424242424242424242424242i1h1g1324242424242f1e1d14242424242424242424242424242        ",
"      5242424242424242424242424242c1b1a15242424242424242f1Z1424242424242424242424242424232      ",
"      42424242424242424242424242c1Y1X15242W1V142424242U1T1S1r14242424242424242424242424242      ",
"    22424242424242424242424242R1Q1P1u14242n1O14242N142M1L1K1J1a14242424242424242424242424222    ",
"    524242424242424242424242R1I1H1H1G1a1F1E1D1d1C1B1A1;1H1H1H1H1:142424242424242424242424232    ",
"    4242424242424242424242918171717171717171P161717171717171717171k1424242424242424242424242    ",
"    4242424242424242424251413131313131313131313131313131313131313131214242424242424242424242    ",
"    4242424242424242425111P1P1P1P1P1P1P1P1P1P1P1P1P1P1P1P1P1P1P1P1P1P10142424242424242424242    ",
"  12424242424242424242z0y0y0y0y0y0y0y0y0y0y0y0y0y0y0y0y0y0y0y0y0y0y0y0x0w0424242424242424242    ",
"  124242424242424242v0u0t0t0t0t0t0t0t0t0t0t0t0t0t0t0t0t0t0t0t0t0t0t0t0t0s0U1424242424242424272  ",
"  124242424242424242r0q0q0q0q0q0q0q0q0q0q0q0q0q0q0q0q0q0q0q0q0q0q0q0q0q0q0p0424242424242424272  ",
"  62d1d1d1d1d1d1d1d1d1p0o0u0u0u0u0u0u0u0u0u0u0u0u0u0u0u0u0u0u0u0u0u0u0u0n0m0d1d1d1d1d1d1d1d1    ",
"    u1u1u1u1u1u1u1u1u1d152l0k0j0i0h0h0h0h0h0h0h0h0h0h0h0h0h0h0h0h0h0g0r1i1u1u1u1u1u1u1u1u1u1    ",
"    f0f0f0f0f0f0f0f0f0f0f0f0f0z1o1e0e0n1d0e0e0e0e0e0e0e0e0e0e0B1o1c0b0d1f0f0f0f0f0f0f0f0f0f0    ",
"    N1N1N1N1N1N1N1N1N1N1N191a0Z0Y0Y0Y0X0W0V0V1U081Y0Y0Y0Y0T0S0t1d1N1N1N1N1N1N1N1N1N1N1N1N1N1    ",
"    f051515151515151515151R0A1x1x1x1x1x1x1x1T0Q0P0x1x1x1x101N15151515151515151515151515151f0    ",
"    d1O0O0O0O0O0O0O0O0O0O0O0f0N0k1o0g0g0g0g0g0g0g0g0g0g0g0g0M0L0O0K0F1O1J0O0O0O0O0O0O0O0O042    ",
"      91919191919191919191919191O0f0I0j1H0H0H0H0H0H0H0H0H0H0H0r191G0s1l1U09191919191919191      ",
"      O0b0b0b0b0b0b0b0b0b0b0b0b0U1F0E0b0T0D0D0D0D0D0D0D0D0X0G0C0V1z1u1u1O0b0b0b0b0b0b0b091      ",
"      u1R1R1R1R1R1R1R1R1R1R1R1i1L1B0A0a1B0B0B0B0B0B0B0;0:0m051R161Q0R1R1R1R1R1R1R1R1R1R1        ",
"        R19090909090909090909090V1E0T1D180808080808070m190909090T1T1909090909090909090R1        ",
"          T1T1T1T1T1T1T1T1T1T1T1T1T1T19060O150505050P040T1T1T1T1T1T1T1T1T1T1T1T1T1T1T1          ",
"          b0c1c1c1c1c1c1c1c1c1c1c1c1c1c1c190A1Z0Z0Z03020c1c1c1c1c1c1c1c1c1c1c1c1c1c191          ",
"            T1c1c1c1c1c1c1c1c1c1c1c1c1c1c1c1N0a01000R1c1c1c1c1c1c1c1c1c1c1c1c1c1c190            ",
"              i1i1i1i1i1i1i1i1i1i1i1i1i1i1i1i1c1i1i1i1i1i1i1i1i1i1i1i1i1i1i1i1i1c1              ",
"                z1z1z1z1z1z1z1z1z1z1z1z1z1z1z1z1z1z1z1z1z1z1z1z1z1z1z1z1z1z1z1z1                ",
"                  q1q1q1q1q1q1q1q1q1q1q1q1q1q1q1q1q1q1q1q1q1q1q1q1q1q1q1q1q1z1                  ",
"                    z1R0R0R0R0R0R0R0R0R0R0R0R0R0R0R0R0R0R0R0R0R0R0R0R0R0R0q1                    ",
"                      c1m1m1m1m1m1m1m1m1m1m1m1m1m1m1m1m1m1m1m1m1m1m1m1m1c1                      ",
"                          R0l0l0l0l0l0l0l0l0l0l0l0l0l0l0l0l0l0l0l0l0m1                          ",
"                            T1m1t1t1t1t1t1t1t1t1t1t1t1t1t1t1t1t1m1                              ",
"                                  i1m1m0m0m0m0m0m0m0m0m0m0l0i1                                  ",
"                                            i1c1i1i1                                            ",
"                                                                                                "};
