/* XPM */
static char *image[] = {
"16 16 114 2",
"   c None",
"00 c #71400e",
"10 c #6b390d",
"20 c #926119",
"30 c #b68f55",
"40 c #c9ac74",
"50 c #69380c",
"60 c #91642d",
"70 c #c8aa74",
"80 c #faf2ab",
"90 c #5e2b01",
":0 c #855104",
";0 c #976a26",
"A0 c #b69461",
"B0 c #f7eca8",
"C0 c #5e2a02",
"D0 c #7f4c05",
"E0 c #ecc031",
"F0 c #a27b46",
"G0 c #f7eea8",
"H0 c #65340d",
"I0 c #8c5e1f",
"J0 c #c09a52",
"K0 c #fed32a",
"L0 c #a2793d",
"M0 c #f9f0a8",
"N0 c #764921",
"O0 c #6f3b00",
"P0 c #8f5e12",
"Q0 c #996b20",
"R0 c #9d6e1b",
"S0 c #c29948",
"T0 c #f8d026",
"U0 c #a5792c",
"V0 c #fbf2aa",
"W0 c #8c6539",
"X0 c #8b590b",
"Y0 c #f0d878",
"Z0 c #fef4ab",
"a0 c #fff5a8",
"b0 c #feee92",
"c0 c #f6d867",
"d0 c #b98f2e",
"e0 c #faf2a9",
"f0 c #a3814e",
"g0 c #7d4903",
"h0 c #f6e184",
"i0 c #fdf6b2",
"j0 c #fdf09b",
"k0 c #fbe887",
"l0 c #fbe475",
"m0 c #ffe667",
"n0 c #eece55",
"o0 c #b08c4a",
"p0 c #643000",
"q0 c #d5ad39",
"r0 c #faed9d",
"s0 c #fae787",
"t0 c #f7df75",
"u0 c #f6d963",
"v0 c #f8d751",
"w0 c #fcdc44",
"x0 c #ffe339",
"y0 c #d9b752",
"z0 c #602d02",
"01 c #703c01",
"11 c #e4c154",
"21 c #f8e17b",
"31 c #f9db67",
"41 c #f6d454",
"51 c #f6cf43",
"61 c #f5d035",
"71 c #fbd82a",
"81 c #ffe226",
"91 c #eccc50",
":1 c #6c3c10",
";1 c #6f3c04",
"A1 c #e0b94a",
"B1 c #f0ce58",
"C1 c #ab802b",
"D1 c #77460e",
"E1 c #d8ab22",
"F1 c #f8d023",
"G1 c #fbda27",
"H1 c #ffe72e",
"I1 c #edcf57",
"J1 c #6c3c12",
"K1 c #632f01",
"L1 c #ca9c2d",
"M1 c #62300a",
"N1 c #7d4d0f",
"O1 c #fcd92a",
"P1 c #fce032",
"Q1 c #ffea34",
"R1 c #dfc372",
"S1 c #612e06",
"T1 c #77450f",
"U1 c #815218",
"V1 c #63310a",
"W1 c #b89020",
"X1 c #fee233",
"Y1 c #ffe834",
"Z1 c #f8de59",
"a1 c #845933",
"b1 c #82521c",
"c1 c #f6d438",
"d1 c #f9dc44",
"e1 c #efd365",
"f1 c #90683f",
"g1 c #6c3b0d",
"h1 c #8a5e29",
"i1 c #946a35",
"j1 c #8c6236",
"k1 c #71421c",
"                k1j1i1h1g1      ",
"              f1e1d1c1c1c1b1    ",
"            a1Z1Y1X1W1V1U1c1T1  ",
"          S1R1Q1P1O1N1  M1L1c1K1",
"          J1I1H1G1F1E1D1C1B1A1;1",
"          :191817161514131211101",
"          z0y0x0w0v0u0t0s0r0q0p0",
"            o0n0m0l0k0j0i0h0g0  ",
"          f0e0d0c0b0a0Z0Y0X0    ",
"        W0V0U0T0S0R0Q0P0O0      ",
"      N0M0L0K0J0I0              ",
"    H0G0F0E0D0g1                ",
"  C0B0A0;0:0                    ",
"90807060                        ",
"50403020                        ",
"  1000                          "};
