/* XPM */
static char *image[] = {
"48 48 111 2",
"   c None",
"00 c #4c4c4c",
"10 c #262626",
"20 c #272727",
"30 c #292929",
"40 c #393939",
"50 c #343024",
"60 c #77601a",
"70 c #b98f10",
"80 c #78601a",
"90 c #343023",
":0 c #2b2b2b",
";0 c #2d2b26",
"A0 c #8c6e17",
"B0 c #2f2d27",
"C0 c #403923",
"D0 c #d4a20c",
"E0 c #3d3724",
"F0 c #3e3825",
"G0 c #e5ae09",
"H0 c #e6af09",
"I0 c #3e3724",
"J0 c #d09f0d",
"K0 c #d2a10d",
"L0 c #32302a",
"M0 c #303030",
"N0 c #8a6d17",
"O0 c #8e7017",
"P0 c #2e2e2e",
"Q0 c #383428",
"R0 c #f0b608",
"S0 c #f1b708",
"T0 c #3a3628",
"U0 c #414141",
"V0 c #78611c",
"W0 c #9c7d23",
"X0 c #7a621b",
"Y0 c #b98f11",
"Z0 c #c69b17",
"a0 c #ba9010",
"b0 c #dca80b",
"c0 c #716131",
"d0 c #dea90b",
"e0 c #4a473c",
"f0 c #49463c",
"g0 c #48453c",
"h0 c #f4b908",
"i0 c #dda90b",
"j0 c #706031",
"k0 c #e0ab0b",
"l0 c #bb9112",
"m0 c #c59a17",
"n0 c #bc9211",
"o0 c #7d651f",
"p0 c #9b7d24",
"q0 c #3f3f3f",
"r0 c #997c25",
"s0 c #7f671e",
"t0 c #c49917",
"u0 c #6f5f31",
"v0 c #47443c",
"w0 c #6e5e30",
"x0 c #c39918",
"y0 c #f2b708",
"z0 c #91731c",
"01 c #95761b",
"11 c #494949",
"21 c #36342e",
"31 c #d3a20e",
"41 c #d5a30e",
"51 c #453e2b",
"61 c #e7b00a",
"71 c #e8b10a",
"81 c #463f2b",
"91 c #47402a",
":1 c #d7a50e",
";1 c #d3a20f",
"A1 c #443e2b",
"B1 c #93751c",
"C1 c #f2b809",
"D1 c #fec006",
"E1 c #f3b809",
"F1 c #93751b",
"G1 c #36342d",
"H1 c #4d4d4d",
"I1 c #3d3d3d",
"J1 c #3d392c",
"K1 c #7e661f",
"L1 c #bd9313",
"M1 c #f5ba08",
"N1 c #deaa0c",
"O1 c #be9413",
"P1 c #7f671f",
"Q1 c #3e3a2c",
"R1 c #3c3c3c",
"S1 c #4e4e4e",
"T1 c #373737",
"U1 c #484848",
"V1 c #313131",
"W1 c #343434",
"X1 c #383838",
"Y1 c #404040",
"Z1 c #4a4a4a",
"a1 c #2f2f2f",
"b1 c #333333",
"c1 c #464646",
"d1 c #5b5b5b",
"e1 c #4f4f4f",
"f1 c #515151",
"g1 c #5a5a5a",
"h1 c #606060",
"                                                                                                ",
"                                                                                                ",
"                                                                                                ",
"                                                                                                ",
"                  h1h1h1h1h1h1h1h1h1h1h1h1h1h1h1h1h1h1h1h1h1h1h1h1h1h1h1h1h1h1                  ",
"                g1f1e1e1e1e1e1e1e1e1e1e1e1e1e1e1e1e1e1e1e1e1e1e1e1e1e1e1e1e1f1d1                ",
"                f1e1e1e1e1e1e1e1e1e1e1e1e1e1e1e1e1e1e1e1e1e1e1e1e1e1e1e1e1e1e1f1                ",
"                e1e1e1e1e1e1e1e1e1e1e1e1e1e1e1e1e1e1e1e1e1e1e1e1e1e1e1e1e1e1e1e1                ",
"                e1e1e1e1e1c1b1b1c1e1e1e1e1e1e1e1e1e1e1e1e1e1e1c1b1b1c1e1e1e1e1e1                ",
"                e1e1e1e1e1b1a1a1b1e1e1e1e1e1e1e1e1e1e1e1e1e1e1b1a1a1b1e1e1e1e1e1                ",
"                e1e1e1e1e1b1a1a1b1e1e1e1e1e1e1e1e1e1e1e1e1e1e1b1a1a1b1e1e1e1e1e1                ",
"                e1e1e1e1e1c1b1b1c1e1e1e1e1e1e1e1e1e1e1e1e1e1e1c1b1b1c1e1e1e1e1e1                ",
"                e1e1e1e1e1e1e1e1e1e1e1e1e1e1e1e1e1e1e1e1e1e1e1e1e1e1e1e1e1e1e1e1                ",
"                e1e1e1e1e1e1e1e1e1e1e1e1e1e1e1e1e1e1e1e1e1e1e1e1e1e1e1e1e1e1e1e1                ",
"                e1e1e1e1e1e1e1e1e1e1e1e1e1e1e1e1e1e1e1e1e1e1e1e1e1e1e1e1e1e1e1e1                ",
"                e1e1e1e1e1e1e1e1e1e1e1Z1Y1X1W1V1V1W1X1Y1Z1e1e1e1e1e1e1e1e1e1e1e1                ",
"                e1e1e1e1e1e1e1e1e1U1T1a1a1a1a1a1a1a1a1a1a1T1U1e1e1e1e1e1e1e1e1e1                ",
"                e1e1e1e1e1e1e1S1R1a1a1Q1P1O1N1M1M1N1L1K1J1a1a1I1S1e1e1e1e1e1e1e1                ",
"                e1e1e1e1e1e1H1T1a1G1F1E1D1D1D1D1D1D1D1D1C1B1G1a1T1H1e1e1e1e1e1e1                ",
"                e1e1e1e1e1S1T1a1A1;1D1D1D1D1D1D1D1D1D1D1D1D1:191a1T1S1e1e1e1e1e1                ",
"                e1e1e1e1e1R1a18171D1D1D1D1D1D1D1D1D1D1D1D1D1D16151a1I1e1e1e1e1e1                ",
"                e1e1e1e1U1a1G141D1D1D1D1D1D1D1D1D1D1D1D1D1D1D1D13121a111e1e1e1e1                ",
"                e1e1e1e1T1a101D1D1D1D1D1D1D1D1D1D1D1D1D1D1D1D1D1D1z0a1X1e1e1e1e1                ",
"                e1e1e1Z1a1Q1y0D1D1D1D1D1D1x0w0v0v0u0t0D1D1D1D1D1D1C1J1a1Z1e1e1e1                ",
"                e1e1e1Y1a1s0D1D1D1D1D1D1r0q0q0q0q0q0q0p0D1D1D1D1D1D1o0a1Y1e1e1e1                ",
"                e1e1e1X1a1n0D1D1D1D1D1x0q0q0q0q0q0q0q0q0m0D1D1D1D1D1l0a1X1e1e1e1                ",
"                e1e1e1W1a1k0D1D1D1D1D1w0q0q0q0q0q0q0q0q0j0D1D1D1D1D1i0a1W1e1e1e1                ",
"                e1e1e1V1a1h0D1D1D1D1D1g0q0q0q0q0q0q0q0q0f0D1D1D1D1D1h0a1V1e1e1e1                ",
"                e1e1e1V1a1h0D1D1D1D1D1g0q0q0q0q0q0q0q0q0e0D1D1D1D1D1y0a1V1e1e1e1                ",
"                e1e1e1W1a1d0D1D1D1D1D1u0q0q0q0q0q0q0q0q0c0D1D1D1D1D1b0a1W1e1e1e1                ",
"                e1e1e1X1a1a0D1D1D1D1D1t0q0q0q0q0q0q0q0q0Z0D1D1D1D1D1Y0a1X1e1e1e1                ",
"                e1e1e1Y1a1X0D1D1D1D1D1D1p0q0q0q0q0q0q0W0D1D1D1D1D1D1V0a1U0e1e1e1                ",
"                e1e1e1Z1a1T0S0D1D1D1D1D1D1m0j0g0g0c0Z0D1D1D1D1D1D1R0Q0a1Z1e1e1e1                ",
"                e1e1e1e1T1P0O0D1D1D1D1D1D1D1D1D1D1D1D1D1D1D1D1D1D1N0P0X1e1e1e1e1                ",
"                e1e1e1e111M0L0K0D1D1D1D1D1D1D1D1D1D1D1D1D1D1D1D1J0L0a111e1e1e1e1                ",
"                e1e1e1e1e1I1a1I0H0D1D1D1D1D1D1D1D1D1D1D1D1D1D1G0F0a1I1e1e1e1e1e1                ",
"                e1e1e1e1e1S1T1P0E0J0D1D1D1D1D1D1D1D1D1D1D1D1D0C0P0T1S1e1e1e1e1e1                ",
"                e1e1e1e1e1e1H1T1P0B0A0S0D1D1D1D1D1D1D1D1R0N0;0P0T1H1e1e1e1e1e1e1                ",
"                e1e1e1e1e1e1e1S1I1a1:09080a0b0h0h0b0706050:0M0I1S1e1e1e1e1e1e1e1                ",
"                e1e1e1e1e1e1e1e1e11140P0:0302010102030:0P0X111e1e1e1e1e1e1e1e1e1                ",
"                e1e1e1e1e1e1e1e1e1e1e1Z1Y1X1W1V1V1W1X1Y1Z1e1e1e1e1e1e1e1e1e1e1e1                ",
"                e1e1e1e1e1e1e1e1e1e1e1e1e1e1e1e1e1e1e1e1e1e1e1e1e1e1e1e1e1e1e1e1                ",
"                00e1e1e1e1e1e1e1e1e1e1e1e1e1e1e1e1e1e1e1e1e1e1e1e1e1e1e1e1e1e100                ",
"                  00e1e1e1e1e1e1e1e1e1e1e1e1e1e1e1e1e1e1e1e1e1e1e1e1e1e1e1e100                  ",
"                                                                                                ",
"                                                                                                ",
"                                                                                                ",
"                                                                                                "};
