/* XPM */
static char *image[] = {
"48 48 40 1",
"  c None",
"0 c #8a8a8a",
"1 c #727272",
"2 c #787878",
"3 c #cfcfcf",
"4 c #d5d5d5",
"5 c #ececec",
"6 c #d6d6d6",
"7 c #8d8d8d",
"8 c #8c8c8c",
"9 c #8e8e8e",
": c #fbcf5b",
"; c #ffcd54",
"A c #ffcd55",
"B c #fccf5b",
"C c #c3cf5b",
"D c #ffd265",
"E c #fcd264",
"F c #c4cf5b",
"G c #7cca4f",
"H c #7ccb50",
"I c #82d554",
"J c #8cdf63",
"K c #89e058",
"L c #89e059",
"M c #8ddf62",
"N c #72b996",
"O c #95e368",
"P c #93e16a",
"Q c #73ba95",
"R c #4a85cc",
"S c #4a86cd",
"T c #4e8cd6",
"U c #5a99e4",
"V c #5294e2",
"W c #5394e2",
"X c #5a9ae3",
"Y c #639ee5",
"Z c #629ee4",
"a c #629ee6",
"                                                ",
"                                                ",
"                                                ",
"                                                ",
"      aZYYYYYYYYYYYYYYYYYYYYYYYYYYYYYYYYZY      ",
"      XWVVVVVVVVVVVVVVVVVVVVVVVVVVVVVVVVWU      ",
"      WVVVVVVVVVVVVVVVVVVVVVVVVVVVVVVVVVVW      ",
"      TSRRRRRRRRRRRRRRRRRRRRRRRRRRRRRRRRST      ",
"      QPOOOOOOOOOOOOOOOOOOOOOOOOOOOOOOOOPN      ",
"      MLKKKKKKKKKKKKKKKKKKKKKKKKKKKKKKKKLJ      ",
"      LKKKKKKKKKKKKKKKKKKKKKKKKKKKKKKKKKKL      ",
"      IHGGGGGGGGGGGGGGGGGGGGGGGGGGGGGGGGHI      ",
"      FEDDDDDDDDDDDDDDDDDDDDDDDDDDDDDDDDEC      ",
"      BA;;;;;;;;;;;;;;;;;;;;;;;;;;;;;;;;A:      ",
"      A;;;;;;;;;;;;;;;;;;;;;;;;;;;;;;;;;;A      ",
"      ;;;;;;;;;;;;;;;;;;;;;;;;;;;;;;;;;;;;      ",
"     99999999999999999999999999999999999999     ",
"    8999999999999999999999999999999999999997    ",
"    9999999999999999999999999999999999999999    ",
"    9999999999999999999999999999999999999999    ",
"    9999999999999999999999999999999999999999    ",
"    9999999999999999999999999999999999999999    ",
"    9999999999999999999999999999999999999999    ",
"    9999999999999999999999999999999999999999    ",
"    9999999999999999999999999999999999999999    ",
"    9999999999999999999999999999999999999999    ",
"    9999999999999999999999999999999999999999    ",
"    9999999999999655555555555549999999999999    ",
"    9999999999999555555555555559999999999999    ",
"    9999999999999555555555555559999999999999    ",
"    9999999999999355555555555539999999999999    ",
"    9999999999999211111111111129999999999999    ",
"    9999999999999999999999999999999999999999    ",
"    9999999999999999999999999999999999999999    ",
"    9999999999999999999999999999999999999999    ",
"    9999999999999999999999999999999999999999    ",
"    9999999999999999999999999999999999999999    ",
"    9999999999999999999999999999999999999999    ",
"    9999999999999999999999999999999999999999    ",
"    9999999999999999999999999999999999999999    ",
"    9999999999999999999999999999999999999999    ",
"    9999999999999999999999999999999999999999    ",
"    0999999999999999999999999999999999999990    ",
"     09999999999999999999999999999999999990     ",
"                                                ",
"                                                ",
"                                                ",
"                                                "};
