/* XPM */
static char *image[] = {
"64 64 62 1",
"  c None",
"0 c #797979",
"1 c #7a7a7a",
"2 c #7b7b7b",
"3 c #8b8b8b",
"4 c #727272",
"5 c #757575",
"6 c #868686",
"7 c #979797",
"8 c #989898",
"9 c #dedede",
": c #dfdfdf",
"; c #e0e0e0",
"A c #e1e1e1",
"B c #ececec",
"C c #e2e2e2",
"D c #a9a9a9",
"E c #8c8c8c",
"F c #8f8f8f",
"G c #8e8e8e",
"H c #8d8d8d",
"I c #fcce58",
"J c #ded05d",
"K c #ffcd54",
"L c #ffcd55",
"M c #ffce59",
"N c #dfcf5d",
"O c #8fd154",
"P c #ded05f",
"Q c #ffd265",
"R c #fcd264",
"S c #dfd05f",
"T c #90d154",
"U c #7cca4f",
"V c #7ccb50",
"W c #7fd052",
"X c #87dd57",
"Y c #8bdf5f",
"Z c #82cb7e",
"a c #89e058",
"b c #89e059",
"c c #8ce15d",
"d c #82cb7d",
"e c #5a95bf",
"f c #82cc80",
"g c #95e368",
"h c #93e16a",
"i c #83cc7f",
"j c #5b95bf",
"k c #4f86c6",
"l c #5087c7",
"m c #528acc",
"n c #5793d9",
"o c #5c98dd",
"p c #659edf",
"q c #5895dc",
"r c #5995dc",
"s c #5d98dd",
"t c #659ede",
"u c #689fdf",
"v c #689edf",
"w c #679fdf",
"                                                                ",
"                                                                ",
"                                                                ",
"         wvuuuuuuuuuuuuuuuuuuuuuuuuuuuuuuuuuuuuuuuuuuvv         ",
"        tsrqqqqqqqqqqqqqqqqqqqqqqqqqqqqqqqqqqqqqqqqqqrsp        ",
"        oqqqqqqqqqqqqqqqqqqqqqqqqqqqqqqqqqqqqqqqqqqqqqqo        ",
"        rqqqqqqqqqqqqqqqqqqqqqqqqqqqqqqqqqqqqqqqqqqqqqqr        ",
"        qqqqqqqqqqqqqqqqqqqqqqqqqqqqqqqqqqqqqqqqqqqqqqqq        ",
"        nmlkkkkkkkkkkkkkkkkkkkkkkkkkkkkkkkkkkkkkkkkkklmn        ",
"        jihgggggggggggggggggggggggggggggggggggggggggghfe        ",
"        dcbaaaaaaaaaaaaaaaaaaaaaaaaaaaaaaaaaaaaaaaaaabcZ        ",
"        YaaaaaaaaaaaaaaaaaaaaaaaaaaaaaaaaaaaaaaaaaaaaaaY        ",
"        baaaaaaaaaaaaaaaaaaaaaaaaaaaaaaaaaaaaaaaaaaaaaab        ",
"        aaaaaaaaaaaaaaaaaaaaaaaaaaaaaaaaaaaaaaaaaaaaaaaa        ",
"        XWVUUUUUUUUUUUUUUUUUUUUUUUUUUUUUUUUUUUUUUUUUUVWX        ",
"        TSRQQQQQQQQQQQQQQQQQQQQQQQQQQQQQQQQQQQQQQQQQQRPO        ",
"        NMLKKKKKKKKKKKKKKKKKKKKKKKKKKKKKKKKKKKKKKKKKKLMJ        ",
"        IKKKKKKKKKKKKKKKKKKKKKKKKKKKKKKKKKKKKKKKKKKKKKKI        ",
"        LKKKKKKKKKKKKKKKKKKKKKKKKKKKKKKKKKKKKKKKKKKKKKKL        ",
"        KKKKKKKKKKKKKKKKKKKKKKKKKKKKKKKKKKKKKKKKKKKKKKKK        ",
"        KKKKKKKKKKKKKKKKKKKKKKKKKKKKKKKKKKKKKKKKKKKKKKKK        ",
"     HGGGGGGGGGGGGGGGGGGGGGGGGGGGGGGGGGGGGGGGGGGGGGGGGGGGFF     ",
"    FGGGGGGGGGGGGGGGGGGGGGGGGGGGGGGGGGGGGGGGGGGGGGGGGGGGGGGF    ",
"    EGGGGGGGGGGGGGGGGGGGGGGGGGGGGGGGGGGGGGGGGGGGGGGGGGGGGGGH    ",
"    GGGGGGGGGGGGGGGGGGGGGGGGGGGGGGGGGGGGGGGGGGGGGGGGGGGGGGGG    ",
"    GGGGGGGGGGGGGGGGGGGGGGGGGGGGGGGGGGGGGGGGGGGGGGGGGGGGGGGG    ",
"    GGGGGGGGGGGGGGGGGGGGGGGGGGGGGGGGGGGGGGGGGGGGGGGGGGGGGGGG    ",
"    GGGGGGGGGGGGGGGGGGGGGGGGGGGGGGGGGGGGGGGGGGGGGGGGGGGGGGGG    ",
"    GGGGGGGGGGGGGGGGGGGGGGGGGGGGGGGGGGGGGGGGGGGGGGGGGGGGGGGG    ",
"    GGGGGGGGGGGGGGGGGGGGGGGGGGGGGGGGGGGGGGGGGGGGGGGGGGGGGGGG    ",
"    GGGGGGGGGGGGGGGGGGGGGGGGGGGGGGGGGGGGGGGGGGGGGGGGGGGGGGGG    ",
"    GGGGGGGGGGGGGGGGGGGGGGGGGGGGGGGGGGGGGGGGGGGGGGGGGGGGGGGG    ",
"    GGGGGGGGGGGGGGGGGGGGGGGGGGGGGGGGGGGGGGGGGGGGGGGGGGGGGGGG    ",
"    GGGGGGGGGGGGGGGGGGGGGGGGGGGGGGGGGGGGGGGGGGGGGGGGGGGGGGGG    ",
"    GGGGGGGGGGGGGGGGGGGGGGGGGGGGGGGGGGGGGGGGGGGGGGGGGGGGGGGG    ",
"    GGGGGGGGGGGGGGGGGGGGGGGGGGGGGGGGGGGGGGGGGGGGGGGGGGGGGGGG    ",
"    GGGGGGGGGGGGGGGGGGGGGGGGGGGGGGGGGGGGGGGGGGGGGGGGGGGGGGGG    ",
"    GGGGGGGGGGGGGGGGGGDCBBBBBBBBBBBBBBBBCDGGGGGGGGGGGGGGGGGG    ",
"    GGGGGGGGGGGGGGGGGGABBBBBBBBBBBBBBBBBB;GGGGGGGGGGGGGGGGGG    ",
"    GGGGGGGGGGGGGGGGGGBBBBBBBBBBBBBBBBBBBBGGGGGGGGGGGGGGGGGG    ",
"    GGGGGGGGGGGGGGGGGGBBBBBBBBBBBBBBBBBBBBGGGGGGGGGGGGGGGGGG    ",
"    GGGGGGGGGGGGGGGGGG:BBBBBBBBBBBBBBBBBB9GGGGGGGGGGGGGGGGGG    ",
"    GGGGGGGGGGGGGGGGGG8:BBBBBBBBBBBBBBBB97GGGGGGGGGGGGGGGGGG    ",
"    GGGGGGGGGGGGGGGGGG65444444444444444456GGGGGGGGGGGGGGGGGG    ",
"    GGGGGGGGGGGGGGGGGGGGGGGGGGGGGGGGGGGGGGGGGGGGGGGGGGGGGGGG    ",
"    GGGGGGGGGGGGGGGGGGGGGGGGGGGGGGGGGGGGGGGGGGGGGGGGGGGGGGGG    ",
"    GGGGGGGGGGGGGGGGGGGGGGGGGGGGGGGGGGGGGGGGGGGGGGGGGGGGGGGG    ",
"    GGGGGGGGGGGGGGGGGGGGGGGGGGGGGGGGGGGGGGGGGGGGGGGGGGGGGGGG    ",
"    GGGGGGGGGGGGGGGGGGGGGGGGGGGGGGGGGGGGGGGGGGGGGGGGGGGGGGGG    ",
"    GGGGGGGGGGGGGGGGGGGGGGGGGGGGGGGGGGGGGGGGGGGGGGGGGGGGGGGG    ",
"    GGGGGGGGGGGGGGGGGGGGGGGGGGGGGGGGGGGGGGGGGGGGGGGGGGGGGGGG    ",
"    GGGGGGGGGGGGGGGGGGGGGGGGGGGGGGGGGGGGGGGGGGGGGGGGGGGGGGGG    ",
"    GGGGGGGGGGGGGGGGGGGGGGGGGGGGGGGGGGGGGGGGGGGGGGGGGGGGGGGG    ",
"    GGGGGGGGGGGGGGGGGGGGGGGGGGGGGGGGGGGGGGGGGGGGGGGGGGGGGGGG    ",
"    GGGGGGGGGGGGGGGGGGGGGGGGGGGGGGGGGGGGGGGGGGGGGGGGGGGGGGGG    ",
"    GGGGGGGGGGGGGGGGGGGGGGGGGGGGGGGGGGGGGGGGGGGGGGGGGGGGGGGG    ",
"    GGGGGGGGGGGGGGGGGGGGGGGGGGGGGGGGGGGGGGGGGGGGGGGGGGGGGGGG    ",
"    GGGGGGGGGGGGGGGGGGGGGGGGGGGGGGGGGGGGGGGGGGGGGGGGGGGGGGGG    ",
"    3GGGGGGGGGGGGGGGGGGGGGGGGGGGGGGGGGGGGGGGGGGGGGGGGGGGGGG3    ",
"    2GGGGGGGGGGGGGGGGGGGGGGGGGGGGGGGGGGGGGGGGGGGGGGGGGGGGGG1    ",
"     03GGGGGGGGGGGGGGGGGGGGGGGGGGGGGGGGGGGGGGGGGGGGGGGGGG30     ",
"                                                                ",
"                                                                ",
"                                                                "};
