/* XPM */
static char *image[] = {
"48 48 28 1",
"  c None",
"0 c #4e4e4e",
"1 c #3f3f3f",
"2 c #a3a3a3",
"3 c #fcfcfc",
"4 c #a6a6a6",
"5 c #ababab",
"6 c #545454",
"7 c #5e5e5e",
"8 c #474747",
"9 c #404040",
": c #5c5c5c",
"; c #f6f6f6",
"A c #b4b4b4",
"B c #a4a4a4",
"C c #f8f8f8",
"D c #fbfbfb",
"E c #adadad",
"F c #ffffff",
"G c #737373",
"H c #6b6b6b",
"I c #696969",
"J c #4f4f4f",
"K c #515151",
"L c #5a5a5a",
"M c #777777",
"N c #787878",
"O c #606060",
"                                                ",
"                                                ",
"                                                ",
"                                                ",
"                                                ",
"                                                ",
"     OOOOOOOOOOOOOOOOOOONNNNNNNNNNNNNNNNNNM     ",
"    LKJJJJJJJJJJJJJJJJJJIIIIIIIIIIIIIIIIIIHG    ",
"    KJJJJJJJJJJJJJJJJJJJIIIIIIIIIIIIIIIIIIIH    ",
"    JJJJJJJJJJJJJJJJJJJJIIIIIIIIIIIIIIIIIIII    ",
"    JJJJJFJJJJJJJJJJJJJJIIIIFIIFIIIIIIIIIIII    ",
"    JJJEDFCBJJJJJJJJJJJJIIAFFFFFFAIIIIIIIIII    ",
"    JJJ;:F98JJJJJJJJJJJJII76F66F67IIIIIIIIII    ",
"    JJJBDFD5JJJJJJJJJJJJIIIIFIIFIIIIIIIIIIII    ",
"    JJJ89F:;JJJJJJJJJJJJIIIIFIIFIIIIIIIIIIII    ",
"    JJJ43FD2JJJJJJJJJJJJIIAFFFFFFAIIIIIIIIII    ",
"    JJJ89F98JJFFFFFFJJJJII76F66F67IFFFFFFIII    ",
"    JJJJJ1JJJJ111111JJJJIIII6II6III666666III    ",
"    JJJJJJJJJJJJJJJJJJJJIIIIIIIIIIIIIIIIIIII    ",
"    JJJJJJJJJJJJJJJJJJJJIIIIIIIIIIIIIIIIIIII    ",
"    JJJJJJJJJJJJJJJJJJJJIIIIIIIIIIIIIIIIIIII    ",
"    JJJJJJJJJJJJJJJJJJJJIIIIIIIIIIIIIIIIIIII    ",
"    JJJJJJJJJJJJJJJJJJJJIIIIIIIIIIIIIIIIIIII    ",
"    JJJJJJJJJJJJJJJJJJJJIIIIIIIIIIIIIIIIIIII    ",
"    JJJJJJJJJJJJJJJJJJJJIIIIIIIIIIIIIIIIIIII    ",
"    JJJJJJJJJJJJJJJJJJJJIIIIIIIIIIIIIIIIIIII    ",
"    JJJJJJJJJJJJJJJJJJJJIIIIIIIIIIIIIIIIIIII    ",
"    JJJJJJJJJJJJJJJJJJJJIIIIIIIIIIIIIIIIIIII    ",
"    JJJJJJJJJJJJJJJJJJJJIIIIIIIIIIIIIIIIIIII    ",
"    JJJJJJJJJJJJJJJJJJJJIIIIIIIIIIIIIIIIIIII    ",
"    JJJJJJJJJJJJJJJJJJJJIIIIIIIIIIIIIIIIIIII    ",
"    JJJJJJJJJJJJJJJJJJJJIIIIIIIIIIIIIIIIIIII    ",
"    JJJJJJJJJJJJJJJJJJJJIIIIIIIIIIIIIIIIIIII    ",
"    JJJJJJJJJJJJJJJJJJJJIIIIIIIIIIIIIIIIIIII    ",
"    JJJJJJJJJJJJJJJJJJJJIIIIIIIIIIIIIIIIIIII    ",
"    JJJJJJJJJJJJJJJJJJJJIIIIIIIIIIIIIIIIIIII    ",
"    JJJJJJJJJJJJJJJJJJJJIIIIIIIIIIIIIIIIIIII    ",
"    JJJJJJJJJJJJJJJJJJJJIIIIIIIIIIIIIIIIIIII    ",
"    JJJJJJJJJJJJJJJJJJJJIIIIIIIIIIIIIIIIIIII    ",
"    JJJJJJJJJJJJJJJJJJJJIIIIIIIIIIIIIIIIIIII    ",
"    0JJJJJJJJJJJJJJJJJJJIIIIIIIIIIIIIIIIIIII    ",
"     0JJJJJJJJJJJJJJJJJJIIIIIIIIIIIIIIIIIII     ",
"                                                ",
"                                                ",
"                                                ",
"                                                ",
"                                                ",
"                                                "};
