/* XPM */
static char * wmshutdown_xpm[] = {
"48 48 501 2",
"  	c #AD9E97",
". 	c #AC9D96",
"+ 	c #AB9C95",
"@ 	c #AA9B94",
"# 	c #A99B94",
"$ 	c #A99A93",
"% 	c #A89A93",
"& 	c #AA9B95",
"* 	c #A89992",
"= 	c #A79992",
"- 	c #A69891",
"; 	c #A59790",
"> 	c #A59690",
", 	c #A08F89",
"' 	c #D78280",
") 	c #FF9090",
"! 	c #FF9494",
"~ 	c #D6817F",
"{ 	c #9F8F89",
"] 	c #A79891",
"^ 	c #A3958E",
"/ 	c #D58180",
"( 	c #FF8484",
"_ 	c #FF7070",
": 	c #EE6363",
"< 	c #D45D5C",
"[ 	c #D55D5C",
"} 	c #ED6363",
"| 	c #D48280",
"1 	c #A3958F",
"2 	c #9E918A",
"3 	c #FF8D8D",
"4 	c #FF6363",
"5 	c #9B4846",
"6 	c #4E4542",
"7 	c #524945",
"8 	c #514845",
"9 	c #994846",
"0 	c #A89993",
"a 	c #A1938C",
"b 	c #9A8D86",
"c 	c #FF8686",
"d 	c #EE5858",
"e 	c #5E5652",
"f 	c #625955",
"g 	c #5F5652",
"h 	c #EC5656",
"i 	c #9F918B",
"j 	c #988A84",
"k 	c #D5504F",
"l 	c #615854",
"m 	c #645A56",
"n 	c #635A56",
"o 	c #D34E4E",
"p 	c #978983",
"q 	c #FF8383",
"r 	c #D64F4E",
"s 	c #D44E4D",
"t 	c #9E908A",
"u 	c #968983",
"v 	c #D64C4C",
"w 	c #514844",
"x 	c #D44C4B",
"y 	c #968882",
"z 	c #FF8282",
"A 	c #D64B4B",
"B 	c #D44B4A",
"C 	c #958882",
"D 	c #FF8181",
"E 	c #D64B4A",
"F 	c #645B57",
"G 	c #D44A49",
"H 	c #A69791",
"I 	c #9D8F89",
"J 	c #948781",
"K 	c #FF7E7E",
"L 	c #D64A49",
"M 	c #625954",
"N 	c #605450",
"O 	c #9F5C5A",
"P 	c #E67575",
"Q 	c #FD7F7F",
"R 	c #FF8483",
"S 	c #9E5D5A",
"T 	c #D44848",
"U 	c #FF7D7D",
"V 	c #D64948",
"W 	c #715552",
"X 	c #BD6463",
"Y 	c #FF7675",
"Z 	c #FF7270",
"` 	c #FF6A68",
" .	c #FF6867",
"..	c #FF6A69",
"+.	c #FF7271",
"@.	c #BC6463",
"#.	c #D44747",
"$.	c #FF7C7C",
"%.	c #D64847",
"&.	c #935A58",
"*.	c #F76D6A",
"=.	c #FF6865",
"-.	c #FF6563",
";.	c #FF6562",
">.	c #FF6663",
",.	c #FC6360",
"'.	c #EB5653",
").	c #FD6461",
"!.	c #FF6866",
"~.	c #F56D6B",
"{.	c #895755",
"].	c #D44646",
"^.	c #938680",
"/.	c #FF7979",
"(.	c #D64646",
"_.	c #945653",
":.	c #FF706C",
"<.	c #FF625E",
"[.	c #FF635F",
"}.	c #FF7976",
"|.	c #FEF1F0",
"1.	c #FEF0EF",
"2.	c #FF726F",
"3.	c #FF706D",
"4.	c #915653",
"5.	c #D44544",
"6.	c #9C8F88",
"7.	c #FF7676",
"8.	c #D64545",
"9.	c #915755",
"0.	c #FF6B66",
"a.	c #FF5E59",
"b.	c #FF5F5A",
"c.	c #FC5853",
"d.	c #FE7671",
"e.	c #FFF5F4",
"f.	c #FFF3F2",
"g.	c #FD6D69",
"h.	c #FB5853",
"i.	c #FF6A66",
"j.	c #875452",
"k.	c #D44443",
"l.	c #9C8E88",
"m.	c #FF7474",
"n.	c #D64444",
"o.	c #6C514E",
"p.	c #F4605B",
"q.	c #FF5B55",
"r.	c #FF5C56",
"s.	c #FF5953",
"t.	c #EB554F",
"u.	c #EF9693",
"v.	c #FE817D",
"w.	c #FFF3F3",
"x.	c #FFF1F1",
"y.	c #FE7F7B",
"z.	c #F09A96",
"A.	c #EB554E",
"B.	c #F3605A",
"C.	c #6A514D",
"D.	c #D44342",
"E.	c #92857F",
"F.	c #D64342",
"G.	c #BA5652",
"H.	c #FF5A53",
"I.	c #FF5951",
"J.	c #FD5750",
"K.	c #EE7A75",
"L.	c #FCF4F3",
"M.	c #FFF7F6",
"N.	c #FF837D",
"O.	c #FFF1F0",
"P.	c #FF837E",
"Q.	c #FFF9F8",
"R.	c #FCF4F4",
"S.	c #EE7B75",
"T.	c #FD5850",
"U.	c #AD534F",
"V.	c #605753",
"W.	c #D44040",
"X.	c #91857F",
"Y.	c #FF6E6E",
"Z.	c #D64241",
"`.	c #5D504D",
" +	c #FB5C54",
".+	c #FF554C",
"++	c #FF554D",
"@+	c #FF534A",
"#+	c #F17974",
"$+	c #FCF6F6",
"%+	c #FFFFFF",
"&+	c #FFC7C5",
"*+	c #FF7972",
"=+	c #FF766F",
"-+	c #FFC8C6",
";+	c #F27A74",
">+	c #FB5B54",
",+	c #5D504C",
"'+	c #91847E",
")+	c #FF6B6B",
"!+	c #D64140",
"~+	c #914C48",
"{+	c #FF544B",
"]+	c #FF5149",
"^+	c #FF5148",
"/+	c #F5514A",
"(+	c #FFAAA7",
"_+	c #FF5B54",
":+	c #FF6B64",
"<+	c #FF635B",
"[+	c #FF5C54",
"}+	c #FFACA9",
"|+	c #F65249",
"1+	c #8F4D48",
"2+	c #D43F3F",
"3+	c #9B8E87",
"4+	c #90837D",
"5+	c #FF6767",
"6+	c #D63F3F",
"7+	c #CB4D46",
"8+	c #FF4F44",
"9+	c #FF4F43",
"0+	c #FF483C",
"a+	c #F6A59F",
"b+	c #FFCBC9",
"c+	c #FF564C",
"d+	c #FF4D42",
"e+	c #FF685E",
"f+	c #FFE7E6",
"g+	c #FFE6E4",
"h+	c #FF6056",
"i+	c #FF574D",
"j+	c #F6A49F",
"k+	c #C94C45",
"l+	c #D43E3D",
"m+	c #9B8D87",
"n+	c #FF6464",
"o+	c #D63E3E",
"p+	c #F14C42",
"q+	c #FF4B40",
"r+	c #FF4B3F",
"s+	c #FD463B",
"t+	c #FDE5E3",
"u+	c #FFFBFB",
"v+	c #FF8D87",
"w+	c #FF4A3E",
"x+	c #FF5247",
"y+	c #FF6961",
"z+	c #FF6860",
"A+	c #FF5045",
"B+	c #FF4A3F",
"C+	c #FF8D86",
"D+	c #FDE4E3",
"E+	c #FD463A",
"F+	c #F04D43",
"G+	c #5E5551",
"H+	c #D43D3C",
"I+	c #8F837D",
"J+	c #FF5F5F",
"K+	c #D63E3D",
"L+	c #5D5551",
"M+	c #FF473A",
"N+	c #FF473B",
"O+	c #FE5448",
"P+	c #FFEFEE",
"Q+	c #FFF4F4",
"R+	c #FF6C62",
"S+	c #FF463A",
"T+	c #FF685F",
"U+	c #FFEFED",
"V+	c #FE5347",
"W+	c #FF4B3D",
"X+	c #D43C3B",
"Y+	c #8F827C",
"Z+	c #FF5B5B",
"`+	c #D63C3B",
" @	c #FF4638",
".@	c #FF4536",
"+@	c #FF4436",
"@@	c #FF5346",
"#@	c #FEF3F2",
"$@	c #FD6458",
"%@	c #FF4435",
"&@	c #FC6559",
"*@	c #D43A3A",
"=@	c #8E827C",
"-@	c #FF5757",
";@	c #D63B3A",
">@	c #EC3E2F",
",@	c #FF4232",
"'@	c #FF4131",
")@	c #FEF9F9",
"!@	c #F97B70",
"~@	c #FF3F2F",
"{@	c #F97B71",
"]@	c #FEFAF9",
"^@	c #FFE4E2",
"/@	c #EA3D2F",
"(@	c #D43A39",
"_@	c #9A8C86",
":@	c #8E817C",
"<@	c #FF5353",
"[@	c #D63A3A",
"}@	c #BB3A30",
"|@	c #FF3F2E",
"1@	c #FF3D2E",
"2@	c #FF3626",
"3@	c #FFA6A1",
"4@	c #F5B6B1",
"5@	c #FD4030",
"6@	c #FF3E2E",
"7@	c #FD4031",
"8@	c #F5B7B2",
"9@	c #FFA6A0",
"0@	c #B9382F",
"a@	c #D43938",
"b@	c #8D817B",
"c@	c #FF4D4D",
"d@	c #D63938",
"e@	c #783D38",
"f@	c #FF3D2A",
"g@	c #FF3B28",
"h@	c #FF3826",
"i@	c #FF5144",
"j@	c #FFFAFA",
"k@	c #EC7B70",
"l@	c #FA3B2A",
"m@	c #FE3826",
"n@	c #FF3A28",
"o@	c #EC7C71",
"p@	c #FFF9F9",
"q@	c #FF5142",
"r@	c #FF3C2A",
"s@	c #773E39",
"t@	c #D43837",
"u@	c #A4968F",
"v@	c #8D807B",
"w@	c #FF4848",
"x@	c #574B47",
"y@	c #F03423",
"z@	c #FF3725",
"A@	c #FF3320",
"B@	c #FF7E75",
"C@	c #F1AFA9",
"D@	c #F16B5E",
"E@	c #F04C3D",
"F@	c #F1B0AA",
"G@	c #FF7E74",
"H@	c #FF3220",
"I@	c #EF3423",
"J@	c #998C86",
"K@	c #8C807A",
"L@	c #FF4343",
"M@	c #D63837",
"N@	c #5B524E",
"O@	c #A3362E",
"P@	c #FF3420",
"Q@	c #FF331F",
"R@	c #FF3926",
"S@	c #FF8179",
"T@	c #FFFCFB",
"U@	c #FDF7F6",
"V@	c #FCEFEE",
"W@	c #FF8077",
"X@	c #A1362E",
"Y@	c #D43736",
"Z@	c #FF3D3D",
"`@	c #D63635",
" #	c #605853",
".#	c #5A4542",
"+#	c #E8301F",
"@#	c #FF311C",
"##	c #FF301B",
"$#	c #FF321D",
"%#	c #FF5C4F",
"&#	c #FFABA5",
"*#	c #FFECEB",
"=#	c #FFAAA5",
"-#	c #E8301E",
";#	c #594642",
">#	c #D43535",
",#	c #998B85",
"'#	c #8B7F79",
")#	c #FF3838",
"!#	c #693C37",
"~#	c #FB2C17",
"{#	c #FF2D17",
"]#	c #FF2912",
"^#	c #FF3522",
"/#	c #FF4534",
"(#	c #FF5040",
"_#	c #FD2D17",
":#	c #6A3C37",
"<#	c #D43534",
"[#	c #FF3535",
"}#	c #5A524E",
"|#	c #6F3934",
"1#	c #F92912",
"2#	c #FF2A13",
"3#	c #FF2911",
"4#	c #6D3833",
"5#	c #D43433",
"6#	c #988B85",
"7#	c #8A7E78",
"8#	c #FF3232",
"9#	c #D63433",
"0#	c #59514D",
"a#	c #653B36",
"b#	c #E32715",
"c#	c #FF260E",
"d#	c #FF270E",
"e#	c #673A36",
"f#	c #58504C",
"g#	c #D43231",
"h#	c #D63332",
"i#	c #5B534F",
"j#	c #56433F",
"k#	c #943029",
"l#	c #E9220D",
"m#	c #FF230A",
"n#	c #FF240A",
"o#	c #FF2309",
"p#	c #992E27",
"q#	c #5C534F",
"r#	c #514744",
"s#	c #D43130",
"t#	c #897D77",
"u#	c #D63231",
"v#	c #574F4B",
"w#	c #504441",
"x#	c #71342F",
"y#	c #AE271E",
"z#	c #D91F0D",
"A#	c #EF1D06",
"B#	c #AD271E",
"C#	c #514541",
"D#	c #D4302F",
"E#	c #978A84",
"F#	c #FF3131",
"G#	c #D6302F",
"H#	c #534B48",
"I#	c #524B47",
"J#	c #D42E2E",
"K#	c #D42E2D",
"L#	c #887C76",
"M#	c #D62E2D",
"N#	c #D42D2C",
"O#	c #877B76",
"P#	c #FF3030",
"Q#	c #D62D2C",
"R#	c #D42C2B",
"S#	c #877B75",
"T#	c #D52C2B",
"U#	c #524845",
"V#	c #D32A29",
"W#	c #EE2726",
"X#	c #4E4441",
"Y#	c #ED2726",
"Z#	c #FB3131",
"`#	c #FF2323",
" $	c #9C3431",
".$	c #9B3331",
"+$	c #F93131",
"@$	c #AC5451",
"#$	c #FF2828",
"$$	c #EE2928",
"%$	c #D52E2D",
"&$	c #D52F2E",
"*$	c #D5302F",
"=$	c #D53130",
"-$	c #D53231",
";$	c #D53332",
">$	c #D53433",
",$	c #D53534",
"'$	c #A55652",
")$	c #A0928B",
"!$	c #827671",
"~$	c #FC3C3C",
"{$	c #FF4444",
"]$	c #FF4A4A",
"^$	c #FF4F4F",
"/$	c #FF5555",
"($	c #FF5959",
"_$	c #FF6969",
":$	c #FF6F6F",
"<$	c #FF7373",
"[$	c #FF8989",
"}$	c #FF8E8E",
"|$	c #FF9393",
"1$	c #FF9898",
"2$	c #FF9D9D",
"3$	c #A55551",
"4$	c #837671",
"5$	c #A0928C",
"6$	c #857A74",
"7$	c #7D726D",
"8$	c #786D68",
"9$	c #776D68",
"0$	c #776C67",
"a$	c #8A7D78",
"b$	c #AB9D96",
"          . . . . . . . . . . . . . . . . . . . . . . . . . . . . . . . . . . . . . .           ",
"    . + @ # $ % % % % % % % % % % % % % % % % % % % % % % % % % % % % % % % % % % $ # & + .     ",
"  . @ * = - ; > > > > > > > > > > > > > > > > > > > > > > > > > > > > > > > > > > ; - = * @ .   ",
". @ - , ' ) ! ! ! ! ! ! ! ! ! ! ! ! ! ! ! ! ! ! ! ! ! ! ! ! ! ! ! ! ! ! ! ! ! ! ! ! ) ~ { - @ . ",
"+ ] ^ / ( _ : < [ [ [ [ [ [ [ [ [ [ [ [ [ [ [ [ [ [ [ [ [ [ [ [ [ [ [ [ [ [ [ [ < } _ ( | ^ ] + ",
"$ 1 2 3 4 5 6 7 8 8 8 8 8 8 8 8 8 8 8 8 8 8 8 8 8 8 8 8 8 8 8 8 8 8 8 8 8 8 8 8 7 6 9 4 3 2 1 $ ",
"0 a b c d 6 e f f f f f f f f f f f f f f f f f f f f f f f f f f f f f f f f f f g 6 h c b a 0 ",
"= i j ( k 7 l m n n n n n n n n n n n n n n n n n n n n n n n n n n n n n n n n n f 7 o ( j i = ",
"- 2 p q r 8 l n n n n n n n n n n n n n n n n n n n n n n n n n n n n n n n n n n f 8 s q p 2 - ",
"- t u q v 8 l n n n n n n n n n n n n n n n n n n n n n n n n n n n n n n n n n n f w x q u t - ",
"- t y z A 8 l n n n n n n n n n n n n n n n n n n n n n n n n n n n n n n n n n n f w B z y t - ",
"- t C D E 8 l n n n n n n n n n n n n n F m n n n n m F n n n n n n n n n n n n n f w G D C t - ",
"H I J K L w l n n n n n n n n n n n M N O P Q R R Q P S N M n n n n n n n n n n n f w T K J I H ",
"H I J U V w l n n n n n n n n n m W X Y Z `  . . . ...+.Y @.W m n n n n n n n n n f w #.U J I H ",
"H I J $.%.w l n n n n n n n n l &.*.=.-.;.>.,.'.'.).-.;.-.!.~.{.f n n n n n n n n f w ].$.J I H ",
"H I ^./.(.w l n n n n n n n l _.:.<.[.[.[.<.}.|.1.2.<.[.[.[.<.3.4.f n n n n n n n f w 5./.^.I H ",
"; 6.^.7.8.w l n n n n n n n 9.0.a.b.b.b.b.c.d.e.f.g.h.b.b.b.b.a.i.j.n n n n n n n f w k.7.^.6.; ",
"; l.^.m.n.w l n n n n n n o.p.q.q.q.r.s.t.u.v.w.x.y.z.A.s.r.q.q.q.B.C.n n n n n n f w D.m.^.l.; ",
"; l.E._ F.w l n n n n n g G.H.I.I.I.J.K.L.M.N.f.O.P.Q.R.S.T.I.I.I.H.U.V.n n n n n f w W._ E.l.; ",
"; l.X.Y.Z.w l n n n n n `. +.+.+++@+#+$+%+&+*+f.O.=+-+%+$+;+@+++.+.+>+,+n n n n n f w W.Y.X.l.; ",
"; l.'+)+!+w l n n n n f ~+{+]+]+^+/+R.%+(+_+:+f.O.<+[+}+%+L.|+^+]+]+{+1+f n n n n f w 2+)+'+l.; ",
"; 3+4+5+6+w l n n n n V.7+8+9+9+0+a+%+b+c+d+e+f+g+h+d+i+b+%+j+0+9+9+8+k+V.n n n n f w l+5+4+3+; ",
"; m+4+n+o+w l n n n n e p+q+q+r+s+t+u+v+w+r+x+y+z+A+r+B+C+u+D+E+r+q+q+F+G+n n n n f w H+n+4+m+; ",
"; m+I+J+K+w l n n n n L+r+M+N+M+O+P+Q+R+S+N+N+M+M+N+N+M+T+w.U+V+M+N+N+W+L+n n n n f w X+J+I+m+; ",
"; m+Y+Z+`+w l n n n f L+ @.@.@+@@@P+#@$@%@.@.@.@.@.@.@%@&@#@P+@@+@.@.@ @L+f n n n f w *@Z+Y+m+; ",
"> b =@-@;@w l n n n f L+>@,@'@'@'@g+)@!@~@'@'@'@'@'@'@~@{@]@^@'@'@'@,@/@L+f n n n f w (@-@=@b > ",
"> _@:@<@[@w l n n n n G+}@|@1@1@2@3@%+4@5@6@1@1@1@1@6@7@8@%+9@2@1@1@|@0@G+n n n n f w a@<@:@_@> ",
"> _@b@c@d@w l n n n m V.e@f@g@g@h@i@j@%+k@l@m@n@n@m@l@o@%+p@q@h@g@g@r@s@V.m n n n f w t@c@b@_@> ",
"u@_@v@w@d@w l n n n n l x@y@z@z@z@A@B@j@%+C@D@E@E@D@F@%+j@G@H@z@z@z@I@x@l n n n n f w t@w@v@_@u@",
"u@J@K@L@M@w l n n n n n N@O@P@A@A@Q@R@S@T@%+U@V@V@U@%+u+W@R@Q@A@A@P@X@N@n n n n n f w Y@L@K@J@u@",
"u@J@K@Z@`@w l n n n n n  #.#+#@#@#@###$#%#&#*#O.O.*#=#%#$###@#@#@#-#;# #n n n n n f w >#Z@K@J@u@",
"u@,#'#)#`@w l n n n n n n L+!#~#{#{#{#{#]#^#/#(#(#/#^#]#{#{#{#{#_#:#L+n n n n n n f w <#)#'#,#u@",
"u@,#'#[#`@w l n n n n n n f }#|#1#2#]#]#]#]#]#3#3#]#]#]#]#]#2#1#4#}#f n n n n n n f w 5#[#'#,#u@",
"u@6#7#8#9#w l n n n n n n n l 0#a#b#c#d#d#d#d#d#d#d#d#d#d#c#b#e#f#l n n n n n n n f w g#8#7#6#u@",
"1 j 7#8#h#w l n n n n n n n n l i#j#k#l#m#n#o#o#o#o#n#m#l#p#j#q#l n n n n n n n n f r#s#8#7#j 1 ",
"u@j t#8#u#w l n n n n n n n n n f e v#w#x#y#z#A#A#z#B#x#C#v#e f n n n n n n n n n f r#D#8#t#j u@",
"1 E#t#F#G#r#l n n n n n n n n n n n f e i#v#H#I#I#H#v#i#e f n n n n n n n n n n n f r#J#F#t#E#1 ",
"1 E#t#8#G#r#l n n n n n n n n n n n n n f f l  # #l f f n n n n n n n n n n n n n f r#K#8#t#E#1 ",
"1 E#L#8#M#r#l n n n n n n n n n n n n n n n n n n n n n n n n n n n n n n n n n n f r#N#8#L#E#1 ",
"^ p O#P#Q#r#l n n n n n n n n n n n n n n n n n n n n n n n n n n n n n n n n n n f r#R#P#O#p ^ ",
"^ p S#F#T#U#l m n n n n n n n n n n n n n n n n n n n n n n n n n n n n n n n n n f U#V#F#S#p ^ ",
"^ E#O#F#W#X#e f f f f f f f f f f f f f f f f f f f f f f f f f f f f f f f f f f g X#Y#F#O#E#^ ",
"u@j t#Z#`# $X#U#r#r#r#r#r#r#r#r#r#r#r#r#r#r#r#r#r#r#r#r#r#r#r#r#r#r#r#r#r#r#r#r#U#X#.$`#+$t#j u@",
"H m+K@@$F##$$$N#%$%$&$*$*$*$=$=$-$-$;$;$>$>$,$,$,$,$>$>$;$;$-$-$=$=$*$*$*$&$%$%$N#$$#$F#'$K@3+H ",
"0 )$J !$@$~${$]$^$/$($J+n+_$:$<$/.K ( [$}$|$1$2$2$1$|$}$[$( K /.<$:$_$n+J+($/$^$]${$~$3$4$J 5$0 ",
"& ; I '+6$7$8$9$0$0$0$0$0$0$0$0$0$0$0$0$0$0$0$0$0$0$0$0$0$0$0$0$0$0$0$0$0$0$0$0$9$8$7$6$'+I ; & ",
". $ u@I C =@'#a$a$a$a$a$a$a$a$a$a$a$a$a$a$a$a$a$a$a$a$a$a$a$a$a$a$a$a$a$a$a$a$a$a$'#=@C I u@$ . ",
"  b$$ ; a I m+_@_@_@_@_@_@_@_@_@_@_@_@_@_@_@_@_@_@_@_@_@_@_@_@_@_@_@_@_@_@_@_@_@_@m+I a ; $ b$  "};
