/* XPM */
static char * wmshutdown_xpm[] = {
"48 48 476 2",
"  	c #092533",
". 	c #092432",
"+ 	c #082431",
"@ 	c #082331",
"# 	c #082330",
"$ 	c #262631",
"% 	c #CB6E6F",
"& 	c #FF9090",
"* 	c #FF9494",
"= 	c #C96D6E",
"- 	c #252631",
"; 	c #082230",
"> 	c #C86C6E",
", 	c #FF8484",
"' 	c #FF7070",
") 	c #ED6161",
"! 	c #D25858",
"~ 	c #D35858",
"{ 	c #EC6161",
"] 	c #C66D6E",
"^ 	c #07212E",
"/ 	c #FF8D8D",
"( 	c #FF6363",
"_ 	c #933839",
": 	c #141015",
"< 	c #111016",
"[ 	c #131015",
"} 	c #923839",
"| 	c #08222F",
"1 	c #07202D",
"2 	c #FF8686",
"3 	c #ED5556",
"4 	c #021018",
"5 	c #031019",
"6 	c #130F15",
"7 	c #EB5354",
"8 	c #071F2C",
"9 	c #D34A4A",
"0 	c #031119",
"a 	c #D14949",
"b 	c #071F2B",
"c 	c #FF8383",
"d 	c #D44949",
"e 	c #121016",
"f 	c #D24848",
"g 	c #D44646",
"h 	c #110F15",
"i 	c #D24646",
"j 	c #FF8282",
"k 	c #D44545",
"l 	c #D24545",
"m 	c #061F2B",
"n 	c #FF8181",
"o 	c #D44444",
"p 	c #03111A",
"q 	c #D24445",
"r 	c #07212D",
"s 	c #061E2A",
"t 	c #FF7E7E",
"u 	c #D44343",
"v 	c #120F15",
"w 	c #0A131A",
"x 	c #251A1F",
"y 	c #954B4B",
"z 	c #E57373",
"A 	c #FD7F7F",
"B 	c #FF8483",
"C 	c #E47373",
"D 	c #934B4A",
"E 	c #D24243",
"F 	c #FF7D7D",
"G 	c #D44243",
"H 	c #522E31",
"I 	c #B75A59",
"J 	c #FF7675",
"K 	c #FF7270",
"L 	c #FF6A68",
"M 	c #FF6867",
"N 	c #FF6A69",
"O 	c #FF7271",
"P 	c #B65A59",
"Q 	c #512D30",
"R 	c #D24142",
"S 	c #FF7C7C",
"T 	c #D44142",
"U 	c #864646",
"V 	c #F66D6A",
"W 	c #FF6865",
"X 	c #FF6563",
"Y 	c #FF6562",
"Z 	c #FF6663",
"` 	c #FC6360",
" .	c #EB5653",
"..	c #FD6461",
"+.	c #FF6866",
"@.	c #F56B6A",
"#.	c #783E3F",
"$.	c #D24041",
"%.	c #FF7979",
"&.	c #D43F40",
"*.	c #884241",
"=.	c #FF706C",
"-.	c #FF625E",
";.	c #FF635F",
">.	c #FF7976",
",.	c #FEF1F0",
"'.	c #FEF0EF",
").	c #FF726F",
"!.	c #FF706D",
"~.	c #834040",
"{.	c #D23E3F",
"].	c #FF7676",
"^.	c #D43E3F",
"/.	c #834141",
"(.	c #FF6B66",
"_.	c #FF5E59",
":.	c #FF5F5A",
"<.	c #FC5853",
"[.	c #FE7671",
"}.	c #FFF5F4",
"|.	c #FFF3F2",
"1.	c #FD6D69",
"2.	c #FB5853",
"3.	c #FF6A66",
"4.	c #763A3B",
"5.	c #D23D3E",
"6.	c #FF7474",
"7.	c #D43D3E",
"8.	c #4B272A",
"9.	c #F45F5A",
"0.	c #FF5B55",
"a.	c #FF5C56",
"b.	c #FF5953",
"c.	c #EB554F",
"d.	c #EF9693",
"e.	c #FE817D",
"f.	c #FFF3F3",
"g.	c #FFF1F1",
"h.	c #FE7F7B",
"i.	c #F09A96",
"j.	c #EB554E",
"k.	c #F35F59",
"l.	c #462527",
"m.	c #D23C3D",
"n.	c #D43B3C",
"o.	c #0A121A",
"p.	c #B44A47",
"q.	c #FF5A53",
"r.	c #FF5951",
"s.	c #FD5750",
"t.	c #EE7A75",
"u.	c #FCF4F3",
"v.	c #FFF7F6",
"w.	c #FF837D",
"x.	c #FFF1F0",
"y.	c #FF837E",
"z.	c #FFF9F8",
"A.	c #FCF4F4",
"B.	c #EE7B75",
"C.	c #FD5850",
"D.	c #A64442",
"E.	c #071119",
"F.	c #D2393A",
"G.	c #061D29",
"H.	c #FF6E6E",
"I.	c #D43A3B",
"J.	c #24171C",
"K.	c #FB5C54",
"L.	c #FF554C",
"M.	c #FF554D",
"N.	c #FF534A",
"O.	c #F17974",
"P.	c #FCF6F6",
"Q.	c #FFFFFF",
"R.	c #FFC7C5",
"S.	c #FF7972",
"T.	c #FF766F",
"U.	c #FFC8C6",
"V.	c #F27A74",
"W.	c #FB5B54",
"X.	c #22161C",
"Y.	c #FF6B6B",
"Z.	c #D4393A",
"`.	c #853433",
" +	c #FF544B",
".+	c #FF5149",
"++	c #FF5148",
"@+	c #F5514A",
"#+	c #FFAAA7",
"$+	c #FF5B54",
"%+	c #FF6B64",
"&+	c #FF635B",
"*+	c #FF5C54",
"=+	c #FFACA9",
"-+	c #F65249",
";+	c #843634",
">+	c #D23839",
",+	c #FF6767",
"'+	c #D43738",
")+	c #031018",
"!+	c #C8463F",
"~+	c #FF4F44",
"{+	c #FF4F43",
"]+	c #FF483C",
"^+	c #F6A59F",
"/+	c #FFCBC9",
"(+	c #FF564C",
"_+	c #FF4D42",
":+	c #FF685E",
"<+	c #FFE7E6",
"[+	c #FFE6E4",
"}+	c #FF6056",
"|+	c #FF574D",
"1+	c #F6A49F",
"2+	c #C6453F",
"3+	c #D23737",
"4+	c #FF6464",
"5+	c #D43637",
"6+	c #F04B41",
"7+	c #FF4B40",
"8+	c #FF4B3F",
"9+	c #FD463B",
"0+	c #FDE5E3",
"a+	c #FFFBFB",
"b+	c #FF8D87",
"c+	c #FF4A3E",
"d+	c #FF5247",
"e+	c #FF6961",
"f+	c #FF6860",
"g+	c #FF5045",
"h+	c #FF4A3F",
"i+	c #FF8D86",
"j+	c #FDE4E3",
"k+	c #FD463A",
"l+	c #EF4C42",
"m+	c #020F17",
"n+	c #D23636",
"o+	c #FF5F5F",
"p+	c #D43536",
"q+	c #FF473A",
"r+	c #FF473B",
"s+	c #FE5448",
"t+	c #FFEFEE",
"u+	c #FFF4F4",
"v+	c #FF6C62",
"w+	c #FF463A",
"x+	c #FF685F",
"y+	c #FFEFED",
"z+	c #FE5347",
"A+	c #FF4B3D",
"B+	c #D23535",
"C+	c #061D28",
"D+	c #FF5B5B",
"E+	c #D43434",
"F+	c #FF4638",
"G+	c #FF4536",
"H+	c #FF4436",
"I+	c #FF5346",
"J+	c #FEF3F2",
"K+	c #FD6458",
"L+	c #FF4435",
"M+	c #FC6559",
"N+	c #D23333",
"O+	c #FF5757",
"P+	c #D43333",
"Q+	c #EB3C2D",
"R+	c #FF4232",
"S+	c #FF4131",
"T+	c #FEF9F9",
"U+	c #F97B70",
"V+	c #FF3F2F",
"W+	c #F97B71",
"X+	c #FEFAF9",
"Y+	c #FFE4E2",
"Z+	c #E93B2D",
"`+	c #D23232",
" @	c #07202C",
".@	c #FF5353",
"+@	c #D43232",
"@@	c #B82E22",
"#@	c #FF3F2E",
"$@	c #FF3D2E",
"%@	c #FF3626",
"&@	c #FFA6A1",
"*@	c #F5B6B1",
"=@	c #FD4030",
"-@	c #FF3E2E",
";@	c #FD4031",
">@	c #F5B7B2",
",@	c #FFA6A0",
"'@	c #B62D22",
")@	c #D23131",
"!@	c #061C28",
"~@	c #FF4D4D",
"{@	c #D43030",
"]@	c #691B18",
"^@	c #FF3D2A",
"/@	c #FF3B28",
"(@	c #FF3826",
"_@	c #FF5144",
":@	c #FFFAFA",
"<@	c #EC7B70",
"[@	c #FA3B2A",
"}@	c #FE3826",
"|@	c #FF3A28",
"1@	c #EC7C71",
"2@	c #FFF9F9",
"3@	c #FF5142",
"4@	c #FF3C2A",
"5@	c #671B18",
"6@	c #D23030",
"7@	c #FF4848",
"8@	c #120E14",
"9@	c #1C1116",
"0@	c #F03322",
"a@	c #FF3725",
"b@	c #FF3320",
"c@	c #FF7E75",
"d@	c #F1AFA9",
"e@	c #F16B5E",
"f@	c #F04C3D",
"g@	c #F1B0AA",
"h@	c #FF7E74",
"i@	c #FF3220",
"j@	c #EF3322",
"k@	c #110E14",
"l@	c #FF4343",
"m@	c #D42F2F",
"n@	c #060F17",
"o@	c #9D2017",
"p@	c #FF3420",
"q@	c #FF331F",
"r@	c #FF3926",
"s@	c #FF8179",
"t@	c #FFFCFB",
"u@	c #FDF7F6",
"v@	c #FCEFEE",
"w@	c #FF8077",
"x@	c #9B2117",
"y@	c #050F17",
"z@	c #D22F2F",
"A@	c #FF3D3D",
"B@	c #D42D2D",
"C@	c #311114",
"D@	c #E82D1A",
"E@	c #FF311C",
"F@	c #FF301B",
"G@	c #FF321D",
"H@	c #FF5C4F",
"I@	c #FFABA5",
"J@	c #FFECEB",
"K@	c #FFAAA5",
"L@	c #E82D19",
"M@	c #2F1114",
"N@	c #D22D2D",
"O@	c #061C27",
"P@	c #FF3838",
"Q@	c #D42C2C",
"R@	c #561313",
"S@	c #FB2C17",
"T@	c #FF2D17",
"U@	c #FF2912",
"V@	c #FF3522",
"W@	c #FF4534",
"X@	c #FF5040",
"Y@	c #FD2D17",
"Z@	c #571313",
"`@	c #D22C2C",
" #	c #FF3535",
".#	c #020E16",
"+#	c #5F1311",
"@#	c #F92912",
"##	c #FF2A13",
"$#	c #FF2911",
"%#	c #5D1310",
"&#	c #D22B2B",
"*#	c #FF3232",
"=#	c #D42A2A",
"-#	c #50110F",
";#	c #E3220E",
">#	c #FF260E",
",#	c #FF270E",
"'#	c #E3230E",
")#	c #541110",
"!#	c #D22929",
"~#	c #051B27",
"{#	c #D42828",
"]#	c #2C0E12",
"^#	c #8E160D",
"/#	c #E92009",
"(#	c #FF230A",
"_#	c #FF240A",
":#	c #FF2309",
"<#	c #94160C",
"[#	c #2E0F11",
"}#	c #110D14",
"|#	c #D22727",
"1#	c #D42727",
"2#	c #040E15",
"3#	c #1A0D12",
"4#	c #64100C",
"5#	c #AB1608",
"6#	c #D81B06",
"7#	c #EF1D06",
"8#	c #AA1608",
"9#	c #050E15",
"0#	c #D22626",
"a#	c #051B26",
"b#	c #FF3131",
"c#	c #D42526",
"d#	c #120D14",
"e#	c #020E15",
"f#	c #020C14",
"g#	c #020C13",
"h#	c #D22425",
"i#	c #D42425",
"j#	c #D22324",
"k#	c #D42223",
"l#	c #D22223",
"m#	c #FF3030",
"n#	c #D42021",
"o#	c #D22021",
"p#	c #D31F20",
"q#	c #D11E1F",
"r#	c #ED2121",
"s#	c #140D13",
"t#	c #130D13",
"u#	c #EC2121",
"v#	c #FB3131",
"w#	c #FF2323",
"x#	c #941719",
"y#	c #130C12",
"z#	c #110D13",
"A#	c #931517",
"B#	c #F93131",
"C#	c #9A2428",
"D#	c #FF2828",
"E#	c #ED2323",
"F#	c #D22122",
"G#	c #D32223",
"H#	c #D32324",
"I#	c #D32425",
"J#	c #D32526",
"K#	c #D32627",
"L#	c #D32727",
"M#	c #D32828",
"N#	c #D32929",
"O#	c #D32A2A",
"P#	c #D32B2B",
"Q#	c #902327",
"R#	c #08212E",
"S#	c #0F1A25",
"T#	c #9A2629",
"U#	c #FC3C3C",
"V#	c #FF4444",
"W#	c #FF4A4A",
"X#	c #FF4F4F",
"Y#	c #FF5555",
"Z#	c #FF5959",
"`#	c #FF6969",
" $	c #FF6F6F",
".$	c #FF7373",
"+$	c #FF8989",
"@$	c #FF8E8E",
"#$	c #FF9393",
"$$	c #FF9898",
"%$	c #FF9D9D",
"&$	c #912428",
"*$	c #0C1A25",
"=$	c #08212F",
"-$	c #051A25",
";$	c #041822",
">$	c #041721",
",$	c #041620",
"'$	c #061E2B",
")$	c #092532",
"                                                                                                ",
"      . . . + + + + + + + + + + + + + + + + + + + + + + + + + + + + + + + + + + + + . . .       ",
"    . + @ @ # # # # # # # # # # # # # # # # # # # # # # # # # # # # # # # # # # # # @ @ + .     ",
"  . @ $ % & * * * * * * * * * * * * * * * * * * * * * * * * * * * * * * * * * * * * & = - @ .   ",
". @ ; > , ' ) ! ~ ~ ~ ~ ~ ~ ~ ~ ~ ~ ~ ~ ~ ~ ~ ~ ~ ~ ~ ~ ~ ~ ~ ~ ~ ~ ~ ~ ~ ~ ~ ~ ! { ' , ] ; @ . ",
". ; ^ / ( _ : < < < < < < < < < < < < < < < < < < < < < < < < < < < < < < < < < < [ } ( / ^ ; . ",
"+ | 1 2 3 : 4 5 5 5 5 5 5 5 5 5 5 5 5 5 5 5 5 5 5 5 5 5 5 5 5 5 5 5 5 5 5 5 5 5 5 4 6 7 2 1 | + ",
"@ ^ 8 , 9 < 5 0 0 0 0 0 0 0 0 0 0 0 0 0 0 0 0 0 0 0 0 0 0 0 0 0 0 0 0 0 0 0 0 0 0 5 < a , 8 ^ @ ",
"@ ^ b c d e 5 0 0 0 0 0 0 0 0 0 0 0 0 0 0 0 0 0 0 0 0 0 0 0 0 0 0 0 0 0 0 0 0 0 0 5 < f c b ^ @ ",
"@ ^ b c g e 5 0 0 0 0 0 0 0 0 0 0 0 0 0 0 0 0 0 0 0 0 0 0 0 0 0 0 0 0 0 0 0 0 0 0 5 h i c b ^ @ ",
"@ ^ b j k e 5 0 0 0 0 0 0 0 0 0 0 0 0 0 0 0 0 0 0 0 0 0 0 0 0 0 0 0 0 0 0 0 0 0 0 5 h l j b ^ @ ",
"@ ^ m n o e 5 0 0 0 0 0 0 0 0 0 0 0 0 0 p 0 0 0 0 0 0 p 0 0 0 0 0 0 0 0 0 0 0 0 0 5 h q n m ^ @ ",
"# r s t u v 5 0 0 0 0 0 0 0 0 0 0 0 w x y z A B B A C D x w 0 0 0 0 0 0 0 0 0 0 0 5 h E t s r # ",
"# r s F G v 5 0 0 0 0 0 0 0 0 0 0 H I J K L M M M M N O J P Q 0 0 0 0 0 0 0 0 0 0 5 h R F s r # ",
"# r s S T v 5 0 0 0 0 0 0 0 0 5 U V W X Y Z `  . ...X Y X +.@.#.5 0 0 0 0 0 0 0 0 5 h $.S s r # ",
"# r s %.&.v 5 0 0 0 0 0 0 0 5 *.=.-.;.;.;.-.>.,.'.).-.;.;.;.-.!.~.5 0 0 0 0 0 0 0 5 h {.%.s r # ",
"# 1 s ].^.v 5 0 0 0 0 0 0 0 /.(._.:.:.:.:.<.[.}.|.1.2.:.:.:.:._.3.4.0 0 0 0 0 0 0 5 h 5.].s 1 # ",
"# 1 s 6.7.v 5 0 0 0 0 0 0 8.9.0.0.0.a.b.c.d.e.f.g.h.i.j.b.a.0.0.0.k.l.0 0 0 0 0 0 5 h m.6.s 1 # ",
"# 1 s ' n.v 5 0 0 0 0 0 o.p.q.r.r.r.s.t.u.v.w.|.x.y.z.A.B.C.r.r.r.q.D.E.0 0 0 0 0 5 h F.' s 1 # ",
"# 1 G.H.I.v 5 0 0 0 0 0 J.K.L.L.M.N.O.P.Q.R.S.|.x.T.U.Q.P.V.N.M.L.L.W.X.0 0 0 0 0 5 h F.H.G.1 # ",
"# 1 G.Y.Z.v 5 0 0 0 0 0 `. +.+.+++@+A.Q.#+$+%+|.x.&+*+=+Q.u.-+++.+.+ +;+0 0 0 0 0 5 h >+Y.G.1 # ",
"# 1 G.,+'+v 5 0 0 0 0 )+!+~+{+{+]+^+Q./+(+_+:+<+[+}+_+|+/+Q.1+]+{+{+~+2+)+0 0 0 0 5 h 3+,+G.1 # ",
"# 1 G.4+5+v 5 0 0 0 0 4 6+7+7+8+9+0+a+b+c+8+d+e+f+g+8+h+i+a+j+k+8+7+7+l+m+0 0 0 0 5 h n+4+G.1 # ",
"# 1 G.o+p+v 5 0 0 0 0 m+8+q+r+q+s+t+u+v+w+r+r+q+q+r+r+q+x+f.y+z+q+r+r+A+m+0 0 0 0 5 h B+o+G.1 # ",
"# 1 C+D+E+v 5 0 0 0 0 m+F+G+G+H+I+t+J+K+L+G+G+G+G+G+G+L+M+J+t+I+H+G+G+F+m+0 0 0 0 5 h N+D+C+1 # ",
"# 1 C+O+P+v 5 0 0 0 0 m+Q+R+S+S+S+[+T+U+V+S+S+S+S+S+S+V+W+X+Y+S+S+S+R+Z+m+0 0 0 0 5 h `+O+C+1 # ",
"#  @C+.@+@v 5 0 0 0 0 m+@@#@$@$@%@&@Q.*@=@-@$@$@$@$@-@;@>@Q.,@%@$@$@#@'@m+0 0 0 0 5 h )@.@C+ @# ",
"#  @!@~@{@v 5 0 0 0 0 )+]@^@/@/@(@_@:@Q.<@[@}@|@|@}@[@1@Q.2@3@(@/@/@4@5@)+0 0 0 0 5 h 6@~@!@ @# ",
"#  @!@7@{@8@5 0 0 0 0 5 9@0@a@a@a@b@c@:@Q.d@e@f@f@e@g@Q.:@h@i@a@a@a@j@9@5 0 0 0 0 5 k@6@7@!@ @# ",
"#  @!@l@m@8@5 0 0 0 0 0 n@o@p@b@b@q@r@s@t@Q.u@v@v@u@Q.a+w@r@q@b@b@p@x@y@0 0 0 0 0 5 k@z@l@!@ @# ",
"#  @!@A@B@8@5 0 0 0 0 0 )+C@D@E@E@E@F@G@H@I@J@x.x.J@K@H@G@F@E@E@E@L@M@)+0 0 0 0 0 5 k@N@A@!@ @# ",
"# 8 O@P@Q@8@5 0 0 0 0 0 0 m+R@S@T@T@T@T@U@V@W@X@X@W@V@U@T@T@T@T@Y@Z@m+0 0 0 0 0 0 5 k@`@P@O@8 # ",
"# 8 O@ #Q@8@5 0 0 0 0 0 0 5 .#+#@###U@U@U@U@U@$#$#U@U@U@U@U@##@#%#.#5 0 0 0 0 0 0 5 k@&# #O@8 # ",
"# 8 O@*#=#8@5 0 0 0 0 0 0 0 5 .#-#;#>#,#,#,#,#,#,#,#,#,#,#>#'#)#.#5 0 0 0 0 0 0 0 5 k@!#*#O@8 # ",
"; 8 ~#*#{#8@5 0 0 0 0 0 0 0 0 5 m+]#^#/#(#_#:#:#:#:#_#(#/#<#[#m+5 0 0 0 0 0 0 0 0 5 }#|#*#~#8 ; ",
"# 8 ~#*#1#8@5 0 0 0 0 0 0 0 0 0 0 4 2#3#4#5#6#7#7#6#8#4#3#9#4 0 0 0 0 0 0 0 0 0 0 5 }#0#*#~#8 # ",
"; 8 a#b#c#d#5 0 0 0 0 0 0 0 0 0 0 0 5 4 m+e#f#g#g#f#e#m+4 5 0 0 0 0 0 0 0 0 0 0 0 5 }#h#b#a#8 ; ",
"; 8 a#*#i#d#5 0 0 0 0 0 0 0 0 0 0 0 0 0 0 5 5 )+)+5 5 0 0 0 0 0 0 0 0 0 0 0 0 0 0 5 }#j#*#a#8 ; ",
"; b a#*#k#d#5 0 0 0 0 0 0 0 0 0 0 0 0 0 0 0 0 0 0 0 0 0 0 0 0 0 0 0 0 0 0 0 0 0 0 5 }#l#*#a#b ; ",
"; b a#m#n#d#5 0 0 0 0 0 0 0 0 0 0 0 0 0 0 0 0 0 0 0 0 0 0 0 0 0 0 0 0 0 0 0 0 0 0 5 }#o#m#a#b ; ",
"; b a#b#p#k@5 0 0 0 0 0 0 0 0 0 0 0 0 0 0 0 0 0 0 0 0 0 0 0 0 0 0 0 0 0 0 0 0 0 0 5 k@q#b#a#b ; ",
"; b a#b#r#s#4 5 5 5 5 5 5 5 5 5 5 5 5 5 5 5 5 5 5 5 5 5 5 5 5 5 5 5 5 5 5 5 5 5 5 4 t#u#b#a#b ; ",
"# 8 a#v#w#x#y#z#z#z#z#z#z#z#z#z#z#z#z#z#z#z#z#z#z#z#z#z#z#z#z#z#z#z#z#z#z#z#z#z#z#t#A#w#B#a#8 # ",
"# 1 !@C#b#D#E#F#G#G#H#I#I#J#K#K#L#L#M#N#O#O#P#P#P#P#O#O#N#M#L#L#K#K#J#I#I#H#G#G#F#E#D#b#Q#!@1 # ",
"+ R#s S#T#U#V#W#X#Y#Z#o+4+`# $.$%.t , +$@$#$$$%$%$$$#$@$+$, t %..$ $`#4+o+Z#Y#X#W#V#U#&$*$s =$+ ",
". # r G.-$;$>$,$,$,$,$,$,$,$,$,$,$,$,$,$,$,$,$,$,$,$,$,$,$,$,$,$,$,$,$,$,$,$,$,$,$>$;$-$G.r # . ",
"  . # r '$C+O@~#~#~#~#~#~#~#~#~#~#~#~#~#~#~#~#~#~#~#~#~#~#~#~#~#~#~#~#~#~#~#~#~#~#O@C+'$r # .   ",
"  )$. # | r 1  @ @ @ @ @ @ @ @ @ @ @ @ @ @ @ @ @ @ @ @ @ @ @ @ @ @ @ @ @ @ @ @ @ @1 r | # . )$  "};
