/* XPM */
static char * wmshutdown_xpm[] = {
"48 48 526 2",
"  	c #949494",
". 	c #939393",
"+ 	c #929292",
"@ 	c #919191",
"# 	c #909090",
"$ 	c #8F8F8F",
"% 	c #8E8E8E",
"& 	c #8D8D8D",
"* 	c #8C8C8C",
"= 	c #8B8B8B",
"- 	c #8A8A8A",
"; 	c #898989",
"> 	c #888888",
", 	c #878787",
"' 	c #868686",
") 	c #858585",
"! 	c #848484",
"~ 	c #838383",
"{ 	c #828282",
"] 	c #898686",
"^ 	c #D37F7F",
"/ 	c #FF9090",
"( 	c #FF9494",
"_ 	c #D07C7C",
": 	c #7E7B7B",
"< 	c #D17E7E",
"[ 	c #FF8484",
"} 	c #FF7070",
"| 	c #EE6363",
"1 	c #D35C5C",
"2 	c #D45C5C",
"3 	c #D45B5B",
"4 	c #D35B5B",
"5 	c #ED6363",
"6 	c #CF7C7C",
"7 	c #7F7F7F",
"8 	c #FF8D8D",
"9 	c #FF6363",
"0 	c #984545",
"a 	c #423F3F",
"b 	c #444242",
"c 	c #434141",
"d 	c #424040",
"e 	c #413F3F",
"f 	c #413E3E",
"g 	c #403E3E",
"h 	c #403D3D",
"i 	c #3E3B3B",
"j 	c #964343",
"k 	c #7B7B7B",
"l 	c #7E7E7E",
"m 	c #FF8686",
"n 	c #EE5757",
"o 	c #4E4E4E",
"p 	c #515151",
"q 	c #505050",
"r 	c #4F4F4F",
"s 	c #4D4D4D",
"t 	c #4C4C4C",
"u 	c #494949",
"v 	c #3D3A3A",
"w 	c #EC5555",
"x 	c #777777",
"y 	c #7C7C7C",
"z 	c #808080",
"A 	c #D44F4F",
"B 	c #535353",
"C 	c #4B4B4B",
"D 	c #D24D4D",
"E 	c #757575",
"F 	c #FF8383",
"G 	c #D54E4E",
"H 	c #3F3D3D",
"I 	c #D34C4C",
"J 	c #747474",
"K 	c #7A7A7A",
"L 	c #D54B4B",
"M 	c #3F3C3C",
"N 	c #D34A4A",
"O 	c #737373",
"P 	c #797979",
"Q 	c #7D7D7D",
"R 	c #FF8282",
"S 	c #D54A4A",
"T 	c #444141",
"U 	c #4A4A4A",
"V 	c #D34949",
"W 	c #FF8181",
"X 	c #D54949",
"Y 	c #D34848",
"Z 	c #727272",
"` 	c #FF7E7E",
" .	c #D54848",
"..	c #4F4E4E",
"+.	c #504A4A",
"@.	c #9B5858",
"#.	c #E57575",
"$.	c #FD7F7F",
"%.	c #FF8483",
"&.	c #9A5957",
"*.	c #4F4949",
"=.	c #4D4C4C",
"-.	c #3E3C3C",
";.	c #D34646",
">.	c #787878",
",.	c #FF7D7D",
"'.	c #674D4D",
").	c #BB6261",
"!.	c #FF7675",
"~.	c #FF7270",
"{.	c #FF6A68",
"].	c #FF6867",
"^.	c #FF6A69",
"/.	c #FF7271",
"(.	c #B96261",
"_.	c #654C4C",
":.	c #D34545",
"<.	c #717171",
"[.	c #FF7C7C",
"}.	c #D54747",
"|.	c #8F5555",
"1.	c #F66D6A",
"2.	c #FF6865",
"3.	c #FF6563",
"4.	c #FF6562",
"5.	c #FF6663",
"6.	c #FC6360",
"7.	c #EB5653",
"8.	c #FD6461",
"9.	c #FF6866",
"0.	c #F56C6A",
"a.	c #825151",
"b.	c #D34444",
"c.	c #FF7979",
"d.	c #D54545",
"e.	c #905250",
"f.	c #FF706C",
"g.	c #FF625E",
"h.	c #FF635F",
"i.	c #FF7976",
"j.	c #FEF1F0",
"k.	c #FEF0EF",
"l.	c #FF726F",
"m.	c #FF706D",
"n.	c #8B504F",
"o.	c #D34343",
"p.	c #707070",
"q.	c #FF7676",
"r.	c #D54444",
"s.	c #8C5252",
"t.	c #FF6B66",
"u.	c #FF5E59",
"v.	c #FF5F5A",
"w.	c #FC5853",
"x.	c #FE7671",
"y.	c #FFF5F4",
"z.	c #FFF3F2",
"A.	c #FD6D69",
"B.	c #FB5853",
"C.	c #FF6A66",
"D.	c #804D4D",
"E.	c #D34242",
"F.	c #767676",
"G.	c #818181",
"H.	c #FF7474",
"I.	c #D54343",
"J.	c #434040",
"K.	c #614949",
"L.	c #F4605B",
"M.	c #FF5B55",
"N.	c #FF5C56",
"O.	c #FF5953",
"P.	c #EB554F",
"Q.	c #EF9693",
"R.	c #FE817D",
"S.	c #FFF3F3",
"T.	c #FFF1F1",
"U.	c #FE7F7B",
"V.	c #F09A96",
"W.	c #EB554E",
"X.	c #F3605A",
"Y.	c #5C4646",
"Z.	c #D34141",
"`.	c #6F6F6F",
" +	c #D54141",
".+	c #B85350",
"++	c #FF5A53",
"@+	c #FF5951",
"#+	c #FD5750",
"$+	c #EE7A75",
"%+	c #FCF4F3",
"&+	c #FFF7F6",
"*+	c #FF837D",
"=+	c #FFF1F0",
"-+	c #FF837E",
";+	c #FFF9F8",
">+	c #FCF4F4",
",+	c #EE7B75",
"'+	c #FD5850",
")+	c #AA4F4C",
"!+	c #4A4949",
"~+	c #D33E3E",
"{+	c #6E6E6E",
"]+	c #FF6E6E",
"^+	c #D54040",
"/+	c #4E4747",
"(+	c #FB5C54",
"_+	c #FF554C",
":+	c #FF554D",
"<+	c #FF534A",
"[+	c #F17974",
"}+	c #FCF6F6",
"|+	c #FFFFFF",
"1+	c #FFC7C5",
"2+	c #FF7972",
"3+	c #FF766F",
"4+	c #FFC8C6",
"5+	c #F27A74",
"6+	c #FB5B54",
"7+	c #4A4343",
"8+	c #FF6B6B",
"9+	c #D53F3F",
"0+	c #8D4745",
"a+	c #FF544B",
"b+	c #FF5149",
"c+	c #FF5148",
"d+	c #F5514A",
"e+	c #FFAAA7",
"f+	c #FF5B54",
"g+	c #FF6B64",
"h+	c #FF635B",
"i+	c #FF5C54",
"j+	c #FFACA9",
"k+	c #F65249",
"l+	c #8A4644",
"m+	c #3D3B3B",
"n+	c #D33D3D",
"o+	c #6D6D6D",
"p+	c #FF6767",
"q+	c #D53E3E",
"r+	c #CA4C45",
"s+	c #FF4F44",
"t+	c #FF4F43",
"u+	c #FF483C",
"v+	c #F6A59F",
"w+	c #FFCBC9",
"x+	c #FF564C",
"y+	c #FF4D42",
"z+	c #FF685E",
"A+	c #FFE7E6",
"B+	c #FFE6E4",
"C+	c #FF6056",
"D+	c #FF574D",
"E+	c #F6A49F",
"F+	c #C84A43",
"G+	c #484848",
"H+	c #D33B3B",
"I+	c #6C6C6C",
"J+	c #FF6464",
"K+	c #D53D3D",
"L+	c #F04C42",
"M+	c #FF4B40",
"N+	c #FF4B3F",
"O+	c #FD463B",
"P+	c #FDE5E3",
"Q+	c #FFFBFB",
"R+	c #FF8D87",
"S+	c #FF4A3E",
"T+	c #FF5247",
"U+	c #FF6961",
"V+	c #FF6860",
"W+	c #FF5045",
"X+	c #FF4A3F",
"Y+	c #FF8D86",
"Z+	c #FDE4E3",
"`+	c #FD463A",
" @	c #EF4D43",
".@	c #464646",
"+@	c #D33A3A",
"@@	c #FF5F5F",
"#@	c #D53C3C",
"$@	c #FF473A",
"%@	c #FF473B",
"&@	c #FE5448",
"*@	c #FFEFEE",
"=@	c #FFF4F4",
"-@	c #FF6C62",
";@	c #FF463A",
">@	c #FF685F",
",@	c #FFEFED",
"'@	c #FE5347",
")@	c #FF4B3D",
"!@	c #D33939",
"~@	c #6B6B6B",
"{@	c #FF5B5B",
"]@	c #D53A3A",
"^@	c #FF4638",
"/@	c #FF4536",
"(@	c #FF4436",
"_@	c #FF5346",
":@	c #FEF3F2",
"<@	c #FD6458",
"[@	c #FF4435",
"}@	c #FC6559",
"|@	c #D33838",
"1@	c #6A6A6A",
"2@	c #FF5757",
"3@	c #D53939",
"4@	c #EB3D2F",
"5@	c #FF4232",
"6@	c #FF4131",
"7@	c #FEF9F9",
"8@	c #F97B70",
"9@	c #FF3F2F",
"0@	c #F97B71",
"a@	c #FEFAF9",
"b@	c #FFE4E2",
"c@	c #E93C2E",
"d@	c #D33737",
"e@	c #FF5353",
"f@	c #D53838",
"g@	c #BA372D",
"h@	c #FF3F2E",
"i@	c #FF3D2E",
"j@	c #FF3626",
"k@	c #FFA6A1",
"l@	c #F5B6B1",
"m@	c #FD4030",
"n@	c #FF3E2E",
"o@	c #FD4031",
"p@	c #F5B7B2",
"q@	c #FFA6A0",
"r@	c #B8352B",
"s@	c #D33636",
"t@	c #696969",
"u@	c #FF4D4D",
"v@	c #D53737",
"w@	c #723633",
"x@	c #FF3D2A",
"y@	c #FF3B28",
"z@	c #FF3826",
"A@	c #FF5144",
"B@	c #FFFAFA",
"C@	c #EC7B70",
"D@	c #FA3B2A",
"E@	c #FE3826",
"F@	c #FF3A28",
"G@	c #EC7C71",
"H@	c #FFF9F9",
"I@	c #FF5142",
"J@	c #FF3C2A",
"K@	c #703431",
"L@	c #474747",
"M@	c #3C3A3A",
"N@	c #D33535",
"O@	c #FF4848",
"P@	c #464040",
"Q@	c #F03423",
"R@	c #FF3725",
"S@	c #FF3320",
"T@	c #FF7E75",
"U@	c #F1AFA9",
"V@	c #F16B5E",
"W@	c #F04C3D",
"X@	c #F1B0AA",
"Y@	c #FF7E74",
"Z@	c #FF3220",
"`@	c #EF3423",
" #	c #433D3D",
".#	c #3C3939",
"+#	c #686868",
"@#	c #FF4343",
"##	c #D53636",
"$#	c #474646",
"%#	c #A0312A",
"&#	c #FF3420",
"*#	c #FF331F",
"=#	c #FF3926",
"-#	c #FF8179",
";#	c #FFFCFB",
">#	c #FDF7F6",
",#	c #FCEFEE",
"'#	c #FF8077",
")#	c #9E3028",
"!#	c #444343",
"~#	c #D33434",
"{#	c #676767",
"]#	c #FF3D3D",
"^#	c #D53434",
"/#	c #4C3C3B",
"(#	c #E82F1E",
"_#	c #FF311C",
":#	c #FF301B",
"<#	c #FF321D",
"[#	c #FF5C4F",
"}#	c #FFABA5",
"|#	c #FFECEB",
"1#	c #FFAAA5",
"2#	c #E82F1D",
"3#	c #4A3A39",
"4#	c #D33232",
"5#	c #FF3838",
"6#	c #D53333",
"7#	c #623332",
"8#	c #FB2C17",
"9#	c #FF2D17",
"0#	c #FF2912",
"a#	c #FF3522",
"b#	c #FF4534",
"c#	c #FF5040",
"d#	c #FD2D17",
"e#	c #623130",
"f#	c #454545",
"g#	c #D33131",
"h#	c #666666",
"i#	c #FF3535",
"j#	c #68312E",
"k#	c #F92912",
"l#	c #FF2A13",
"m#	c #FF2911",
"n#	c #662E2C",
"o#	c #424242",
"p#	c #656565",
"q#	c #FF3232",
"r#	c #D53232",
"s#	c #444444",
"t#	c #5D3230",
"u#	c #E32514",
"v#	c #FF260E",
"w#	c #FF270E",
"x#	c #E32613",
"y#	c #5F302E",
"z#	c #414141",
"A#	c #D32F2F",
"B#	c #D53030",
"C#	c #473837",
"D#	c #912924",
"E#	c #E9210C",
"F#	c #FF230A",
"G#	c #FF240A",
"H#	c #FF2309",
"I#	c #972721",
"J#	c #473635",
"K#	c #434343",
"L#	c #3B3838",
"M#	c #D32D2D",
"N#	c #D52F2F",
"O#	c #3F3938",
"P#	c #6C2C29",
"Q#	c #AD231A",
"R#	c #D81E0B",
"S#	c #EF1D06",
"T#	c #AC221A",
"U#	c #6B2B28",
"V#	c #3E3838",
"W#	c #414040",
"X#	c #D32C2C",
"Y#	c #636363",
"Z#	c #FF3131",
"`#	c #D52D2D",
" $	c #3E3E3E",
".$	c #3D3D3D",
"+$	c #404040",
"@$	c #D32B2B",
"#$	c #D32A2A",
"$$	c #D52B2B",
"%$	c #D32929",
"&$	c #616161",
"*$	c #FF3030",
"=$	c #D52A2A",
"-$	c #D32727",
";$	c #D42929",
">$	c #3C3838",
",$	c #D22626",
"'$	c #606060",
")$	c #EE2525",
"!$	c #3E3A3A",
"~$	c #393535",
"{$	c #ED2525",
"]$	c #FB3131",
"^$	c #FF2323",
"/$	c #992D2D",
"($	c #3D3939",
"_$	c #3F3B3B",
":$	c #972929",
"<$	c #F93131",
"[$	c #A54A4A",
"}$	c #FF2828",
"|$	c #EE2727",
"1$	c #D42B2B",
"2$	c #D42C2C",
"3$	c #D42D2D",
"4$	c #D42E2E",
"5$	c #D42F2F",
"6$	c #D43030",
"7$	c #D43131",
"8$	c #D42A2A",
"9$	c #EE2626",
"0$	c #9B4545",
"a$	c #646464",
"b$	c #666565",
"c$	c #A54949",
"d$	c #FC3C3C",
"e$	c #FF4444",
"f$	c #FF4A4A",
"g$	c #FF4F4F",
"h$	c #FF5555",
"i$	c #FF5959",
"j$	c #FF6969",
"k$	c #FF6F6F",
"l$	c #FF7373",
"m$	c #FF8989",
"n$	c #FF8E8E",
"o$	c #FF9393",
"p$	c #FF9898",
"q$	c #FF9D9D",
"r$	c #5D5C5C",
"s$	c #5C5C5C",
"t$	c #5B5B5B",
"u$	c #5A5A5A",
"v$	c #595959",
"w$	c #585858",
"x$	c #575757",
"y$	c #565656",
"z$	c #555555",
"A$	c #5F5F5F",
"        . + + @ @ @ @ # # # # $ $ $ % % % % & & & * * * * = = = = - - - ; ; ; ; > > ; ; > > > , ",
"    . @ # # % % % % & & & & * * * = = = = - - - ; ; ; ; > > > > , , , ' ' ' ' ) ) ) ' ' , , , , ",
"  . # % % * = = = - - - - ; ; ; > > > > , , , ' ' ' ' ) ) ) ) ! ! ! ~ ~ ~ ~ { { { ~ ~ ~ ! ) ' , ",
". # & ] ^ / ( ( ( ( ( ( ( ( ( ( ( ( ( ( ( ( ( ( ( ( ( ( ( ( ( ( ( ( ( ( ( ( ( ( ( ( / _ : { ) ' ",
"@ % = < [ } | 1 2 2 2 2 2 2 2 2 2 2 2 2 2 3 3 3 3 3 3 3 3 3 3 3 3 3 3 3 3 3 3 3 4 5 } [ 6 7 { ! ",
"# = ' 8 9 0 a b b b c c c c c c c d d d d d d d e e e e e e e f f f f g g g g h g i j 9 8 k l ~ ",
"$ > { m n a o p p q q q q q q q r r r r r r r o o o o s s s s s s s t t t t t t t u v w m x y { ",
"& ' z [ A b q B p p p p p p p q q q q q q q r r r r o o o o o o o s s s s s s s t C h D [ E k z ",
"* ' 7 F G b q p p p p p p p q q q q q q q r r r r o o o o o o o s s s s s s s t t C H I F J K z ",
"* ) l F L b q p p p p p p q q q q q q q r r r r o o o o o o o s s s s s s s t t t C M N F O P z ",
"* ! Q R S T q p p p p p q q q q q q q r r r r o o o o o o o s s s s s s s t t t t U M V R O P z ",
"= ! Q W X T q p p p p q q q q q q q r r q r o o o o o r o s s s s s s s t t t t C U M Y W Z P 7 ",
"= ~ y `  .T r p p p q q q q q q q r ..+.@.#.$.%.%.$.#.&.*.=.s s s s s t t t t C C U -.;.` Z >.l ",
"= ~ k ,. .c r p p q q q q q q q r '.).!.~.{.].].].].^./.!.(._.s s s t t t t C C C U -.:.,.<.>.l ",
"= ~ k [.}.c r p q q q q q q q s |.1.2.3.4.5.6.7.7.8.3.4.3.9.0.a.t t t t t C C C C U -.b.[.<.>.l ",
"- { K c.d.c r q q q q q q q s e.f.g.h.h.h.g.i.j.k.l.g.h.h.h.g.m.n.C t t C C C C C U -.o.c.p.x Q ",
"- { P q.r.c r q q q q q q r s.t.u.v.v.v.v.w.x.y.z.A.B.v.v.v.v.u.C.D.t C C C C C C U i E.q.p.F.Q ",
"- G.P H.I.J.r q q q q q r K.L.M.M.M.N.O.P.Q.R.S.T.U.V.W.O.N.M.M.M.X.Y.C C C C C C u i Z.H.`.F.Q ",
"; z >.}  +J.r q q q q r t .+++@+@+@+#+$+%+&+*+z.=+-+;+>+,+'+@+@+@+++)+!+C C C C U u i ~+} {+F.y ",
"> z >.]+^+J.o q q q r r /+(+_+_+:+<+[+}+|+1+2+z.=+3+4+|+}+5+<+:+_+_+6+7+C C C U U u i ~+]+{+E y ",
"> z x 8+9+d o q q r r o 0+a+b+b+c+d+>+|+e+f+g+z.=+h+i+j+|+%+k+c+b+b+a+l+U C U U U u m+n+8+o+E y ",
"> 7 F.p+q+a o q r r r t r+s+t+t+u+v+|+w+x+y+z+A+B+C+y+D+w+|+E+u+t+t+s+F+G+U U U U u m+H+p+I+J y ",
", 7 F.J+K+a o r r r r C L+M+M+N+O+P+Q+R+S+N+T+U+V+W+N+X+Y+Q+Z+`+N+M+M+ @.@U U U U u m++@J+I+J k ",
", 7 J @@#@a s r r r o U N+$@%@$@&@*@=@-@;@%@%@$@$@%@%@$@>@S.,@'@$@%@%@)@.@U U U U u v !@@@~@O k ",
", l J {@]@a s r r o o U ^@/@/@(@_@*@:@<@[@/@/@/@/@/@/@[@}@:@*@_@(@/@/@^@.@U U U U G+v |@{@1@O k ",
"' Q J 2@3@a s r o o o u 4@5@6@6@6@B+7@8@9@6@6@6@6@6@6@9@0@a@b@6@6@6@5@c@.@u U U u G+v d@2@1@O k ",
"' Q O e@f@a s o o o o U g@h@i@i@j@k@|+l@m@n@i@i@i@i@n@o@p@|+q@j@i@i@h@r@.@U U u u G+v s@e@t@Z K ",
"' Q Z u@v@a s o o o o C w@x@y@y@z@A@B@|+C@D@E@F@F@E@D@G@|+H@I@z@y@y@J@K@L@U u u u G+M@N@u@t@Z K ",
"' y <.O@v@f s o o o o t P@Q@R@R@R@S@T@B@|+U@V@W@W@V@X@|+B@Y@Z@R@R@R@`@ #G+u u u u L@.#N@O@+#<.K ",
") y <.@###f s o o o o s $#%#&#S@S@*#=#-#;#|+>#,#,#>#|+Q+'#=#*#S@S@&#)#!#u u u u G+L@.#~#@#{#<.P ",
") y <.]#^#f t o o o s s C /#(#_#_#_#:#<#[#}#|#=+=+|#1#[#<#:#_#_#_#2#3#L@u u u G+G+L@.#4#]#{#p.P ",
") k `.5#6#f t o o s s s s G+7#8#9#9#9#9#0#a#b#c#c#b#a#0#9#9#9#9#d#e#f#u u u G+G+G+L@.#g#5#h#p.>.",
") K `.i#6#f t o s s s s s t .@j#k#l#0#0#0#0#0#m#m#0#0#0#0#0#l#k#n#o#G+u u G+G+G+G+L@.#g#i#p#p.>.",
"~ K `.q#r#f t s s s s s s s U s#t#u#v#w#w#w#w#w#w#w#w#w#w#v#x#y#z#G+u u G+G+G+G+G+L@.#A#q#p#`.x ",
"~ K {+q#B#f t s s s s s s t t U .@C#D#E#F#G#H#H#H#H#G#F#E#I#J#K#G+u u G+G+G+G+G+G+L@L#M#q#p#{+x ",
"~ P o+q#N#h t s s s s s t t t t C G+o#O#P#Q#R#S#S#R#T#U#V#W#.@G+u u G+G+G+G+G+G+G+.@L#X#q#Y#{+x ",
"{ >.o+Z#`#h t s s s s t t t t C C C U L@f#z# $.$.$ $+$K#.@G+u u u G+G+G+G+G+G+G+L@.@L#@$Z#Y#{+F.",
"{ >.o+q#`#h t s s s t t t t C C C C C C U u u G+G+G+u u u u u u G+G+G+G+G+G+G+L@L@.@L##$q#Y#o+F.",
"{ >.~@q#$$h C s s t t t t C C C C C C C U U U U U U U u u u u G+G+G+G+G+G+G+L@L@L@.@L#%$q#&$o+F.",
"{ x ~@*$=$h C s t t t t C C C C C C C U U U U U U U u u u u G+G+G+G+G+G+G+L@L@L@L@.@L#-$*$&$I+F.",
"G.x 1@Z#;$h C t t t t C C C C C C C U U U U U U U u u u u G+G+G+G+G+G+G+L@L@L@L@L@.@>$,$Z#'$I+E ",
"G.x 1@Z#)$!$G+C C C U U U U U U U u u u u u u u G+G+G+G+L@L@L@L@L@L@L@.@.@.@.@.@.@s#~${$Z#&$I+E ",
"{ >.~@]$^$/$($h M _$_$_$i i i i i i i i v v v v v v v .#.#.#.#.#.#.#L#L#L#L#L#L#>$~$:$^$<$&$I+E ",
"~ K {+[$Z#}$|$#$1$1$1$2$2$3$4$4$4$4$5$6$7$7$7$7$7$7$6$6$6$5$4$4$3$3$2$1$1$8$8$8$%$9$}$Z#0$a$`.x ",
"! Q J b$c$d$e$f$g$h$i$@@J+j$k$l$c.` [ m$n$o$p$q$q$p$o$n$m$[ ` c.l$k$j$J+@@i$h$g$f$e$d$0$r$t@O x ",
"' { K <.{#&$s$t$t$u$u$u$u$u$u$u$u$v$v$v$w$w$w$w$x$x$x$x$x$x$x$y$y$y$y$z$z$z$z$z$z$y$v$A${#p.E P ",
", ! z K J {+~@1@t@t@t@t@+#+#+#+#+#+#+#{#{#{#{#h#h#h#h#p#p#p#a$a$a$a$Y#Y#Y#Y#Y#Y#Y#Y#p#1@p.E >.K ",
", ' ! G.y P x F.F.F.F.E E E E J J J O O O O Z Z Z Z Z Z Z <.<.<.<.p.p.p.`.`.`.`.{+`.p.O E >.K K "};
