/* XPM */
static char * wmshutdown_xpm[] = {
"48 48 496 2",
"  	c #7C7064",
". 	c #7B6F63",
"+ 	c #7A6E62",
"@ 	c #796D62",
"# 	c #796D61",
"$ 	c #786C61",
"% 	c #776C60",
"& 	c #766B5F",
"* 	c #766A5F",
"= 	c #75665C",
"- 	c #D17775",
"; 	c #FF9090",
"> 	c #FF9494",
", 	c #CF7674",
"' 	c #776B60",
") 	c #7A6F63",
"! 	c #75695E",
"~ 	c #FF8484",
"{ 	c #FF7070",
"] 	c #EE6262",
"^ 	c #D35A59",
"/ 	c #D45A59",
"( 	c #ED6262",
"_ 	c #CD7775",
": 	c #756A5E",
"< 	c #71665B",
"[ 	c #FF8D8D",
"} 	c #FF6363",
"| 	c #973F3E",
"1 	c #39302A",
"2 	c #3B322D",
"3 	c #3A322C",
"4 	c #38302A",
"5 	c #953F3E",
"6 	c #786D61",
"7 	c #73685D",
"8 	c #6E6359",
"9 	c #FF8686",
"0 	c #EE5656",
"a 	c #423B34",
"b 	c #443D36",
"c 	c #433C35",
"d 	c #EC5554",
"e 	c #786C60",
"f 	c #72675C",
"g 	c #6C6257",
"h 	c #D44D4C",
"i 	c #463E37",
"j 	c #453E37",
"k 	c #D24C4B",
"l 	c #6C6156",
"m 	c #FF8383",
"n 	c #D54C4B",
"o 	c #D34B4A",
"p 	c #6B6156",
"q 	c #D54948",
"r 	c #D34948",
"s 	c #6B6056",
"t 	c #FF8282",
"u 	c #D54847",
"v 	c #D34847",
"w 	c #6A6056",
"x 	c #FF8181",
"y 	c #D54746",
"z 	c #463F38",
"A 	c #D34746",
"B 	c #70655A",
"C 	c #6A5F55",
"D 	c #FF7E7E",
"E 	c #D54645",
"F 	c #493C36",
"G 	c #9A5351",
"H 	c #E57474",
"I 	c #FD7F7F",
"J 	c #FF8483",
"K 	c #995450",
"L 	c #D34544",
"M 	c #FF7D7D",
"N 	c #D54544",
"O 	c #63433E",
"P 	c #BA5F5D",
"Q 	c #FF7675",
"R 	c #FF7270",
"S 	c #FF6A68",
"T 	c #FF6867",
"U 	c #FF6A69",
"V 	c #FF7271",
"W 	c #B95F5D",
"X 	c #62423E",
"Y 	c #D34443",
"Z 	c #FF7C7C",
"` 	c #D54444",
" .	c #8D4F4C",
"..	c #F66D6A",
"+.	c #FF6865",
"@.	c #FF6563",
"#.	c #FF6562",
"$.	c #FF6663",
"%.	c #FC6360",
"&.	c #EB5653",
"*.	c #FD6461",
"=.	c #FF6866",
"-.	c #F56C6A",
";.	c #804A48",
">.	c #D34342",
",.	c #695F54",
"'.	c #FF7979",
").	c #D54242",
"!.	c #8E4C48",
"~.	c #FF706C",
"{.	c #FF625E",
"].	c #FF635F",
"^.	c #FF7976",
"/.	c #FEF1F0",
"(.	c #FEF0EF",
"_.	c #FF726F",
":.	c #FF706D",
"<.	c #8A4B48",
"[.	c #D34141",
"}.	c #695E54",
"|.	c #FF7676",
"1.	c #D54141",
"2.	c #8A4C48",
"3.	c #FF6B66",
"4.	c #FF5E59",
"5.	c #FF5F5A",
"6.	c #FC5853",
"7.	c #FE7671",
"8.	c #FFF5F4",
"9.	c #FFF3F2",
"0.	c #FD6D69",
"a.	c #FB5853",
"b.	c #FF6A66",
"c.	c #7F4744",
"d.	c #D34040",
"e.	c #6F655A",
"f.	c #FF7474",
"g.	c #D54140",
"h.	c #5D3E3A",
"i.	c #F45F5A",
"j.	c #FF5B55",
"k.	c #FF5C56",
"l.	c #FF5953",
"m.	c #EB554F",
"n.	c #EF9693",
"o.	c #FE817D",
"p.	c #FFF3F3",
"q.	c #FFF1F1",
"r.	c #FE7F7B",
"s.	c #F09A96",
"t.	c #EB554E",
"u.	c #F35F59",
"v.	c #593D38",
"w.	c #D33F3F",
"x.	c #6F6459",
"y.	c #685E53",
"z.	c #D53F3E",
"A.	c #B7504B",
"B.	c #FF5A53",
"C.	c #FF5951",
"D.	c #FD5750",
"E.	c #EE7A75",
"F.	c #FCF4F3",
"G.	c #FFF7F6",
"H.	c #FF837D",
"I.	c #FFF1F0",
"J.	c #FF837E",
"K.	c #FFF9F8",
"L.	c #FCF4F4",
"M.	c #EE7B75",
"N.	c #FD5850",
"O.	c #A94B47",
"P.	c #443C35",
"Q.	c #3A312C",
"R.	c #D33D3C",
"S.	c #685D53",
"T.	c #FF6E6E",
"U.	c #D53E3D",
"V.	c #473933",
"W.	c #FB5C54",
"X.	c #FF554C",
"Y.	c #FF554D",
"Z.	c #FF534A",
"`.	c #F17974",
" +	c #FCF6F6",
".+	c #FFFFFF",
"++	c #FFC7C5",
"@+	c #FF7972",
"#+	c #FF766F",
"$+	c #FFC8C6",
"%+	c #F27A74",
"&+	c #FB5B54",
"*+	c #463933",
"=+	c #675D53",
"-+	c #FF6B6B",
";+	c #D53D3C",
">+	c #453E36",
",+	c #8B403B",
"'+	c #FF544B",
")+	c #FF5149",
"!+	c #FF5148",
"~+	c #F5514A",
"{+	c #FFAAA7",
"]+	c #FF5B54",
"^+	c #FF6B64",
"/+	c #FF635B",
"(+	c #FF5C54",
"_+	c #FFACA9",
":+	c #F65249",
"<+	c #89413C",
"[+	c #D33C3B",
"}+	c #675C52",
"|+	c #FF6767",
"1+	c #D53B3A",
"2+	c #C94941",
"3+	c #FF4F44",
"4+	c #FF4F43",
"5+	c #FF483C",
"6+	c #F6A59F",
"7+	c #FFCBC9",
"8+	c #FF564C",
"9+	c #FF4D42",
"0+	c #FF685E",
"a+	c #FFE7E6",
"b+	c #FFE6E4",
"c+	c #FF6056",
"d+	c #FF574D",
"e+	c #F6A49F",
"f+	c #C84841",
"g+	c #D33A39",
"h+	c #FF6464",
"i+	c #D53A39",
"j+	c #F04B41",
"k+	c #FF4B40",
"l+	c #FF4B3F",
"m+	c #FD463B",
"n+	c #FDE5E3",
"o+	c #FFFBFB",
"p+	c #FF8D87",
"q+	c #FF4A3E",
"r+	c #FF5247",
"s+	c #FF6961",
"t+	c #FF6860",
"u+	c #FF5045",
"v+	c #FF4A3F",
"w+	c #FF8D86",
"x+	c #FDE4E3",
"y+	c #FD463A",
"z+	c #EF4C42",
"A+	c #D33938",
"B+	c #665C52",
"C+	c #FF5F5F",
"D+	c #D53938",
"E+	c #413A33",
"F+	c #FF473A",
"G+	c #FF473B",
"H+	c #FE5448",
"I+	c #FFEFEE",
"J+	c #FFF4F4",
"K+	c #FF6C62",
"L+	c #FF463A",
"M+	c #FF685F",
"N+	c #FFEFED",
"O+	c #FE5347",
"P+	c #FF4B3D",
"Q+	c #D33837",
"R+	c #6E6459",
"S+	c #FF5B5B",
"T+	c #D53737",
"U+	c #FF4638",
"V+	c #FF4536",
"W+	c #FF4436",
"X+	c #FF5346",
"Y+	c #FEF3F2",
"Z+	c #FD6458",
"`+	c #FF4435",
" @	c #FC6559",
".@	c #D33635",
"+@	c #655B51",
"@@	c #FF5757",
"#@	c #D53736",
"$@	c #EB3D2E",
"%@	c #FF4232",
"&@	c #FF4131",
"*@	c #FEF9F9",
"=@	c #F97B70",
"-@	c #FF3F2F",
";@	c #F97B71",
">@	c #FEFAF9",
",@	c #FFE4E2",
"'@	c #E93C2E",
")@	c #D33534",
"!@	c #6E6358",
"~@	c #FF5353",
"{@	c #D53635",
"]@	c #BA3327",
"^@	c #FF3F2E",
"/@	c #FF3D2E",
"(@	c #FF3626",
"_@	c #FFA6A1",
":@	c #F5B6B1",
"<@	c #FD4030",
"[@	c #FF3E2E",
"}@	c #FD4031",
"|@	c #F5B7B2",
"1@	c #FFA6A0",
"2@	c #B83227",
"3@	c #D33434",
"4@	c #FF4D4D",
"5@	c #D53433",
"6@	c #712D26",
"7@	c #FF3D2A",
"8@	c #FF3B28",
"9@	c #FF3826",
"0@	c #FF5144",
"a@	c #FFFAFA",
"b@	c #EC7B70",
"c@	c #FA3B2A",
"d@	c #FE3826",
"e@	c #FF3A28",
"f@	c #EC7C71",
"g@	c #FFF9F9",
"h@	c #FF5142",
"i@	c #FF3C2A",
"j@	c #6F2E27",
"k@	c #D33333",
"l@	c #645A50",
"m@	c #FF4848",
"n@	c #3A312B",
"o@	c #40342D",
"p@	c #F03323",
"q@	c #FF3725",
"r@	c #FF3320",
"s@	c #FF7E75",
"t@	c #F1AFA9",
"u@	c #F16B5E",
"v@	c #F04C3D",
"w@	c #F1B0AA",
"x@	c #FF7E74",
"y@	c #FF3220",
"z@	c #EF3323",
"A@	c #6D6358",
"B@	c #FF4343",
"C@	c #D53332",
"D@	c #403932",
"E@	c #A02B21",
"F@	c #FF3420",
"G@	c #FF331F",
"H@	c #FF3926",
"I@	c #FF8179",
"J@	c #FFFCFB",
"K@	c #FDF7F6",
"L@	c #FCEFEE",
"M@	c #FF8077",
"N@	c #9E2C21",
"O@	c #D33332",
"P@	c #FF3D3D",
"Q@	c #D53130",
"R@	c #48302A",
"S@	c #E82E1C",
"T@	c #FF311C",
"U@	c #FF301B",
"V@	c #FF321D",
"W@	c #FF5C4F",
"X@	c #FFABA5",
"Y@	c #FFECEB",
"Z@	c #FFAAA5",
"`@	c #E82E1B",
" #	c #47312A",
".#	c #D33130",
"+#	c #756A5F",
"@#	c #6D6258",
"##	c #63594F",
"$#	c #FF3838",
"%#	c #D5302F",
"&#	c #602A24",
"*#	c #FB2C17",
"=#	c #FF2D17",
"-#	c #FF2912",
";#	c #FF3522",
">#	c #FF4534",
",#	c #FF5040",
"'#	c #FD2D17",
")#	c #D3302F",
"!#	c #FF3535",
"~#	c #3F3832",
"{#	c #672922",
"]#	c #F92912",
"^#	c #FF2A13",
"/#	c #FF2911",
"(#	c #652821",
"_#	c #D32F2E",
":#	c #6D6257",
"<#	c #62594F",
"[#	c #FF3232",
"}#	c #D52F2E",
"|#	c #3E3731",
"1#	c #5B2922",
"2#	c #E32411",
"3#	c #FF260E",
"4#	c #FF270E",
"5#	c #E32511",
"6#	c #5E2922",
"7#	c #3E3730",
"8#	c #D32D2C",
"9#	c #62584F",
"0#	c #D52D2C",
"a#	c #442E28",
"b#	c #91241A",
"c#	c #E9210B",
"d#	c #FF230A",
"e#	c #FF240A",
"f#	c #FF2309",
"g#	c #972318",
"h#	c #442E27",
"i#	c #D32C2A",
"j#	c #62584E",
"k#	c #D52C2B",
"l#	c #3D3630",
"m#	c #3B2F29",
"n#	c #6B251D",
"o#	c #AC1F12",
"p#	c #D81D08",
"q#	c #EF1D06",
"r#	c #AB1F12",
"s#	c #6A241D",
"t#	c #D32B2A",
"u#	c #6C6157",
"v#	c #61584E",
"w#	c #FF3131",
"x#	c #D52A29",
"y#	c #3C3630",
"z#	c #3A332D",
"A#	c #39332D",
"B#	c #D32928",
"C#	c #D52A28",
"D#	c #D32827",
"E#	c #61574D",
"F#	c #D52827",
"G#	c #D32726",
"H#	c #60574D",
"I#	c #FF3030",
"J#	c #D52625",
"K#	c #D32624",
"L#	c #60564D",
"M#	c #D42524",
"N#	c #3B312C",
"O#	c #D22423",
"P#	c #EE2423",
"Q#	c #392F29",
"R#	c #382F29",
"S#	c #ED2423",
"T#	c #FB3131",
"U#	c #FF2323",
"V#	c #982623",
"W#	c #382E29",
"X#	c #3B312B",
"Y#	c #972522",
"Z#	c #F93131",
"`#	c #A33F3A",
" $	c #FF2828",
".$	c #EE2625",
"+$	c #D42827",
"@$	c #D42927",
"#$	c #D42A28",
"$$	c #D42A29",
"%$	c #D42B2A",
"&$	c #D42C2B",
"*$	c #D42D2C",
"=$	c #D42E2D",
"-$	c #D42F2E",
";$	c #D4302E",
">$	c #9B3F3A",
",$	c #695F55",
"'$	c #5D534A",
")$	c #FC3C3C",
"!$	c #FF4444",
"~$	c #FF4A4A",
"{$	c #FF4F4F",
"]$	c #FF5555",
"^$	c #FF5959",
"/$	c #FF6969",
"($	c #FF6F6F",
"_$	c #FF7373",
":$	c #FF8989",
"<$	c #FF8E8E",
"[$	c #FF9393",
"}$	c #FF9898",
"|$	c #FF9D9D",
"1$	c #73675C",
"2$	c #5F554C",
"3$	c #595047",
"4$	c #554C44",
"5$	c #544C43",
"6$	c #544B43",
"7$	c #6A6055",
"            . . . . . . . . . . . . . . . . . . . . . . . . . . . . . . . . . . . .             ",
"    . . + @ # # # # # # # # # # # # # # # # # # # # # # # # # # # # # # # # # # # # @ + . .     ",
"  . + $ $ % & * * * * * * * * * * * * * * * * * * * * * * * * * * * * * * * * * * & % $ $ + .   ",
". + % = - ; > > > > > > > > > > > > > > > > > > > > > > > > > > > > > > > > > > > > ; , = ' + . ",
") % ! , ~ { ] ^ / / / / / / / / / / / / / / / / / / / / / / / / / / / / / / / / ^ ( { ~ _ ! % ) ",
"@ : < [ } | 1 2 3 3 3 3 3 3 3 3 3 3 3 3 3 3 3 3 3 3 3 3 3 3 3 3 3 3 3 3 3 3 3 3 2 4 5 } [ < : @ ",
"6 7 8 9 0 1 a b b b b b b b b b b b b b b b b b b b b b b b b b b b b b b b b b b c 4 d 9 8 7 6 ",
"e f g ~ h 2 b i j j j j j j j j j j j j j j j j j j j j j j j j j j j j j j j j j b 2 k ~ g f e ",
"% < l m n 3 b j j j j j j j j j j j j j j j j j j j j j j j j j j j j j j j j j j b 3 o m l < % ",
"' < p m q 3 b j j j j j j j j j j j j j j j j j j j j j j j j j j j j j j j j j j b 3 r m p < ' ",
"' < s t u 3 b j j j j j j j j j j j j j j j j j j j j j j j j j j j j j j j j j j b 3 v t s < ' ",
"' < w x y 3 b j j j j j j j j j j j j j z i j j j j i z j j j j j j j j j j j j j b 3 A x w < ' ",
"' B C D E 3 b j j j j j j j j j j j j F G H I J J I H K F j j j j j j j j j j j j b 3 L D C B ' ",
"' B C M N 3 b j j j j j j j j j i O P Q R S T T T T U V Q W X i j j j j j j j j j b 3 Y M C B ' ",
"' B C Z ` 3 b j j j j j j j j b  ...+.@.#.$.%.&.&.*.@.#.@.=.-.;.b j j j j j j j j b 3 >.Z C B ' ",
"' B ,.'.).3 b j j j j j j j b !.~.{.].].].{.^./.(._.{.].].].{.:.<.b j j j j j j j b 3 [.'.,.B ' ",
"& B }.|.1.3 b j j j j j j j 2.3.4.5.5.5.5.6.7.8.9.0.a.5.5.5.5.4.b.c.j j j j j j j b 3 d.|.}.B & ",
"& e.}.f.g.3 b j j j j j j h.i.j.j.j.k.l.m.n.o.p.q.r.s.t.l.k.j.j.j.u.v.j j j j j j b 3 w.f.}.e.& ",
"& x.y.{ z.3 b j j j j j c A.B.C.C.C.D.E.F.G.H.9.I.J.K.L.M.N.C.C.C.B.O.P.j j j j j b Q.R.{ y.x.& ",
"& x.S.T.U.3 b j j j j j V.W.X.X.Y.Z.`. +.+++@+9.I.#+$+.+ +%+Z.Y.X.X.&+*+j j j j j b Q.R.T.S.x.& ",
"& x.=+-+;+3 b j j j j >+,+'+)+)+!+~+L..+{+]+^+9.I./+(+_+.+F.:+!+)+)+'+<+>+j j j j b Q.[+-+=+x.& ",
"& x.}+|+1+Q.b j j j j c 2+3+4+4+5+6+.+7+8+9+0+a+b+c+9+d+7+.+e+5+4+4+3+f+c j j j j b Q.g+|+}+x.& ",
"& x.}+h+i+Q.b j j j j a j+k+k+l+m+n+o+p+q+l+r+s+t+u+l+v+w+o+x+y+l+k+k+z+a j j j j b Q.A+h+}+x.& ",
"& x.B+C+D+Q.b j j j j E+l+F+G+F+H+I+J+K+L+G+G+F+F+G+G+F+M+p.N+O+F+G+G+P+E+j j j j b Q.Q+C+B+x.& ",
"& R+B+S+T+Q.b j j j >+E+U+V+V+W+X+I+Y+Z+`+V+V+V+V+V+V+`+ @Y+I+X+W+V+V+U+E+>+j j j b Q..@S+B+R+& ",
"* 8 +@@@#@Q.b j j j >+E+$@%@&@&@&@b+*@=@-@&@&@&@&@&@&@-@;@>@,@&@&@&@%@'@E+>+j j j b Q.)@@@+@8 * ",
"* !@+@~@{@Q.b j j j j a ]@^@/@/@(@_@.+:@<@[@/@/@/@/@[@}@|@.+1@(@/@/@^@2@a j j j j b Q.3@~@+@!@* ",
"* !@+@4@5@Q.b j j j i c 6@7@8@8@9@0@a@.+b@c@d@e@e@d@c@f@.+g@h@9@8@8@i@j@c i j j j b Q.k@4@+@!@* ",
"* !@l@m@5@n@b j j j j b o@p@q@q@q@r@s@a@.+t@u@v@v@u@w@.+a@x@y@q@q@q@z@o@b j j j j b n@k@m@l@!@* ",
"* A@l@B@C@n@b j j j j j D@E@F@r@r@G@H@I@J@.+K@L@L@K@.+o+M@H@G@r@r@F@N@D@j j j j j b n@O@B@l@A@* ",
"* A@l@P@Q@n@b j j j j j c R@S@T@T@T@U@V@W@X@Y@I.I.Y@Z@W@V@U@T@T@T@`@ #c j j j j j b n@.#P@l@A@* ",
"+#@###$#%#n@b j j j j j j E+&#*#=#=#=#=#-#;#>#,#,#>#;#-#=#=#=#=#'#&#E+j j j j j j b n@)#$###@#+#",
"+#@###!#%#n@b j j j j j j b ~#{#]#^#-#-#-#-#-#/#/#-#-#-#-#-#^#]#(#~#b j j j j j j b n@_#!###@#+#",
": :#<#[#}#n@b j j j j j j j b |#1#2#3#4#4#4#4#4#4#4#4#4#4#3#5#6#7#b j j j j j j j b n@8#[#<#:#: ",
": g 9#[#0#n@b j j j j j j j j b D@a#b#c#d#e#f#f#f#f#e#d#c#g#h#D@b j j j j j j j j b n@i#[#9#g : ",
": g j#[#k#n@b j j j j j j j j j >+a l#m#n#o#p#q#q#p#r#s#m#l#a >+j j j j j j j j j b n@t#[#j#g : ",
": u#v#w#x#n@b j j j j j j j j j j j b a D@y#z#A#A#z#y#D@a b j j j j j j j j j j j b n@B#w#v#u#: ",
": u#v#[#C#n@b j j j j j j j j j j j j j >+b b c c b b >+j j j j j j j j j j j j j b n@D#[#v#u#: ",
": u#E#[#F#n@b j j j j j j j j j j j j j j j j j j j j j j j j j j j j j j j j j j b n@G#[#E#u#: ",
"! l H#I#J#n@b j j j j j j j j j j j j j j j j j j j j j j j j j j j j j j j j j j b n@K#I#H#l ! ",
"! l L#w#M#N#b i j j j j j j j j j j j j j j j j j j j j j j j j j j j j j j j j j b N#O#w#L#l ! ",
"! u#L#w#P#Q#a b b b b b b b b b b b b b b b b b b b b b b b b b b b b b b b b b b c R#S#w#L#u#! ",
"+#g v#T#U#V#W#X#n@n@n@n@n@n@n@n@n@n@n@n@n@n@n@n@n@n@n@n@n@n@n@n@n@n@n@n@n@n@n@n@X#R#Y#U#Z#v#g +#",
"' x.l@`#w# $.$G#+$+$@$#$#$$$%$%$&$&$*$=$-$-$;$;$;$;$-$-$=$*$&$&$%$%$$$#$#$@$+$+$G#.$ $w#>$l@x.' ",
"6 f ,$'$`#)$!$~${$]$^$C+h+/$($_$'.D ~ :$<$[$}$|$|$}$[$<$:$~ D '._$($/$h+C+^$]${$~$!$)$>$'$,$1$6 ",
"+ & B =+2$3$4$5$6$6$6$6$6$6$6$6$6$6$6$6$6$6$6$6$6$6$6$6$6$6$6$6$6$6$6$6$6$6$6$6$5$4$3$2$=+B & + ",
". @ +#B 7$+@##j#j#j#j#j#j#j#j#j#j#j#j#j#j#j#j#j#j#j#j#j#j#j#j#j#j#j#j#j#j#j#j#j#j###+@7$B +#@ . ",
"  . @ & 7 B R+!@!@!@!@!@!@!@!@!@!@!@!@!@!@!@!@!@!@!@!@!@!@!@!@!@!@!@!@!@!@!@!@!@!@x.B 7 & @ .   "};
