/* XPM */
static char * wmshutdown_xpm[] = {
"48 48 488 2",
"  	c #797679",
". 	c #787578",
"+ 	c #777477",
"@ 	c #767376",
"# 	c #757275",
"$ 	c #747174",
"% 	c #737073",
"& 	c #726C6E",
"* 	c #D07879",
"= 	c #FF9090",
"- 	c #FF9494",
"; 	c #CF7878",
"> 	c #747274",
", 	c #726F72",
"' 	c #CE7878",
") 	c #FF8484",
"! 	c #FF7070",
"~ 	c #EE6262",
"{ 	c #D35A5A",
"] 	c #D45A5A",
"^ 	c #ED6262",
"/ 	c #CD7879",
"( 	c #6F6C6F",
"_ 	c #FF8D8D",
": 	c #FF6363",
"< 	c #974041",
"[ 	c #383334",
"} 	c #393537",
"| 	c #393536",
"1 	c #373334",
"2 	c #954041",
"3 	c #706D70",
"4 	c #6B696B",
"5 	c #FF8686",
"6 	c #EE5757",
"7 	c #403F40",
"8 	c #434143",
"9 	c #413F41",
"0 	c #373234",
"a 	c #EC5555",
"b 	c #6A676A",
"c 	c #D44D4D",
"d 	c #424042",
"e 	c #444244",
"f 	c #D24C4C",
"g 	c #696669",
"h 	c #FF8383",
"i 	c #D54C4C",
"j 	c #D34B4B",
"k 	c #6E6B6E",
"l 	c #D54949",
"m 	c #393436",
"n 	c #D34949",
"o 	c #686568",
"p 	c #FF8282",
"q 	c #D54849",
"r 	c #D34848",
"s 	c #FF8181",
"t 	c #D54748",
"u 	c #444344",
"v 	c #D34747",
"w 	c #676567",
"x 	c #FF7E7E",
"y 	c #D54747",
"z 	c #444143",
"A 	c #473F40",
"B 	c #995454",
"C 	c #E57474",
"D 	c #FD7F7F",
"E 	c #FF8483",
"F 	c #985554",
"G 	c #D34545",
"H 	c #676467",
"I 	c #FF7D7D",
"J 	c #D54646",
"K 	c #624546",
"L 	c #BA5F5F",
"M 	c #FF7675",
"N 	c #FF7270",
"O 	c #FF6A68",
"P 	c #FF6867",
"Q 	c #FF6A69",
"R 	c #FF7271",
"S 	c #B95F5F",
"T 	c #614445",
"U 	c #D34445",
"V 	c #FF7C7C",
"W 	c #D54545",
"X 	c #8C5150",
"Y 	c #F66D6A",
"Z 	c #FF6865",
"` 	c #FF6563",
" .	c #FF6562",
"..	c #FF6663",
"+.	c #FC6360",
"@.	c #EB5653",
"#.	c #FD6461",
"$.	c #FF6866",
"%.	c #F56C6A",
"&.	c #804C4D",
"*.	c #D34344",
"=.	c #6D6B6D",
"-.	c #666466",
";.	c #FF7979",
">.	c #D54343",
",.	c #8D4D4C",
"'.	c #FF706C",
").	c #FF625E",
"!.	c #FF635F",
"~.	c #FF7976",
"{.	c #FEF1F0",
"].	c #FEF0EF",
"^.	c #FF726F",
"/.	c #FF706D",
"(.	c #8A4C4C",
"_.	c #D34242",
":.	c #6D6A6D",
"<.	c #FF7676",
"[.	c #D54242",
"}.	c #8A4D4D",
"|.	c #FF6B66",
"1.	c #FF5E59",
"2.	c #FF5F5A",
"3.	c #FC5853",
"4.	c #FE7671",
"5.	c #FFF5F4",
"6.	c #FFF3F2",
"7.	c #FD6D69",
"8.	c #FB5853",
"9.	c #FF6A66",
"0.	c #7E4949",
"a.	c #D34141",
"b.	c #666366",
"c.	c #FF7474",
"d.	c #D54141",
"e.	c #5C4042",
"f.	c #F45F5A",
"g.	c #FF5B55",
"h.	c #FF5C56",
"i.	c #FF5953",
"j.	c #EB554F",
"k.	c #EF9693",
"l.	c #FE817D",
"m.	c #FFF3F3",
"n.	c #FFF1F1",
"o.	c #FE7F7B",
"p.	c #F09A96",
"q.	c #EB554E",
"r.	c #F35F59",
"s.	c #593F40",
"t.	c #D34040",
"u.	c #656365",
"v.	c #D53F3F",
"w.	c #423F41",
"x.	c #B7504D",
"y.	c #FF5A53",
"z.	c #FF5951",
"A.	c #FD5750",
"B.	c #EE7A75",
"C.	c #FCF4F3",
"D.	c #FFF7F6",
"E.	c #FF837D",
"F.	c #FFF1F0",
"G.	c #FF837E",
"H.	c #FFF9F8",
"I.	c #FCF4F4",
"J.	c #EE7B75",
"K.	c #FD5850",
"L.	c #A94C4A",
"M.	c #D33D3D",
"N.	c #FF6E6E",
"O.	c #D53E3E",
"P.	c #453C3D",
"Q.	c #FB5C54",
"R.	c #FF554C",
"S.	c #FF554D",
"T.	c #FF534A",
"U.	c #F17974",
"V.	c #FCF6F6",
"W.	c #FFFFFF",
"X.	c #FFC7C5",
"Y.	c #FF7972",
"Z.	c #FF766F",
"`.	c #FFC8C6",
" +	c #F27A74",
".+	c #FB5B54",
"++	c #443C3D",
"@+	c #656265",
"#+	c #FF6B6B",
"$+	c #D53D3E",
"%+	c #8B4140",
"&+	c #FF544B",
"*+	c #FF5149",
"=+	c #FF5148",
"-+	c #F5514A",
";+	c #FFAAA7",
">+	c #FF5B54",
",+	c #FF6B64",
"'+	c #FF635B",
")+	c #FF5C54",
"!+	c #FFACA9",
"~+	c #F65249",
"{+	c #894341",
"]+	c #D33C3C",
"^+	c #6C6A6C",
"/+	c #646164",
"(+	c #FF6767",
"_+	c #D53C3C",
":+	c #C94A43",
"<+	c #FF4F44",
"[+	c #FF4F43",
"}+	c #FF483C",
"|+	c #F6A59F",
"1+	c #FFCBC9",
"2+	c #FF564C",
"3+	c #FF4D42",
"4+	c #FF685E",
"5+	c #FFE7E6",
"6+	c #FFE6E4",
"7+	c #FF6056",
"8+	c #FF574D",
"9+	c #F6A49F",
"0+	c #C84942",
"a+	c #D33A3A",
"b+	c #6C696C",
"c+	c #FF6464",
"d+	c #D53B3B",
"e+	c #F04B42",
"f+	c #FF4B40",
"g+	c #FF4B3F",
"h+	c #FD463B",
"i+	c #FDE5E3",
"j+	c #FFFBFB",
"k+	c #FF8D87",
"l+	c #FF4A3E",
"m+	c #FF5247",
"n+	c #FF6961",
"o+	c #FF6860",
"p+	c #FF5045",
"q+	c #FF4A3F",
"r+	c #FF8D86",
"s+	c #FDE4E3",
"t+	c #FD463A",
"u+	c #EF4C43",
"v+	c #403E40",
"w+	c #D3393A",
"x+	c #636163",
"y+	c #FF5F5F",
"z+	c #D53A3A",
"A+	c #3F3E3F",
"B+	c #FF473A",
"C+	c #FF473B",
"D+	c #FE5448",
"E+	c #FFEFEE",
"F+	c #FFF4F4",
"G+	c #FF6C62",
"H+	c #FF463A",
"I+	c #FF685F",
"J+	c #FFEFED",
"K+	c #FE5347",
"L+	c #FF4B3D",
"M+	c #D33839",
"N+	c #FF5B5B",
"O+	c #D53838",
"P+	c #FF4638",
"Q+	c #FF4536",
"R+	c #FF4436",
"S+	c #FF5346",
"T+	c #FEF3F2",
"U+	c #FD6458",
"V+	c #FF4435",
"W+	c #FC6559",
"X+	c #D33737",
"Y+	c #636063",
"Z+	c #FF5757",
"`+	c #D53737",
" @	c #EB3D2E",
".@	c #FF4232",
"+@	c #FF4131",
"@@	c #FEF9F9",
"#@	c #F97B70",
"$@	c #FF3F2F",
"%@	c #F97B71",
"&@	c #FEFAF9",
"*@	c #FFE4E2",
"=@	c #E93C2E",
"-@	c #D33636",
";@	c #FF5353",
">@	c #D53636",
",@	c #BA342A",
"'@	c #FF3F2E",
")@	c #FF3D2E",
"!@	c #FF3626",
"~@	c #FFA6A1",
"{@	c #F5B6B1",
"]@	c #FD4030",
"^@	c #FF3E2E",
"/@	c #FD4031",
"(@	c #F5B7B2",
"_@	c #FFA6A0",
":@	c #B8332A",
"<@	c #D33535",
"[@	c #626062",
"}@	c #FF4D4D",
"|@	c #D53435",
"1@	c #702F2D",
"2@	c #FF3D2A",
"3@	c #FF3B28",
"4@	c #FF3826",
"5@	c #FF5144",
"6@	c #FFFAFA",
"7@	c #EC7B70",
"8@	c #FA3B2A",
"9@	c #FE3826",
"0@	c #FF3A28",
"a@	c #EC7C71",
"b@	c #FFF9F9",
"c@	c #FF5142",
"d@	c #FF3C2A",
"e@	c #6E302E",
"f@	c #D33434",
"g@	c #6B686B",
"h@	c #625F62",
"i@	c #FF4848",
"j@	c #393435",
"k@	c #3F3738",
"l@	c #F03323",
"m@	c #FF3725",
"n@	c #FF3320",
"o@	c #FF7E75",
"p@	c #F1AFA9",
"q@	c #F16B5E",
"r@	c #F04C3D",
"s@	c #F1B0AA",
"t@	c #FF7E74",
"u@	c #FF3220",
"v@	c #EF3323",
"w@	c #615F61",
"x@	c #FF4343",
"y@	c #D53434",
"z@	c #3E3C3E",
"A@	c #A02C26",
"B@	c #FF3420",
"C@	c #FF331F",
"D@	c #FF3926",
"E@	c #FF8179",
"F@	c #FFFCFB",
"G@	c #FDF7F6",
"H@	c #FCEFEE",
"I@	c #FF8077",
"J@	c #9E2D26",
"K@	c #D33333",
"L@	c #FF3D3D",
"M@	c #D53232",
"N@	c #473334",
"O@	c #E82F1D",
"P@	c #FF311C",
"Q@	c #FF301B",
"R@	c #FF321D",
"S@	c #FF5C4F",
"T@	c #FFABA5",
"U@	c #FFECEB",
"V@	c #FFAAA5",
"W@	c #E82F1C",
"X@	c #463434",
"Y@	c #D33132",
"Z@	c #6A686A",
"`@	c #615E61",
" #	c #FF3838",
".#	c #D53131",
"+#	c #5F2D2C",
"@#	c #FB2C17",
"##	c #FF2D17",
"$#	c #FF2912",
"%#	c #FF3522",
"&#	c #FF4534",
"*#	c #FF5040",
"=#	c #FD2D17",
"-#	c #602D2C",
";#	c #D33031",
">#	c #605E60",
",#	c #FF3535",
"'#	c #3D3C3D",
")#	c #662B29",
"!#	c #F92912",
"~#	c #FF2A13",
"{#	c #FF2911",
"]#	c #652A28",
"^#	c #D33030",
"/#	c #727072",
"(#	c #FF3232",
"_#	c #D52F30",
":#	c #3C3B3C",
"<#	c #5A2C2A",
"[#	c #E32412",
"}#	c #FF260E",
"|#	c #FF270E",
"1#	c #E32512",
"2#	c #5D2B2A",
"3#	c #3C3A3C",
"4#	c #D32E2E",
"5#	c #605D60",
"6#	c #D52E2E",
"7#	c #433131",
"8#	c #912520",
"9#	c #E9210B",
"0#	c #FF230A",
"a#	c #FF240A",
"b#	c #FF2309",
"c#	c #96241E",
"d#	c #3E3D3E",
"e#	c #D32C2C",
"f#	c #5F5D5F",
"g#	c #D52D2D",
"h#	c #3B393B",
"i#	c #3A3233",
"j#	c #6B2724",
"k#	c #AC2017",
"l#	c #D81D0A",
"m#	c #EF1D06",
"n#	c #AB2017",
"o#	c #6A2624",
"p#	c #D32B2C",
"q#	c #696769",
"r#	c #5F5C5F",
"s#	c #FF3131",
"t#	c #D52B2B",
"u#	c #383738",
"v#	c #383638",
"w#	c #D32A2A",
"x#	c #D52A2B",
"y#	c #D32929",
"z#	c #5E5C5E",
"A#	c #D52929",
"B#	c #D32828",
"C#	c #FF3030",
"D#	c #D52727",
"E#	c #D32627",
"F#	c #5D5B5D",
"G#	c #D42627",
"H#	c #D22525",
"I#	c #5E5B5E",
"J#	c #EE2424",
"K#	c #383233",
"L#	c #373233",
"M#	c #ED2424",
"N#	c #FB3131",
"O#	c #FF2323",
"P#	c #982829",
"Q#	c #373133",
"R#	c #972728",
"S#	c #F93131",
"T#	c #A34143",
"U#	c #FF2828",
"V#	c #EE2626",
"W#	c #D42929",
"X#	c #D4292A",
"Y#	c #D42A2B",
"Z#	c #D42B2B",
"`#	c #D42C2C",
" $	c #D42D2D",
".$	c #D42E2E",
"+$	c #D42E2F",
"@$	c #D42F30",
"#$	c #D43030",
"$$	c #9A4244",
"%$	c #6F6D6F",
"&$	c #5B585A",
"*$	c #A34243",
"=$	c #FC3C3C",
"-$	c #FF4444",
";$	c #FF4A4A",
">$	c #FF4F4F",
",$	c #FF5555",
"'$	c #FF5959",
")$	c #FF6969",
"!$	c #FF6F6F",
"~$	c #FF7373",
"{$	c #FF8989",
"]$	c #FF8E8E",
"^$	c #FF9393",
"/$	c #FF9898",
"($	c #FF9D9D",
"_$	c #9A4243",
":$	c #5C5A5C",
"<$	c #565456",
"[$	c #535153",
"}$	c #525052",
"            . . . . . . . . . . . . . . . . . . . . . . . . . . . . . . . . . . . .             ",
"    . . + @ @ @ @ @ @ @ @ @ @ @ @ @ @ @ @ @ @ @ @ @ @ @ @ @ @ @ @ @ @ @ @ @ @ @ @ @ @ + . .     ",
"  . + # # $ % % % % % % % % % % % % % % % % % % % % % % % % % % % % % % % % % % % % $ # # + .   ",
". + $ & * = - - - - - - - - - - - - - - - - - - - - - - - - - - - - - - - - - - - - = ; & $ + . ",
"+ > , ' ) ! ~ { ] ] ] ] ] ] ] ] ] ] ] ] ] ] ] ] ] ] ] ] ] ] ] ] ] ] ] ] ] ] ] ] { ^ ! ) / , > + ",
"@ , ( _ : < [ } | | | | | | | | | | | | | | | | | | | | | | | | | | | | | | | | } 1 2 : _ ( , @ ",
"# 3 4 5 6 [ 7 8 8 8 8 8 8 8 8 8 8 8 8 8 8 8 8 8 8 8 8 8 8 8 8 8 8 8 8 8 8 8 8 8 8 9 0 a 5 4 3 # ",
"# ( b ) c } d e e e e e e e e e e e e e e e e e e e e e e e e e e e e e e e e e e 8 } f ) b ( # ",
"$ ( g h i | d e e e e e e e e e e e e e e e e e e e e e e e e e e e e e e e e e e 8 | j h g ( $ ",
"$ k g h l | d e e e e e e e e e e e e e e e e e e e e e e e e e e e e e e e e e e 8 m n h g k $ ",
"$ k o p q | d e e e e e e e e e e e e e e e e e e e e e e e e e e e e e e e e e e 8 m r p o k $ ",
"$ k o s t | d e e e e e e e e e e e e e u e e e e e e u e e e e e e e e e e e e e 8 m v s o k $ ",
"$ k w x y m d e e e e e e e e e e e z A B C D E E D C F A 8 e e e e e e e e e e e 8 m G x w k $ ",
"$ k H I J m d e e e e e e e e e e K L M N O P P P P Q R M S T e e e e e e e e e e 8 m U I H k $ ",
"$ k H V W m d e e e e e e e e d X Y Z `  ...+.@.@.#.`  .` $.%.&.8 e e e e e e e e 8 m *.V H k $ ",
"$ =.-.;.>.m d e e e e e e e d ,.'.).!.!.!.).~.{.].^.).!.!.!.)./.(.8 e e e e e e e 8 m _.;.-.=.$ ",
"$ :.-.<.[.m d e e e e e e e }.|.1.2.2.2.2.3.4.5.6.7.8.2.2.2.2.1.9.0.e e e e e e e 8 m a.<.-.:.$ ",
"$ :.b.c.d.m d e e e e e e e.f.g.g.g.h.i.j.k.l.m.n.o.p.q.i.h.g.g.g.r.s.e e e e e e 8 m t.c.b.:.$ ",
"$ :.u.! v.m d e e e e e w.x.y.z.z.z.A.B.C.D.E.6.F.G.H.I.J.K.z.z.z.y.L.d e e e e e 8 m M.! u.:.$ ",
"% :.u.N.O.m d e e e e e P.Q.R.R.S.T.U.V.W.X.Y.6.F.Z.`.W.V. +T.S.R.R..+++e e e e e 8 m M.N.u.:.% ",
"% :.@+#+$+m d e e e e 8 %+&+*+*+=+-+I.W.;+>+,+6.F.'+)+!+W.C.~+=+*+*+&+{+8 e e e e 8 m ]+#+@+:.% ",
"% ^+/+(+_+m d e e e e 9 :+<+[+[+}+|+W.1+2+3+4+5+6+7+3+8+1+W.9+}+[+[+<+0+9 e e e e 8 m a+(+/+^+% ",
"% b+/+c+d+m d e e e e 7 e+f+f+g+h+i+j+k+l+g+m+n+o+p+g+q+r+j+s+t+g+f+f+u+v+e e e e 8 m w+c+/+b+% ",
"% b+x+y+z+m d e e e e A+g+B+C+B+D+E+F+G+H+C+C+B+B+C+C+B+I+m.J+K+B+C+C+L+A+e e e e 8 m M+y+x+b+% ",
"% b+x+N+O+m d e e e 8 A+P+Q+Q+R+S+E+T+U+V+Q+Q+Q+Q+Q+Q+V+W+T+E+S+R+Q+Q+P+A+8 e e e 8 m X+N+x+b+% ",
"% 4 Y+Z+`+m d e e e 8 A+ @.@+@+@+@6+@@#@$@+@+@+@+@+@+@$@%@&@*@+@+@+@.@=@A+8 e e e 8 m -@Z+Y+4 % ",
"% 4 Y+;@>@m d e e e e v+,@'@)@)@!@~@W.{@]@^@)@)@)@)@^@/@(@W._@!@)@)@'@:@v+e e e e 8 m <@;@Y+4 % ",
"% 4 [@}@|@m d e e e e 9 1@2@3@3@4@5@6@W.7@8@9@0@0@9@8@a@W.b@c@4@3@3@d@e@9 e e e e 8 m f@}@[@4 % ",
"% g@h@i@|@j@d e e e e d k@l@m@m@m@n@o@6@W.p@q@r@r@q@s@W.6@t@u@m@m@m@v@k@d e e e e 8 j@f@i@h@g@% ",
"% g@w@x@y@j@d e e e e e z@A@B@n@n@C@D@E@F@W.G@H@H@G@W.j+I@D@C@n@n@B@J@z@e e e e e 8 j@K@x@w@g@% ",
"% g@w@L@M@j@d e e e e e d N@O@P@P@P@Q@R@S@T@U@F.F.U@V@S@R@Q@P@P@P@W@X@d e e e e e 8 j@Y@L@w@g@% ",
"% Z@`@ #.#j@d e e e e e e A++#@#########$#%#&#*#*#&#%#$#########=#-#A+e e e e e e 8 j@;# #`@Z@% ",
"% Z@>#,#.#j@d e e e e e e 8 '#)#!#~#$#$#$#$#$#{#{#$#$#$#$#$#~#!#]#'#8 e e e e e e 8 j@^#,#>#Z@% ",
"/#b >#(#_#j@d e e e e e e e d :#<#[#}#|#|#|#|#|#|#|#|#|#|#}#1#2#3#d e e e e e e e 8 j@4#(#>#b /#",
", b 5#(#6#j@d e e e e e e e e d z@7#8#9#0#a#b#b#b#b#a#0#9#c#7#d#d e e e e e e e e 8 j@e#(#5#b , ",
"/#b f#(#g#j@d e e e e e e e e e 8 7 h#i#j#k#l#m#m#l#n#o#i#h#7 8 e e e e e e e e e 8 j@p#(#f#b /#",
", q#r#s#t#j@d e e e e e e e e e e e 8 7 z@h#u#v#v#u#h#z@7 8 e e e e e e e e e e e 8 j@w#s#r#q#, ",
", q#r#(#x#j@d e e e e e e e e e e e e e 8 8 d d d d 8 8 e e e e e e e e e e e e e 8 j@y#(#r#q#, ",
", q#z#(#A#j@d e e e e e e e e e e e e e e e e e e e e e e e e e e e e e e e e e e 8 j@B#(#z#q#, ",
", g z#C#D#j@d e e e e e e e e e e e e e e e e e e e e e e e e e e e e e e e e e e 8 j@E#C#z#g , ",
", g F#s#G#m d e e e e e e e e e e e e e e e e e e e e e e e e e e e e e e e e e e 8 m H#s#F#g , ",
", q#I#s#J#K#7 8 8 8 8 8 8 8 8 8 8 8 8 8 8 8 8 8 8 8 8 8 8 8 8 8 8 8 8 8 8 8 8 8 8 9 L#M#s#I#q#, ",
"% b r#N#O#P#Q#m j@j@j@j@j@j@j@j@j@j@j@j@j@j@j@j@j@j@j@j@j@j@j@j@j@j@j@j@j@j@j@j@m L#R#O#S#r#b % ",
"$ b+w@T#s#U#V#B#W#W#X#Y#Y#Z#`#`# $ $.$+$@$@$#$#$#$#$@$@$+$.$ $ $`#`#Z#Y#Y#X#W#W#B#V#U#s#$$w@^+$ ",
"# %$H &$*$=$-$;$>$,$'$y+c+)$!$~$;.x ) {$]$^$/$($($/$^$]${$) x ;.~$!$)$c+y+'$,$>$;$-$=$_$&$H 3 # ",
"+ % =.@+:$<$[$}$}$}$}$}$}$}$}$}$}$}$}$}$}$}$}$}$}$}$}$}$}$}$}$}$}$}$}$}$}$}$}$}$}$[$<$:$@+=.% + ",
". @ % =.o Y+>#f#f#f#f#f#f#f#f#f#f#f#f#f#f#f#f#f#f#f#f#f#f#f#f#f#f#f#f#f#f#f#f#f#f#>#Y+o =.% @ . ",
"  . @ $ 3 k b+4 4 4 4 4 4 4 4 4 4 4 4 4 4 4 4 4 4 4 4 4 4 4 4 4 4 4 4 4 4 4 4 4 4 b+k 3 $ @ .   "};
