/* XPM */
static char * wmshutdown_xpm[] = {
"48 48 254 2",
"  	c #424868",
". 	c #424867",
"+ 	c #414767",
"@ 	c #664460",
"# 	c #884058",
"$ 	c #9B3E52",
"% 	c #A53E51",
"& 	c #A53F52",
"* 	c #A73F52",
"= 	c #9E4054",
"- 	c #8B4259",
"; 	c #4A4664",
"> 	c #A43D50",
", 	c #D8383E",
"' 	c #EE3636",
") 	c #EE3737",
"! 	c #EF3737",
"~ 	c #EF3838",
"{ 	c #F03838",
"] 	c #F03939",
"^ 	c #F13939",
"/ 	c #F23A3A",
"( 	c #F33B3B",
"_ 	c #F43B3B",
": 	c #F43C3C",
"< 	c #F53C3C",
"[ 	c #F53D3D",
"} 	c #DE3D43",
"| 	c #A93F52",
"1 	c #4B4664",
"2 	c #424767",
"3 	c #8B3E55",
"4 	c #E0363A",
"5 	c #ED3636",
"6 	c #E93E42",
"7 	c #904157",
"8 	c #434766",
"9 	c #AB3B4C",
"0 	c #EC3535",
"a 	c #ED3535",
"b 	c #F63D3D",
"c 	c #B13E4F",
"d 	c #A93B4C",
"e 	c #EB3434",
"f 	c #AF3F4F",
"g 	c #904057",
"h 	c #DD3539",
"i 	c #A13C4F",
"j 	c #EA3333",
"k 	c #EA3434",
"l 	c #A84052",
"m 	c #D4353C",
"n 	c #F15050",
"o 	c #F24F4F",
"p 	c #DD3D43",
"q 	c #63435F",
"r 	c #E93333",
"s 	c #F04040",
"t 	c #FEF6F6",
"u 	c #FEF5F5",
"v 	c #F14141",
"w 	c #664461",
"x 	c #873F57",
"y 	c #E93232",
"z 	c #F04C4C",
"A 	c #FFFFFF",
"B 	c #F14D4D",
"C 	c #963C52",
"D 	c #ED4242",
"E 	c #F14C4C",
"F 	c #F24646",
"G 	c #A33C4E",
"H 	c #E83232",
"I 	c #F06A6A",
"J 	c #FEEFEF",
"K 	c #EE4949",
"L 	c #F04B4B",
"M 	c #FEF0F0",
"N 	c #F56F6F",
"O 	c #AA4052",
"P 	c #A33B4E",
"Q 	c #EF5C5C",
"R 	c #FEF4F4",
"S 	c #F27979",
"T 	c #F57F7F",
"U 	c #F46161",
"V 	c #AB3F51",
"W 	c #A13B4E",
"X 	c #E83131",
"Y 	c #EB3E3E",
"Z 	c #FCE3E3",
"` 	c #F49191",
" .	c #EF4B4B",
"..	c #F79696",
"+.	c #FDE4E4",
"@.	c #F24242",
"#.	c #E73131",
"$.	c #F5A1A1",
"%.	c #FBD6D6",
"&.	c #EB3636",
"*.	c #F03A3A",
"=.	c #FCD8D8",
"-.	c #F9A3A3",
";.	c #EB4444",
">.	c #FEF7F7",
",.	c #EE5D5D",
"'.	c #EF4A4A",
").	c #F36262",
"!.	c #F24949",
"~.	c #AA3F51",
"{.	c #F39191",
"].	c #FACFCF",
"^.	c #EE4747",
"/.	c #EF4747",
"(.	c #FBC9C9",
"_.	c #F79393",
":.	c #E73030",
"<.	c #FAD0D0",
"[.	c #F28989",
"}.	c #F59797",
"|.	c #F69696",
"1.	c #F68484",
"2.	c #FCD1D1",
"3.	c #E63030",
"4.	c #E93838",
"5.	c #FFFCFC",
"6.	c #EB4949",
"7.	c #F25050",
"8.	c #FFFBFB",
"9.	c #F03D3D",
"0.	c #AA3E50",
"a.	c #EC5555",
"b.	c #FEF3F3",
"c.	c #EF3939",
"d.	c #F25858",
"e.	c #ED6161",
"f.	c #FCE4E4",
"g.	c #FDE5E5",
"h.	c #F36666",
"i.	c #E52F2F",
"j.	c #EC5D5D",
"k.	c #FCE8E8",
"l.	c #FDEAEA",
"m.	c #F26161",
"n.	c #EA4848",
"o.	c #E83333",
"p.	c #EE3939",
"q.	c #A83E50",
"r.	c #E83636",
"s.	c #FEFAFA",
"t.	c #EA4A4A",
"u.	c #F05151",
"v.	c #FFFAFA",
"w.	c #EF3B3B",
"x.	c #A13A4D",
"y.	c #F9C8C8",
"z.	c #F18686",
"A.	c #F58B8B",
"B.	c #FAC7C7",
"C.	c #E42E2E",
"D.	c #F18989",
"E.	c #F9C7C7",
"F.	c #FAC9C9",
"G.	c #E84141",
"H.	c #F16363",
"I.	c #EF4646",
"J.	c #9F3A4D",
"K.	c #F29797",
"L.	c #F9CDCD",
"M.	c #E73232",
"N.	c #EC3636",
"O.	c #FBCFCF",
"P.	c #F69898",
"Q.	c #E32E2E",
"R.	c #E73A3A",
"S.	c #FBE1E1",
"T.	c #F39797",
"U.	c #F69B9B",
"V.	c #FCE0E0",
"W.	c #EE3E3E",
"X.	c #E32D2D",
"Y.	c #EA5151",
"Z.	c #FDF2F2",
"`.	c #F07A7A",
" +	c #F27D7D",
".+	c #FEF2F2",
"++	c #EF5454",
"@+	c #A73E50",
"#+	c #9E3A4D",
"$+	c #ED6666",
"%+	c #EB3535",
"&+	c #F59B9B",
"*+	c #F06969",
"=+	c #A63E50",
"-+	c #923B51",
";+	c #E22D2D",
">+	c #EA5050",
",+	c #EC5E5E",
"'+	c #EF6161",
")+	c #EE5454",
"!+	c #983E53",
"~+	c #823E56",
"{+	c #F29595",
"]+	c #F9C9C9",
"^+	c #F18787",
"/+	c #EA4C4C",
"(+	c #E93434",
"_+	c #EC4D4D",
":+	c #F49696",
"<+	c #EB3D3D",
"[+	c #874058",
"}+	c #61435F",
"|+	c #E22C2C",
"1+	c #E84040",
"2+	c #F18888",
"3+	c #FDE9E9",
"4+	c #EB4343",
"5+	c #634460",
"6+	c #CD3038",
"7+	c #E73535",
"8+	c #EA4747",
"9+	c #ED5D5D",
"0+	c #E83535",
"a+	c #D5373F",
"b+	c #9C3A4E",
"c+	c #A23E51",
"d+	c #474665",
"e+	c #D32F34",
"f+	c #494664",
"g+	c #863D55",
"h+	c #E12C2C",
"i+	c #883F56",
"j+	c #A2374A",
"k+	c #A73B4D",
"l+	c #A1374A",
"m+	c #A93B4D",
"n+	c #843D55",
"o+	c #D42F34",
"p+	c #DC353A",
"q+	c #9A3A4E",
"r+	c #CC3038",
"s+	c #D2363D",
"t+	c #9F3C50",
"u+	c #484665",
"v+	c #604360",
"w+	c #813D56",
"x+	c #933B51",
"y+	c #9D3A4E",
"z+	c #9E3B4E",
"A+	c #9F3B4E",
"B+	c #9F3C4F",
"C+	c #963D52",
"D+	c #843F57",
"E+	c #614360",
"                                                                                                ",
"                          . . . . . . . . . . . . . . . . . . . . . .                           ",
"                  . + @ # $ % % % % % & & & & * * * * * * * * * * * = - @ + .                   ",
"              . ; > , ' ) ) ! ! ~ { { { ] ^ ^ ^ / / / / ( ( ( _ : : < < [ } | 1 .               ",
"            2 3 4 5 5 ' ' ) ) ! ! ~ { { { ] ^ ^ ^ / / / / ( ( ( _ : : < < [ [ 6 7 2             ",
"          8 9 0 0 a 5 5 ' ' ) ) ! ! ~ { { { ] ^ ^ ^ / / / / ( ( ( _ : : < < [ [ b c 8           ",
"        2 d e 0 0 0 a 5 5 ' ' ) ) ! ! ~ { { { ] ^ ^ ^ / / / / ( ( ( _ : : < < [ [ b f 2         ",
"      . 3 e e e 0 0 0 a 5 5 ' ' ) ) ! ! ~ { { { ] ^ ^ ^ / / / / ( ( ( _ : : < < [ [ b g .       ",
"      ; h e e e e 0 0 0 a 5 5 ' ' ) ) ! ! ~ { { { ] ^ ^ ^ / / / / ( ( ( _ : : < < [ [ 6 1       ",
"    . i j k e e e e 0 0 0 a 5 5 ' ' ) ) ! ! ~ { { { ] ^ ^ ^ / / / / ( ( ( _ : : < < [ [ l .     ",
"    + m j j k e e e e 0 0 0 a 5 5 ' ' ) ) ! ! n o { { ] ^ ^ ^ / / / / ( ( ( _ : : < < [ p +     ",
"    q r r j j k e e e e 0 0 0 a 5 5 ' ' ) ) s t u v { { ] ^ ^ ^ / / / / ( ( ( _ : : < < [ w     ",
"    x y r r j j k e e e e 0 0 0 a 5 5 ' ' ) z A A B { { { ] ^ ^ ^ / / / / ( ( ( _ : : < < -     ",
"  . C y y r r j j k e e e e 0 D 0 a 5 5 ' ' z A A E ~ { { { ] ^ F ^ / / / / ( ( ( _ : : < = .   ",
"  + G H y y r r j j k e e e I J K 0 a 5 5 ' L A A E ! ~ { { { E M N ^ / / / / ( ( ( _ : : O +   ",
"  + P H H y y r r j j k e Q R S 0 0 0 a 5 5 L A A z ! ! ~ { { { T R U ^ / / / / ( ( ( _ : V +   ",
"  + W X H H y y r r j j Y Z ` e e 0 0 0 a 5  .A A z ) ! ! ~ { { { ..+.@.^ / / / / ( ( ( _ V +   ",
"  + W #.X H H y y r r j $.%.&.e e e 0 0 0 a  .A A L ) ) ! ! ~ { { *.=.-.^ ^ / / / / ( ( ( V +   ",
"  + W #.#.X H H y y r ;.>.,.k e e e e 0 0 0 '.A A L ' ) ) ! ! ~ { { ).>.!.^ ^ / / / / ( ( ~.+   ",
"  + W #.#.#.X H H y y {.].j j k e e e e 0 0 ^.A A /.' ' ) ) ! ! ~ { { (._.^ ^ ^ / / / / ( ~.+   ",
"  + W :.#.#.#.X H H y <.[.r j j k e e e e 0 0 }.|.5 5 ' ' ) ) ! ! ~ { 1.2.] ^ ^ ^ / / / / ~.+   ",
"  + W 3.:.#.#.#.X H 4.5.6.r r j j k e e e e 0 0 0 a 5 5 ' ' ) ) ! ! ~ 7.8.9.] ^ ^ ^ / / / 0.+   ",
"  + W 3.3.:.#.#.#.X a.b.y y r r j j k e e e e 0 0 0 a 5 5 ' ' ) ) ! ! c.t d.{ ] ^ ^ ^ / / 0.+   ",
"  + W 3.3.3.:.#.#.#.e.f.H y y r r j j k e e e e 0 0 0 a 5 5 ' ' ) ) ! ! g.h.{ { ] ^ ^ ^ / 0.+   ",
"  + W i.3.3.3.:.#.#.j.k.H H y y r r j j k e e e e 0 0 0 a 5 5 ' ' ) ) ! l.m.{ { { ] ^ ^ ^ 0.+   ",
"  + W i.i.3.3.3.:.#.n.5.o.H H y y r r j j k e e e e 0 0 0 a 5 5 ' ' ) p.5.E ~ { { { ] ^ ^ q.+   ",
"  + W i.i.i.3.3.3.:.r.s.t.X H H y y r r j j k e e e e 0 0 0 a 5 5 ' ' u.v.w.! ~ { { { ] ^ q.+   ",
"  + x.i.i.i.i.3.3.3.:.y.z.#.X H H y y r r j j k e e e e 0 0 0 a 5 5 ' A.B.) ! ! ~ { { { ] q.+   ",
"  + x.C.i.i.i.i.3.3.3.D.E.#.#.X H H y y r r j j k e e e e 0 0 0 a 5 5 F.A.) ) ! ! ~ { { { q.+   ",
"  + x.C.C.i.i.i.i.3.3.G.R j.#.#.X H H y y r r j j k e e e e 0 0 0 a H.b.I.' ) ) ! ! ~ { { q.+   ",
"  + J.C.C.C.i.i.i.i.3.3.K.L.M.#.#.X H H y y r r j j k e e e e 0 0 N.O.P.5 ' ' ) ) ! ! ~ { q.+   ",
"  + J.Q.C.C.C.i.i.i.i.3.R.S.T.#.#.#.X H H y y r r j j k e e e e 0 U.V.W.5 5 ' ' ) ) ! ! ~ q.+   ",
"  + J.X.Q.C.C.C.i.i.i.i.3.Y.Z.`.#.#.#.X H H y y r r j j k e e e  +.+++0 a 5 5 ' ' ) ) ! ! @++   ",
"  + #+X.X.Q.C.C.C.i.i.i.i.3.$+Z.T.M.#.#.X H H y y r r j j k %+&+.+*+0 0 0 a 5 5 ' ' ) ) ! =++   ",
"  . -+;+X.X.Q.C.C.C.i.i.i.i.3.>+S.L.,+#.#.X H H y y r r j '+].V.)+e e 0 0 0 a 5 5 ' ' ) ) !+.   ",
"    ~+;+;+X.X.Q.C.C.C.i.i.i.i.3.R.{+R ]+^+/+o.H H (+_+[.]+b.:+<+e e e e 0 0 0 a 5 5 ' ' ) [+    ",
"    }+|+;+;+X.X.Q.C.C.C.i.i.i.i.3.3.1+2+E.s.5.l.3+5.s.E.[.4+j j k e e e e 0 0 0 a 5 5 ' ' 5+    ",
"    + 6+|+;+;+X.X.Q.C.C.C.i.i.i.i.3.3.3.:.7+8+j.9+n.0+y y r r j j k e e e e 0 0 0 a 5 5 a++     ",
"    . b+|+|+;+;+X.X.Q.C.C.C.i.i.i.i.3.3.3.:.#.#.#.X H H y y r r j j k e e e e 0 0 0 a 5 c+.     ",
"      d+e+|+|+;+;+X.X.Q.C.C.C.i.i.i.i.3.3.3.:.#.#.#.X H H y y r r j j k e e e e 0 0 0 4 f+      ",
"      . g+h+|+|+;+;+X.X.Q.C.C.C.i.i.i.i.3.3.3.:.#.#.#.X H H y y r r j j k e e e e 0 0 i+.       ",
"        2 j+h+|+|+;+;+X.X.Q.C.C.C.i.i.i.i.3.3.3.:.#.#.#.X H H y y r r j j k e e e e k++         ",
"          8 l+h+|+|+;+;+X.X.Q.C.C.C.i.i.i.i.3.3.3.:.#.#.#.X H H y y r r j j k e e m+2           ",
"            2 n+o+|+|+;+;+X.X.Q.C.C.C.i.i.i.i.3.3.3.:.#.#.#.X H H y y r r j j p+i+2             ",
"              . f+q+r+|+;+;+X.X.Q.C.C.C.i.i.i.i.3.3.3.:.#.#.#.X H H y y r s+t+u+.               ",
"                  . + v+w+x+b+y+y+y+y+y+y+z+z+z+z+z+z+z+A+B+B+B+B+B+C+D+E++ .                   ",
"                          . . . . . . . . . . . . . . . . . . . . . .                           ",
"                                                                                                "};
