/* XPM */
static char * wmshutdown_xpm[] = {
"48 48 493 2",
"  	c #424868",
". 	c #424867",
"+ 	c #414767",
"@ 	c #414766",
"# 	c #404666",
"$ 	c #404665",
"% 	c #404564",
"& 	c #3F4564",
"* 	c #3F4463",
"= 	c #3E4463",
"- 	c #46435F",
"; 	c #CC7176",
"> 	c #FF9090",
", 	c #FF9494",
"' 	c #CA7075",
") 	c #45435F",
"! 	c #3E4362",
"~ 	c #FF8484",
"{ 	c #FF7070",
"] 	c #ED6262",
"^ 	c #D2585A",
"/ 	c #D3585A",
"( 	c #EC6262",
"_ 	c #C87075",
": 	c #3E4462",
"< 	c #3C415F",
"[ 	c #FF8D8D",
"} 	c #FF6363",
"| 	c #943A3E",
"1 	c #221E2C",
"2 	c #211F2E",
"3 	c #211E2C",
"4 	c #923A3E",
"5 	c #3D4260",
"6 	c #3A3F5C",
"7 	c #FF8686",
"8 	c #ED5656",
"9 	c #202436",
"0 	c #222538",
"a 	c #212437",
"b 	c #EB5454",
"c 	c #3C425F",
"d 	c #393E5B",
"e 	c #D34B4C",
"f 	c #212538",
"g 	c #23263A",
"h 	c #222639",
"i 	c #D14A4B",
"j 	c #383E5A",
"k 	c #FF8383",
"l 	c #D44A4B",
"m 	c #221F2E",
"n 	c #D2494A",
"o 	c #D44748",
"p 	c #D24748",
"q 	c #3B415E",
"r 	c #383D59",
"s 	c #FF8282",
"t 	c #D44648",
"u 	c #D24647",
"v 	c #FF8181",
"w 	c #D44547",
"x 	c #D24546",
"y 	c #3F4563",
"z 	c #FF7E7E",
"A 	c #D44446",
"B 	c #242639",
"C 	c #312838",
"D 	c #964D51",
"E 	c #E57374",
"F 	c #FD7F7F",
"G 	c #FF8483",
"H 	c #E47374",
"I 	c #954E51",
"J 	c #D24345",
"K 	c #373D58",
"L 	c #FF7D7D",
"M 	c #D44345",
"N 	c #573640",
"O 	c #B85B5D",
"P 	c #FF7675",
"Q 	c #FF7270",
"R 	c #FF6A68",
"S 	c #FF6867",
"T 	c #FF6A69",
"U 	c #FF7271",
"V 	c #B75B5D",
"W 	c #56353F",
"X 	c #D24244",
"Y 	c #FF7C7C",
"Z 	c #D44244",
"` 	c #88494D",
" .	c #F66D6A",
"..	c #FF6865",
"+.	c #FF6563",
"@.	c #FF6562",
"#.	c #FF6663",
"$.	c #FC6360",
"%.	c #EB5653",
"&.	c #FD6461",
"*.	c #FF6866",
"=.	c #F56C6A",
"-.	c #7A4248",
";.	c #D24143",
">.	c #373C58",
",.	c #FF7979",
"'.	c #D44042",
").	c #894549",
"!.	c #FF706C",
"~.	c #FF625E",
"{.	c #FF635F",
"].	c #FF7976",
"^.	c #FEF1F0",
"/.	c #FEF0EF",
"(.	c #FF726F",
"_.	c #FF706D",
":.	c #854448",
"<.	c #D23F41",
"[.	c #3B405E",
"}.	c #FF7676",
"|.	c #D43F41",
"1.	c #854549",
"2.	c #FF6B66",
"3.	c #FF5E59",
"4.	c #FF5F5A",
"5.	c #FC5853",
"6.	c #FE7671",
"7.	c #FFF5F4",
"8.	c #FFF3F2",
"9.	c #FD6D69",
"0.	c #FB5853",
"a.	c #FF6A66",
"b.	c #783F45",
"c.	c #D23E40",
"d.	c #3B405D",
"e.	c #373C57",
"f.	c #FF7474",
"g.	c #D43E40",
"h.	c #50303B",
"i.	c #F45F5A",
"j.	c #FF5B55",
"k.	c #FF5C56",
"l.	c #FF5953",
"m.	c #EB554F",
"n.	c #EF9693",
"o.	c #FE817D",
"p.	c #FFF3F3",
"q.	c #FFF1F1",
"r.	c #FE7F7B",
"s.	c #F09A96",
"t.	c #EB554E",
"u.	c #F35F59",
"v.	c #4C2E39",
"w.	c #D23D3F",
"x.	c #363C57",
"y.	c #D43C3E",
"z.	c #232537",
"A.	c #B54C4B",
"B.	c #FF5A53",
"C.	c #FF5951",
"D.	c #FD5750",
"E.	c #EE7A75",
"F.	c #FCF4F3",
"G.	c #FFF7F6",
"H.	c #FF837D",
"I.	c #FFF1F0",
"J.	c #FF837E",
"K.	c #FFF9F8",
"L.	c #FCF4F4",
"M.	c #EE7B75",
"N.	c #FD5850",
"O.	c #A74647",
"P.	c #232538",
"Q.	c #211E2D",
"R.	c #D23A3C",
"S.	c #363B57",
"T.	c #FF6E6E",
"U.	c #D43C3D",
"V.	c #302635",
"W.	c #FB5C54",
"X.	c #FF554C",
"Y.	c #FF554D",
"Z.	c #FF534A",
"`.	c #F17974",
" +	c #FCF6F6",
".+	c #FFFFFF",
"++	c #FFC7C5",
"@+	c #FF7972",
"#+	c #FF766F",
"$+	c #FFC8C6",
"%+	c #F27A74",
"&+	c #FB5B54",
"*+	c #2F2535",
"=+	c #363B56",
"-+	c #FF6B6B",
";+	c #D43B3C",
">+	c #87383C",
",+	c #FF544B",
"'+	c #FF5149",
")+	c #FF5148",
"!+	c #F5514A",
"~+	c #FFAAA7",
"{+	c #FF5B54",
"]+	c #FF6B64",
"^+	c #FF635B",
"/+	c #FF5C54",
"(+	c #FFACA9",
"_+	c #F65249",
":+	c #853A3D",
"<+	c #D23A3B",
"[+	c #3A405D",
"}+	c #FF6767",
"|+	c #D4393B",
"1+	c #221E2D",
"2+	c #C84741",
"3+	c #FF4F44",
"4+	c #FF4F43",
"5+	c #FF483C",
"6+	c #F6A59F",
"7+	c #FFCBC9",
"8+	c #FF564C",
"9+	c #FF4D42",
"0+	c #FF685E",
"a+	c #FFE7E6",
"b+	c #FFE6E4",
"c+	c #FF6056",
"d+	c #FF574D",
"e+	c #F6A49F",
"f+	c #C74641",
"g+	c #D23839",
"h+	c #FF6464",
"i+	c #D4383A",
"j+	c #F04B41",
"k+	c #FF4B40",
"l+	c #FF4B3F",
"m+	c #FD463B",
"n+	c #FDE5E3",
"o+	c #FFFBFB",
"p+	c #FF8D87",
"q+	c #FF4A3E",
"r+	c #FF5247",
"s+	c #FF6961",
"t+	c #FF6860",
"u+	c #FF5045",
"v+	c #FF4A3F",
"w+	c #FF8D86",
"x+	c #FDE4E3",
"y+	c #FD463A",
"z+	c #EF4C42",
"A+	c #D23738",
"B+	c #353A55",
"C+	c #FF5F5F",
"D+	c #D43739",
"E+	c #202336",
"F+	c #FF473A",
"G+	c #FF473B",
"H+	c #FE5448",
"I+	c #FFEFEE",
"J+	c #FFF4F4",
"K+	c #FF6C62",
"L+	c #FF463A",
"M+	c #FF685F",
"N+	c #FFEFED",
"O+	c #FE5347",
"P+	c #FF4B3D",
"Q+	c #D23637",
"R+	c #3A405C",
"S+	c #FF5B5B",
"T+	c #D43537",
"U+	c #FF4638",
"V+	c #FF4536",
"W+	c #FF4436",
"X+	c #FF5346",
"Y+	c #FEF3F2",
"Z+	c #FD6458",
"`+	c #FF4435",
" @	c #FC6559",
".@	c #D23436",
"+@	c #FF5757",
"@@	c #D43436",
"#@	c #EB3C2E",
"$@	c #FF4232",
"%@	c #FF4131",
"&@	c #FEF9F9",
"*@	c #F97B70",
"=@	c #FF3F2F",
"-@	c #F97B71",
";@	c #FEFAF9",
">@	c #FFE4E2",
",@	c #E93B2E",
"'@	c #D23335",
")@	c #353A54",
"!@	c #FF5353",
"~@	c #D43335",
"{@	c #B83028",
"]@	c #FF3F2E",
"^@	c #FF3D2E",
"/@	c #FF3626",
"(@	c #FFA6A1",
"_@	c #F5B6B1",
":@	c #FD4030",
"<@	c #FF3E2E",
"[@	c #FD4031",
"}@	c #F5B7B2",
"|@	c #FFA6A0",
"1@	c #B72F27",
"2@	c #D23234",
"3@	c #343954",
"4@	c #FF4D4D",
"5@	c #D43133",
"6@	c #6B2227",
"7@	c #FF3D2A",
"8@	c #FF3B28",
"9@	c #FF3826",
"0@	c #FF5144",
"a@	c #FFFAFA",
"b@	c #EC7B70",
"c@	c #FA3B2A",
"d@	c #FE3826",
"e@	c #FF3A28",
"f@	c #EC7C71",
"g@	c #FFF9F9",
"h@	c #FF5142",
"i@	c #FF3C2A",
"j@	c #692228",
"k@	c #D23133",
"l@	c #FF4848",
"m@	c #29202F",
"n@	c #F03323",
"o@	c #FF3725",
"p@	c #FF3320",
"q@	c #FF7E75",
"r@	c #F1AFA9",
"s@	c #F16B5E",
"t@	c #F04C3D",
"u@	c #F1B0AA",
"v@	c #FF7E74",
"w@	c #FF3220",
"x@	c #EF3323",
"y@	c #343953",
"z@	c #FF4343",
"A@	c #D43032",
"B@	c #202234",
"C@	c #9E2422",
"D@	c #FF3420",
"E@	c #FF331F",
"F@	c #FF3926",
"G@	c #FF8179",
"H@	c #FFFCFB",
"I@	c #FDF7F6",
"J@	c #FCEFEE",
"K@	c #FF8077",
"L@	c #9C2522",
"M@	c #D23032",
"N@	c #FF3D3D",
"O@	c #D42E31",
"P@	c #381F2C",
"Q@	c #E82D1C",
"R@	c #FF311C",
"S@	c #FF301B",
"T@	c #FF321D",
"U@	c #FF5C4F",
"V@	c #FFABA5",
"W@	c #FFECEB",
"X@	c #FFAAA5",
"Y@	c #E82D1B",
"Z@	c #371F2C",
"`@	c #D22E30",
" #	c #393F5B",
".#	c #343853",
"+#	c #FF3838",
"@#	c #D42D30",
"##	c #581D25",
"$#	c #FB2C17",
"%#	c #FF2D17",
"&#	c #FF2912",
"*#	c #FF3522",
"=#	c #FF4534",
"-#	c #FF5040",
";#	c #FD2D17",
">#	c #591D25",
",#	c #D22D2F",
"'#	c #333852",
")#	c #FF3535",
"!#	c #1F2234",
"~#	c #611C23",
"{#	c #F92912",
"]#	c #FF2A13",
"^#	c #FF2911",
"/#	c #5F1B22",
"(#	c #D22C2E",
"_#	c #FF3232",
":#	c #D42B2E",
"<#	c #1E2133",
"[#	c #531B24",
"}#	c #E32311",
"|#	c #FF260E",
"1#	c #FF270E",
"2#	c #E32411",
"3#	c #571B23",
"4#	c #D22A2D",
"5#	c #D42A2C",
"6#	c #331D2A",
"7#	c #8E1B1B",
"8#	c #E9200B",
"9#	c #FF230A",
"0#	c #FF240A",
"a#	c #FF2309",
"b#	c #951B19",
"c#	c #351D29",
"d#	c #1F2335",
"e#	c #D2282B",
"f#	c #333851",
"g#	c #D4292B",
"h#	c #1E2032",
"i#	c #251C2A",
"j#	c #66191E",
"k#	c #AB1913",
"l#	c #D81C09",
"m#	c #EF1D06",
"n#	c #AA1913",
"o#	c #65181E",
"p#	c #261C2B",
"q#	c #1E2132",
"r#	c #D2282A",
"s#	c #393E5A",
"t#	c #323751",
"u#	c #FF3131",
"v#	c #D4272A",
"w#	c #1D2032",
"x#	c #1C1F2F",
"y#	c #1B1E2F",
"z#	c #D22628",
"A#	c #D42629",
"B#	c #D22527",
"C#	c #D42427",
"D#	c #D22427",
"E#	c #323750",
"F#	c #FF3030",
"G#	c #D42225",
"H#	c #D22225",
"I#	c #323650",
"J#	c #D32125",
"K#	c #211E2E",
"L#	c #D12023",
"M#	c #ED2223",
"N#	c #221C2B",
"O#	c #211C2B",
"P#	c #EC2223",
"Q#	c #FB3131",
"R#	c #FF2323",
"S#	c #951D24",
"T#	c #211D2D",
"U#	c #941B23",
"V#	c #F93131",
"W#	c #9C2F3B",
"X#	c #FF2828",
"Y#	c #ED2425",
"Z#	c #D22326",
"`#	c #D32427",
" $	c #D32528",
".$	c #D32629",
"+$	c #D3272A",
"@$	c #D3282A",
"#$	c #D3292B",
"$$	c #D32A2C",
"%$	c #D32B2D",
"&$	c #D32B2E",
"*$	c #D32C2F",
"=$	c #932E3C",
"-$	c #3C4260",
";$	c #32354D",
">$	c #9D303C",
",$	c #FC3C3C",
"'$	c #FF4444",
")$	c #FF4A4A",
"!$	c #FF4F4F",
"~$	c #FF5555",
"{$	c #FF5959",
"]$	c #FF6969",
"^$	c #FF6F6F",
"/$	c #FF7373",
"($	c #FF8989",
"_$	c #FF8E8E",
":$	c #FF9393",
"<$	c #FF9898",
"[$	c #FF9D9D",
"}$	c #932F3C",
"|$	c #31354D",
"1$	c #31364F",
"2$	c #2D324A",
"3$	c #2B3047",
"4$	c #2B2F46",
"            . . . . . . . . . . . . . . . . . . . . . . . . . . . . . . . . . . . .             ",
"    . + @ # $ $ $ $ $ $ $ $ $ $ $ $ $ $ $ $ $ $ $ $ $ $ $ $ $ $ $ $ $ $ $ $ $ $ $ $ # @ + .     ",
"  + @ $ % & * = = = = = = = = = = = = = = = = = = = = = = = = = = = = = = = = = = * & % $ @ +   ",
"+ @ & - ; > , , , , , , , , , , , , , , , , , , , , , , , , , , , , , , , , , , , , > ' ) & @ + ",
"+ & ! ' ~ { ] ^ / / / / / / / / / / / / / / / / / / / / / / / / / / / / / / / / ^ ( { ~ _ ! & + ",
"$ : < [ } | 1 2 2 2 2 2 2 2 2 2 2 2 2 2 2 2 2 2 2 2 2 2 2 2 2 2 2 2 2 2 2 2 2 2 2 3 4 } [ < : $ ",
"$ 5 6 7 8 1 9 0 0 0 0 0 0 0 0 0 0 0 0 0 0 0 0 0 0 0 0 0 0 0 0 0 0 0 0 0 0 0 0 0 0 a 3 b 7 6 5 $ ",
"& c d ~ e 2 f g h h h h h h h h h h h h h h h h h h h h h h h h h h h h h h h h h 0 2 i ~ d c & ",
"& < j k l m f h h h h h h h h h h h h h h h h h h h h h h h h h h h h h h h h h h 0 2 n k j < & ",
"& < j k o m f h h h h h h h h h h h h h h h h h h h h h h h h h h h h h h h h h h 0 2 p k j < & ",
"& q r s t m f h h h h h h h h h h h h h h h h h h h h h h h h h h h h h h h h h h 0 2 u s r q & ",
"& q r v w m f h h h h h h h h h h h h h g g h h h h g g h h h h h h h h h h h h h 0 2 x v r q & ",
"y q r z A m f h h h h h h h h h h h B C D E F G G F H I C B h h h h h h h h h h h 0 2 J z r q y ",
"y q K L M m f h h h h h h h h h g N O P Q R S S S S T U P V W g h h h h h h h h h 0 2 X L K q y ",
"y q K Y Z m f h h h h h h h h f `  ...+.@.#.$.%.%.&.+.@.+.*.=.-.0 h h h h h h h h 0 2 ;.Y K q y ",
"y q >.,.'.m f h h h h h h h f ).!.~.{.{.{.~.].^./.(.~.{.{.{.~._.:.0 h h h h h h h 0 2 <.,.>.q y ",
"y [.>.}.|.m f h h h h h h h 1.2.3.4.4.4.4.5.6.7.8.9.0.4.4.4.4.3.a.b.h h h h h h h 0 2 c.}.>.[.y ",
"y d.e.f.g.m f h h h h h h h.i.j.j.j.k.l.m.n.o.p.q.r.s.t.l.k.j.j.j.u.v.h h h h h h 0 2 w.f.e.d.y ",
"y d.x.{ y.m f h h h h h z.A.B.C.C.C.D.E.F.G.H.8.I.J.K.L.M.N.C.C.C.B.O.P.h h h h h 0 Q.R.{ x.d.y ",
"* d.S.T.U.m f h h h h h V.W.X.X.Y.Z.`. +.+++@+8.I.#+$+.+ +%+Z.Y.X.X.&+*+h h h h h 0 Q.R.T.S.d.* ",
"* d.=+-+;+m f h h h h h >+,+'+'+)+!+L..+~+{+]+8.I.^+/+(+.+F._+)+'+'+,+:+h h h h h 0 Q.<+-+=+d.* ",
"* [+=+}+|+1+f h h h h a 2+3+4+4+5+6+.+7+8+9+0+a+b+c+9+d+7+.+e+5+4+4+3+f+a h h h h 0 Q.g+}+=+[+* ",
"* [+=+h+i+1+f h h h h 9 j+k+k+l+m+n+o+p+q+l+r+s+t+u+l+v+w+o+x+y+l+k+k+z+9 h h h h 0 Q.A+h+=+[+* ",
"* [+B+C+D+1+f h h h h E+l+F+G+F+H+I+J+K+L+G+G+F+F+G+G+F+M+p.N+O+F+G+G+P+E+h h h h 0 Q.Q+C+B+[+* ",
"* R+B+S+T+1+f h h h h E+U+V+V+W+X+I+Y+Z+`+V+V+V+V+V+V+`+ @Y+I+X+W+V+V+U+E+h h h h 0 Q..@S+B+R+* ",
"= 6 B++@@@1+f h h h h E+#@$@%@%@%@b+&@*@=@%@%@%@%@%@%@=@-@;@>@%@%@%@$@,@E+h h h h 0 Q.'@+@B+6 = ",
"= 6 )@!@~@1+f h h h h 9 {@]@^@^@/@(@.+_@:@<@^@^@^@^@<@[@}@.+|@/@^@^@]@1@9 h h h h 0 Q.2@!@)@6 = ",
"= 6 3@4@5@1+f h h h g a 6@7@8@8@9@0@a@.+b@c@d@e@e@d@c@f@.+g@h@9@8@8@i@j@a g h h h 0 Q.k@4@3@6 = ",
"= 6 3@l@5@1+f h h h h f m@n@o@o@o@p@q@a@.+r@s@t@t@s@u@.+a@v@w@o@o@o@x@m@f h h h h 0 Q.k@l@3@6 = ",
"= 6 y@z@A@1+f h h h h h B@C@D@p@p@E@F@G@H@.+I@J@J@I@.+o+K@F@E@p@p@D@L@B@h h h h h 0 Q.M@z@y@6 = ",
"= 6 y@N@O@1+f h h h h h f P@Q@R@R@R@S@T@U@V@W@I.I.W@X@U@T@S@R@R@R@Y@Z@f h h h h h 0 Q.`@N@y@6 = ",
":  #.#+#@#1+f h h h h h h E+##$#%#%#%#%#&#*#=#-#-#=#*#&#%#%#%#%#;#>#E+h h h h h h 0 Q.,#+#.# #: ",
":  #'#)#@#1+f h h h h h h 0 !#~#{#]#&#&#&#&#&#^#^#&#&#&#&#&#]#{#/#!#0 h h h h h h 0 Q.(#)#'# #: ",
": d '#_#:#1+f h h h h h h h f <#[#}#|#1#1#1#1#1#1#1#1#1#1#|#2#3#<#f h h h h h h h 0 Q.4#_#'#d : ",
": d '#_#5#1+f h h h h h h h h f !#6#7#8#9#0#a#a#a#a#0#9#8#b#c#d#f h h h h h h h h 0 Q.e#_#'#d : ",
": d f#_#g#1+f h h h h h h h h h h 9 h#i#j#k#l#m#m#l#n#o#p#q#9 h h h h h h h h h h 0 Q.r#_#f#d : ",
": s#t#u#v#1+f h h h h h h h h h h h 0 9 !#w#x#y#y#x#w#!#9 0 h h h h h h h h h h h 0 Q.z#u#t#s#: ",
": s#t#_#A#1+f h h h h h h h h h h h h h h 0 f f f f 0 h h h h h h h h h h h h h h 0 Q.B#_#t#s#: ",
": s#t#_#C#1+f h h h h h h h h h h h h h h h h h h h h h h h h h h h h h h h h h h 0 Q.D#_#t#s#: ",
"! j E#F#G#1+f h h h h h h h h h h h h h h h h h h h h h h h h h h h h h h h h h h 0 Q.H#F#E#j ! ",
"! j I#u#J#K#f g h h h h h h h h h h h h h h h h h h h h h h h h h h h h h h h h h 0 K#L#u#I#j ! ",
"! s#E#u#M#N#9 0 0 0 0 0 0 0 0 0 0 0 0 0 0 0 0 0 0 0 0 0 0 0 0 0 0 0 0 0 0 0 0 0 0 a O#P#u#E#s#! ",
": d t#Q#R#S#O#Q.T#T#T#T#T#T#T#T#T#T#T#T#T#T#T#T#T#T#T#T#T#T#T#T#T#T#T#T#T#T#T#T#Q.O#U#R#V#t#d : ",
"y [+y@W#u#X#Y#Z#`#`# $.$.$+$@$@$#$#$$$%$&$&$*$*$*$*$&$&$%$$$#$#$@$@$+$.$.$ $`#`#Z#Y#X#u#=$y@[+y ",
"$ -$>.;$>$,$'$)$!$~${$C+h+]$^$/$,.z ~ ($_$:$<$[$[$<$:$_$($~ z ,./$^$]$h+C+{$~$!$)$'$,$}$|$>.5 $ ",
"@ * q =+1$2$3$4$4$4$4$4$4$4$4$4$4$4$4$4$4$4$4$4$4$4$4$4$4$4$4$4$4$4$4$4$4$4$4$4$4$3$2$1$=+q * @ ",
"+ $ : q r B+'#'#'#'#'#'#'#'#'#'#'#'#'#'#'#'#'#'#'#'#'#'#'#'#'#'#'#'#'#'#'#'#'#'#'#'#B+r q : $ + ",
"  + $ y 5 q R+6 6 6 6 6 6 6 6 6 6 6 6 6 6 6 6 6 6 6 6 6 6 6 6 6 6 6 6 6 6 6 6 6 6 [+q 5 y $ +   "};
