/* XPM */
static char * wmshutdown_xpm[] = {
"48 48 167 2",
"  	c #424868",
". 	c #424867",
"+ 	c #414767",
"@ 	c #664460",
"# 	c #884058",
"$ 	c #9B3E52",
"% 	c #A53E51",
"& 	c #A53F52",
"* 	c #A73F52",
"= 	c #9E4054",
"- 	c #8B4259",
"; 	c #4A4664",
"> 	c #A43D50",
", 	c #D8383E",
"' 	c #EE3636",
") 	c #EE3737",
"! 	c #EF3737",
"~ 	c #EF3838",
"{ 	c #F03838",
"] 	c #F03939",
"^ 	c #F13939",
"/ 	c #F23A3A",
"( 	c #F33B3B",
"_ 	c #F43B3B",
": 	c #F43C3C",
"< 	c #F53C3C",
"[ 	c #F53D3D",
"} 	c #DE3D43",
"| 	c #A93F52",
"1 	c #4B4664",
"2 	c #424767",
"3 	c #8B3E55",
"4 	c #E0363A",
"5 	c #ED3636",
"6 	c #E93E42",
"7 	c #904157",
"8 	c #434766",
"9 	c #AB3B4C",
"0 	c #EC3535",
"a 	c #ED3535",
"b 	c #F63D3D",
"c 	c #B13E4F",
"d 	c #A93B4C",
"e 	c #EB3434",
"f 	c #AF3F4F",
"g 	c #904057",
"h 	c #DD3539",
"i 	c #A13C4F",
"j 	c #EA3333",
"k 	c #EA3434",
"l 	c #F36C6C",
"m 	c #FBCBCB",
"n 	c #FBCACA",
"o 	c #F46A6A",
"p 	c #A84052",
"q 	c #D4353C",
"r 	c #F14C4C",
"s 	c #FEF7F7",
"t 	c #FFFFFF",
"u 	c #FEF6F6",
"v 	c #DD3D43",
"w 	c #63435F",
"x 	c #E93333",
"y 	c #F47878",
"z 	c #F57777",
"A 	c #664461",
"B 	c #873F57",
"C 	c #E93232",
"D 	c #F47E7E",
"E 	c #F57D7D",
"F 	c #963C52",
"G 	c #F47D7D",
"H 	c #A33C4E",
"I 	c #E83232",
"J 	c #F57C7C",
"K 	c #AA4052",
"L 	c #A33B4E",
"M 	c #F37D7D",
"N 	c #AB3F51",
"O 	c #A13B4E",
"P 	c #E83131",
"Q 	c #F47C7C",
"R 	c #E73131",
"S 	c #F37C7C",
"T 	c #F47B7B",
"U 	c #AA3F51",
"V 	c #E73030",
"W 	c #F37B7B",
"X 	c #E63030",
"Y 	c #F27C7C",
"Z 	c #AA3E50",
"` 	c #E52F2F",
" .	c #F17C7C",
"..	c #A83E50",
"+.	c #F17B7B",
"@.	c #F27A7A",
"#.	c #A13A4D",
"$.	c #E42E2E",
"%.	c #EE6262",
"&.	c #EF6161",
"*.	c #E93434",
"=.	c #F7B9B9",
"-.	c #F7B6B6",
";.	c #9F3A4D",
">.	c #ED5757",
",.	c #EE5656",
"'.	c #E32E2E",
").	c #E32D2D",
"!.	c #E83434",
"~.	c #F49D9D",
"{.	c #FDEEEE",
"].	c #EA3535",
"^.	c #A73E50",
"/.	c #9E3A4D",
"(.	c #F28989",
"_.	c #A63E50",
":.	c #923B51",
"<.	c #E22D2D",
"[.	c #F9C6C6",
"}.	c #F9C7C7",
"|.	c #983E53",
"1.	c #823E56",
"2.	c #F6B4B4",
"3.	c #F7B5B5",
"4.	c #874058",
"5.	c #61435F",
"6.	c #E22C2C",
"7.	c #EB5353",
"8.	c #FEF4F4",
"9.	c #ED5454",
"0.	c #634460",
"a.	c #CD3038",
"b.	c #EA4848",
"c.	c #F29090",
"d.	c #F39090",
"e.	c #EB4949",
"f.	c #D5373F",
"g.	c #9C3A4E",
"h.	c #A23E51",
"i.	c #474665",
"j.	c #D32F34",
"k.	c #494664",
"l.	c #863D55",
"m.	c #E12C2C",
"n.	c #883F56",
"o.	c #A2374A",
"p.	c #A73B4D",
"q.	c #A1374A",
"r.	c #A93B4D",
"s.	c #843D55",
"t.	c #D42F34",
"u.	c #DC353A",
"v.	c #9A3A4E",
"w.	c #CC3038",
"x.	c #D2363D",
"y.	c #9F3C50",
"z.	c #484665",
"A.	c #604360",
"B.	c #813D56",
"C.	c #933B51",
"D.	c #9D3A4E",
"E.	c #9E3B4E",
"F.	c #9F3B4E",
"G.	c #9F3C4F",
"H.	c #963D52",
"I.	c #843F57",
"J.	c #614360",
"                                                                                                ",
"                          . . . . . . . . . . . . . . . . . . . . . .                           ",
"                  . + @ # $ % % % % % & & & & * * * * * * * * * * * = - @ + .                   ",
"              . ; > , ' ) ) ! ! ~ { { { ] ^ ^ ^ / / / / ( ( ( _ : : < < [ } | 1 .               ",
"            2 3 4 5 5 ' ' ) ) ! ! ~ { { { ] ^ ^ ^ / / / / ( ( ( _ : : < < [ [ 6 7 2             ",
"          8 9 0 0 a 5 5 ' ' ) ) ! ! ~ { { { ] ^ ^ ^ / / / / ( ( ( _ : : < < [ [ b c 8           ",
"        2 d e 0 0 0 a 5 5 ' ' ) ) ! ! ~ { { { ] ^ ^ ^ / / / / ( ( ( _ : : < < [ [ b f 2         ",
"      . 3 e e e 0 0 0 a 5 5 ' ' ) ) ! ! ~ { { { ] ^ ^ ^ / / / / ( ( ( _ : : < < [ [ b g .       ",
"      ; h e e e e 0 0 0 a 5 5 ' ' ) ) ! ! ~ { { { ] ^ ^ ^ / / / / ( ( ( _ : : < < [ [ 6 1       ",
"    . i j k e e e e 0 0 0 a 5 5 ' ' ) ) ! ! l m n o ] ^ ^ ^ / / / / ( ( ( _ : : < < [ [ p .     ",
"    + q j j k e e e e 0 0 0 a 5 5 ' ' ) ) r s t t u r ] ^ ^ ^ / / / / ( ( ( _ : : < < [ v +     ",
"    w x x j j k e e e e 0 0 0 a 5 5 ' ' ) y t t t t z { ] ^ ^ ^ / / / / ( ( ( _ : : < < [ A     ",
"    B C x x j j k e e e e 0 0 0 a 5 5 ' ' D t t t t E { { ] ^ ^ ^ / / / / ( ( ( _ : : < < -     ",
"  . F C C x x j j k e e e e 0 0 0 a 5 5 ' G t t t t E { { { ] ^ ^ ^ / / / / ( ( ( _ : : < = .   ",
"  + H I C C x x j j k e e e e 0 0 0 a 5 5 G t t t t J ~ { { { ] ^ ^ ^ / / / / ( ( ( _ : : K +   ",
"  + L I I C C x x j j k e e e e 0 0 0 a 5 M t t t t J ! ~ { { { ] ^ ^ ^ / / / / ( ( ( _ : N +   ",
"  + O P I I C C x x j j k e e e e 0 0 0 a M t t t t Q ! ! ~ { { { ] ^ ^ ^ / / / / ( ( ( _ N +   ",
"  + O R P I I C C x x j j k e e e e 0 0 0 S t t t t Q ) ! ! ~ { { { ] ^ ^ ^ / / / / ( ( ( N +   ",
"  + O R R P I I C C x x j j k e e e e 0 0 S t t t t T ) ) ! ! ~ { { { ] ^ ^ ^ / / / / ( ( U +   ",
"  + O R R R P I I C C x x j j k e e e e 0 S t t t t T ' ) ) ! ! ~ { { { ] ^ ^ ^ / / / / ( U +   ",
"  + O V R R R P I I C C x x j j k e e e e S t t t t W ' ' ) ) ! ! ~ { { { ] ^ ^ ^ / / / / U +   ",
"  + O X V R R R P I I C C x x j j k e e e Y t t t t W 5 ' ' ) ) ! ! ~ { { { ] ^ ^ ^ / / / Z +   ",
"  + O X X V R R R P I I C C x x j j k e e Y t t t t W 5 5 ' ' ) ) ! ! ~ { { { ] ^ ^ ^ / / Z +   ",
"  + O X X X V R R R P I I C C x x j j k e Y t t t t W a 5 5 ' ' ) ) ! ! ~ { { { ] ^ ^ ^ / Z +   ",
"  + O ` X X X V R R R P I I C C x x j j k Y t t t t W 0 a 5 5 ' ' ) ) ! ! ~ { { { ] ^ ^ ^ Z +   ",
"  + O ` ` X X X V R R R P I I C C x x j j  .t t t t W 0 0 a 5 5 ' ' ) ) ! ! ~ { { { ] ^ ^ ..+   ",
"  + O ` ` ` X X X V R R R P I I C C x x j +.t t t t @.0 0 0 a 5 5 ' ' ) ) ! ! ~ { { { ] ^ ..+   ",
"  + #.` ` ` ` X X X V R R R P I I C C x x +.t t t t @.e 0 0 0 a 5 5 ' ' ) ) ! ! ~ { { { ] ..+   ",
"  + #.$.` ` ` ` X X X V R R R P I I C C x %.t t t t &.e e 0 0 0 a 5 5 ' ' ) ) ! ! ~ { { { ..+   ",
"  + #.$.$.` ` ` ` X X X V R R R P I I C C *.=.t t -.e e e e 0 0 0 a 5 5 ' ' ) ) ! ! ~ { { ..+   ",
"  + ;.$.$.$.` ` ` ` X X X V R R R P I I C C x >.,.j k e e e e 0 0 0 a 5 5 ' ' ) ) ! ! ~ { ..+   ",
"  + ;.'.$.$.$.` ` ` ` X X X V R R R P I I C C x x j j k e e e e 0 0 0 a 5 5 ' ' ) ) ! ! ~ ..+   ",
"  + ;.).'.$.$.$.` ` ` ` X X X V R R R P I !.~.{.{.~.].j k e e e e 0 0 0 a 5 5 ' ' ) ) ! ! ^.+   ",
"  + /.).).'.$.$.$.` ` ` ` X X X V R R R P (.t t t t (.j j k e e e e 0 0 0 a 5 5 ' ' ) ) ! _.+   ",
"  . :.<.).).'.$.$.$.` ` ` ` X X X V R R R [.t t t t }.x j j k e e e e 0 0 0 a 5 5 ' ' ) ) |..   ",
"    1.<.<.).).'.$.$.$.` ` ` ` X X X V R R 2.t t t t 3.x x j j k e e e e 0 0 0 a 5 5 ' ' ) 4.    ",
"    5.6.<.<.).).'.$.$.$.` ` ` ` X X X V R 7.8.t t 8.9.C x x j j k e e e e 0 0 0 a 5 5 ' ' 0.    ",
"    + a.6.<.<.).).'.$.$.$.` ` ` ` X X X V R b.c.d.e.I C C x x j j k e e e e 0 0 0 a 5 5 f.+     ",
"    . g.6.6.<.<.).).'.$.$.$.` ` ` ` X X X V R R R P I I C C x x j j k e e e e 0 0 0 a 5 h..     ",
"      i.j.6.6.<.<.).).'.$.$.$.` ` ` ` X X X V R R R P I I C C x x j j k e e e e 0 0 0 4 k.      ",
"      . l.m.6.6.<.<.).).'.$.$.$.` ` ` ` X X X V R R R P I I C C x x j j k e e e e 0 0 n..       ",
"        2 o.m.6.6.<.<.).).'.$.$.$.` ` ` ` X X X V R R R P I I C C x x j j k e e e e p.+         ",
"          8 q.m.6.6.<.<.).).'.$.$.$.` ` ` ` X X X V R R R P I I C C x x j j k e e r.2           ",
"            2 s.t.6.6.<.<.).).'.$.$.$.` ` ` ` X X X V R R R P I I C C x x j j u.n.2             ",
"              . k.v.w.6.<.<.).).'.$.$.$.` ` ` ` X X X V R R R P I I C C x x.y.z..               ",
"                  . + A.B.C.g.D.D.D.D.D.D.E.E.E.E.E.E.E.F.G.G.G.G.G.H.I.J.+ .                   ",
"                          . . . . . . . . . . . . . . . . . . . . . .                           ",
"                                                                                                "};
