/* XPM */
static char *image[] = {
"48 48 181 2",
"   c None",
"00 c #eceae9",
"10 c #e9e8e6",
"20 c #dbdad7",
"30 c #dcdbd9",
"40 c #dcdbd8",
"50 c #dddbd9",
"60 c #dddcd9",
"70 c #cacac7",
"80 c #e2e1e0",
"90 c #eeedeb",
":0 c #e4e3e2",
";0 c #cbcac7",
"A0 c #c8c8c4",
"B0 c #f4f3f2",
"C0 c #c9c9c5",
"D0 c #cdcdc9",
"E0 c #cececa",
"F0 c #dddddb",
"G0 c #dededc",
"H0 c #ecebea",
"I0 c #e3e2e0",
"J0 c #e2e2e1",
"K0 c #eae9e8",
"L0 c #f5f4f3",
"M0 c #ebeae9",
"N0 c #a4a3a0",
"O0 c #e1e0df",
"P0 c #a3a2a0",
"Q0 c #c3c1c0",
"R0 c #e9e9e8",
"S0 c #dbdbd8",
"T0 c #bfcbdb",
"U0 c #608ec6",
"V0 c #4376b3",
"W0 c #eeeeed",
"X0 c #83a4ce",
"Y0 c #5083c0",
"Z0 c #4375b3",
"a0 c #4073b0",
"b0 c #4f82c0",
"c0 c #5486c4",
"d0 c #5887c1",
"e0 c #f1f0ef",
"f0 c #4b80c1",
"g0 c #dee4ee",
"h0 c #e6e6e5",
"i0 c #ccccca",
"j0 c #eceded",
"k0 c #86a8d3",
"l0 c #9eb7d4",
"m0 c #efeeed",
"n0 c #9fb7d5",
"o0 c #85a7d3",
"p0 c #ececed",
"q0 c #cbcac9",
"r0 c #c4c4c2",
"s0 c #e8e7e6",
"t0 c #f6f5f5",
"u0 c #d6dde7",
"v0 c #2b6bba",
"w0 c #bebfc1",
"x0 c #4679b9",
"y0 c #d1cfcf",
"z0 c #a4a2a1",
"01 c #6283ad",
"11 c #a0b0c4",
"21 c #c7c6c5",
"31 c #c4c3c1",
"41 c #d1d0cf",
"51 c #d7d6d5",
"61 c #d5d4d3",
"71 c #e1e1df",
"81 c #4a78af",
"91 c #829cbc",
":1 c #949390",
";1 c #4371aa",
"A1 c #849dbc",
"B1 c #c3c2c1",
"C1 c #356db3",
"D1 c #3c6fab",
"E1 c #e5e4e2",
"F1 c #4b7fbe",
"G1 c #306db8",
"H1 c #6391c7",
"I1 c #447abd",
"J1 c #4379bd",
"K1 c #6590c7",
"L1 c #b2c4db",
"M1 c #b3c5db",
"N1 c #b4c6dc",
"O1 c #afc2da",
"P1 c #2163b6",
"Q1 c #195fb4",
"R1 c #eaeae8",
"S1 c #5383bd",
"T1 c #3871b7",
"U1 c #cdcdcc",
"V1 c #3872b8",
"W1 c #1b5fb4",
"X1 c #1a5fb4",
"Y1 c #1a60b4",
"Z1 c #e1e0dd",
"a1 c #cfd4d7",
"b1 c #aabbd0",
"c1 c #8faacb",
"d1 c #bbc6d3",
"e1 c #4a7ebd",
"f1 c #99b1cd",
"g1 c #bcc7d3",
"h1 c #86a4c9",
"i1 c #84a2c9",
"j1 c #8aa9cf",
"k1 c #90afd6",
"l1 c #89aad0",
"m1 c #f6d0cb",
"n1 c #f6e2df",
"o1 c #ececea",
"p1 c #eeeeeb",
"q1 c #f3f3f1",
"r1 c #f66555",
"s1 c #f7796b",
"t1 c #f77163",
"u1 c #fcd0cb",
"v1 c #fffbfb",
"w1 c #feeae8",
"x1 c #fccac4",
"y1 c #fbc0b9",
"z1 c #fbb6ae",
"02 c #f66a5b",
"12 c #facfcb",
"22 c #ffffff",
"32 c #fccdc8",
"42 c #f88174",
"52 c #f76f60",
"62 c #faada5",
"72 c #f9988d",
"82 c #fbbbb4",
"92 c #fad3cf",
":2 c #f9998e",
";2 c #f87c6f",
"A2 c #fbbbb5",
"B2 c #f66859",
"C2 c #f99b90",
"D2 c #f88679",
"E2 c #f6aea6",
"F2 c #fccbc6",
"G2 c #f66354",
"H2 c #f88c81",
"I2 c #f99186",
"J2 c #f77a6d",
"K2 c #fbb7af",
"L2 c #f66252",
"M2 c #fcc2bb",
"N2 c #f76d5f",
"O2 c #f66757",
"P2 c #fdd8d4",
"Q2 c #f8877b",
"R2 c #f88b7f",
"S2 c #fcc4be",
"T2 c #f99085",
"U2 c #f3f2f0",
"V2 c #f77062",
"W2 c #faa69d",
"X2 c #faa096",
"Y2 c #f76e5f",
"Z2 c #f66151",
"a2 c #f6aba3",
"b2 c #f68679",
"c2 c #f6beb6",
"d2 c #edecea",
"e2 c #e4e3e0",
"f2 c #deddda",
"g2 c #eae9e7",
"h2 c #f0efee",
"i2 c #77767b",
"j2 c #b7b5b8",
"k2 c #d6d6d6",
"l2 c #f5f5f3",
"m2 c #f6f5f4",
"n2 c #f6f5f3",
"                                                                                                ",
"                                                                                                ",
"                                                                                                ",
"                  n2m2m2m2m2m2m2m2m2m2m2m2m2m2m2m2m2m2m2m2m2m2m2m2m2m2m2m2m2n2                  ",
"                m2m2m2m2m2m2m2m2m2m2m2m2m2m2m2m2m2m2m2m2m2m2m2m2m2m2m2m2m2m2m2m2                ",
"                m2m2m2m2m2m2m2m2m2m2m2m2m2m2m2m2m2m2m2m2m2m2m2m2m2m2m2m2m2m2m2m2                ",
"              l2m2m2m2m2m2m2m2m2m2m2m2m2m2m2m2m2m2m2m2m2m2m2m2m2m2m2m2m2m2m2m2m2l2              ",
"              l2m2m2k2j2j2j2j2j2j2j2j2j2j2j2j2j2j2k2m2m2m2m2m2m2m2m2m2m2m2m2m2m2l2              ",
"              l2m2m2j2i2i2i2i2i2i2i2i2i2i2i2i2i2i2j2m2m2m2m2m2m2m2m2m2m2m2m2m2m2l2              ",
"              l2m2m2m2m2m2m2m2m2m2m2m2m2m2m2m2m2m2m2m2m2m2m2m2m2m2m2m2m2m2m2m2m2l2              ",
"              l2m2m2h2g2g2g2g2g2g2g2g2g2g2g2g2g2g2g2g2g2g2g2g2g2g2g2g2g2g2h2m2m2l2              ",
"              l2m2m2g2f2f2f2f2f2f2f2f2f2f2f2f2f2f2f2f2f2f2f2f2f2f2f2f2f2f2g2m2m2l2              ",
"              l2m2m2g2f2f2f2f2f2f2f2f2f2f2f2f2f2e2e2e2e2e2e2e2e2e2e2e2e2e2d2m2m2l2              ",
"              l2m2m2g2f2f2f2f2f2f2f2f2f2f2f2f2f2m2m2m2m2m2m2m2m2m2m2m2m2m2m2m2m2l2              ",
"              l2m2m2g2f2f2f2f2f2f2f2f2f2f2f2f2f2m2c2b2b2b2b2b2b2b2b2b2b2b2c2m2m2l2              ",
"              l2m2m2g2f2f2f2f2f2f2f2f2f2f2f2f2f2m2a2Z2Z2Z2Z2Z2Z2Z2Z2Z2Z2Z2a2m2m2l2              ",
"              l2m2m2g2f2f2f2f2f2f2f2f2f2f2f2f2f2m2a2Z2Z2Z2Y2X2W2V2Z2Z2Z2Z2a2m2m2l2              ",
"              l2m2m2U2h2h2h2h2h2h2h2h2h2h2h2h2h2m2a2Z2Z2T2S2R2Q2P2O2Z2Z2Z2a2m2m2l2              ",
"              l2m2m2U2h2h2h2h2h2h2h2h2h2h2h2h2h2m2a2Z2N2M2L2Z2Z2K2J2Z2Z2Z2a2m2m2l2              ",
"              l2m2m2g2f2f2f2f2f2f2f2f2f2f2f2f2f2m2a2Z2I2H2Z2Z2G2F2L2Z2Z2Z2E2m2m2l2              ",
"              l2m2m2g2f2f2f2f2f2f2f2f2f2f2f2f2f2m2a2Z2D2C2Z2B2A2;2Z2Z2Z2:292m2m2l2              ",
"              l2m2m2g2f2f2f2f2f2f2f2f2f2f2f2f2f2m2a2Z2Z282726252Z2Z242322212m2m2l2              ",
"              l2m2m2g2f2f2f2f2f2f2f2f2f2f2f2f2f2m2a2Z202I2z132y1x1w1v1u1H2a2m2m2l2              ",
"              l2m2m2g2f2f2f2f2f2f2f2f2f2f2f2f2f2m2a2B2t1Z2Z2L2s142J2r1Z2Z2a2m2m2l2              ",
"              q1m2m2g2f2f2f2f2f2f2f2f2f2f2f2f2f2m2a2Z2Z2Z2Z2Z2Z2Z2Z2Z2Z2Z2a2m2m2q1              ",
"              p1m2m2g2f2f2f2f2f2f2f2g2g2g2g2g2g2m2a2Z2Z2Z2Z2Z2Z2Z2Z2Z2Z2Z2a2m2m2p1              ",
"              o1m2m2g2f2f2f2f2f2f2f2m2m2m2m2m2m2m2n1m1m1m1m1m1m1m1m1m1m1m1n1m2m2o1              ",
"              o1m2m2m2m2m2m2m2m2m2m2m2m2m2m2m2m2m2m2m2m2m2m2m2m2m2m2m2m2m2m2m2m2o1              ",
"              o1m2m2h2g2g2g2g2g2g2g2g2g2g2g2g2g2g2g2g2g2g2g2g2g2g2g2g2g2g2h2m2m2o1              ",
"              o1m2m2g2f2f2f2f2f2f2f2f2f2f2f2f2f2f2f2f2f2f2f2f2f2f2f2f2f2f2g2m2m2o1              ",
"              l1k1k1j1i1i1i1h1g1f1e1e1f1d1h1i1i1i1i1i1i1c1b1a1f2f2f2Z1e2e2d2m2m2o1              ",
"          Y1X1X1X1X1X1X1X1X1X1W1V1U1U1T1W1X1X1X1X1X1X1X1X1X1S1f2f2f2g2m2m2m2m2m2R1              ",
"          Q1P1O1N1N1M1L1L1L1L1K1J1h2h2I1H1L1L1L1L1L1L1L1L1G1F1h2h2h2U2m2m2m2m2m2E1              ",
"          D1C1B1B1B1B1B1B1B1B1A1;1:1:1;191B1B1B1B1B1B1B1B1C181m2m2m2m2m2m2m2m2m271              ",
"            T161515151514131211101z0z001112131y05151515151x0w0m2m2m2m2m2m2m2m2m271              ",
"            v0u0t0t0t0s0r0q0p0o0n0m0m0l0k0j0i0r0h0t0t0t0g0f0e0m2m2m2m2m2m2m2m2m271              ",
"              d0c0c0b0a0Z0Y0c0X0W0m2m2W0X0c0Y0V0a0b0c0c0U0T0m2m2m2m2m2m2m2m2m2m271              ",
"              S0R0R0Q0P0O0R0R0h2m2m2m2m2h2R0R071N031R0R0M0L0m2m2m2m2m2m2m2m2m2m271              ",
"              71m2m2K0J0m2m2m2m2m2m2m2m2m2m2m2m2I0H0m2m2m2m2m2m2m2m2m2m2m2m2m2m271              ",
"              G0m2m2m2m2m2m2m2m2m2m2m2m2m2m2m2m2m2m2m2m2m2m2m2m2m2m2m2m2m2m2m2m2F0              ",
"              E0L0m2m2m2m2m2m2m2m2m2m2m2m2m2m2m2m2m2m2m2m2m2m2m2m2m2m2m2m2m2m2L0D0              ",
"              C0s0B0L0m2m2m2m2m2m2m2m2m2m2m2m2m2m2m2m2m2m2m2m2m2m2m2m2m2m2L0B0s0A0              ",
"              ;0:090f2f2f2f2f2f2f2f2f2f2f2f2f2f2f2f2f2f2f2f2f2f2f2f2f2f2f2f2908070              ",
"                :090f2f2f2f2f2f2f2f2f2f2f2f2f2f2f2f2f2606060605040403030202010O0                ",
"                  00f2f2f2f2f2f2f2f2f2f2f2f2f2f2f2f2f2f2f2f2f2f2f2f2f2f2f2f200                  ",
"                                                                                                ",
"                                                                                                ",
"                                                                                                "};
