/* XPM */
static char *image[] = {
"64 64 469 2",
"   c None",
"00 c #152953",
"10 c #142952",
"20 c #142851",
"30 c #142850",
"40 c #142951",
"50 c #14284f",
"60 c #14274f",
"70 c #203358",
"80 c #3b4b6c",
"90 c #314264",
":0 c #162a50",
";0 c #1a2e54",
"A0 c #2b3d60",
"B0 c #192d53",
"C0 c #398350",
"D0 c #0d802f",
"E0 c #2e3e5d",
"F0 c #398250",
"G0 c #2f9d41",
"H0 c #2d9d3f",
"I0 c #0d812f",
"J0 c #13274e",
"K0 c #66738c",
"L0 c #c2c7d1",
"M0 c #aeb5c2",
"N0 c #354567",
"O0 c #4b5977",
"P0 c #3f4f6f",
"Q0 c #1b2d51",
"R0 c #729474",
"S0 c #156f4a",
"T0 c #729375",
"U0 c #11fb05",
"V0 c #0cff00",
"W0 c #05ff1f",
"X0 c #0d6e45",
"Y0 c #13264d",
"Z0 c #26385b",
"a0 c #c3c8d1",
"b0 c #8a94a7",
"c0 c #283a5c",
"d0 c #394969",
"e0 c #b1b8c4",
"f0 c #a0a7b7",
"g0 c #4b5976",
"h0 c #3f4f6e",
"i0 c #586071",
"j0 c #3fdc2b",
"k0 c #51b37f",
"l0 c #3fdb2b",
"m0 c #1dff00",
"n0 c #18fe18",
"o0 c #00ff71",
"p0 c #04e66e",
"q0 c #122f4d",
"r0 c #13264c",
"s0 c #334364",
"t0 c #778197",
"u0 c #15274c",
"v0 c #475573",
"w0 c #636f88",
"x0 c #14264c",
"y0 c #4b5875",
"z0 c #c5c9d3",
"01 c #3f4e6d",
"11 c #293857",
"21 c #6ead62",
"31 c #2dff01",
"41 c #1ae9a9",
"51 c #6eaf62",
"61 c #2dff00",
"71 c #2eff01",
"81 c #09ff8c",
"91 c #00ffb0",
":1 c #099d83",
";1 c #13254b",
"A1 c #14274b",
"B1 c #9ca4b3",
"C1 c #b8bec9",
"D1 c #8791a3",
"E1 c #435270",
"F1 c #5f6c85",
"G1 c #a1a9b7",
"H1 c #acb3c0",
"I1 c #3f4e6c",
"J1 c #13264b",
"K1 c #6e7978",
"L1 c #47f111",
"M1 c #02ffd0",
"N1 c #6baa97",
"O1 c #48ef13",
"P1 c #3eff00",
"Q1 c #4fdb3d",
"R1 c #01fecf",
"S1 c #00ffd0",
"T1 c #01fbce",
"U1 c #0f4a61",
"V1 c #17284d",
"W1 c #4f5d78",
"X1 c #8b94a6",
"Y1 c #bfc4ce",
"Z1 c #58647f",
"a1 c #667189",
"b1 c #838da0",
"c1 c #3f4d6b",
"d1 c #404b62",
"e1 c #57b8ad",
"f1 c #6ec646",
"g1 c #4fff00",
"h1 c #4cef07",
"i1 c #4e6262",
"j1 c #37d1c0",
"k1 c #00ffe3",
"l1 c #06c9bd",
"m1 c #12254a",
"n1 c #122449",
"o1 c #788297",
"p1 c #606c84",
"q1 c #1d2e51",
"r1 c #abb2be",
"s1 c #939bac",
"t1 c #4a5873",
"u1 c #3f4d6a",
"v1 c #1b2b4d",
"w1 c #7d9773",
"x1 c #317b2b",
"y1 c #1d2e4e",
"z1 c #839d77",
"02 c #60fc04",
"12 c #5fff00",
"22 c #2dac53",
"32 c #15274a",
"42 c #71878b",
"52 c #0af7ef",
"62 c #00fff6",
"72 c #0b778b",
"82 c #8891a3",
"92 c #c1c5cf",
":2 c #828b9e",
";2 c #c2c6cf",
"A2 c #6d788e",
"B2 c #19294c",
"C2 c #8991a3",
"D2 c #9ca3b2",
"E2 c #c4c9d2",
"F2 c #3f4c6a",
"G2 c #596170",
"H2 c #77df26",
"I2 c #5cd010",
"J2 c #132546",
"K2 c #59606f",
"L2 c #78df27",
"M2 c #70ff00",
"N2 c #58fa37",
"O2 c #04d9ee",
"P2 c #113153",
"Q2 c #35415b",
"R2 c #56b0b9",
"S2 c #00e9ff",
"T2 c #03d9f0",
"U2 c #113154",
"V2 c #122347",
"W2 c #192b4d",
"X2 c #667288",
"Y2 c #8e97a7",
"Z2 c #9098a9",
"a2 c #5e6b82",
"b2 c #142648",
"c2 c #17284a",
"d2 c #7c8699",
"e2 c #2c3c5b",
"f2 c #87af60",
"g2 c #7ffd01",
"h2 c #274e38",
"i2 c #2b3a55",
"j2 c #88af61",
"k2 c #80ff00",
"l2 c #7ffe03",
"m2 c #19cccd",
"n2 c #0780b4",
"o2 c #606874",
"p2 c #1eb5e7",
"q2 c #00c0ff",
"r2 c #0781b5",
"s2 c #91f210",
"t2 c #5ca31d",
"u2 c #122345",
"v2 c #737c78",
"w2 c #90f110",
"x2 c #91ff00",
"y2 c #56d569",
"z2 c #0e3a6b",
"03 c #1e2d4d",
"13 c #6d8b9f",
"23 c #0298fe",
"33 c #0098ff",
"43 c #0098fe",
"53 c #0d3b6c",
"63 c #112245",
"73 c #96c843",
"83 c #95ed07",
"93 c #1b313f",
":3 c #414c60",
";3 c #97c844",
"A3 c #a0ff00",
"B3 c #99f109",
"C3 c #4585be",
"D3 c #055fd8",
"E3 c #112345",
"F3 c #475063",
"G3 c #3e7ccc",
"H3 c #006fff",
"I3 c #0461dc",
"J3 c #112346",
"K3 c #112244",
"L3 c #4c772b",
"M3 c #1c2b4c",
"N3 c #899772",
"O3 c #a9fc03",
"P3 c #aaff00",
"Q3 c #4e782d",
"R3 c #0a3295",
"S3 c #142447",
"T3 c #6f7687",
"U3 c #0d4df4",
"V3 c #0047ff",
"W3 c #0a3396",
"X3 c #122346",
"Y3 c #5b6271",
"Z3 c #aae025",
"a3 c #8eca12",
"b3 c #5a6270",
"c3 c #aae026",
"d3 c #b5ff00",
"e3 c #8ecb12",
"f3 c #132548",
"g3 c #2d3b57",
"h3 c #5c67b3",
"i3 c #001fff",
"j3 c #0220f4",
"k3 c #102459",
"l3 c #122448",
"m3 c #9cb15e",
"n3 c #bfff00",
"o3 c #bdfc01",
"p3 c #324b3c",
"q3 c #2e3c58",
"r3 c #263085",
"s3 c #252f87",
"t3 c #1a2680",
"u3 c #11215e",
"v3 c #132549",
"w3 c #797e7a",
"x3 c #16284c",
"y3 c #797e79",
"z3 c #c3f20f",
"04 c #caff00",
"14 c #7ca120",
"24 c #14264b",
"34 c #465167",
"44 c #b3ca41",
"54 c #c2ea09",
"64 c #455067",
"74 c #b2c941",
"84 c #d4ff00",
"94 c #c2eb08",
":4 c #203349",
";4 c #15274d",
"A4 c #949b70",
"B4 c #ddfd02",
"C4 c #1f3154",
"D4 c #939972",
"E4 c #dcfc03",
"F4 c #deff00",
"G4 c #5e7632",
"H4 c #15284f",
"I4 c #606875",
"J4 c #b4c915",
"K4 c #5f6775",
"L4 c #d2e322",
"M4 c #e9ff00",
"N4 c #b5ca14",
"O4 c #172a50",
"P4 c #162950",
"Q4 c #334260",
"R4 c #afb35a",
"S4 c #31405f",
"T4 c #afb35b",
"U4 c #f3ff00",
"V4 c #effb02",
"W4 c #3c4e44",
"X4 c #172a52",
"Y4 c #192c55",
"Z4 c #7f837a",
"a4 c #f2f40d",
"b4 c #fdff00",
"c4 c #96a026",
"d4 c #172b54",
"e4 c #ccc53f",
"f4 c #4a566d",
"g4 c #cbc43f",
"h4 c #fff300",
"i4 c #e8df0a",
"j4 c #243752",
"k4 c #182d56",
"l4 c #25375c",
"m4 c #9b9870",
"n4 c #fde402",
"o4 c #ffe600",
"p4 c #696e39",
"q4 c #192e57",
"r4 c #636b79",
"s4 c #626a79",
"t4 c #e4c621",
"u4 c #ffd800",
"v4 c #c4ad17",
"w4 c #192f59",
"x4 c #b5a258",
"y4 c #364767",
"z4 c #b5a259",
"05 c #ffcb00",
"15 c #fac703",
"25 c #3c474d",
"35 c #1a305b",
"45 c #1d335e",
"55 c #81807c",
"65 c #f5b90d",
"75 c #ffbd00",
"85 c #957d2b",
"95 c #1b315d",
":5 c #4e5b73",
";5 c #cda03c",
"A5 c #4e5a72",
"B5 c #cda03d",
"C5 c #ffb000",
"D5 c #e5a20c",
"E5 c #25375a",
"F5 c #1c325e",
"G5 c #9d8d6f",
"H5 c #675740",
"I5 c #283d65",
"J5 c #9d8c70",
"K5 c #fea202",
"L5 c #ffa200",
"M5 c #685840",
"N5 c #1c3360",
"O5 c #666d7c",
"P5 c #e7931d",
"Q5 c #666e7e",
"R5 c #e59320",
"S5 c #ff9500",
"T5 c #bf791c",
"U5 c #1d3462",
"V5 c #b88a57",
"W5 c #f98503",
"X5 c #404358",
"Y5 c #3c4e70",
"Z5 c #b78a57",
"a5 c #ff8700",
"b5 c #fa8503",
"c5 c #414457",
"d5 c #213866",
"e5 c #283f6d",
"f5 c #877f7d",
"g5 c #965c34",
"h5 c #273f6d",
"i5 c #857f7d",
"j5 c #f67b0a",
"k5 c #ff7a00",
"l5 c #975d34",
"m5 c #253d6c",
"n5 c #58647e",
"o5 c #cf793a",
"p5 c #57637d",
"q5 c #cf7a3b",
"r5 c #ff6c00",
"s5 c #e5670f",
"t5 c #32436d",
"u5 c #2a4171",
"v5 c #394e79",
"w5 c #a2816e",
"x5 c #fe5f01",
"y5 c #ff5f00",
"z5 c #704e51",
"06 c #2e4676",
"16 c #6f7685",
"26 c #e85d1d",
"36 c #ff5100",
"46 c #c34f24",
"56 c #334a7b",
"66 c #ba7055",
"76 c #4f6083",
"86 c #b97055",
"96 c #ff4400",
":6 c #f94504",
";6 c #524d6e",
"A6 c #374f80",
"B6 c #8a7e80",
"C6 c #9d4542",
"D6 c #3d5685",
"E6 c #8b7e80",
"F6 c #f73c0a",
"G6 c #ff3600",
"H6 c #9e4542",
"I6 c #3b5485",
"J6 c #64718b",
"K6 c #d15037",
"L6 c #e33115",
"M6 c #455786",
"N6 c #64708b",
"O6 c #d15138",
"P6 c #ff2900",
"Q6 c #e63013",
"R6 c #475685",
"S6 c #40588a",
"T6 c #4d638e",
"U6 c #784b67",
"V6 c #4d638f",
"W6 c #a3726d",
"X6 c #fe1c01",
"Y6 c #ff1b00",
"Z6 c #794b67",
"a6 c #445d8f",
"b6 c #797d8c",
"c6 c #e8261b",
"d6 c #c7282d",
"e6 c #797e8d",
"f6 c #e8271c",
"g6 c #ff0e00",
"h6 c #c8282d",
"i6 c #496194",
"j6 c #536a97",
"k6 c #8c6777",
"l6 c #635986",
"m6 c #536a98",
"n6 c #8b6778",
"o6 c #c7323a",
"p6 c #bd2c3c",
"q6 c #645985",
"r6 c #4d6699",
"s6 c #526b9e",
"t6 c #506a9d",
"u6 c #4d6698",
"v6 c #566fa3",
"w6 c #4e6699",
"x6 c #3c5483",
"y6 c #5a74a8",
"z6 c #3c5484",
"07 c #1c315d",
"17 c #5973a7",
"27 c #5f78ad",
"37 c #5a73a7",
"47 c #1c325c",
"57 c #263c69",
"67 c #5d77ab",
"77 c #637db2",
"87 c #5d78ac",
"97 c #273d6a",
":7 c #1d325e",
";7 c #445b8b",
"A7 c #6882b7",
"B7 c #6680b5",
"C7 c #5e76aa",
"D7 c #445c8c",
"E7 c #1d335d",
"F7 c #142853",
"G7 c #142954",
"H7 c #142953",
"                                                                                                                                ",
"                                                                                                                                ",
"                                                                                                                                ",
"                                                                                                                                ",
"                    H7H7H7H7H7H7H7H7H7H7H7H7H7H7H7H7H7H7H7H7H7H7H7H7H7H7H7H7H7H7H7H7H7H7H7H7H7H7H7H7H7H7H7G7                    ",
"                F7H7H7H7H7H7H7H7H7H7H7H7H7H7H7H7H7H7H7H7H7H7H7H7H7H7H7H7H7H7H7H7H7H7H7H7H7H7H7H7H7H7H7H7H7H7H7H7                ",
"              H7H7H7H7H7H7H7H7H7H7H7H7H7H7H7H7H7H7H7H7H7H7H7H7H7H7H7H7H7H7H7H7H7H7H7H7H7H7H7H7H7H7H7H7H7H7H7H7H7H7              ",
"            H7H7H7E7D7C7B7A7A7A7A7A7A7A7A7A7A7A7A7A7A7A7A7A7A7A7A7A7A7A7A7A7A7A7A7A7A7A7A7A7A7A7A7A7A7B7C7;7:7H7H7H7            ",
"          H7H7H7978777777777777777777777777777777777777777777777777777777777777777777777777777777777777777776757H7H7H7          ",
"          H7H74737272727272727272727272727272727272727272727272727272727272727272727272727272727272727272727271707H7H7          ",
"        H7H7H7z6y6y6y6y6y6y6y6y6y6y6y6y6y6y6y6y6y6y6y6y6y6y6y6y6y6y6y6y6y6y6y6y6y6y6y6y6y6y6y6y6y6y6y6y6y6y6y6y6x6H7H7G7        ",
"        F7H7H7w6v6v6v6v6v6v6v6v6v6v6v6v6v6v6v6v6v6v6v6v6v6v6v6v6v6v6v6v6v6v6v6v6v6v6v6v6v6v6v6v6v6v6v6v6v6v6v6v6u6H7H7H7        ",
"        H7H7H7t6s6s6s6s6s6s6s6s6s6s6s6s6s6s6s6s6s6s6s6s6s6s6s6s6s6s6s6s6s6s6s6s6s6s6s6s6s6s6s6s6s6s6s6s6s6s6s6s6t6H7H7H7        ",
"        H7H7H7r6r6r6r6r6r6r6r6r6r6r6r6r6r6r6r6r6r6r6r6r6r6r6r6r6r6r6r6r6r6r6r6q6p6o6o6o6n6m6l6p6o6o6o6k6j6r6r6r6r6H7H7H7        ",
"        H7H7H7i6i6i6i6i6i6i6i6i6i6i6i6i6i6i6i6i6i6i6i6i6i6i6i6i6i6i6i6i6i6i6i6h6g6g6g6f6e6i6d6g6g6g6c6b6i6i6i6i6i6H7H7H7        ",
"        H7H7H7a6a6a6a6a6a6a6a6a6a6a6a6a6a6a6a6a6a6a6a6a6a6a6a6a6a6a6a6a6a6a6Z6Y6Y6Y6X6W6V6U6Y6Y6Y6X6W6T6a6a6a6a6a6H7H7H7        ",
"        H7H7H7S6S6S6S6S6S6S6S6S6S6S6S6S6S6S6S6S6S6S6S6S6S6S6S6S6S6S6S6S6S6R6Q6P6P6P6O6N6M6L6P6P6P6K6J6S6S6S6S6S6S6H7H7H7        ",
"        H7H7H7I6I6I6I6I6I6I6I6I6I6I6I6I6I6I6I6I6I6I6I6I6I6I6I6I6I6I6I6I6I6H6G6G6G6F6E6D6C6G6G6G6F6B6D6I6I6I6I6I6I6H7H7H7        ",
"        H7H7H7A6A6A6A6A6A6A6A6A6A6A6A6A6A6A6A6A6A6A6A6A6A6A6A6A6A6A6A6A6;6:69696968676;6:69696966676A6A6A6A6A6A6A6H7H7H7        ",
"        H7H7H75656565656565656565656565656565656565656565656565656565656463636362616564636363626165656565656565656H7H7H7        ",
"        H7H7H706060606060606060606060606060606060606060606060606060606z5y5y5y5x5w5v5z5y5y5y5x5w5v50606060606060606H7H7H7        ",
"        H7H7H7u5u5u5u5u5u5u5u5u5u5u5u5u5u5u5u5u5u5u5u5u5u5u5u5u5u5u5t5s5r5r5r5q5p5t5s5r5r5r5o5n5u5u5u5u5u5u5u5u5u5H7H7H7        ",
"        H7H7H7m5m5m5m5m5m5m5m5m5m5m5m5m5m5m5m5m5m5m5m5m5m5m5m5m5m5m5l5k5k5k5j5i5h5g5k5k5k5j5f5e5m5m5m5m5m5m5m5m5m5H7H7H7        ",
"        H7H7H7d5d5d5d5d5d5d5d5d5d5d5d5d5d5d5d5d5d5d5d5d5d5d5d5d5d5c5b5a5a5a5Z5Y5X5W5a5a5a5V5Y5d5d5d5d5d5d5d5d5d5d5H7H7H7        ",
"        H7H7H7U5U5U5U5U5U5U5U5U5U5U5U5U5U5U5U5U5U5U5U5U5U5U5U5U5U5T5S5S5S5R5Q5U5T5S5S5S5P5O5U5U5U5U5U5U5U5U5U5U5U5H7H7H7        ",
"        H7H7H7N5N5N5N5N5N5N5N5N5N5N5N5N5N5N5N5N5N5N5N5N5N5N5N5N5M5L5L5L5K5J5I5H5L5L5L5K5G5I5N5N5N5N5N5N5N5N5N5N5N5H7H7H7        ",
"        H7H7H7F5F5F5F5F5F5F5F5F5F5F5F5F5F5F5F5F5F5F5F5F5F5F5F5E5D5C5C5C5B5A5E5D5C5C5C5;5:5F5F5F5F5F5F5F5F5F5F5F5F5H7H7H7        ",
"        H7H7H79595959595959595959595959595959595959595959595958575757565554585757575655545959595959595959595959595H7H7H7        ",
"        H7H7H735353535353535353535353535353535353535353535352515050505z4y42515050505x4y435353535353535353535353535H7H7H7        ",
"        H7H7H7w4w4w4w4w4w4w4w4w4w4w4w4w4w4w4w4w4w4w4w4w4w4w4v4u4u4u4t4s4w4v4u4u4u4t4r4w4w4w4w4w4w4w4w4w4w4w4w4w4w4H7H7H7        ",
"        H7H7H7q4q4q4q4q4q4q4q4q4q4q4q4q4q4q4q4q4q4q4q4q4q4p4o4o4o4n4m4l4p4o4o4o4n4m4l4q4q4q4q4q4q4q4q4q4q4q4q4q4q4H7H7H7        ",
"        H7H7H7k4k4k4k4k4k4k4k4k4k4k4k4k4k4k4k4k4k4k4k4k4j4i4h4h4h4g4f4j4i4h4h4h4e4f4k4k4k4k4k4k4k4k4k4k4k4k4k4k4k4H7H7H7        ",
"        H7H7H7d4d4d4d4d4d4d4d4d4d4d4d4d4d4d4d4d4d4d4d4d4c4b4b4b4a4Z4Y4c4b4b4b4a4Z4Y4d4d4d4d4d4d4d4d4d4d4d4d4d4d4d4H7H7H7        ",
"        H7H7H7X4X4X4X4X4X4X4X4X4X4X4X4X4X4X4X4X4X4X4X4W4V4U4U4U4T4S4W4V4U4U4U4R4Q4X4X4X4X4X4X4X4X4X4X4X4X4X4X4X4X4H7H7H7        ",
"        H7H7H7P4P4P4P4P4P4P4P4P4P4P4P4P4P4P4P4P4P4P4O4N4M4M4M4L4K4O4J4M4M4M4L4I4P4P4P4P4P4P4P4P4P4P4P4P4P4P4P4P4P4H7H7H7        ",
"        H7H7H7H4H4H4H4H4H4H4H4H4H4H4H4H4H4H4H4H4H4H4G4F4F4F4E4D4C4G4F4F4F4B4A4C4H4H4H4H4H4H4H4H4H4H4H4H4H4H4H4H4H4H7H7H7        ",
"        H7H7H7;4;4;4;4;4;4;4;4;4;4;4;4;4;4;4;4;4;4:4948484847464:4548484844434;4;4;4;4;4;4;4;4;4;4;4;4;4;4;4;4;4;4H7H7H7        ",
"        H7H7H724242424242424242424242424242424242414040404z3y3x314040404z3w3x3242424242424242424242424242424242424H7H7H7        ",
"        H7H7H7v3v3u3t3s3s3r3q3v3u3t3s3s3r3q3v3v3p3o3n3n3n3m3q3p3o3n3n3n3m3q3v3v3v3v3v3v3v3v3v3v3v3v3v3v3v3v3v3v3v3H7H7H7        ",
"        H7H7H7l3l3k3j3i3i3i3h3g3k3j3i3i3i3h3q3f3e3d3d3d3c3b3f3a3d3d3d3Z3Y3l3l3l3l3l3l3l3l3l3l3l3l3l3l3l3l3l3l3l3l3H7H7H7        ",
"        H7H7H7X3X3X3W3V3V3V3U3T3S3R3V3V3V3U3T3Q3P3P3P3O3N3M3L3P3P3P3O3N3M3X3X3X3X3X3X3X3X3X3X3X3X3X3X3X3X3X3X3X3X3H7H7H7        ",
"        H7H7H7K3K3K3J3I3H3H3H3G3F3E3D3H3H3H3C3B3A3A3A3;3:39383A3A3A373:3K3K3K3K3K3K3K3K3K3K3K3K3K3K3K3K3K3K3K3K3K3H7H7H7        ",
"        H7H7H76363636353433333231303z2433333y2x2x2x2w2v2u2t2x2x2x2s2v2u2636363636363636363636363636363636363636363H7H7H7        ",
"        H7H7H7J3J3J3J3J3r2q2q2q2p2o2J3n2q2m2l2k2k2k2j2i2h2g2k2k2k2f2i2J3J3e2d2d2d2d2d2c2b2a2Z2Y2X2W2J3J3J3J3J3J3J3H7H7H7        ",
"        H7H7H7V2V2V2V2V2U2T2S2S2S2R2Q2P2O2N2M2M2M2L2K2J2I2M2M2M2H2G2V2V2V2F2E2D2C2C2C2B2A2;2:2:29282V2V2V2V2V2V2V2H7H7H7        ",
"        H7H7H7l3l3l3l3l3l3726262625242322212121202z1y1x112121202w1v1l3l3l3u1E2t1l3l3l3l3s1r1q1l3p1o1l3l3l3l3l3l3l3H7H7H7        ",
"        H7H7H7n1n1n1n1n1n1m1l1k1k1k1j1i1h1g1g1g1f1e1i1h1g1g1g1f1d1n1n1n1n1c1E2b1a1a1c1n1Z1E2Y1X1W1V1n1n1n1n1n1n1n1H7H7H7        ",
"        H7H7H7m1m1m1m1m1m1m1U1T1S1S1R1Q1P1P1P1O1N1M1Q1P1P1P1L1K1J1m1m1m1m1I1E2H1G1G1F1m1m1E1D1C1E2B1A1m1m1m1m1m1m1H7H7H7        ",
"        H7H7H7;1;1;1;1;1;1;1;1:191918171616161514181316161612111;1;1;1;1;101z0y0;1;1;1x0w0v0;1u0t0z0s0;1;1;1;1;1;1H7H7H7        ",
"        H7H7H7r0r0r0r0r0r0r0r0q0p0o0n0m0m0m0l0k0o0n0m0m0m0j0i0r0r0r0r0r0r0h0z0g0r0r0r0r0f0e0d0c0b0a0Z0r0r0r0r0r0r0H7H7H7        ",
"        H7H7H7Y0Y0Y0Y0Y0Y0Y0Y0Y0X0W0V0V0V0U0T0S0W0V0V0V0U0R0Q0Y0Y0Y0Y0Y0Y0P0z0O0Y0Y0Y0Y0N0M0z0z0L0K0Y0Y0Y0Y0Y0Y0Y0H7H7H7        ",
"        H7H7H7J0J0J0J0J0J0J0J0J0J0I0H0G0G0F0E0J0D0H0G0G0C0E0J0J0J0J0J0J0J0B0A0;0J0J0J0J0J0:0908070J0J0J0J0J0J0J0J0H7H7H7        ",
"        F7H7H76060606060606060606060606060606060606060606060606060606060606060606060606060606060606060606060606050H7H7H7        ",
"        H7H7H74030303030303030303030303030303030303030303030303030303030303030303030303030303030303030303030303020H7H7H7        ",
"          H7H7H7202020202020202020202020202020202020202020202020202020202020202020202020202020202020202020202020H7H7H7          ",
"          H7H7H71010101010101010101010101010101010101010101010101010101010101010101010101010101010101010101010H7H7H7H7          ",
"            H7H7H7H70000000000000000000000000000000000000000000000000000000000000000000000000000000000000000H7H7H7H7            ",
"              H7H7H7H7H7H7H7H7H7H7H7H7H7H7H7H7H7H7H7H7H7H7H7H7H7H7H7H7H7H7H7H7H7H7H7H7H7H7H7H7H7H7H7H7H7H7H7H7H7H7              ",
"                H7H7H7H7H7H7H7H7H7H7H7H7H7H7H7H7H7H7H7H7H7H7H7H7H7H7H7H7H7H7H7H7H7H7H7H7H7H7H7H7H7H7H7H7H7H7H7H7                ",
"                    H7F7H7H7H7H7H7H7H7H7H7H7H7H7H7H7H7H7H7H7H7H7H7H7H7H7H7H7H7H7H7H7H7H7H7H7H7H7H7H7H7H7F7H7                    ",
"                                                                                                                                ",
"                                                                                                                                ",
"                                                                                                                                ",
"                                                                                                                                "};
