/* XPM */
static char *image[] = {
"48 48 240 2",
"   c None",
"00 c #4e4454",
"10 c #938b9b",
"20 c #30233a",
"30 c #2a2232",
"40 c #6e726a",
"50 c #beadc2",
"60 c #291839",
"70 c #100520",
"80 c #839083",
"90 c #c2cdc2",
":0 c #7b6b84",
";0 c #1d0e09",
"A0 c #6b2121",
"B0 c #7b9c8c",
"C0 c #aaa8aa",
"D0 c #3d3541",
"E0 c #286b2a",
"F0 c #260e0c",
"G0 c #713738",
"H0 c #788586",
"I0 c #ad3139",
"J0 c #ba3d45",
"K0 c #290018",
"L0 c #061b1f",
"M0 c #5c7070",
"N0 c #9b8b9b",
"O0 c #105310",
"P0 c #36120f",
"Q0 c #2d322d",
"R0 c #797272",
"S0 c #b4adb4",
"T0 c #082809",
"U0 c #392939",
"V0 c #acb3b6",
"W0 c #767376",
"X0 c #1b7a1b",
"Y0 c #14240c",
"Z0 c #792323",
"a0 c #37393a",
"b0 c #879395",
"c0 c #228e22",
"d0 c #182931",
"e0 c #362736",
"f0 c #123b16",
"g0 c #a0292d",
"h0 c #5b4b5e",
"i0 c #269926",
"j0 c #d33c3c",
"k0 c #320b0e",
"l0 c #b0b4ac",
"m0 c #1f0727",
"n0 c #020a0a",
"o0 c #690b12",
"p0 c #633733",
"q0 c #636b5a",
"r0 c #39030a",
"s0 c #314a31",
"t0 c #45070e",
"u0 c #0e2110",
"v0 c #581a1b",
"w0 c #490312",
"x0 c #142413",
"y0 c #521c22",
"z0 c #382323",
"01 c #612124",
"11 c #1a2b23",
"21 c #232a14",
"31 c #64242a",
"41 c #520912",
"51 c #361717",
"61 c #218c29",
"71 c #33241c",
"81 c #490c1a",
"91 c #dc3f41",
":1 c #36d836",
";1 c #2faa33",
"A1 c #1c5639",
"B1 c #1e722a",
"C1 c #2dbb2e",
"D1 c #001808",
"E1 c #010b01",
"F1 c #9d271d",
"G1 c #b62e26",
"H1 c #962b31",
"I1 c #b63638",
"J1 c #68121a",
"K1 c #35b733",
"L1 c #228322",
"M1 c #19611e",
"N1 c #533955",
"O1 c #6a2a3d",
"P1 c #8c2629",
"Q1 c #a33135",
"R1 c #c54145",
"S1 c #75191b",
"T1 c #472828",
"U1 c #39e33a",
"V1 c #40e33b",
"W1 c #296b21",
"X1 c #082109",
"Y1 c #0d4395",
"Z1 c #631000",
"a1 c #8c2931",
"b1 c #ee5153",
"c1 c #eb4747",
"d1 c #751921",
"e1 c #3df63d",
"f1 c #31ad29",
"g1 c #163e0e",
"h1 c #296bde",
"i1 c #1b050d",
"j1 c #310008",
"k1 c #8e2a2c",
"l1 c #c4413b",
"m1 c #f74a4a",
"n1 c #39e235",
"o1 c #2aa828",
"p1 c #237827",
"q1 c #246235",
"r1 c #244a5d",
"s1 c #281029",
"t1 c #471517",
"u1 c #832929",
"v1 c #d74541",
"w1 c #428c45",
"x1 c #42fe41",
"y1 c #31c629",
"z1 c #1a4e16",
"02 c #080107",
"12 c #181842",
"22 c #3660be",
"32 c #440f15",
"42 c #ad3131",
"52 c #fb514c",
"62 c #532f2d",
"72 c #294a42",
"82 c #42104a",
"92 c #3d8c41",
":2 c #41fd3b",
";2 c #39ed39",
"A2 c #26921d",
"B2 c #17440c",
"C2 c #100042",
"D2 c #8c2422",
"E2 c #fe5553",
"F2 c #821a22",
"G2 c #592e31",
"H2 c #314a4a",
"I2 c #311839",
"J2 c #377837",
"K2 c #35cd32",
"L2 c #2c8741",
"M2 c #2d6e5d",
"N2 c #2c5877",
"O2 c #3258ad",
"P2 c #461723",
"Q2 c #822228",
"R2 c #c43d3a",
"S2 c #921d25",
"T2 c #274639",
"U2 c #32652d",
"V2 c #409f32",
"W2 c #21214a",
"X2 c #334a9c",
"Y2 c #426ee1",
"Z2 c #050929",
"a2 c #390e14",
"b2 c #862317",
"c2 c #952629",
"d2 c #602c2c",
"e2 c #233834",
"f2 c #3254b0",
"g2 c #120404",
"h2 c #0c0f0f",
"i2 c #082121",
"j2 c #49526a",
"k2 c #234589",
"l2 c #121837",
"m2 c #1a1618",
"n2 c #040810",
"o2 c #514d51",
"p2 c #b2a9ad",
"q2 c #24519b",
"r2 c #3c72d8",
"s2 c #17224a",
"t2 c #75787a",
"u2 c #010111",
"v2 c #050831",
"w2 c #0b1212",
"x2 c #24322b",
"y2 c #413241",
"z2 c #1b3b78",
"03 c #284aa2",
"13 c #98a6a6",
"23 c #9a959b",
"33 c #635f67",
"43 c #303e5e",
"53 c #417be9",
"63 c #3f86f4",
"73 c #3b76e5",
"83 c #28499a",
"93 c #193265",
":3 c #172855",
";3 c #535355",
"A3 c #464548",
"B3 c #08214a",
"C3 c #3566c6",
"D3 c #427df3",
"E3 c #498bfe",
"F3 c #4a93ff",
"G3 c #2e63c0",
"H3 c #1e3c88",
"I3 c #000000",
"J3 c #596462",
"K3 c #a4aba6",
"L3 c #211a22",
"M3 c #090409",
"N3 c #091529",
"O3 c #356ad2",
"P3 c #2b5eca",
"Q3 c #2958bf",
"R3 c #2954a9",
"S3 c #071536",
"T3 c #01030a",
"U3 c #63656d",
"V3 c #918a91",
"W3 c #7c7c7e",
"X3 c #646a75",
"Y3 c #2c457a",
"Z3 c #253b76",
"a3 c #293666",
"b3 c #161a25",
"c3 c #322e33",
"d3 c #838184",
"e3 c #8a8e92",
"f3 c #b1b4b6",
"g3 c #c3bbca",
"h3 c #282123",
"i3 c #67585a",
"                                          i3h3h3h3h3h3g3                                        ",
"                                    f3e3d3c3b3a3Z3Z3Y3X3W3V3                                    ",
"                                    U3b3T3T3S3R3Q3P3O3N3M3L3                                    ",
"                              K3J3I3I3T3S3H3G3F3E3D3D3E3C3B3T3A3                                ",
"                            d3;3c3N3:39383C373F3E3E363E353R393433323                            ",
"                          13I3I3T3:303O3E3E3E3E3E3E3E3E3E3F3G3z2I3y2V3                          ",
"                      x2w2I3v2R3D3E3E3E3E3E3E3E3E3E3E3E3E3E3D3D3E3S3u2I3                        ",
"                  K3t2b3s29383r263E3E3E3E3E3E3E3E3E3E3E3E3E36363E3q2z293U3d3p2                  ",
"                  o2I3v2H3C3F3E3E3E3E3E3E3E3E3E3E3E3E3E3E3E3E3E3E3E373C3n2h3i3                  ",
"            t2x2I3:303E3D3D3E3E3E3E3E3E3E3E3E3E3E3E3E3E3E3E3E3E3E3E3E3E3E3R3S3I3W3              ",
"          X3A3m2l2k2O3636363E3E3E3E3E3E3E3E3E3E3E3E3E3E3E3E3E3E3E3E3E3E3D3O3q2:3j2d3            ",
"          i2h2g2Z3C3E35363E3E3E3E3E3E3E3E3E3E3E3E3E3E3E3E3E3E3E3E3E3E3E353D3E3f2:3I3            ",
"          e2d2c2b2a2Z2D363E3E3E3E3E3E3E3E3E3E3E3E3E3E3E3E3E3E3E3E3E3E3E3Y2X2W2V2U2h3            ",
"          T2d2S2R2Q2P2Z3O2r2E3E3E3E3E3E3E3E3E3E3E3E3E3E3E3E3E3E3E3D3O303N2M2L2K2J2I2            ",
"          H2G2F2E2R2D2I393O2E3E3E3E3E3E3E3E3E3E3E3E3E3E3E3E3E3E3E3Y2X2C2B2A2;2:29282            ",
"          7262F2E2E2524232T3W22263D3E3E3E3E3E3E3E3E3E3E3E3E353O21202z1y1:2:2x1x1w182            ",
"          7262F2E25252v1u1t1s1a3837363F3E3E3E3E3E3E3F353C383Z3r1q1p1o1n1:2x1x1x1w182            ",
"          T262F2E252m1E2l1k1j1i1l2h163F3E3E3E3E3E3E3F3C3k2v202g1f1e1x1x1x1x1x1x1w182            ",
"          T262d1m1m1m1c1E2b1a1k1D2Z1:3Y1E3D3D3E3r2O2s2n2X1W1V1e1U1x1x1x1x1x1x1x1w182            ",
"          72T1S152m1m1m152b1R1Q1P1S1O1N1k2O35373k2:3N3M1L1K1e1x1e1x1x1x1x1x1x1x1w182            ",
"          72T1J1E252m1m1m1m1E2I1a1H1G1F1u2R373O3l2E1D1C1;2x1x1x1x1x1x1x1x1x1x1x1w182            ",
"          e2T1J1m1m1m1m1m1m1m1m1c1I1u1u1m1t1n2s2B1o1x1x1x1x1x1x1x1x1x1x1x1x1x1x1w182            ",
"          e2T1J1m1m1m1m1m1m1m1m1c1v1I1I1I132m2A1;1:1x1x1x1x1x1x1x1x1x1x1x1x1x1x1w182            ",
"          e2T1J1m1m1m1m1m1m1m1m1m1m1m191d1817161V1x1x1x1x1x1x1x1x1x1x1x1x1x1x1x1w182            ",
"          x25141m1m1m1m1m1m1m1m1m1m1m1m1E2312161V1x1x1x1x1x1x1x1x1x1x1x1x1x1x1x1w182            ",
"          11514152m1m1m1m1m1m1m1m1m1m1m1E2012161V1x1x1x1x1x1x1x1x1x1x1x1x1x1x1x1w182            ",
"          115141E252m1m1m1m1m1m1m1m1m1m1E2012161V1x1x1x1x1x1x1x1x1x1x1x1x1x1x1x1w182            ",
"          T2z041E252m1E252m1m1m1m1m1m1m1E2y0x061V1x1x1x1x1x1x1x1x1x1x1x1x1x1x1x1w182            ",
"          T2z041E252m152m1m1m1m1m1m1m1m1E2y0x061V1x1x1x1x1x1x1x1x1x1x1x1x1x1x1x1w182            ",
"          T2z0w0E252m1m1m1m1m1m1m1m1m1m1E2v0x061V1x1x1x1x1x1x1x1x1x1x1x1x1x1x1x1w182            ",
"          T2z041E252m1m1m1m1m1m1m1m1m1m1E2t1u061U1x1x1x1x1x1x1x1x1x1x1x1x1x1x1x1w182            ",
"          T271t0E252m1m1m1m1m1m1m1m1m1m1E2t1u061U1x1x1x1x1x1x1x1x1x1x1x1x1x1x1x1w182            ",
"          s071r0E252m1m1m1m1m1m1m1m1m1m1E2t1u061U1x1x1x1x1x1x1x1x1x1x1x1x1x1x1x1w182            ",
"          q0p0o0E2E252m1m1m1m1m1m1m1m1m1E2t1X161U1x1x1x1x1x1x1x1x1x1x1x1x1x1x1n0m082            ",
"          l0i3k0H1j052525252m1m1m1m1m1m1E2t1X161U1x1x1x1x1x1x1x1x1x1x1x1K1i0L1L3h0              ",
"            W3n0j1g0m1E2E2E2m1m1m1m1m1m1E2t1X161U1x1x1x1x1x1x1x1x1x1x1x1p1f0I3e0                ",
"              K3d0w2g2c1m1E2E2m1m1m1m1m1E2t1X161U1x1x1x1x1x1x1x1x1;2c0E1I3A3                    ",
"                b0J3a0Z0I1c1E2m1m1m1m1m152v0Y061U1x1x1x1x1x1x1U1C1X0z1m2W0                      ",
"                  V0X3I3Z0j0E2m1m1m1m1m152v02161U1x1x1x1x1x1x1K2X0E1m2U0                        ",
"                      b0a0g2c2v1E2m15252c132X161U1x1x1x1e1;2T0I3I3S0                            ",
"                        23R0t1k1R2525252v1a2X161:1e1x1K2o1X0Q0A3W3                              ",
"                            I332Q2E2E2m1l1P0X161:1e1x1A2O0I3N1N0                                ",
"                              M0L0K0J0b1I0k0X161U1C1I302;3                                      ",
"                              V0H0o2G0u1k1F0X161L1E0D0W0C0                                      ",
"                                  B0x2g2A0;0T061X1L3:0                                          ",
"                                    9080I3u2706050                                              ",
"                                        40302010                                                ",
"                                          0000                                                  "};
