/* XPM */
static char *image[] = {
"48 48 4 1",
"  c None",
"0 c #212121",
"1 c #232323",
"2 c #222222",
"                                                ",
"                                                ",
"                                               2",
"                                              21",
"                                              22",
"               0                             222",
"               0                             220",
"               22                           2222",
"               222                         22222",
"               0222                      2222222",
"               222222                  222222222",
"               222222221            022222222222",
"               122222222222222222222222222222222",
"               222222222222222222221222222222222",
"               22222222222222222      2222222222",
"               222222    222222        222222222",
"               2222       2222          22222222",
"              12222        222    1222  22222222",
"   2200       2222    222  221    2222  12222222",
" 22222222     2222    222  222    2222  22222222",
"0222222220    2222    021  222     22   22222221",
"22222222222  222222        2222        12222222 ",
"22222222222  222222       22222        22222222 ",
"222222222222222222221    22222222    2222222222 ",
"22222222222222222222222222222222222222222222222 ",
" 2222222222222222222222222222222122222222222222 ",
" 22222222222222222222222222222222  222222222222 ",
"  22222222222222222222222222222222  2222222222  ",
"   12222222222222222222222222222220  122222222  ",
"     22222222222222222222222222222    22222220  ",
"         0222222222 022222222222      1222222   ",
"           222222222   2221222      222222222   ",
"            122222222               22222221    ",
"              222222222         21   122222     ",
"               22222222220       222   222      ",
"                 0222222222222   2222           ",
"                   222222222222   1220          ",
"                      2222222220   1222         ",
"                         02222222   2222        ",
"                                     2222222    ",
"                                      0222222   ",
"                                       2222222  ",
"                                       12222220 ",
"                                        2222222 ",
"                                         222222 ",
"                                            2222",
"                                               2",
"                                                "};
