/* XPM */
static char *image[] = {
"48 48 629 2",
"   c None",
"00 c #c0bebb",
"10 c #c0bfbc",
"20 c #c0bebc",
"30 c #c1c1be",
"40 c #e0e0de",
"50 c #e2e1e0",
"60 c #d6d5d3",
"70 c #c4c0bd",
"80 c #dfdedc",
"90 c #e1e0df",
":0 c #cbc9c7",
";0 c #cdcdca",
"A0 c #e5e4e2",
"B0 c #e3e2df",
"C0 c #d4d4d2",
"D0 c #e5e3e1",
"E0 c #eceae9",
"F0 c #f5d76e",
"G0 c #f5ce46",
"H0 c #f6f1e0",
"I0 c #f6e9bf",
"J0 c #f5d051",
"K0 c #f6d979",
"L0 c #f6f2ea",
"M0 c #f5cf4e",
"N0 c #f5d35d",
"O0 c #eae9e7",
"P0 c #e7e7e5",
"Q0 c #ededeb",
"R0 c #f6f3eb",
"S0 c #f5cc3d",
"T0 c #f5c729",
"U0 c #f5dd8b",
"V0 c #f6dc84",
"W0 c #f5c623",
"X0 c #f5cd42",
"Y0 c #f6f3ed",
"Z0 c #f5e7b4",
"a0 c #f5c92e",
"b0 c #f5c934",
"c0 c #f6eed5",
"d0 c #e4e3e0",
"e0 c #e1e1de",
"f0 c #e8e8e5",
"g0 c #f6f4f0",
"h0 c #f6db83",
"i0 c #f6dc86",
"j0 c #f6f4ee",
"k0 c #f5e4a9",
"l0 c #f6eac6",
"m0 c #f3f2f1",
"n0 c #f4f3f2",
"o0 c #f6f4f3",
"p0 c #dcd6a6",
"q0 c #d4c96a",
"r0 c #d6c75e",
"s0 c #d7c75d",
"t0 c #d8c75a",
"u0 c #d8c757",
"v0 c #dac754",
"w0 c #dac751",
"x0 c #dbc750",
"y0 c #dcc74d",
"z0 c #dec74a",
"01 c #dfc747",
"11 c #e0c745",
"21 c #e1c743",
"31 c #e2c740",
"41 c #e3c73d",
"51 c #e4c73a",
"61 c #e5c738",
"71 c #e6c736",
"81 c #e7c732",
"91 c #e8c730",
":1 c #e9c72d",
";1 c #eac72b",
"A1 c #ebc728",
"B1 c #ecc727",
"C1 c #eac930",
"D1 c #e8d482",
"E1 c #f5f4f3",
"F1 c #e7e4d4",
"G1 c #cfc659",
"H1 c #d3c64e",
"I1 c #d4c64b",
"J1 c #d6c647",
"K1 c #d7c644",
"L1 c #d8c641",
"M1 c #dac63e",
"N1 c #dcc637",
"O1 c #e4c624",
"P1 c #e6c61d",
"Q1 c #e9c617",
"R1 c #ecc610",
"S1 c #edc60d",
"T1 c #eec60a",
"U1 c #efc607",
"V1 c #f1c603",
"W1 c #f2c601",
"X1 c #ebe2bd",
"Y1 c #e2e0c9",
"Z1 c #cfc65a",
"a1 c #d0c656",
"b1 c #d1c653",
"c1 c #d2c650",
"d1 c #d4c64d",
"e1 c #d6c646",
"f1 c #d7c643",
"g1 c #d9c13f",
"h1 c #dab939",
"i1 c #d9c332",
"j1 c #d9c230",
"k1 c #e0c62c",
"l1 c #e3c626",
"m1 c #e4c623",
"n1 c #e6c61f",
"o1 c #e7c61c",
"p1 c #e8c619",
"q1 c #ebc612",
"r1 c #ecc60f",
"s1 c #edc60c",
"t1 c #efc609",
"u1 c #f0c605",
"v1 c #f1c602",
"w1 c #f2c600",
"x1 c #ebdfaa",
"y1 c #e1e0cb",
"z1 c #cac665",
"02 c #cbc662",
"12 c #aeaf4d",
"22 c #c2bc57",
"32 c #d0c655",
"42 c #d2c652",
"52 c #d3c64f",
"62 c #d99438",
"72 c #e66c27",
"82 c #db9d38",
"92 c #d8c642",
":2 c #a9a733",
";2 c #9fa431",
"A2 c #aeaa32",
"B2 c #d9c435",
"C2 c #dec632",
"D2 c #e1c62b",
"E2 c #e2c628",
"F2 c #e4c625",
"G2 c #e5c621",
"H2 c #e6c61e",
"I2 c #e7c61b",
"J2 c #e9c618",
"K2 c #eac614",
"L2 c #ebc611",
"M2 c #ecc60e",
"N2 c #eec60b",
"O2 c #eadfab",
"P2 c #e0e0ce",
"Q2 c #c5c671",
"R2 c #c4c46c",
"S2 c #8f9538",
"T2 c #919639",
"U2 c #c6c262",
"V2 c #ccc661",
"W2 c #cdc65e",
"X2 c #cec65a",
"Y2 c #da8c3b",
"Z2 c #e56e27",
"a2 c #c49d39",
"b2 c #a3a830",
"c2 c #a7ac30",
"d2 c #a1a431",
"e2 c #cbbc3a",
"f2 c #dcc136",
"g2 c #df882a",
"h2 c #df9a29",
"i2 c #e0c62d",
"j2 c #e1c62a",
"k2 c #e3c627",
"l2 c #ddc124",
"m2 c #e5c620",
"n2 c #e7c61d",
"o2 c #e8c61a",
"p2 c #e9c616",
"q2 c #e8dfaf",
"r2 c #dfe0d1",
"s2 c #c1c67d",
"t2 c #a3a954",
"u2 c #8e9329",
"v2 c #8f9329",
"w2 c #92983a",
"x2 c #b4b65c",
"y2 c #c8c669",
"z2 c #cac666",
"03 c #d69042",
"13 c #db6e26",
"23 c #b0a32f",
"33 c #a3a731",
"43 c #cdb33e",
"53 c #e07929",
"63 c #ec6520",
"73 c #e17928",
"83 c #dbc639",
"93 c #ddc636",
":3 c #b3ab30",
";3 c #98972d",
"A3 c #e1c62c",
"B3 c #e2c629",
"C3 c #e3c625",
"D3 c #e4c622",
"E3 c #e8dfb2",
"F3 c #dee0d3",
"G3 c #bcc589",
"H3 c #98a042",
"I3 c #969b2b",
"J3 c #92972a",
"K3 c #8e942c",
"L3 c #919836",
"M3 c #959b3a",
"N3 c #bd8134",
"O3 c #d57428",
"P3 c #aaaa30",
"Q3 c #b0a22f",
"R3 c #d76f26",
"S3 c #ed6520",
"T3 c #da7527",
"U3 c #b4af39",
"V3 c #a1a032",
"W3 c #949a2c",
"X3 c #989a2e",
"Y3 c #dbc538",
"Z3 c #ddc634",
"a3 c #dfc631",
"b3 c #e0c62e",
"c3 c #e6dfb5",
"d3 c #dce0d6",
"e3 c #b6c392",
"f3 c #99a138",
"g3 c #9ca22d",
"h3 c #999e2c",
"i3 c #959a2b",
"j3 c #91962a",
"k3 c #8f9429",
"l3 c #aa852b",
"m3 c #ec6a26",
"n3 c #ee6924",
"o3 c #ee6923",
"p3 c #ed6923",
"q3 c #d27a2a",
"r3 c #aaab30",
"s3 c #b8992e",
"t3 c #da7227",
"u3 c #ee6822",
"v3 c #ee6722",
"w3 c #cb7325",
"x3 c #92982a",
"y3 c #969c2b",
"z3 c #999e2e",
"04 c #ccbe40",
"14 c #d9c640",
"24 c #dac63d",
"34 c #dbc63a",
"44 c #e5dfb8",
"54 c #dbe0d9",
"64 c #b0c5a7",
"74 c #afbf92",
"84 c #a1a835",
"94 c #989d2b",
":4 c #94992a",
";4 c #919629",
"A4 c #978f2a",
"B4 c #e66f2a",
"C4 c #f06e27",
"D4 c #f06d27",
"E4 c #ef6d27",
"F4 c #db752a",
"G4 c #e66f28",
"H4 c #ef6c26",
"I4 c #ef6b25",
"J4 c #c57928",
"K4 c #9da42e",
"L4 c #c4bb49",
"M4 c #d4c64c",
"N4 c #d5c649",
"O4 c #d7c645",
"P4 c #e4dfbb",
"Q4 c #dbe0db",
"R4 c #acc4a7",
"S4 c #a1a93a",
"T4 c #a6ac2f",
"U4 c #a2a82e",
"V4 c #9ea42d",
"W4 c #979c2b",
"X4 c #93982a",
"Y4 c #d7772e",
"Z4 c #f1722b",
"a4 c #f1712a",
"b4 c #f17029",
"c4 c #f07029",
"d4 c #ef6f29",
"e4 c #b6862a",
"f4 c #9ba02c",
"g4 c #9fa42d",
"h4 c #a3a82e",
"i4 c #a1a731",
"j4 c #c5bf55",
"k4 c #cfc658",
"l4 c #d1c654",
"m4 c #d2c651",
"n4 c #e3dfbe",
"o4 c #d9e0de",
"p4 c #a9c5b8",
"q4 c #a0ab53",
"r4 c #a5ab2f",
"s4 c #a1a72e",
"t4 c #9ea32d",
"u4 c #9aa02c",
"v4 c #c68031",
"w4 c #f2762f",
"x4 c #f2762e",
"y4 c #e76e2c",
"z4 c #dd652a",
"05 c #df682b",
"15 c #f0742e",
"25 c #f2752d",
"35 c #f2742d",
"45 c #e2742c",
"55 c #a09c2b",
"65 c #9fa52d",
"75 c #a3a838",
"85 c #c8c566",
"95 c #cbc663",
":5 c #ccc660",
";5 c #cdc65d",
"A5 c #e2dfc1",
"B5 c #d8e0e1",
"C5 c #a5c5c3",
"D5 c #a4bda7",
"E5 c #9fa942",
"F5 c #a9ad30",
"G5 c #b29c31",
"H5 c #c38932",
"I5 c #d87c33",
"J5 c #f27932",
"K5 c #d45f27",
"L5 c #b94a19",
"M5 c #a74012",
"N5 c #a84112",
"O5 c #c1501f",
"P5 c #e26b2d",
"Q5 c #f37931",
"R5 c #cc7e2e",
"S5 c #a9ae48",
"T5 c #c5c672",
"U5 c #c6c66f",
"V5 c #c7c66c",
"W5 c #c9c669",
"X5 c #e0dfc4",
"Y5 c #d7e0e3",
"Z5 c #a0c5cf",
"a5 c #a1c5cc",
"b5 c #a1bfb3",
"c5 c #9da039",
"d5 c #c28936",
"e5 c #d38437",
"f5 c #de7e37",
"g5 c #ee7d37",
"h5 c #f57f36",
"i5 c #e16b2d",
"j5 c #c9561b",
"k5 c #be5d28",
"l5 c #9a3a10",
"m5 c #9b3910",
"n5 c #ba541f",
"o5 c #cd571f",
"p5 c #ed7732",
"q5 c #f57d34",
"r5 c #cd8030",
"s5 c #a7a42f",
"t5 c #a8ae2f",
"u5 c #a3a93e",
"v5 c #bcc27a",
"w5 c #c0c67e",
"x5 c #c1c67b",
"y5 c #c3c678",
"z5 c #c4c674",
"06 c #dfdfc7",
"16 c #d6e0e7",
"26 c #9bc5db",
"36 c #9dc2ca",
"46 c #b48f3e",
"56 c #f4823c",
"66 c #f7843a",
"76 c #e2692b",
"86 c #d05c20",
"96 c #d2814c",
":6 c #b34816",
";6 c #b24816",
"A6 c #c8652d",
"B6 c #d36429",
"C6 c #e67231",
"D6 c #f68138",
"E6 c #f47f38",
"F6 c #e37c35",
"G6 c #cf8234",
"H6 c #bd9245",
"I6 c #b7bd84",
"J6 c #bac58d",
"K6 c #bbc58a",
"L6 c #bdc587",
"M6 c #bec583",
"N6 c #bfc580",
"O6 c #dedfca",
"P6 c #d5e0e9",
"Q6 c #98c5e3",
"R6 c #97bcbe",
"S6 c #9a9e2d",
"T6 c #c7873a",
"U6 c #ed863e",
"V6 c #f8883e",
"W6 c #f8883d",
"X6 c #e97331",
"Y6 c #e37d42",
"Z6 c #df8852",
"a6 c #cc5a1f",
"b6 c #cd5c20",
"c6 c #d36124",
"d6 c #ea9f6b",
"e6 c #ed7934",
"f6 c #f7863b",
"g6 c #f7853b",
"h6 c #f5833a",
"i6 c #dc8146",
"j6 c #b7c498",
"k6 c #b7c595",
"l6 c #b8c592",
"m6 c #b9c58f",
"n6 c #bbc58c",
"o6 c #dcdecd",
"p6 c #92c5f2",
"q6 c #93c5ef",
"r6 c #94bfd3",
"s6 c #99a033",
"t6 c #b19233",
"u6 c #d2863c",
"v6 c #ec8740",
"w6 c #f98c41",
"x6 c #f3843c",
"y6 c #f3aa72",
"z6 c #e4702e",
"07 c #e06d2b",
"17 c #e47733",
"27 c #e36e2b",
"37 c #f0965c",
"47 c #f7883e",
"57 c #f98a3f",
"67 c #f9893f",
"77 c #f8893e",
"87 c #ea8441",
"97 c #ce9465",
":7 c #b1c5a4",
";7 c #b2c5a1",
"A7 c #b3c59e",
"B7 c #b5c59b",
"C7 c #b6c598",
"D7 c #dbded1",
"E7 c #8dc5fe",
"F7 c #8fc5fb",
"G7 c #90c4f5",
"H7 c #94a452",
"I7 c #a89831",
"J7 c #c18c38",
"K7 c #db873f",
"L7 c #fb9044",
"M7 c #f99d59",
"N7 c #f2833b",
"O7 c #f18d49",
"P7 c #f4823a",
"Q7 c #f88b40",
"R7 c #fa8f43",
"S7 c #fa8d43",
"T7 c #ee873f",
"U7 c #db8539",
"V7 c #c78837",
"W7 c #afb292",
"X7 c #abc5b3",
"Y7 c #acc5b0",
"Z7 c #adc5ad",
"a7 c #afc5aa",
"b7 c #b0c5a6",
"c7 c #b1c5a3",
"d7 c #dbded3",
"e7 c #8fb3a5",
"f7 c #9a9f34",
"g7 c #be8d38",
"h7 c #fa9348",
"i7 c #fc9448",
"j7 c #fc9d53",
"k7 c #fda65f",
"l7 c #fc9347",
"m7 c #ed8b43",
"n7 c #ca8738",
"o7 c #bf8c34",
"p7 c #a99c2f",
"q7 c #9fa73a",
"r7 c #a3c2b7",
"s7 c #a6c5bf",
"t7 c #a8c5bc",
"u7 c #a9c5b9",
"v7 c #aac5b5",
"w7 c #abc5b2",
"x7 c #adc5af",
"y7 c #d9ded6",
"z7 c #90b198",
"08 c #97a040",
"18 c #9ca02b",
"28 c #9ca02c",
"38 c #9f9d2e",
"48 c #e18b44",
"58 c #fd994c",
"68 c #fda861",
"78 c #fdad6a",
"88 c #fd984b",
"98 c #cf873c",
":8 c #9ca12d",
";8 c #9fa52e",
"A8 c #a3a92f",
"B8 c #a7ad30",
"C8 c #9ca94d",
"D8 c #a0c5ce",
"E8 c #a2c5cb",
"F8 c #a3c5c8",
"G8 c #a4c5c4",
"H8 c #a5c5c1",
"I8 c #a7c5be",
"J8 c #a8c5bb",
"K8 c #d7deda",
"L8 c #8dc0e8",
"M8 c #90ad88",
"N8 c #93a767",
"O8 c #94a55c",
"P8 c #94a65d",
"Q8 c #ba945b",
"R8 c #f8984e",
"S8 c #ff9d4f",
"T8 c #ff9f53",
"U8 c #fe9f53",
"V8 c #e48d46",
"W8 c #a69b31",
"X8 c #a0a62e",
"Y8 c #a4aa2f",
"Z8 c #a6ac31",
"a8 c #99b17f",
"b8 c #9cc5da",
"c8 c #9dc5d7",
"d8 c #9ec5d3",
"e8 c #a0c5d0",
"f8 c #a1c5cd",
"g8 c #a2c5ca",
"h8 c #a3c5c6",
"i8 c #d7dedd",
"j8 c #c49989",
"k8 c #f49752",
"l8 c #fe9c4f",
"m8 c #e08d49",
"n8 c #b29535",
"o8 c #a1a62e",
"p8 c #a5aa2f",
"q8 c #a8ae30",
"r8 c #a6ad31",
"s8 c #98aa64",
"t8 c #96c4e5",
"u8 c #97c5e6",
"v8 c #98c5e2",
"w8 c #9ac5df",
"x8 c #9bc5dc",
"y8 c #9cc5d9",
"z8 c #9dc5d5",
"09 c #9fc5d2",
"19 c #d5dee0",
"29 c #d4e0ec",
"39 c #a1b1cf",
"49 c #ada6b4",
"59 c #92bce4",
"69 c #91b090",
"79 c #96aa6b",
"89 c #98aa5f",
"99 c #96ac6d",
":9 c #92b4a0",
";9 c #90c5f5",
"A9 c #91c5f5",
"B9 c #92c5f1",
"C9 c #94c5ee",
"D9 c #95c5eb",
"E9 c #96c5e8",
"F9 c #98c5e4",
"G9 c #99c5e1",
"H9 c #9ac5de",
"I9 c #d4dee3",
"J9 c #d5e1ec",
"K9 c #8ec5fd",
"L9 c #8fc5fa",
"M9 c #90c5f7",
"N9 c #92c5f3",
"O9 c #93c5f0",
"P9 c #94c5ed",
"Q9 c #95c5ea",
"R9 c #d5dfe5",
"S9 c #ebedef",
"T9 c #9bc8f6",
"U9 c #8dc5ff",
"V9 c #8ec5fc",
"W9 c #90c5f9",
"X9 c #9bc7ef",
"Y9 c #e9eced",
"Z9 c #d4d4d1",
"a9 c #d1d1cb",
"b9 c #e5e9ee",
"c9 c #c5daf1",
"d9 c #c7daef",
"e9 c #e3e7ed",
"f9 c #d1d1d0",
"g9 c #d5d5d2",
"h9 c #eeeeed",
"i9 c #f6f5f4",
"j9 c #f0efee",
"k9 c #d5d5d0",
"l9 c #d1d1cc",
"m9 c #d1d0d0",
"n9 c #d2d0cd",
"                                                                                                ",
"                                                                                                ",
"                                                                                                ",
"                                                                                                ",
"              n9m9m9m9m9m9m9m9m9m9m9m9m9m9m9m9m9m9m9m9m9m9m9m9m9m9m9m9m9m9m9m9m9l9              ",
"          k9j9i9i9i9i9i9i9i9i9i9i9i9i9i9i9i9i9i9i9i9i9i9i9i9i9i9i9i9i9i9i9i9i9i9i9h9g9          ",
"          j9i9i9i9i9i9i9i9i9i9i9i9i9i9i9i9i9i9i9i9i9i9i9i9i9i9i9i9i9i9i9i9i9i9i9i9i9h9          ",
"        f9i9i9i9e9d9c9c9c9c9c9c9c9c9c9c9c9c9c9c9c9c9c9c9c9c9c9c9c9c9c9c9c9c9d9b9i9i9i9a9        ",
"        Z9i9i9Y9X9W9V9U9U9U9U9U9U9U9U9U9U9U9U9U9U9U9U9U9U9U9U9U9U9U9U9U9U9U9U9T9S9i9i9f9        ",
"        Z9i9i9R9Q9P9O9N9M9L9K9U9U9U9U9U9U9U9U9U9U9U9U9U9U9U9U9U9U9U9U9U9U9U9U9U9J9i9i9f9        ",
"        Z9i9i9I9H9G9F9E9D9C9B9A9;9:999897969594939U9U9U9U9U9U9U9U9U9U9U9U9U9U9U929i9i9f9        ",
"        Z9i9i91909z8y8x8w8v8u8t8s8r8q8p8o8n8m8l8k8j8U9U9U9U9U9U9U9U9U9U9U9U9U9U929i9i9f9        ",
"        Z9i9i9i8h8g8f8e8d8c8b8a8Z8q8Y8X8W8V8U8T8S8R8Q8P8O8N8M8L8U9U9U9U9U9U9U9U929i9i9f9        ",
"        Z9i9i9K8J8I8H8G8F8E8D8C8B8A8;8:8988878688858483828281808z7U9U9U9U9U9U9U929i9i9f9        ",
"        Z9i9i9y7x7w7v7u7t7s7r7q7A8p7o7n7m7l7k7j7i7i7h7g728282828f7e7U9U9U9U9U9U929i9i9f9        ",
"        Z9i9i9d7c7b7a7Z7Y7X7W7V7U7T7S7R7Q7P7O7N7P7M7L7K7J7I7282828H7G7F7E7U9U9U929i9i9f9        ",
"        Z9i9i9D7C7B7A7;7:79787776757574737271707z6y6x6w6w6v6u6t628s6r6q6p6A9W9V929i9i9f9        ",
"        Z9i9i9o6n6m6l6k6j6i6h6g6g6g6f6e6d6c6b6a6Z6Y6X6W6V6V677U6T6S6R6Q6u8Q9P9O9P6i9i9f9        ",
"        Z9i9i9O6N6M6L6K6J6I6H6G6F6E6D6C6B6A6;6:696867666666666g6564636c826H9G9F916i9i9f9        ",
"        Z9i9i906z5y5x5w5v5u5t5B8s5r5q5p5o5n5m5l5k5j5i5h5h5g5f5e5d5c5b5a5Z509z8y8Y5i9i9f9        ",
"        Z9i9i9X5W5V5U5T5S5B8B8A8;8R5Q5Q5P5O5N5M5L5K5J5I5H5G5F5q8q8q8E5D5C5h8g8f8B5i9i9f9        ",
"        Z9i9i9A5;5:5958575B8A86555453525251505z4y4x4w4v4u4t4s4r4q8q8q8q4p4J8I8H8o4i9i9f9        ",
"        Z9i9i9n4m4l4k4j4i4h4g4f4e4d4c4b4a4a4a4a4Z4Z4Z4Y4X4W4f4V4U4T4q8S4R4x7w7v7Q4i9i9f9        ",
"        Z9i9i9P4O4N4M4L4K4V4u4W4J4I4H4H4H4G4F4E4D4D4C4B4A4;4:494:8;8A88474c764a754i9i9f9        ",
"        Z9i9i94434241404z3u4y3x3w3v3v3u3t3s3r3q3p3o3n3m3l3k3k3j3i3h3g3f3e3C7B7A7d3i9i9f9        ",
"        Z9i9i9c3b3a3Z3Y3X3W3V3U3T3S3S3R3Q3q8q8P3O3S3S3S3N3M3L3K3k3J3I3H3G3n6m6l6F3i9i9f9        ",
"        Z9i9i9E3D3C3B3A3;3:393837363534333q8q8q82313S3S303z2y2x2w2v2u2t2s2N6M6L6r2i9i9f9        ",
"        Z9i9i9q2p2o2n2m2l2k2j2i2h2g2f234e2d2c2q8b2a2Z2S3Y2X2W2V2U2T2S2R2Q2z5y5x5P2i9i9f9        ",
"        Z9i9i9O2N2M2L2K2J2I2H2G2F2E2D2b3C2B2A2;2:292827262524232k4221202z1W5V5U5y1i9i9f9        ",
"        Z9i9i9x1w1v1u1t1s1r1q1p2p1o1n1m1l1B3k1j1i19383h1g1f1e1N4d1c1b1a1Z1;5:595Y1i9i9f9        ",
"        Z9i9i9X1W1w1w1w1w1V1U1T1S1R1K2Q1o2P1G2O1k2j2b3a3Z3N134M1L1K1J1I1H1m4l4G1F1i9i9f9        ",
"        Z9i9i9E1D1C1B1B1B1B1B1B1A1;1:191817161514131211101z0y0x0w0v0u0t0s0r0q0p0o0i9i9f9        ",
"        Z9i9i9i9i9n0m0m0m0m0m0m0m0m0m0m0m0m0m0m0m0m0m0m0m0m0m0m0m0m0m0m0m0m0n0i9i9i9i9f9        ",
"        Z9i9i9i9i9i9i9i9i9i9i9i9i9i9i9i9i9i9i9i9i9i9i9i9l0k0i9i9j0i0i9i9i9h0g0i9i9i9i9f9        ",
"        Z9i9i9i9f0e0e0e0e0e0e0e0e0e0e0e0e0e0e0e0e0d0i9c0b0a0Z0Y0X0W0V0i9U0T0S0R0i9i9i9f9        ",
"        Z9i9i9i9Q0P0P0P0P0P0P0P0P0P0P0P0P0P0P0P0P0O0i9i9N0M0L0i9K0J0I0i9H0G0F0i9i9i9i9f9        ",
"        Z9i9i9i9i9i9i9i9i9i9i9i9i9i9i9i9i9i9i9i9i9i9i9i9i9i9i9i9i9i9i9i9i9i9i9i9i9i9i9f9        ",
"        Z9i9i9i9E0D0D0D0D0D0D0D0D0D0D0D0D0D0D0D0D0P0i9i9i9i9i9i9i9i9i9i9i9i9i9i9i9i9i9f9        ",
"        C0i9i9i9O0B0B0B0B0B0B0B0B0B0B0B0B0B0B0B0B0A0i9i9i9i9i9i9i9i9i9i9i9i9i9i9i9i9i9f9        ",
"        ;0i9i9i9i9i9i9i9i9i9i9i9i9i9i9i9i9i9i9i9i9i9i9i9i9i9i9i9i9i9i9i9i9i9i9i9i9i9i9:0        ",
"          90i9i9i9i9i9i9i9i9i9i9i9i9i9i9i9i9i9i9i9i9i9i9i9i9i9i9i9i9i9i9i9i9i9i9i9i980          ",
"          706090505050505050505050505050505050505050505050505050505050505050505040g930          ",
"            201010101010101010101010101010101010101010101010101010101010101010101000            ",
"                                                                                                ",
"                                                                                                ",
"                                                                                                ",
"                                                                                                ",
"                                                                                                "};
