/* XPM */
static char *image[] = {
"48 48 758 2",
"   c None",
"00 c #000002",
"10 c #04060b",
"20 c #0d131c",
"30 c #17202c",
"40 c #171c26",
"50 c #000104",
"60 c #0b1018",
"70 c #46576b",
"80 c #4c5869",
"90 c #4a4b4f",
":0 c #525357",
";0 c #2b2c31",
"A0 c #020205",
"B0 c #08090e",
"C0 c #303f53",
"D0 c #3c4c61",
"E0 c #3f4f65",
"F0 c #404d5f",
"G0 c #383940",
"H0 c #47484e",
"I0 c #4b4c50",
"J0 c #040607",
"K0 c #0e1119",
"L0 c #212d40",
"M0 c #060912",
"N0 c #414247",
"O0 c #212226",
"P0 c #06070a",
"Q0 c #0a0a0f",
"R0 c #0f111b",
"S0 c #0f1522",
"T0 c #16161d",
"U0 c #323339",
"V0 c #08090f",
"W0 c #07080d",
"X0 c #07080c",
"Y0 c #020204",
"Z0 c #08090c",
"a0 c #14171f",
"b0 c #263142",
"c0 c #01030a",
"d0 c #090a11",
"e0 c #17171e",
"f0 c #2e2f35",
"g0 c #2c2d32",
"h0 c #09090d",
"i0 c #1f2022",
"j0 c #070709",
"k0 c #101116",
"l0 c #0b0d0f",
"m0 c #0f1115",
"n0 c #202632",
"o0 c #3f4e62",
"p0 c #181f2d",
"q0 c #1e1f25",
"r0 c #23242a",
"s0 c #2e2f33",
"t0 c #0c0d12",
"u0 c #010208",
"v0 c #090a0f",
"w0 c #17191b",
"x0 c #7a7a7c",
"y0 c #2c2e32",
"z0 c #0a0a0d",
"01 c #17191f",
"11 c #232c38",
"21 c #3a485c",
"31 c #445569",
"41 c #2c3d52",
"51 c #0a0f18",
"61 c #202127",
"71 c #0d0d12",
"81 c #5c5d61",
"91 c #67686b",
":1 c #3c3d40",
";1 c #16171b",
"A1 c #222b37",
"B1 c #344254",
"C1 c #45566a",
"D1 c #46566a",
"E1 c #324156",
"F1 c #28292f",
"G1 c #06070d",
"H1 c #15151a",
"I1 c #08080b",
"J1 c #090a0d",
"K1 c #08080c",
"L1 c #222932",
"M1 c #3a495d",
"N1 c #435469",
"O1 c #394a5e",
"P1 c #28384d",
"Q1 c #27354a",
"R1 c #263449",
"S1 c #253347",
"T1 c #243245",
"U1 c #1f2a3c",
"V1 c #070911",
"W1 c #101117",
"X1 c #1a1c23",
"Y1 c #12131a",
"Z1 c #13141a",
"a1 c #0d0d13",
"b1 c #0e0e11",
"c1 c #262e3a",
"d1 c #2c3c50",
"e1 c #27364b",
"f1 c #263549",
"g1 c #253348",
"h1 c #243246",
"i1 c #212e41",
"j1 c #212d3f",
"k1 c #1e2838",
"l1 c #141823",
"m1 c #13151c",
"n1 c #18191f",
"o1 c #191a1e",
"p1 c #141619",
"q1 c #33343b",
"r1 c #67686d",
"s1 c #77777b",
"t1 c #848486",
"u1 c #434447",
"v1 c #18191c",
"w1 c #24272f",
"x1 c #1c2635",
"y1 c #233144",
"z1 c #233043",
"02 c #222f42",
"12 c #212e40",
"22 c #202c3f",
"32 c #1f2b3e",
"42 c #1e2a3c",
"52 c #222e3f",
"62 c #253142",
"72 c #293444",
"82 c #2a3341",
"92 c #23252d",
":2 c #27282e",
";2 c #2d2e33",
"A2 c #24252b",
"B2 c #090a10",
"C2 c #1a1b20",
"D2 c #1c1c21",
"E2 c #0c0e11",
"F2 c #1b1f26",
"G2 c #182230",
"H2 c #1f2c3e",
"I2 c #1f2a3d",
"J2 c #1e293b",
"K2 c #1d293a",
"L2 c #1d2939",
"M2 c #202b3b",
"N2 c #252f40",
"O2 c #293443",
"P2 c #2a323f",
"Q2 c #34353a",
"R2 c #16171d",
"S2 c #202126",
"T2 c #2b2c30",
"U2 c #101113",
"V2 c #1e1e23",
"W2 c #181a1f",
"X2 c #151f2c",
"Y2 c #1c2838",
"Z2 c #1b2737",
"a2 c #1b2535",
"b2 c #1c2636",
"c2 c #202a39",
"d2 c #252e3c",
"e2 c #242c36",
"f2 c #1f2126",
"g2 c #24252a",
"h2 c #2a2b30",
"i2 c #2f3035",
"j2 c #1c1d23",
"k2 c #05060d",
"l2 c #111218",
"m2 c #191a20",
"n2 c #131417",
"o2 c #1a2534",
"p2 c #192433",
"q2 c #182231",
"r2 c #1b2533",
"s2 c #1f2836",
"t2 c #1a1f28",
"u2 c #18191d",
"v2 c #4e4e4f",
"w2 c #545453",
"x2 c #3c3d3d",
"y2 c #333437",
"z2 c #3f4044",
"03 c #4f4f54",
"13 c #303136",
"23 c #1d1e24",
"33 c #343539",
"43 c #242529",
"53 c #141417",
"63 c #252628",
"73 c #27282c",
"83 c #060911",
"93 c #161f2c",
":3 c #172130",
";3 c #17202e",
"A3 c #151d2a",
"B3 c #0d0f17",
"C3 c #17181b",
"D3 c #777776",
"E3 c #b2b2b1",
"F3 c #979796",
"G3 c #848483",
"H3 c #5c5c5d",
"I3 c #454647",
"J3 c #47474a",
"K3 c #4c4d52",
"L3 c #3f4045",
"M3 c #424346",
"N3 c #1b1c1f",
"O3 c #343436",
"P3 c #48484b",
"Q3 c #46474b",
"R3 c #1e2025",
"S3 c #0e131d",
"T3 c #161e2b",
"U3 c #161f2d",
"V3 c #151e2b",
"W3 c #0e141f",
"X3 c #02040c",
"Y3 c #0f1015",
"Z3 c #1c1d22",
"a3 c #818181",
"b3 c #9b9b99",
"c3 c #969695",
"d3 c #7f7f7f",
"e3 c #6e6e6f",
"f3 c #616163",
"g3 c #535358",
"h3 c #4d4d52",
"i3 c #3e3f44",
"j3 c #424347",
"k3 c #242428",
"l3 c #3a3a3e",
"m3 c #5c5c60",
"n3 c #6b6b70",
"o3 c #5c5d62",
"p3 c #3d3e44",
"q3 c #30353f",
"r3 c #242b39",
"s3 c #16202e",
"t3 c #141d2a",
"u3 c #080c15",
"v3 c #03040a",
"w3 c #393a3e",
"x3 c #3f3f43",
"y3 c #434345",
"z3 c #3d3d40",
"04 c #35363a",
"14 c #292a2f",
"24 c #09090c",
"34 c #48484e",
"44 c #65676d",
"54 c #676970",
"64 c #55575f",
"74 c #494c57",
"84 c #414653",
"94 c #313a47",
":4 c #1d2534",
";4 c #141c2a",
"A4 c #131b28",
"B4 c #121a27",
"C4 c #101723",
"D4 c #17181d",
"E4 c #222326",
"F4 c #3f404a",
"G4 c #585865",
"H4 c #494b59",
"I4 c #424553",
"J4 c #404656",
"K4 c #374052",
"L4 c #2b3545",
"M4 c #1f2839",
"N4 c #18212f",
"O4 c #141c29",
"P4 c #131a26",
"Q4 c #0e1420",
"R4 c #27282d",
"S4 c #252528",
"T4 c #131316",
"U4 c #23242b",
"V4 c #565a69",
"W4 c #454a5e",
"X4 c #3d455c",
"Y4 c #39445a",
"Z4 c #333e54",
"a4 c #2e374c",
"b4 c #273144",
"c4 c #222b3d",
"d4 c #1e2535",
"e4 c #191f2f",
"f4 c #151b2a",
"g4 c #111825",
"h4 c #0e131f",
"i4 c #03050d",
"j4 c #04050c",
"k4 c #18191e",
"l4 c #232429",
"m4 c #222327",
"n4 c #1a1b1e",
"o4 c #1b1d20",
"p4 c #636779",
"q4 c #515a72",
"r4 c #4f5a74",
"s4 c #46526b",
"t4 c #3f4961",
"u4 c #384158",
"v4 c #313a4f",
"w4 c #2b3346",
"x4 c #252c3f",
"y4 c #1f2638",
"z4 c #192031",
"05 c #161c2a",
"15 c #070a14",
"25 c #121319",
"35 c #212228",
"45 c #17181e",
"55 c #0a0b12",
"65 c #1d1e23",
"75 c #1e1f22",
"85 c #0b0b0d",
"95 c #484952",
":5 c #5e657d",
";5 c #5e6a85",
"A5 c #54607c",
"B5 c #4c5770",
"C5 c #434f67",
"D5 c #3d465c",
"E5 c #353f54",
"F5 c #2f364a",
"G5 c #282f42",
"H5 c #21283a",
"I5 c #1c2232",
"J5 c #171c2b",
"K5 c #111623",
"L5 c #06070f",
"M5 c #080910",
"N5 c #515156",
"O5 c #0b0c13",
"P5 c #1a1b1f",
"Q5 c #101013",
"R5 c #454850",
"S5 c #696f88",
"T5 c #65718d",
"U5 c #5d6884",
"V5 c #535e78",
"W5 c #4a546d",
"X5 c #424a62",
"Y5 c #3a4258",
"Z5 c #343a4e",
"a5 c #2b3245",
"b5 c #252a3c",
"c5 c #1e2334",
"d5 c #191d2c",
"e5 c #11141f",
"f5 c #090a14",
"g5 c #05070f",
"h5 c #1a1b21",
"i5 c #424248",
"j5 c #1b1d1f",
"k5 c #7b8094",
"l5 c #6b738f",
"m5 c #64708d",
"n5 c #5b6580",
"o5 c #515b73",
"p5 c #495068",
"q5 c #40485e",
"r5 c #373f52",
"s5 c #30364a",
"t5 c #292e40",
"u5 c #212737",
"v5 c #1b202e",
"w5 c #090a13",
"x5 c #05060f",
"y5 c #0e0f16",
"z5 c #25262c",
"06 c #26272d",
"16 c #17181c",
"26 c #101011",
"36 c #393c44",
"46 c #7c8297",
"56 c #6b7490",
"66 c #626d87",
"76 c #59627c",
"86 c #4e5870",
"96 c #474d65",
":6 c #3d4359",
";6 c #353b4e",
"A6 c #2d3244",
"B6 c #262a3b",
"C6 c #1e2232",
"D6 c #171827",
"E6 c #11131f",
"F6 c #0d0e19",
"G6 c #090913",
"H6 c #05060e",
"I6 c #03030b",
"J6 c #222329",
"K6 c #404146",
"L6 c #202024",
"M6 c #494d55",
"N6 c #7d8399",
"O6 c #6b738e",
"P6 c #626b85",
"Q6 c #585f78",
"R6 c #4d546b",
"S6 c #444a61",
"T6 c #3a4054",
"U6 c #33374a",
"V6 c #2b2d3f",
"W6 c #232635",
"X6 c #161825",
"Y6 c #11121e",
"Z6 c #0c0d18",
"a6 c #080913",
"b6 c #05050e",
"c6 c #0c0d13",
"d6 c #28292c",
"e6 c #50525c",
"f6 c #6a718c",
"g6 c #606881",
"h6 c #555d74",
"i6 c #4b5268",
"j6 c #41465c",
"k6 c #383c50",
"l6 c #303446",
"m6 c #282c3c",
"n6 c #222434",
"o6 c #1b1e2c",
"p6 c #10111e",
"q6 c #0c0d17",
"r6 c #080912",
"s6 c #05050d",
"t6 c #07080f",
"u6 c #2a2b31",
"v6 c #4b4b50",
"w6 c #2c2d2f",
"x6 c #535760",
"y6 c #687089",
"z6 c #5f667f",
"07 c #545971",
"17 c #4a4f65",
"27 c #40455a",
"37 c #383c4f",
"47 c #303345",
"57 c #282b3c",
"67 c #212433",
"77 c #1b1d2b",
"87 c #151724",
"97 c #10111d",
":7 c #0b0d17",
";7 c #1f2026",
"A7 c #4c4c51",
"B7 c #0d0e14",
"C7 c #323335",
"D7 c #585b65",
"E7 c #7c8298",
"F7 c #676d87",
"G7 c #5d647d",
"H7 c #525970",
"I7 c #484e64",
"J7 c #404459",
"K7 c #373b4e",
"L7 c #2f3244",
"M7 c #272a3b",
"N7 c #202332",
"O7 c #1a1c2a",
"P7 c #141623",
"Q7 c #0f111c",
"R7 c #0b0c16",
"S7 c #070811",
"T7 c #04050d",
"U7 c #020309",
"V7 c #313237",
"W7 c #505055",
"X7 c #0f1016",
"Y7 c #37383a",
"Z7 c #5e606b",
"a7 c #7e8398",
"b7 c #656d86",
"c7 c #5c637b",
"d7 c #52576f",
"e7 c #484d63",
"f7 c #3e4358",
"g7 c #363a4d",
"h7 c #2e3243",
"i7 c #262a3a",
"j7 c #202232",
"k7 c #191b2a",
"l7 c #141522",
"m7 c #0b0b16",
"n7 c #070711",
"o7 c #02030a",
"p7 c #525257",
"q7 c #0d0e15",
"r7 c #393a3d",
"s7 c #62646f",
"t7 c #7d8398",
"u7 c #646b85",
"v7 c #5b617a",
"w7 c #50576d",
"x7 c #474c62",
"y7 c #3e4257",
"z7 c #35394c",
"08 c #2d3042",
"18 c #262939",
"28 c #1f2230",
"38 c #191b29",
"48 c #131522",
"58 c #0f101b",
"68 c #070710",
"78 c #03040c",
"88 c #03040b",
"98 c #010209",
":8 c #15161c",
";8 c #37383d",
"A8 c #49494e",
"B8 c #4e4e53",
"C8 c #545459",
"D8 c #5b5b60",
"E8 c #616166",
"F8 c #67676b",
"G8 c #6d6d71",
"H8 c #56565b",
"I8 c #414245",
"J8 c #696d77",
"K8 c #7b8197",
"L8 c #636a84",
"M8 c #5a6179",
"N8 c #50556d",
"O8 c #464b61",
"P8 c #3d4156",
"Q8 c #34384b",
"R8 c #2c3041",
"S8 c #252838",
"T8 c #212432",
"U8 c #181a28",
"V8 c #131521",
"W8 c #0e0f1b",
"X8 c #0a0b15",
"Y8 c #23242c",
"Z8 c #7e7e82",
"a8 c #96979a",
"b8 c #06070e",
"c8 c #333439",
"d8 c #79797d",
"e8 c #b8b8ba",
"f8 c #bebec0",
"g8 c #c5c5c7",
"h8 c #d3d3d4",
"i8 c #d6d6d7",
"j8 c #9f9fa2",
"k8 c #57575c",
"l8 c #464649",
"m8 c #6c6e79",
"n8 c #7c8196",
"o8 c #626983",
"p8 c #595f77",
"q8 c #4f546b",
"r8 c #454a60",
"s8 c #3c4054",
"t8 c #34384a",
"u8 c #2d3041",
"v8 c #70737d",
"w8 c #494b57",
"x8 c #1b1c2b",
"y8 c #191a26",
"z8 c #5a5b63",
"09 c #9a9b9e",
"19 c #a4a5a7",
"29 c #adadb0",
"39 c #3b3c41",
"49 c #3d3e43",
"59 c #46464c",
"69 c #cdcdce",
"79 c #b0b0b2",
"89 c #0f1017",
"99 c #4a4a4d",
":9 c #70727e",
";9 c #7c8296",
"A9 c #616881",
"B9 c #5d647b",
"C9 c #64687c",
"D9 c #44495f",
"E9 c #3b4053",
"F9 c #3d4052",
"G9 c #888a94",
"H9 c #8d8e96",
"I9 c #83858c",
"J9 c #8a8b92",
"K9 c #9fa0a5",
"L9 c #a7a7ab",
"M9 c #afafb3",
"N9 c #7b7b7f",
"O9 c #434349",
"P9 c #7f7f82",
"Q9 c #e2e2e3",
"R9 c #1b1c22",
"S9 c #4e4e51",
"T9 c #797b86",
"U9 c #797f95",
"V9 c #6a6f87",
"W9 c #8d91a1",
"X9 c #75798b",
"Y9 c #454a5f",
"Z9 c #535768",
"a9 c #9496a0",
"b9 c #989aa2",
"c9 c #9e9fa6",
"d9 c #a4a5ab",
"e9 c #aaabb0",
"f9 c #b2b2b6",
"g9 c #b9b9bc",
"h9 c #a9a9ac",
"i9 c #4b4b51",
"j9 c #cbcbcd",
"k9 c #e7e7e8",
"l9 c #292a30",
"m9 c #535356",
"n9 c #7a7d88",
"o9 c #7a7f93",
"p9 c #898da0",
"q9 c #9a9dac",
"r9 c #898c9c",
"s9 c #747888",
"t9 c #a0a2ab",
"u9 c #a4a5ad",
"v9 c #a9aab1",
"w9 c #aeafb5",
"x9 c #b5b6bb",
"y9 c #bbbcc0",
"z9 c #c7c8ca",
"0: c #d9d9db",
"1: c #d5d5d7",
"2: c #7c7c81",
"3: c #efefef",
"4: c #ebebeb",
"5: c #2b2c32",
"6: c #565659",
"7: c #7e818b",
"8: c #7b8095",
"9: c #9397a8",
":: c #a6a9b6",
";: c #a8abb6",
"A: c #abadb6",
"B: c #afb1b8",
"C: c #b4b5bc",
"D: c #b9bac0",
"E: c #bfbfc4",
"F: c #c6c7ca",
"G: c #d8d8db",
"H: c #e1e2e3",
"I: c #e8e9ea",
"J: c #dadbdc",
"K: c #f6f6f6",
"L: c #ededee",
"M: c #313238",
"N: c #5a5a5d",
"O: c #898c96",
"P: c #797e93",
"Q: c #9ea2b0",
"R: c #b3b6c1",
"S: c #b6b8c1",
"T: c #b9bbc3",
"U: c #bec0c6",
"V: c #c3c4c9",
"W: c #c9cace",
"X: c #d5d5d8",
"Y: c #e3e3e5",
"Z: c #e9eaeb",
"a: c #f0f0f1",
"b: c #f6f6f7",
"c: c #efeff0",
"d: c #34353b",
"e: c #59595c",
"f: c #8a8d98",
"g: c #a7aab8",
"h: c #c0c2cb",
"i: c #c4c5cd",
"j: c #c8c9cf",
"k: c #cdced3",
"l: c #d4d4d8",
"m: c #e4e4e6",
"n: c #eaebec",
"o: c #f7f7f7",
"p: c #3b3c40",
"q: c #606063",
"r: c #8d909a",
"s: c #787e93",
"t: c #b2b5c0",
"u: c #cdcfd5",
"v: c #d1d2d8",
"w: c #d6d7dc",
"x: c #e1e2e5",
"y: c #ececee",
"z: c #f1f1f2",
"0; c #f7f7f8",
"1; c #f1f1f1",
"2; c #3f3f46",
"3; c #646468",
"4; c #1d1d1f",
"5; c #9699a2",
"6; c #777c92",
"7; c #bec0ca",
"8; c #dadbe0",
"9; c #e1e1e5",
":; c #ededef",
";; c #f2f2f4",
"A; c #f8f8f8",
"B; c #f2f2f3",
"C; c #474851",
"D; c #64656a",
"E; c #222223",
"F; c #979aa4",
"G; c #787c91",
"H; c #c9cbd3",
"I; c #ecedf0",
"J; c #f3f4f5",
"K; c #f8f8f9",
"L; c #4f515b",
"M; c #6e6e75",
"N; c #29292a",
"O; c #989aa3",
"P; c #797e92",
"Q; c #dddee3",
"R; c #f9f9fa",
"S; c #fdfdfd",
"T; c #ffffff",
"U; c #f3f3f4",
"V; c #5f616c",
"W; c #74757d",
"X; c #2b2c2e",
"Y; c #9396a0",
"Z; c #7c8194",
"a; c #afb2bd",
"b; c #d6d7dd",
"c; c #e0e1e4",
"d; c #babcc2",
"e; c #505262",
"f; c #7c7d85",
"g; c #333338",
"h; c #6c6d75",
"i; c #9295a1",
"j; c #8d909e",
"k; c #828492",
"l; c #838591",
"m; c #76777e",
"n; c #28282c",
"o; c #222226",
"                                              o;                                                ",
"                                        n;m;l;k;j;i;h;                                          ",
"                                      g;f;e;d;c;b;a;Z;Y;                                        ",
"                                    X;W;V;U;T;T;S;R;Q;P;O;                                      ",
"                                  N;M;L;U;T;T;S;K;J;I;H;G;F;                                    ",
"                                E;D;C;B;T;T;S;A;;;:;9;8;7;6;5;                                  ",
"                              4;3;2;1;T;T;S;0;z:y:x:w:v:u:t:s:r:                                ",
"                              q:p:z:T;T;S;o:1;n:m:l:k:j:i:h:g:s:f:                              ",
"                            e:d:c:T;T;S;b:a:Z:Y:X:W:V:U:T:S:R:Q:P:O:                            ",
"                          N:M:L:T;T;S;K:J:I:H:G:F:E:D:C:B:A:;:::9:8:7:                          ",
"                        6:5:4:T;T;S;K:3:2:1:0:z9y9x9w9v9u9t9s9r9q9p9o9n9                        ",
"                      m9l9k9T;T;S;K:3:j9i9h9j9g9f9e9d9c9b9a9Z9Y9X9W9V9U9T9                      ",
"                    S9R9Q9T;T;S;K:3:k9P9O9N9g9M9L9K9J9I9H9G9F9E9D9C9B9A9;9:9                    ",
"                  998979T;T;S;K:3:k969594939291909z8y8x8w8v8u8t8s8r8q8p8o8n8m8                  ",
"                l889k8j8i8h869g8f8e8d849c8b8a8Z8Y8X8W8V8U8T8S8R8Q8P8O8N8M8L8K8J8                ",
"              I889H8G8F8E8D8C8B8A8O949;8:8985:887868X8584838281808z7y7x7w7v7u7t7s7              ",
"            r7q7p7G8F8E8D8C8B8A8O949;8l9o79898989878n7m758l7k7j7i7h7g7f7e7d7c7b7a7Z7            ",
"          Y7X7W7G8F8E8D8C8B8A8O949;8V7q79898989898U7T7S7R7Q7P7O7N7M7L7K7J7I7H7G7F7E7D7          ",
"        C7B7A7G8F8E8D8C8B8A8O949;8V7;798989898989898o7T7S7:797877767574737271707z6y6t7x6        ",
"      w6B7v6G8F8E8D8C8B8A8O949;8V7u6t69898989898989898o7s6r6q6p687o6n6m6l6k6j6i6h6g6f6a7e6      ",
"    d6c6A8G8F8E8D8C8B8A8O949;8V75::898989898989898989898o7b6a6Z6Y6X6o6W6V6U6T6S6R6Q6P6O6N6M6    ",
"  L6c6K6G8F8E8D8C8B8A8O949;8V7u6J6889898989898989898989898I6H6G6F6E6D6C6B6A6;6:696867666564636  ",
"261606G8F8E8D8C8B8A8O949;8V7u6z5y598989898989898989898989898I6x5w5F648v5u5t5s5r5q5p5o5n5m5l5k5  ",
"j5U7i5F8E8D8C8B8A8O949;8V7u6z5h5o79898989898989898989898989898I6g5f5e5d5c5b5a5Z5Y5X5W5V5U5T5S5R5",
"Q5P5O5;8N5C8B8A8O949;8V7u6z5;7M598989898989898989898989898989898I6L5K5J5I5H5G5F5E5D5C5B5A5;5:595",
"  857565c6554535u6V7V7u6z5;72598989898989898989898989898989898989815K505z4y4x4w4v4u4t4s4r4q4p4o4",
"        n4m4l4k4j498b8y5:845j49898989898989898989898989898989898i4h4g4f4e4d4c4b4a4Z4Y4X4W4V4U4  ",
"              T4S4R4B79898989898989898989898989898989898989898T7Q4g4P4O4N4M4L4K4J4I4H4G4F4      ",
"                    E4D498888888o798989898989898989898989898g5C4B4A4;4:494847464544434          ",
"                    2414q7z504z3y3x3w3c6v3U7o7989898989898u3B4;4t3s3r3q3p3o3n3m3l3              ",
"                  k3j3i3h3N5g3f3e3d3c3b3a375Z3Y3U7o798X3W3t3V3U3T3S3R3Q3P3O3                    ",
"              N3M3L3K3W7g3C8C8C8B8J3I3H3G3F3E3D3C3X7B3A3U3;3:393837363                          ",
"            53433323:813O903N5W7A759z2w3y2x2w2v2u2t2s2r2q2p2o2h4l424                            ",
"              n2Z3m2l2k2k2O5j2i2L3i549;8V7h2g2f2e2d2c2b2a2Z2Y2X2W2V2                            ",
"                  U2N3T2S2M5o788b8R2i2Q2i2l9U4P2O2N2M2L2K2J2I2H2G2F243E2                        ",
"                        n2D2C2B298o7b8A2;2:292827262524232221202z1y1x1w1v1        u1t1s1r1q1    ",
"                              p1o1k2o7q7u6z5;7n1m1l1k1j1i1z1y1h1g1f1e1d1c1b1    a1j2Z1Y1R2X1    ",
"                                  P5o7:8l9A22345W155V1U1T1S1R1Q1P1O1N1M1L1          K1J1I1      ",
"                                  H1G106F1J6R9:889M5o7Q4f1e1E1D1C1B1A1;1                        ",
"                    :19181V771    43k2:20661h5Z1q7t698514131211101z0        y0x0w0              ",
"                    v0u0v3t0    s0r08925r0q0n125O5k298p0o0n0m0              l0k0t0              ",
"                    j0n2i0    h0;7g0f0r0e0R9R2W1d088c0b0a0Z0                                    ",
"                              Y0X0W0V0j2U0T0Z1y5M5o7S0R0Q0                                      ",
"                                    Y0P0O0N0A2e0t6M0Q1L0K0                                      ",
"                                        J0I0H049G0F0E0D0C0B0A0                                  ",
"                                          ;0:0908070O1626050                                    ",
"                                          50v04030201050                                        ",
"                                              0000                                              "};
