/* XPM */
static char *image[] = {
"48 48 229 2",
"   c None",
"00 c #505050",
"10 c #525252",
"20 c #323232",
"30 c #303030",
"40 c #333333",
"50 c #444444",
"60 c #2d2d2d",
"70 c #363636",
"80 c #848484",
"90 c #878787",
":0 c #838383",
";0 c #373737",
"A0 c #515151",
"B0 c #343434",
"C0 c #313131",
"D0 c #3d3d3d",
"E0 c #585858",
"F0 c #494949",
"G0 c #454545",
"H0 c #353535",
"I0 c #797979",
"J0 c #535353",
"K0 c #434343",
"L0 c #7c7c7c",
"M0 c #545454",
"N0 c #686868",
"O0 c #8f8f8f",
"P0 c #909090",
"Q0 c #5d5d5d",
"R0 c #7d7d7d",
"S0 c #8c8c8c",
"T0 c #8a8a8a",
"U0 c #404040",
"V0 c #5a5a5a",
"W0 c #4a4a4a",
"X0 c #3e3e3e",
"Y0 c #3a3a3a",
"Z0 c #4d4d4d",
"a0 c #424242",
"b0 c #383838",
"c0 c #3b3b3b",
"d0 c #484848",
"e0 c #48535a",
"f0 c #47525b",
"g0 c #565656",
"h0 c #606060",
"i0 c #555555",
"j0 c #464646",
"k0 c #3c3c3c",
"l0 c #3f3f3f",
"m0 c #5b5b5b",
"n0 c #545e68",
"o0 c #4089c5",
"p0 c #469ee4",
"q0 c #408ac6",
"r0 c #525d66",
"s0 c #626262",
"t0 c #4e4e4e",
"u0 c #414141",
"v0 c #458eca",
"w0 c #4da2e7",
"x0 c #479fe6",
"y0 c #448eca",
"z0 c #4f4f4f",
"01 c #777777",
"11 c #489ee3",
"21 c #5eaceb",
"31 c #6eb5ed",
"41 c #5daceb",
"51 c #489fe4",
"61 c #767676",
"71 c #565454",
"81 c #8a4848",
"91 c #7993c2",
":1 c #8bc4f1",
";1 c #8bc3f1",
"A1 c #6fb5ee",
"B1 c #7596c5",
"C1 c #8a4847",
"D1 c #565353",
"E1 c #616161",
"F1 c #757575",
"G1 c #717171",
"H1 c #5e5e5e",
"I1 c #5b4e4e",
"J1 c #a54c4b",
"K1 c #dc6e6a",
"L1 c #e67e7c",
"M1 c #a98a9d",
"N1 c #88c2f0",
"O1 c #96c9f3",
"P1 c #95c8f3",
"Q1 c #86c0f0",
"R1 c #ae8a9c",
"S1 c #e77d7b",
"T1 c #da6d6a",
"U1 c #9a4b49",
"V1 c #5a5050",
"W1 c #5f5f5f",
"X1 c #727272",
"Y1 c #6f6f6f",
"Z1 c #595959",
"a1 c #6b4a4a",
"b1 c #bb5350",
"c1 c #e47773",
"d1 c #e27c7b",
"e1 c #a96b6b",
"f1 c #647d8d",
"g1 c #78afd9",
"h1 c #77acd8",
"i1 c #667d90",
"j1 c #ae6a68",
"k1 c #e57c7a",
"l1 c #e47673",
"m1 c #b15250",
"n1 c #684d4d",
"o1 c #5c5c5c",
"p1 c #707070",
"q1 c #939393",
"r1 c #919191",
"s1 c #824a48",
"t1 c #c85d5c",
"u1 c #e97d7b",
"v1 c #dd7976",
"w1 c #8b6868",
"x1 c #916767",
"y1 c #df7a78",
"z1 c #e97c79",
"02 c #c75c5b",
"12 c #7c4a4a",
"22 c #575757",
"32 c #646464",
"42 c #636363",
"52 c #6c6c6c",
"62 c #929292",
"72 c #647e93",
"82 c #3f7aaa",
"92 c #406c8e",
":2 c #555050",
";2 c #9a4948",
"A2 c #d86a67",
"B2 c #ea807e",
"C2 c #ce7370",
"D2 c #726464",
"E2 c #756565",
"F2 c #d77575",
"G2 c #ea7e7b",
"H2 c #d66664",
"I2 c #914a49",
"J2 c #545151",
"K2 c #426b8c",
"L2 c #407aaa",
"M2 c #647e94",
"N2 c #48a4ef",
"O2 c #b07c93",
"P2 c #e77d7c",
"Q2 c #b6706e",
"R2 c #656565",
"S2 c #686565",
"T2 c #c26e6b",
"U2 c #e97d7c",
"V2 c #b47c91",
"W2 c #49a4ee",
"X2 c #4ba5ee",
"Y2 c #48a3ef",
"Z2 c #62b1f1",
"a2 c #6cb6f2",
"b2 c #65a0d9",
"c2 c #669fd9",
"d2 c #6db7f2",
"e2 c #7bbef3",
"f2 c #60b0f1",
"g2 c #83c1f5",
"h2 c #93c9f5",
"i2 c #73a0c5",
"j2 c #75a0c1",
"k2 c #95caf5",
"l2 c #a7d4f8",
"m2 c #82c1f5",
"n2 c #d1d1d1",
"o2 c #c7c7c7",
"p2 c #c1c1c1",
"q2 c #969696",
"r2 c #676767",
"s2 c #888888",
"t2 c #8b8b8b",
"u2 c #6cbbf6",
"v2 c #b3b3b3",
"w2 c #737373",
"x2 c #aeaeae",
"y2 c #dddddd",
"z2 c #8e8e8e",
"03 c #6d6d6d",
"13 c #afafaf",
"23 c #cfcfcf",
"33 c #818181",
"43 c #747474",
"53 c #a0a0a0",
"63 c #b1b1b1",
"73 c #d0d0d0",
"83 c #7a7a7a",
"93 c #8d8d8d",
":3 c #cccccc",
";3 c #666666",
"A3 c #e0e0e0",
"B3 c #cacaca",
"C3 c #dfdfdf",
"D3 c #787878",
"E3 c #ececec",
"F3 c #e2e2e2",
"G3 c #b9b9b9",
"H3 c #f0f0f0",
"I3 c #e8e8e8",
"J3 c #e9e9e9",
"K3 c #eaeaea",
"L3 c #ebebeb",
"M3 c #ededed",
"N3 c #efefef",
"O3 c #f1f1f1",
"P3 c #f2f2f2",
"Q3 c #d4d4d4",
"R3 c #d7d7d7",
"S3 c #eeeeee",
"T3 c #f3f3f3",
"U3 c #d9d9d9",
"V3 c #dadada",
"W3 c #f7f7f7",
"X3 c #dbdbdb",
"                                                                                                ",
"                                                                                                ",
"                                                                                                ",
"                                            X3W3W3V3                                            ",
"                                          U3T3S3S3T3R3                                          ",
"                                        Q3P3S3S3S3S3T3Q3                                        ",
"                                        T3S3S3S3S3S3S3P3                                        ",
"                                      P3S3S3S3S3S3S3S3S3O3                                      ",
"                                    N3S3M3M3M3M3M3M3M3M3S3N3                                    ",
"                                  S3N3S3S3S3S3S3S3S3S3S3S3N3M3                                  ",
"                                L3N3M3M3M3K3J3M3M3M3M3M3M3M3N3K3                                ",
"                              I3H3M3M3M3M3G3F3M3M3M3M3M3M3M3M3N3J3                              ",
"                            F3N3E3E3E3E3J3D3C3E3E3E3E3E3R3B3I3E3N3F3                            ",
"                          A3H3E3E3E3E3E3G3;3:3E3E3E3U393;3;383A3E3H3C3                          ",
"                        X3H3L3L3K373635343;33373231303;3;3;3;3z2L3L3H3y2                        ",
"                      73H3L3J3x2w2;3;3;3;3;3;3;3;3;3;3;3;3;3;3;3v2L3L3N3R3                      ",
"                u2    t263B3s2;3;3;3;3;3;3;3;3;3;3;3;3;3;3;3;3;3r2q2p2o2n2    u2                ",
"              m2l2k2j2r2;3;3;3;3;3;3;3;3;3;3;3;3;3;3;3;3;3;3;3;3;3;3;3;3;3i2h2l2g2              ",
"              f2e2d2c2;3;3;3;3;3;3;3;3;3;3;3;3;3;3;3;3;3;3;3;3;3;3;3;3;3;3b2a2e2Z2              ",
"              Y2X2W2V2U2T2S2R2R2R2R2R2R2R2R2R2R2R2R2R2R2R2R2R2R2R2R2R2Q2P2O2W2X2N2              ",
"              M2L2K2J2I2H2G2F2E2R2R2R2R2R2R2R2R2R2R2R2R2R2R2R2R2D2C2B2A2;2:2928272              ",
"            625242R2;332221202z1y1x1;3;3;3;3;3;3;3;3;3;3;3;3w1v1u1t1s12232;3R24252r1            ",
"          q1p1R2R2R2R2R2R2R2o1n1m1l1k1j1R2R2i1h1g1f1R2R2e1d1c1b1a1Z1R2R2R2R2R2R2R2Y162          ",
"        62X132323232323232323232W1V1U1T1S1R1Q1P1O1N1M1L1K1J1I1H132323232323232323232G1r1        ",
"      62F132323232323232323232323232E1D1C1B1A1;1:1A1918171E1323232323232323232323232326162      ",
"      D33232323232323232323232323232323242514131312111423232323232323232323232323232323201      ",
"      z0E142424242424242424242424242424242y0x0w0w0x0v042424242424242424242424242424242E1z0      ",
"        u0t0o1s0s0s0s0s0s0s0s0s0s0s0s0s0s0r0q0p0p0o0n0s0s0s0s0s0s0s0s0s0s0s0s0s0s0m0t0l0        ",
"            k0j0i0h0E1E1E1E1E1E1E1E1E1E1E1E1g0f0e0g0E1E1E1E1E1E1E1E1E1E1E1E1W1g0d0c0            ",
"                b0a0z0o1E1E1E1E1E1E1E1E1E1E1E1E1E1E1E1E1E1E1E1E1E1E1E1E1m0Z0a0Y0                ",
"                      X0o1h0h0h0h0h0h0h0h0h0h0h0h0h0h0h0h0h0h0h0h0h0o1W0k0                      ",
"                        H1W1W1W1W1W1W1W1W1W1W1W1W1W1W1W1W1W1W1W1W1V0U0                          ",
"                      T042H1H1H1H1H1H1H1H1H1H1H1H1H1H1H1H1H1H1H1H1W0                            ",
"                  S0R0h0Q0Q0Q0Q0Q0Q0Q0Q0Q0Q0Q0Q0Q0Q0Q0Q0Q0Q0Q0Q0Q0          S0P0O0O0            ",
"                w2N0Q0Q0Q0Q0Q0Q0Q0Q0Q0Q0Q0Q0Q0Q0Q0Q0Q0Q0Q0Q0Q0Q0Q001      H1M0M0Z132L0          ",
"                  K0J0m0m0m0m0m0m0m0m0m0m0m0m0m0m0m0m0m0m0m0m0m0m0Q0I0        H0Y0Y0a0          ",
"                    H0X0G0F0Z0z0E0Z1Z1Z1Z1Z1Z1Z1Z1Z1Z1Z1Z1Z1Z1Z1g0F0D0                          ",
"                            C0B0A0E0E0E0E0E0E0E0E0E0E0E0E0i0W0U0;0        :0                    ",
"                  9080D3        h0E0E0E0E0E0E0E0E0E0E0J0u07060            i001                  ",
"                w2V0Z0;0      83E0g0g0g0g0g0g0g0g0g0g050                  c0u0                  ",
"                  l040        Z0M0i0i0i0i0i0i0i0i0i0i0h0                                        ",
"                                ;0K0W0A0J0J0J0J0J0J0J0W133                                      ",
"                                    3020B0Y0t01010101010J0                                      ",
"                                            D0t00000Z0l030                                      ",
"                                              4070H0C0                                          ",
"                                                                                                ",
"                                                                                                ",
"                                                                                                "};
