/* XPM */
static char *image[] = {
"48 48 248 2",
"   c None",
"00 c #c5ddb4",
"10 c #b3d39e",
"20 c #96c278",
"30 c #a5cb8b",
"40 c #b4d39e",
"50 c #c5ddb5",
"60 c #edf4e7",
"70 c #f1f7ed",
"80 c #b6d5a2",
"90 c #87ba66",
":0 c #6ba942",
";0 c #87b966",
"A0 c #b5d4a0",
"B0 c #f0f7ec",
"C0 c #f7fbf5",
"D0 c #b4d3a0",
"E0 c #70ab4a",
"F0 c #9fc685",
"G0 c #6aa742",
"H0 c #70aa49",
"I0 c #b3d29f",
"J0 c #d6e7cc",
"K0 c #75ae51",
"L0 c #9dc584",
"M0 c #68a641",
"N0 c #74ad51",
"O0 c #d6e7cb",
"P0 c #bfd8af",
"Q0 c #69a543",
"R0 c #9dc484",
"S0 c #67a441",
"T0 c #68a542",
"U0 c #bdd8ad",
"V0 c #9bc383",
"W0 c #65a340",
"X0 c #a8cb93",
"Y0 c #bdd7ad",
"Z0 c #64a13f",
"a0 c #bcd6ac",
"b0 c #eef5ea",
"c0 c #c6dcb9",
"d0 c #cbdfbf",
"e0 c #fdfefc",
"f0 c #62a03f",
"g0 c #64a141",
"h0 c #d5e5cb",
"i0 c #6da64e",
"j0 c #e3eedd",
"k0 c #8fbb77",
"l0 c #99c183",
"m0 c #fdfdfc",
"n0 c #609e3e",
"o0 c #6ea64f",
"p0 c #f7faf5",
"q0 c #adcd9d",
"r0 c #e2eddc",
"s0 c #8eba77",
"t0 c #98c083",
"u0 c #5f9d3e",
"v0 c #aecd9d",
"w0 c #e8e8e8",
"x0 c #eff5ec",
"y0 c #639f45",
"z0 c #bdd6b0",
"01 c #8db876",
"11 c #97bf82",
"21 c #5d9b3d",
"31 c #649f45",
"41 c #f0f6ed",
"51 c #adcc9d",
"61 c #8cb875",
"71 c #96be82",
"81 c #5c9a3c",
"91 c #aecd9e",
":1 c #5b983d",
";1 c #c1d8b6",
"A1 c #8bb675",
"B1 c #95bd82",
"C1 c #5a983c",
"D1 c #79ab61",
"E1 c #ebf2e7",
"F1 c #639e48",
"G1 c #f5f8f3",
"H1 c #89b675",
"I1 c #94bc81",
"J1 c #58973b",
"K1 c #eaf2e6",
"L1 c #bcd5b1",
"M1 c #619b47",
"N1 c #88b475",
"O1 c #93bb81",
"P1 c #57953b",
"Q1 c #bbd4b0",
"R1 c #a8c89a",
"S1 c #5f9a46",
"T1 c #dce9d6",
"U1 c #87b374",
"V1 c #92ba80",
"W1 c #55943a",
"X1 c #a6c798",
"Y1 c #96bd86",
"Z1 c #82b06f",
"a1 c #fbfcfa",
"b1 c #86b374",
"c1 c #91ba80",
"d1 c #54933a",
"e1 c #95bc85",
"f1 c #83b071",
"g1 c #85b173",
"h1 c #90b880",
"i1 c #529139",
"j1 c #82b070",
"k1 c #80ae6e",
"l1 c #89b478",
"m1 c #fcfdfb",
"n1 c #84b173",
"o1 c #8fb87f",
"p1 c #519038",
"q1 c #7fad6c",
"r1 c #505050",
"s1 c #8cb57d",
"t1 c #d8e6d3",
"u1 c #83af73",
"v1 c #8eb67f",
"w1 c #4f8e38",
"x1 c #89b37a",
"y1 c #636363",
"z1 c #e1ecdd",
"02 c #9dc090",
"12 c #a5c59a",
"22 c #4d8d37",
"32 c #99be8c",
"42 c #f9f9f9",
"52 c #bfd6b8",
"62 c #ebf2e9",
"72 c #4c8b37",
"82 c #bbd3b3",
"92 c #dadada",
":2 c #e5eee3",
";2 c #f6f9f6",
"A2 c #fcfdfc",
"B2 c #4a8a36",
"C2 c #e0ebdc",
"D2 c #a6a6a6",
"E2 c #6a9d59",
"F2 c #589246",
"G2 c #c3d8bc",
"H2 c #c4d8bd",
"I2 c #599347",
"J2 c #498835",
"K2 c #639952",
"L2 c #fefffe",
"M2 c #6e6e6e",
"N2 c #a8c7a0",
"O2 c #71a263",
"P2 c #f0f5ee",
"Q2 c #f2f7f1",
"R2 c #74a567",
"S2 c #478735",
"T2 c #a2c299",
"U2 c #f1f6f0",
"V2 c #4e8b3e",
"W2 c #5f9651",
"X2 c #f0f5ef",
"Y2 c #f3f7f1",
"Z2 c #639955",
"a2 c #458534",
"b2 c #4b893a",
"c2 c #edf4ec",
"d2 c #eaeaea",
"e2 c #aaaaaa",
"f2 c #9bbd93",
"g2 c #458536",
"h2 c #e0ebde",
"i2 c #e5eee2",
"j2 c #478637",
"k2 c #448434",
"l2 c #95ba8c",
"m2 c #f5f9f5",
"n2 c #58914b",
"o2 c #82ad79",
"p2 c #86af7d",
"q2 c #428233",
"r2 c #558e47",
"s2 c #f3f7f2",
"t2 c #9e9e9e",
"u2 c #cbdcc7",
"v2 c #428133",
"w2 c #d9e6d6",
"x2 c #dae6d7",
"y2 c #418132",
"z2 c #c5d8c0",
"03 c #a8c5a2",
"13 c #458338",
"23 c #fdfefd",
"33 c #468439",
"43 c #3f7f32",
"53 c #a2c19c",
"63 c #95b88e",
"73 c #609555",
"83 c #619556",
"93 c #3e7e31",
":3 c #92b68b",
";3 c #a6c3a0",
"A3 c #9cbd97",
"B3 c #d9e5d7",
"C3 c #72a06a",
"D3 c #3c7c31",
"E3 c #a2c19d",
"F3 c #76a36f",
"G3 c #b1cbad",
"H3 c #3a7b30",
"I3 c #3c7c32",
"J3 c #b0caac",
"K3 c #75a36f",
"L3 c #cadbc7",
"M3 c #397a2f",
"N3 c #407f36",
"O3 c #f2f6f1",
"P3 c #f8faf8",
"Q3 c #fefefe",
"R3 c #b5b5b5",
"S3 c #37782f",
"T3 c #cbdcc9",
"U3 c #fbfbfb",
"V3 c #959595",
"W3 c #77a371",
"X3 c #8ab085",
"Y3 c #9cbc98",
"Z3 c #e9f0e8",
"a3 c #777777",
"b3 c #f2f2f2",
"c3 c #9f9f9f",
"d3 c #545454",
"e3 c #e9e9e9",
"f3 c #ababab",
"g3 c #595959",
"h3 c #ffffff",
"i3 c #fafafa",
"j3 c #dbdbdb",
"k3 c #a7a7a7",
"l3 c #6f6f6f",
"m3 c #7d7d7d",
"n3 c #737373",
"o3 c #646464",
"p3 c #525252",
"q3 c #515151",
"                                                                                                ",
"                                          q3q3p3p3q3q3                                          ",
"                                  p3p3q3p3o3n3m3m3n3o3p3q3p3p3                                  ",
"                            p3q3q3l3k3j3i3h3h3h3h3h3h3i3j3k3l3q3q3p3                            ",
"                        q3p3g3f3e3h3h3h3h3h3h3h3h3h3h3h3h3h3h3e3f3g3p3q3                        ",
"                      d3d3c3b3h3h3h3h3h3h3h3h3h3h3h3h3h3h3h3h3h3h3b3c3d3d3                      ",
"                    p3a3e3h3h3h3h3h3h3h3Z3Y3X3W3W3X3Y3Z3h3h3h3h3h3h3h3e3a3p3                    ",
"                q3q3V3U3h3h3h3h3h3h3h3h3T3S3S3S3S3S3S3T3h3h3h3h3h3h3h3h3i3V3q3q3                ",
"              q3p3R3Q3h3h3h3P3h3h3h3h3h3O3N3M3M3M3M3N3O3h3h3h3h3h3P3h3h3h3Q3R3p3q3              ",
"              q3R3h3h3h3h3L3K3h3h3h3h3h3h3J3I3H3H3I3G3h3h3h3h3h3h3F3T3h3h3h3h3R3q3              ",
"            p3V3Q3h3h3Q3E3D3C3h3h3h3h3h3h3h3B3A3A3B3h3h3h3h3h3h3h3C3D3;3Q3h3h3Q3V3p3            ",
"          d3a3U3h3h3Q3:3939383h3h3h3h3h3h3h3h3h3h3h3h3h3h3h3h3h3h373939363Q3h3h3i3a3d3          ",
"        q3d3e3h3h3h3534343433323h3h3h3h3h3h3h3h3h3h3h3h3h3h3h3h3231343434303h3h3h3e3d3p3        ",
"        p3c3h3h3h3z2y2y2y2y2y2x2h3h3h3h3h3h3h3h3h3h3h3h3h3h3h3h3w2y2y2y2y2v2u2h3h3h3t2p3        ",
"      p3g3b3h3h3s2r2q2q2q2q2q2p2h3h3h3h3h3h3h3h3h3h3h3h3h3h3h3h3o2q2q2q2q2q2n2m2h3h3b3g3p3      ",
"      q3f3h3h3h3l2k2k2k2k2k2k2j2i2h3h3h3h3h3h3h3h3h3h3h3h3h3h3h2g2k2k2k2k2k2k2f2h3h3h3e2q3      ",
"      q3d2h3h3c2b2a2a2a2a2a2a2a2Z2Y2h3h3h3h3h3h3h3h3h3h3h3h3X2W2a2a2a2a2a2a2a2V2U2h3h3e3q3      ",
"    p3l3h3h3h3T2S2S2S2S2S2S2S2S2S2R2Q2h3h3h3h3h3h3h3h3h3h3P2O2S2S2S2S2S2S2S2S2S2N2h3h3h3M2q3    ",
"    p3k3h3h3L2K2J2J2J2J2J2J2J2J2J2J2I2H2h3h3h3h3h3h3h3h3G2F2J2J2J2J2J2J2J2J2J2J2E2h3h3h3D2p3    ",
"    q3j3h3h3C2B2B2B2B2B2B2B2B2B2B2B2B2B2A2h3h3h3h3h3h3;2B2B2B2B2B2B2B2B2B2B2B2B2B2:2h3h392q3    ",
"    p3i3h3h38272727272727272727272727272A2h3h3h3h3h3h3627272727272727272727272727252h3h342p3    ",
"  q3o3h3h3h33222222222222222222222222222A21202h3h3h3h3z12222222222222222222222222202h3h3h3y1q3  ",
"  q3n3h3h3h3x1w1w1w1w1w1w1w1w1w1w1w1w1w1A2v1u1h3h3h3h3t1w1w1w1w1w1w1w1w1w1w1w1w1w1s1h3h3h3n3r1  ",
"  p3m3h3h3h3q1p1p1p1p1p1p1p1p1p1p1p1p1p1A2o1n1h3h3h3h3m1l1p1p1p1p1p1p1p1p1p1p1p1p1k1h3h3h3m3p3  ",
"  p3m3h3h3h3j1i1i1i1i1i1i1i1i1i1i1i1i1i1A2h1g1h3h3h3h3h3m1l1i1i1i1i1i1i1i1i1i1i1i1f1h3h3h3m3p3  ",
"  q3n3h3h3h3e1d1d1d1d1d1d1d1d1d1d1d1d1d1A2c1b1h3h3h3h3h3h3a1Z1d1d1d1d1d1d1d1d1d1d1Y1h3h3h3n3r1  ",
"  q3o3h3h3h3X1W1W1W1W1W1W1W1W1W1W1W1W1W1A2V1U1h3h3h3h3h3h3T1S1W1W1W1W1W1W1W1W1W1W1R1h3h3h3y1q3  ",
"    p3i3h3h3Q1P1P1P1P1P1P1P1P1P1P1P1P1P1A2O1N1h3h3h3h3h3T1M1P1P1P1P1P1P1P1P1P1P1P1L1h3h342p3    ",
"    q3j3h3h3K1J1J1J1J1J1J1J1J1J1J1J1J1J1A2I1H1h3h3h3h3G1F1J1J1J1J1J1J1J1J1J1J1J1J1E1h3h392q3    ",
"    p3k3h3h3h3D1C1C1C1C1C1C1C1C1C1C1C1C1A2B1A1h3h3h3h3h3;1:1C1C1C1C1C1C1C1C1C1C1D1h3h3h3D2p3    ",
"    p3l3h3h3h391818181818181818181818181A27161h3h3h3h3h3h3718181818181818181818151h3h3h3M2q3    ",
"      q3e3h3h341312121212121212121212121A21101h3h3h3h3h3z021212121212121212121y0x0h3h3w0q3      ",
"      q3f3h3h3h3v0u0u0u0u0u0u0u0u0u0u0u0A2t0s0h3h3h3h3r0u0u0u0u0u0u0u0u0u0u0u0q0h3h3h3e2q3      ",
"      p3g3b3h3h3p0o0n0n0n0n0n0n0n0n0n0n0m0l0k0h3h3h3h3j0n0n0n0n0n0n0n0n0n0n0i0p0h3h3b3g3p3      ",
"        p3c3h3h3h3h0g0f0f0f0f0f0f0f0f0f0e0d0c0h3h3h3h3b0f0f0f0f0f0f0f0f0f0g0h0h3h3h3t2p3        ",
"        q3d3e3h3h3h3a0Z0Z0Z0Z0Z0Z0Z0Z0Z0a1h3h3h3h3h3h3p0Z0Z0Z0Z0Z0Z0Z0Z0Z0Y0h3h3h3e3d3p3        ",
"          d3a3i3h3h3L2X0W0W0W0W0W0W0W0W0V0e0h3h3h3h3e0V0W0W0W0W0W0W0W0W0X0L2h3h3i3a3d3          ",
"            p3V3Q3h3h3L2U0T0S0S0S0S0S0S0S0R0e0h3h3e0R0S0S0S0S0S0S0S0Q0P0L2h3h3Q3V3p3            ",
"              q3R3h3h3h3h3O0N0M0M0M0M0M0M0M0L0e0e0L0M0M0M0M0M0M0M0K0J0h3h3h3h3R3q3              ",
"              q3p3R3Q3h3h3h3p0I0H0G0G0G0G0G0G0F0F0G0G0G0G0G0G0E0D0C0h3h3h3Q3R3p3q3              ",
"                q3q3V3U3h3h3h3h3B0A0;0:0:0:0:0:0:0:0:0:0:0908070h3h3h3h3i3V3q3q3                ",
"                    p3a3e3h3h3h3h3h3h360504030202030100060h3h3h3h3h3h3e3a3p3                    ",
"                      d3d3c3b3h3h3h3h3h3h3h3h3h3h3h3h3h3h3h3h3h3h3b3t2d3d3                      ",
"                        q3p3g3e2e3h3h3h3h3h3h3h3h3h3h3h3h3h3h3e3e2g3p3p3                        ",
"                            p3q3q3M2D29242h3h3h3h3h3h34292D2M2q3q3q3                            ",
"                                  q3p3q3p3y1n3m3m3n3y1p3q3p3q3                                  ",
"                                          q3r1p3p3r1q3                                          ",
"                                                                                                "};
