/* XPM */
static char *image[] = {
"48 48 52 1",
"  c None",
"0 c #eae8e7",
"1 c #eae8e5",
"2 c #dfdedc",
"3 c #ebeae8",
"4 c #ebebe9",
"5 c #e9e8e6",
"6 c #eceae9",
"7 c #f0efee",
"8 c #d5d5d0",
"9 c #2169c1",
": c #246bc1",
"; c #82a6d3",
"A c #e7e6e4",
"B c #e3e1e0",
"C c #2f7bd7",
"D c #edeceb",
"E c #3584e3",
"F c #ececea",
"G c #e3e3e0",
"H c #eeeceb",
"I c #e7e7e6",
"J c #f0f0ed",
"K c #f3f3f1",
"L c #2f7fe1",
"M c #287bde",
"N c #317bd4",
"O c #3480de",
"P c #8ca2b9",
"Q c #4b7cb7",
"R c #4c7db7",
"S c #a7a6a3",
"T c #94aac0",
"U c #7fa3cf",
"V c #a6b9ce",
"W c #d0d0cd",
"X c #8db1de",
"Y c #5b94d9",
"Z c #d7d9da",
"a c #deddda",
"b c #d6d9db",
"c c #609ae2",
"d c #f5f5f3",
"e c #478ee3",
"f c #3584e4",
"g c #468de4",
"h c #9cc1ec",
"i c #9ec2ed",
"j c #dae5f2",
"k c #f6f5f4",
"l c #f5f5f4",
"m c #f7f5f4",
"                                                ",
"                                                ",
"                                                ",
"         mlkkkkkkkkkkkkkkkkkkkkkkkkkkmk         ",
"        kjihhhhhhhhhhhhhhhhhhhhhhhhhhijk        ",
"        kgffffffffffffffffffffffffffffek        ",
"       dkffffffffffffffffffffffffffffffkd       ",
"       dkffffffffffffffffffffffffffffffkd       ",
"       dkffffffffffffffffffffffffffffffkd       ",
"       dkffffffffffcbaaaaaaZYffffffffffkd       ",
"       dkffffffffffXWVVVVVVWUffffffffffkd       ",
"       dkffffffffffTSRQQQQQSPffffffffffkd       ",
"       dkffffffffffONNNNNNNNOffffffffffkd       ",
"       dkffffffffffffffffffffffffffffffkd       ",
"       dkffffffffffffffffffffffffffffffkd       ",
"       dkffffffffffffffffffffffffffffffkd       ",
"       dkMMMMMMMMMMMMMMMMMMMMMMMMMMMMMMkd       ",
"       dkLLLLLLLLLLLLLLLLLLLLLLLLLLLLLLkd       ",
"       dkffffffffffffffffffffffffffffffkd       ",
"       dkffffffffffffffffffffffffffffffkd       ",
"       dkffffffffffffffffffffffffffffffkd       ",
"       dkffffffffffcbaaaaaaZYffffffffffkd       ",
"       dkffffffffffXWVVVVVVWUffffffffffkd       ",
"       dkffffffffffTSRQQQQQSPffffffffffkd       ",
"       KkffffffffffONNNNNNNNOffffffffffkd       ",
"       JkffffffffffffffffffffffffffffffkI       ",
"       HkffffffffffffffffffffffffffffffkG       ",
"       FkffffffffffffffffffffffffffffffkG       ",
"       FkMMMMMMMMMMMMMMMMMMMMMMMMMMMMMMkG       ",
"       FkLLLLLLLLLLLLLLLLLLLLLLLLLLLLLLkG       ",
"       FkffffffffffffffffffffffffffffffkG       ",
"       FkffffffffffffffffffffffffffffffkG       ",
"       FkffffffffffffffffffffffffffffffkG       ",
"       FkffffffffffcbaaaaaaZYffffffffffkG       ",
"       FkffffffffffXWVVVVVVWUffffffffffkG       ",
"       FkffffffffffTSRQQQQQSPffffffffffkG       ",
"       FkffffffffffONNNNNNNNOffffffffffkG       ",
"       FkffffffffffffffffffffffffffffffkG       ",
"       FkffffffffffffffffffffffffffffffkG       ",
"       FkEffffffffffffffffffffffffffffEkG       ",
"       DkCffffffffffffffffffffffffffffCkB       ",
"       Ak;:99999999999999999999999999:;k8       ",
"        7kkkkkkkkkkkkkkkkkkkkkkkkkkkkkk6        ",
"        54533333333333333333333333333542        ",
"         1aaaaaaaaaaaaaaaaaaaaaaaaaaaa0         ",
"                                                ",
"                                                ",
"                                                "};
