/* XPM */
static char *image[] = {
"48 48 207 2",
"   c None",
"00 c #888888",
"10 c #878787",
"20 c #7b7b7b",
"30 c #7ea2c1",
"40 c #85a5c2",
"50 c #afb9c1",
"60 c #969696",
"70 c #3e83c0",
"80 c #145187",
"90 c #165893",
":0 c #1b70ba",
";0 c #3d83c0",
"A0 c #c3c3c3",
"B0 c #9f9f9f",
"C0 c #1d69ac",
"D0 c #3380c0",
"E0 c #3a8bcc",
"F0 c #3382c0",
"G0 c #1e69ac",
"H0 c #1c73bf",
"I0 c #c6c6c6",
"J0 c #bfbfbf",
"K0 c #2c7ec5",
"L0 c #7090ab",
"M0 c #6d8fab",
"N0 c #4488be",
"O0 c #3b8cce",
"P0 c #2c7fc5",
"Q0 c #1e74c1",
"R0 c #c8c8c8",
"S0 c #cccccc",
"T0 c #c5c5c5",
"U0 c #c3c5c5",
"V0 c #73a5cd",
"W0 c #3d8fd1",
"X0 c #2e83ca",
"Y0 c #1f77c3",
"Z0 c #cbcbcb",
"a0 c #3e90d3",
"b0 c #2f85cc",
"c0 c #2078c5",
"d0 c #cdcdcd",
"e0 c #cfcfcf",
"f0 c #3e91d4",
"g0 c #2f85cd",
"h0 c #2079c6",
"i0 c #cecece",
"j0 c #3f92d6",
"k0 c #3087cf",
"l0 c #217ac8",
"m0 c #d0d0d0",
"n0 c #d1d1d1",
"o0 c #4195d9",
"p0 c #3289d2",
"q0 c #227ccb",
"r0 c #d3d3d3",
"s0 c #d4d4d4",
"t0 c #4296da",
"u0 c #338ad4",
"v0 c #247ecd",
"w0 c #4297db",
"x0 c #378dd5",
"y0 c #247ece",
"z0 c #d5d5d5",
"01 c #d6d6d6",
"11 c #4794d7",
"21 c #55a1de",
"31 c #5da5df",
"41 c #4795d7",
"51 c #2580d0",
"61 c #d7d7d7",
"71 c #2680d1",
"81 c #5a9fda",
"91 c #4c98d7",
":1 c #2780d1",
";1 c #2580d1",
"A1 c #d8d8d8",
"B1 c #dadada",
"C1 c #2682d3",
"D1 c #dbdbdb",
"E1 c #257ecb",
"F1 c #2569a2",
"G1 c #22659f",
"H1 c #247dca",
"I1 c #2683d4",
"J1 c #dcdcdc",
"K1 c #2b7ec6",
"L1 c #449be1",
"M1 c #4295d8",
"N1 c #4396d9",
"O1 c #469de3",
"P1 c #459be2",
"Q1 c #2c7fc7",
"R1 c #2683d5",
"S1 c #dddddd",
"T1 c #9cb0c1",
"U1 c #9aafc1",
"V1 c #619ed1",
"W1 c #469ee4",
"X1 c #3691dd",
"Y1 c #2684d6",
"Z1 c #dfdfdf",
"a1 c #bccddc",
"b1 c #bacedd",
"c1 c #73b0e3",
"d1 c #479fe6",
"e1 c #3893df",
"f1 c #2886d8",
"g1 c #e0e0e0",
"h1 c #48a1e8",
"i1 c #3894e1",
"j1 c #2887da",
"k1 c #e2e2e2",
"l1 c #e1e1e1",
"m1 c #48a1e9",
"n1 c #3895e2",
"o1 c #2887db",
"p1 c #e3e3e3",
"q1 c #49a2ea",
"r1 c #3895e3",
"s1 c #49a2eb",
"t1 c #3896e4",
"u1 c #2888dc",
"v1 c #e5e5e5",
"w1 c #e4e4e4",
"x1 c #49a4ed",
"y1 c #3997e6",
"z1 c #429ce6",
"02 c #49a3ed",
"12 c #429be6",
"22 c #2889de",
"32 c #439ae5",
"42 c #6eb6f0",
"52 c #74b8f1",
"62 c #449ae5",
"72 c #2889df",
"82 c #e7e7e7",
"92 c #469ce5",
":2 c #3793e3",
";2 c #288ae0",
"A2 c #e8e8e8",
"B2 c #e6e6e6",
"C2 c #2680d0",
"D2 c #2786d9",
"E2 c #288ae1",
"F2 c #e9e9e9",
"G2 c #247fcf",
"H2 c #307ec0",
"I2 c #2972b0",
"J2 c #247fce",
"K2 c #278ae2",
"L2 c #328ddb",
"M2 c #4192d3",
"N2 c #4193d3",
"O2 c #47a3ec",
"P2 c #49a6f2",
"Q2 c #328fdc",
"R2 c #278be3",
"S2 c #eaeaea",
"T2 c #dedede",
"U2 c #dbdcdd",
"V2 c #7ab2e1",
"W2 c #3799ea",
"X2 c #268be2",
"Y2 c #a9cfef",
"Z2 c #a8ceee",
"a2 c #64b3f2",
"b2 c #49a7f3",
"c2 c #3899eb",
"d2 c #48a6f2",
"e2 c #3799eb",
"f2 c #268be3",
"g2 c #ececec",
"h2 c #47a7f3",
"i2 c #258be4",
"j2 c #47a6f3",
"k2 c #3599ec",
"l2 c #248ae4",
"m2 c #47a7f4",
"n2 c #3599ed",
"o2 c #248be5",
"p2 c #46a6f4",
"q2 c #3699ec",
"r2 c #238ae5",
"s2 c #ededed",
"t2 c #ebebeb",
"u2 c #46a7f5",
"v2 c #47a8f5",
"w2 c #47a1ee",
"x2 c #228ae6",
"y2 c #efefef",
"z2 c #3495e9",
"03 c #7cc0f8",
"13 c #7abef7",
"23 c #3496e9",
"33 c #2289e4",
"43 c #3c91dd",
"53 c #2189e5",
"63 c #3a91dd",
"73 c #eeeeee",
"83 c #85b2da",
"93 c #87b3d9",
":3 c #cbdae6",
";3 c #f3f3f3",
"A3 c #f4f4f4",
"B3 c #f5f5f5",
"                                                                                                ",
"                                                                                                ",
"                                                                                                ",
"                  B3A3A3A3A3A3A3A3A3A3A3A3A3A3A3A3A3A3A3A3A3A3A3A3A3A3A3A3A3B3                  ",
"                ;3:393838383838383838383838383838383838383838383838383838393:3;3                ",
"                7363535353535353535353535353535353535353535353535353535353534373                ",
"              737333231303030303030303030303030303030303030303030303030313z2337373              ",
"              y273x2w2v2u2u2u2u2u2u2u2u2u2u2u2u2u2u2u2u2u2u2u2u2u2u2u2u2v2w2x273y2              ",
"              t2s2r2q2p2p2p2p2p2p2p2p2p2p2p2p2p2p2p2p2p2p2p2p2p2p2p2p2p2p2q2r2s2t2              ",
"              s273o2n2m2m2m2m2m2m2m2m2m2m2m2m2m2m2m2m2m2m2m2m2m2m2m2m2m2m2n2o273s2              ",
"              s2s2l2k2j2j2j2j2j2j2j2j2j2j2j2j2j2j2j2j2j2j2j2j2j2j2j2j2j2j2k2l2s2s2              ",
"              s2s2i2q2h2h2h2h2h2h2h2h2h2h2h2h2h2h2h2h2h2h2h2h2h2h2h2h2h2h2q2i2s2s2              ",
"              g2g2f2e2d2d2d2d2d2d2d2d2d2d2d2d2d2d2d2d2d2d2d2d2d2d2d2d2d2d2e2f2g2g2              ",
"              g2g2f2c2b2b2b2b2b2b2b2b2a2Z2Y2Y2Y2Y2Y2Y2Z2a2b2b2b2b2b2b2b2b2c2f2g2g2              ",
"              g2t2X2W2d2d2d2d2d2d2d2d2V2U2T2T2T2T2T2T2U2V2d2d2d2d2d2d2d2d2W2X2t2g2              ",
"              S2t2R2Q2P2P2P2P2P2P2P2P2O2N2M2M2M2M2M2M2N2O2P2P2P2P2P2P2P2P2L2R2t2S2              ",
"              S2S2K2J2I2H2H2H2H2H2H2H2H2H2H2H2H2H2H2H2H2H2H2H2H2H2H2H2H2I2G2K2S2S2              ",
"              S2F2E2E2D2C2C2C2C2C2C2C2C2C2C2C2C2C2C2C2C2C2C2C2C2C2C2C2C2D2E2E2F2S2              ",
"              B2A2;2;2:2929292929292929292929292929292929292929292929292:2;2;2A2B2              ",
"              B28272625242424242424242424242424242424242424242424242424252327282B2              ",
"              B2B222120202020202020202020202020202020202020202020202020202z122B2B2              ",
"              A2B222y1x1x1x1x1x1x1x1x1x1x1x1x1x1x1x1x1x1x1x1x1x1x1x1x1x1x1y122B2A2              ",
"              w1v1u1t1s1s1s1s1s1s1s1s1s1s1s1s1s1s1s1s1s1s1s1s1s1s1s1s1s1s1t1u1v1w1              ",
"              w1w1u1r1q1q1q1q1q1q1q1q1q1q1q1q1q1q1q1q1q1q1q1q1q1q1q1q1q1q1r1u1w1w1              ",
"              w1p1o1n1m1m1m1m1m1m1m1m1m1m1m1m1m1m1m1m1m1m1m1m1m1m1m1m1m1m1n1o1p1w1              ",
"              l1k1j1i1h1h1h1h1h1h1h1h1h1h1h1h1h1h1h1h1h1h1h1h1h1h1h1h1h1h1i1j1k1l1              ",
"              l1g1f1e1d1d1d1d1d1d1d1d1c1b1a1a1a1a1a1a1b1c1d1d1d1d1d1d1d1d1e1f1g1l1              ",
"              Z1T2Y1X1W1W1W1W1W1W1W1W1V1U1T1T1T1T1T1T1U1V1W1W1W1W1W1W1W1W1X1Y1T2Z1              ",
"              S1S1R1Q1P1O1O1O1O1O1O1O1O1N1M1M1M1M1M1M1N1O1O1O1O1O1O1O1O1L1K1R1S1S1              ",
"              S1J1I1H1G1F1F1F1F1F1F1F1F1F1F1F1F1F1F1F1F1F1F1F1F1F1F1F1F1G1E1I1J1S1              ",
"              D1D1C1C1C1C1C1C1C1C1C1C1C1C1C1C1C1C1C1C1C1C1C1C1C1C1C1C1C1C1C1C1D1D1              ",
"              B1A1;1:1918181818181818181818181818181818181818181818181819171;1A1B1              ",
"              B16151413121212121212121212121212121212121212121212121212131115161B1              ",
"              01z0y0x0w0w0w0w0w0w0w0w0w0w0w0w0w0w0w0w0w0w0w0w0w0w0w0w0w0w0x0y0z001              ",
"              01z0v0u0t0t0t0t0t0t0t0t0t0t0t0t0t0t0t0t0t0t0t0t0t0t0t0t0t0t0u0v0z001              ",
"              s0r0q0p0o0o0o0o0o0o0o0o0o0o0o0o0o0o0o0o0o0o0o0o0o0o0o0o0o0o0p0q0r0s0              ",
"              n0m0l0k0j0j0j0j0j0j0j0j0j0j0j0j0j0j0j0j0j0j0j0j0j0j0j0j0j0j0k0l0m0n0              ",
"              n0i0h0g0f0f0f0f0f0f0f0f0f0f0f0f0f0f0f0f0f0f0f0f0f0f0f0f0f0f0g0h0i0n0              ",
"              e0d0c0b0a0a0a0a0a0a0a0a0a0a0a0a0a0a0a0a0a0a0a0a0a0a0a0a0a0a0b0c0d0e0              ",
"              d0Z0Y0X0W0W0W0W0W0W0W0W0V0U0T0T0T0T0T0T0U0V0W0W0W0W0W0W0W0W0X0Y0Z0d0              ",
"              S0R0Q0P0O0O0O0O0O0O0O0O0N0M0L0L0L0L0L0L0M0N0O0O0O0O0O0O0O0O0K0Q0R0S0              ",
"              J0I0H0G0F0E0E0E0E0E0E0E0E0E0E0E0E0E0E0E0E0E0E0E0E0E0E0E0E0D0C0H0I0J0              ",
"              B0A0;0:09080808080808080808080808080808080808080808080808090:070A0                ",
"                6050403030303030303030303030303030303030303030303030303030405060                ",
"                  201000000000000000000000000000000000000000000000000000001020                  ",
"                                                                                                ",
"                                                                                                ",
"                                                                                                "};
