/* XPM */
static char *image[] = {
"48 48 494 2",
"   c None",
"00 c #8cb3e1",
"10 c #94b9e4",
"20 c #a0c2e9",
"30 c #b9d6f3",
"40 c #5f90d0",
"50 c #3871c0",
"60 c #6090d0",
"70 c #94b8e4",
"80 c #3a73c2",
"90 c #5a8ccf",
":0 c #a7c7ec",
";0 c #5f90d2",
"A0 c #b6d3f1",
"B0 c #3f7ac7",
"C0 c #72a0da",
"D0 c #d4eafc",
"E0 c #5083ca",
"F0 c #5a8fd3",
"G0 c #c6e1f9",
"H0 c #3973c2",
"I0 c #4e87cf",
"J0 c #b4d3f2",
"K0 c #b1cfef",
"L0 c #3971c1",
"M0 c #b5d3f2",
"N0 c #c6dff7",
"O0 c #4178c4",
"P0 c #a9cff2",
"Q0 c #aed3f5",
"R0 c #72a2dc",
"S0 c #528bd3",
"T0 c #c7e2f9",
"U0 c #d3eafc",
"V0 c #5183ca",
"W0 c #7eade2",
"X0 c #6196d9",
"Y0 c #6c99d4",
"Z0 c #356fbf",
"a0 c #3d78c7",
"b0 c #7eaee2",
"c0 c #7aaae1",
"d0 c #d9edfe",
"e0 c #b4d1f0",
"f0 c #366fbf",
"g0 c #b9d7f5",
"h0 c #5a8acd",
"i0 c #3c77c6",
"j0 c #80afe3",
"k0 c #4480cd",
"l0 c #6ea0df",
"m0 c #a5c5ea",
"n0 c #3770c0",
"o0 c #3771c1",
"p0 c #81b0e4",
"q0 c #adcff2",
"r0 c #5688cc",
"s0 c #356ebf",
"t0 c #3670c0",
"u0 c #3871c2",
"v0 c #407ac9",
"w0 c #81b1e4",
"x0 c #4883d0",
"y0 c #6da2e0",
"z0 c #c8e2f8",
"01 c #3770bf",
"11 c #366fc0",
"21 c #3b74c4",
"31 c #6c98d4",
"41 c #bcd0eb",
"51 c #e8eff8",
"61 c #ebf1f9",
"71 c #c7d8ef",
"81 c #83a8db",
"91 c #417cc9",
":1 c #b3cbea",
";1 c #7faee3",
"A1 c #70a3df",
"B1 c #a1caf1",
"C1 c #c4e5fd",
"D1 c #badefa",
"E1 c #a0c9f1",
"F1 c #6fa4e1",
"G1 c #cae5fb",
"H1 c #d8effe",
"I1 c #93b8e4",
"J1 c #3770c1",
"K1 c #3871c1",
"L1 c #3c76c4",
"M1 c #a8c2e5",
"N1 c #c9daf0",
"O1 c #558ad0",
"P1 c #f7f9fd",
"Q1 c #79a9e2",
"R1 c #9bc4ee",
"S1 c #95c2ee",
"T1 c #a0c7f0",
"U1 c #6192d1",
"V1 c #3872c2",
"W1 c #3972c2",
"X1 c #3a73c3",
"Y1 c #96b5e0",
"Z1 c #d5e2f3",
"a1 c #6e9ad5",
"b1 c #4d84cd",
"c1 c #5c8ed1",
"d1 c #7da5da",
"e1 c #d0dff2",
"f1 c #e8eff9",
"g1 c #b4d9f8",
"h1 c #a5cdf3",
"i1 c #6fa4e0",
"j1 c #5d96da",
"k1 c #5c95da",
"l1 c #76a9e3",
"m1 c #aed5f6",
"n1 c #79abe6",
"o1 c #3c75c3",
"p1 c #3973c3",
"q1 c #3a74c4",
"r1 c #3c76c6",
"s1 c #4e83cb",
"t1 c #f9fbfd",
"u1 c #cdddf1",
"v1 c #4780cb",
"w1 c #4681cd",
"x1 c #b9d0ec",
"y1 c #95c1ed",
"z1 c #4e8ad4",
"02 c #5691d9",
"12 c #a9d0f5",
"22 c #c5e6fe",
"32 c #5f9ade",
"42 c #bad7f3",
"52 c #3a74c3",
"62 c #3b75c4",
"72 c #96b6e0",
"82 c #6b99d5",
"92 c #5c90d4",
":2 c #fefeff",
";2 c #5993d9",
"A2 c #6ba2e1",
"B2 c #8abaec",
"C2 c #c2def9",
"D2 c #a3c5ea",
"E2 c #3b75c5",
"F2 c #3c76c5",
"G2 c #3e79c7",
"H2 c #c8d8ef",
"I2 c #e0eaf6",
"J2 c #437eca",
"K2 c #cedef2",
"L2 c #a7cff4",
"M2 c #b3d8f8",
"N2 c #a8d0f5",
"O2 c #add1f4",
"P2 c #d9edff",
"Q2 c #97bce6",
"R2 c #3d77c6",
"S2 c #3d78c6",
"T2 c #407ac8",
"U2 c #eaf1f9",
"V2 c #c2d5ee",
"W2 c #4883cf",
"X2 c #b8d0ed",
"Y2 c #98c3ef",
"Z2 c #a2ccf3",
"a2 c #bcdffb",
"b2 c #a4cbf3",
"c2 c #90b7e4",
"d2 c #3e78c7",
"e2 c #3f79c8",
"f2 c #427cca",
"g2 c #afc8e9",
"h2 c #a7c4e9",
"i2 c #8bbaeb",
"j2 c #96c3f0",
"k2 c #c4e5fe",
"l2 c #a0c8f2",
"m2 c #91b8e5",
"n2 c #3f7ac8",
"o2 c #407bc9",
"p2 c #fcfdfe",
"q2 c #a6c2e7",
"r2 c #a0c0e8",
"s2 c #4e8bd6",
"t2 c #c2e4fd",
"u2 c #8cbbec",
"v2 c #93c2f0",
"w2 c #c6e6ff",
"x2 c #a0c9f2",
"y2 c #99bee8",
"z2 c #417bc9",
"03 c #417cca",
"13 c #427dcb",
"23 c #437fcc",
"33 c #f2f6fb",
"43 c #b9cfec",
"53 c #4984d0",
"63 c #b1cbec",
"73 c #508ed7",
"83 c #98c4f0",
"93 c #9fcbf3",
":3 c #c0e3fd",
";3 c #a6cdf4",
"A3 c #a5c7ed",
"B3 c #427dca",
"C3 c #437ecb",
"D3 c #4681ce",
"E3 c #dce7f6",
"F3 c #ccdcf2",
"G3 c #4a86d1",
"H3 c #c3d8f1",
"I3 c #a4cdf4",
"J3 c #acd4f7",
"K3 c #b3d9f9",
"L3 c #b0d4f7",
"M3 c #d7edfe",
"N3 c #d9f0ff",
"O3 c #bcd9f5",
"P3 c #437ecc",
"Q3 c #447fcc",
"R3 c #4580cd",
"S3 c #4581ce",
"T3 c #b6cdec",
"U3 c #f6f9fd",
"V3 c #538cd3",
"W3 c #4a87d2",
"X3 c #4b87d3",
"Y3 c #528ed7",
"Z3 c #eaf1fa",
"a3 c #f7fafd",
"b3 c #bee1fc",
"c3 c #5796de",
"d3 c #66a2e4",
"e3 c #c5e7fe",
"f3 c #9dc9f3",
"g3 c #5f9fe5",
"h3 c #c3e0fa",
"i3 c #d8edff",
"j3 c #d5ebfd",
"k3 c #4882ce",
"l3 c #4581cd",
"m3 c #4682ce",
"n3 c #77a4dd",
"o3 c #97bae6",
"p3 c #4c89d4",
"q3 c #88b2e4",
"r3 c #82b5ea",
"s3 c #94c2f1",
"t3 c #78b0ea",
"u3 c #65a5e8",
"v3 c #6c9edb",
"w3 c #4782cf",
"x3 c #4783cf",
"y3 c #d5e3f4",
"z3 c #fafcfe",
"04 c #8cb3e3",
"14 c #84afe3",
"24 c #f3f7fc",
"34 c #c3e4fe",
"44 c #c3e4fd",
"54 c #7fb4eb",
"64 c #89bcef",
"74 c #c7e8ff",
"84 c #aed6f8",
"94 c #62a0e6",
":4 c #83b8ef",
";4 c #9bc1ea",
"A4 c #4884d0",
"B4 c #4985d0",
"C4 c #4985d1",
"D4 c #6599da",
"E4 c #edf3fb",
"F4 c #e8f0fa",
"G4 c #c7dbf2",
"H4 c #c9dcf3",
"I4 c #e7effa",
"J4 c #b2ceee",
"K4 c #5693dc",
"L4 c #85b8ec",
"M4 c #c2e3fd",
"N4 c #b8dcfb",
"O4 c #a5cff6",
"P4 c #9fcbf4",
"Q4 c #b2d9f9",
"R4 c #bde0fc",
"S4 c #6eaae9",
"T4 c #a7d0f6",
"U4 c #cae4fa",
"V4 c #4a85d1",
"W4 c #4a86d2",
"X4 c #4b87d2",
"Y4 c #4e8ad5",
"Z4 c #649ada",
"a4 c #cbddf3",
"b4 c #d9e6f7",
"c4 c #73a6e1",
"d4 c #95bbe9",
"e4 c #f8fafd",
"f4 c #c3e5fe",
"g4 c #629fe3",
"h4 c #6ea7e7",
"i4 c #b0d6f8",
"j4 c #c8e8ff",
"k4 c #abd4f8",
"l4 c #6faaea",
"m4 c #68a7eb",
"n4 c #689cdb",
"o4 c #4b88d3",
"p4 c #4c88d3",
"q4 c #4d8ad5",
"r4 c #508cd6",
"s4 c #639adc",
"t4 c #8ab3e5",
"u4 c #97bce8",
"v4 c #8cb6e6",
"w4 c #6da1df",
"x4 c #9cc0ea",
"y4 c #f8fafe",
"z4 c #6ca5e6",
"05 c #6da6e6",
"15 c #5d9be2",
"25 c #70aae8",
"35 c #85baee",
"45 c #8dbff0",
"55 c #86baef",
"65 c #6faae9",
"75 c #7fb7f0",
"85 c #accdf1",
"95 c #4d89d4",
":5 c #4d8ad4",
";5 c #4e8bd5",
"A5 c #528fd8",
"B5 c #5290d9",
"C5 c #a1c4ec",
"D5 c #5f9fe4",
"E5 c #b5d8f9",
"F5 c #6ea1de",
"G5 c #4f8bd6",
"H5 c #4f8cd6",
"I5 c #508dd7",
"J5 c #518ed8",
"K5 c #5390da",
"L5 c #5491da",
"M5 c #5794dd",
"N5 c #a2c5ed",
"O5 c #5b99e1",
"P5 c #5e9ee4",
"Q5 c #83b9f2",
"R5 c #bad8f5",
"S5 c #518dd7",
"T5 c #518ed7",
"U5 c #518fd8",
"V5 c #5593db",
"W5 c #5694dd",
"X5 c #5997de",
"Y5 c #a2c5ee",
"Z5 c #6cacee",
"a5 c #c0dffb",
"b5 c #7eaee5",
"c5 c #528fd9",
"d5 c #5390d9",
"e5 c #5391da",
"f5 c #5492db",
"g5 c #a3c6ee",
"h5 c #90c3f5",
"i5 c #d8ecfe",
"j5 c #d4ebfd",
"k5 c #69a0e0",
"l5 c #5492da",
"m5 c #5592db",
"n5 c #5593dc",
"o5 c #5897de",
"p5 c #5c9be1",
"q5 c #a4c7ef",
"r5 c #ffffff",
"s5 c #f8fbfe",
"t5 c #7fb8f2",
"u5 c #c9e4fb",
"v5 c #5f9adf",
"w5 c #5694dc",
"x5 c #5795dd",
"y5 c #5a98df",
"z5 c #97c0ed",
"06 c #e2edfa",
"16 c #dceaf9",
"26 c #75b3f2",
"36 c #b9d8f6",
"46 c #5a97de",
"56 c #5896de",
"66 c #5997df",
"76 c #5998df",
"86 c #5a99e0",
"96 c #5c9ae1",
":6 c #64a3e8",
";6 c #70b1f1",
"A6 c #b9d9f7",
"B6 c #629fe1",
"C6 c #5a98e0",
"D6 c #5b99e0",
"E6 c #5b9ae1",
"F6 c #5e9de3",
"G6 c #68a9ed",
"H6 c #76b5f3",
"I6 c #bfdffb",
"J6 c #cae4fb",
"K6 c #70a8e6",
"L6 c #5c9be2",
"M6 c #5d9ce2",
"N6 c #5d9ce3",
"O6 c #5e9de4",
"P6 c #63a2e7",
"Q6 c #65a6ea",
"R6 c #66a6eb",
"S6 c #6babee",
"T6 c #6eb0f2",
"U6 c #81baf4",
"V6 c #cce7fe",
"W6 c #d5ecfd",
"X6 c #86b8ec",
"Y6 c #5f9de3",
"Z6 c #5f9ee4",
"a6 c #609fe5",
"b6 c #60a0e5",
"c6 c #61a1e6",
"d6 c #62a1e7",
"e6 c #65a5e9",
"f6 c #6daff1",
"g6 c #70b0f2",
"h6 c #92c6f7",
"i6 c #d5ecfe",
"j6 c #d8efff",
"k6 c #d8eefe",
"l6 c #bedcf9",
"m6 c #7cb0eb",
"n6 c #61a0e6",
"o6 c #62a1e6",
"p6 c #62a2e7",
"q6 c #63a3e8",
"r6 c #64a4e8",
"s6 c #67a7eb",
"t6 c #67a8ec",
"u6 c #68a9ec",
"v6 c #6aaaee",
"w6 c #6caef0",
"x6 c #87bef6",
"y6 c #c1e1fc",
"z6 c #d9eefe",
"07 c #b3d5f7",
"17 c #7bb2ed",
"27 c #65a4e8",
"37 c #64a4e9",
"47 c #65a5ea",
"57 c #66a6ea",
"67 c #66a7eb",
"77 c #67a8eb",
"87 c #6cadef",
"97 c #6daef1",
":7 c #6eaff1",
";7 c #6fb0f2",
"A7 c #84bdf5",
"B7 c #b7dbfb",
"C7 c #cce7fd",
"D7 c #a8d0f6",
"E7 c #84b9f0",
"F7 c #69a9eb",
"G7 c #68a8ec",
"H7 c #69a9ed",
"I7 c #69aaed",
"J7 c #6aabee",
"K7 c #6bacef",
"L7 c #6cadf0",
"M7 c #6daef0",
"N7 c #6fb0f1",
"O7 c #8ac0f5",
"P7 c #abd4f9",
"Q7 c #cde8fe",
"R7 c #d6ecfe",
"S7 c #c5e1fb",
"T7 c #b2d7f9",
"U7 c #abd2f8",
"V7 c #a6d0f7",
"W7 c #a6d0f8",
"X7 c #acd3f9",
"Y7 c #b3d9fa",
"Z7 c #c6e2fd",
"a7 c #d6edfe",
"b7 c #d8eeff",
"c7 c #d9efff",
"d7 c #d9eeff",
"e7 c #d8edfe",
"f7 c #daeeff",
"g7 c #daefff",
"                                      g7f7e7d7c7c7d7e7f7g7                                      ",
"                                b7c7g7a7Z7Y7X7W7V7U7T7S7R7g7c7b7                                ",
"                            c7g7Q7P7O7N7M7L7K7K7J7I7H7G7F7E7D7C7g7c7                            ",
"                        c7g7B7A7;7:797L787K7J7I7H7G77767574737271707g7c7                        ",
"                    z6g7y6x6;7:797w687K7J7v6H7u6t6s6574737r6q6p6o6n6m6l6g7k6                    ",
"                  j6i6h6g6:7f6M7L7K7J7v6I7u6G7s65747e6r6q6p6d6c6b6a6Z6Y6X6W6c7                  ",
"                d7V6U6T6f6M7L7K7S6J7I7u6G7s6R6Q6e637q6P6d6c6b6a6Z6O6N6M6L6K6J6z6                ",
"              g7I6H6:7M7L7K7K7J7I7G6G7s66757e637q6P6p6c6n6a6Z6O6F6M6L6E6D6C6B6A6g7              ",
"            d7I6;697L787K7J7I7H7G7776757e637:6q6p6c6n6a6Z6Z6F6M6L696E6867666564636z6            ",
"          j6C726w687K7J7I7H7u6t6s6574737r6q6p6o6n6a61606z5N6L696E686y56656x5x5w5v5u5c7          ",
"        z6R7t5L7K7J7v6I7u6t6s65747e6r6q6p6d6n6b6a6Z6s5r5q5p5E686C666o556x5w5n5m5l5k5j5i5        ",
"        g7h5K7J7J7I7u6G7s657Q6e637q6p6d6c6b6a6Z6F6N6s5r5g5D6C666o556x5w5n5m5f5e5d5c5b5g7        ",
"      j6a5Z5J7I7G6G7s66757e637q6P6p6c6b6a6Z6O6F6M6L6s5r5Y576X556x5W5w5V5f5e5d5c5U5T5S5R5c7      ",
"      g7Q5I7H7G7776757e637:6q6p6c6n6a6Z6P5F6M6L696O5s5r5N556x5M5w5V5f5L5K5c5U5J5I5H5G5F5g7      ",
"    c7E5H7u677s6574737r6q6p6c6n6a6D5Z6F6N6L696E686y5s5r5C5x5w5n5f5L5K5B5A5J5I5H5G5;5:59585d7    ",
"    g775t6s65747e6r6q6p66555453525F6N61505z486y56656y4r5x4n5m5w4v4u4t4s4I5r4H5;5q495p4o4n4g7    ",
"  b7C7m45747e637q6p6l4k4j4j4j4j4j4i4h4g4j4f466o556x5e4r5d4c4b4r5r5r5r5r5a4Z4Y495p4o4X4W4V4U4d7  ",
"  c7T4Q6e637q6P6p6S4R4j4j4Q4P4O4N4j4M4L4j4f456x5W5K4e4r5J4e4r5I4H4G4F4r5r5E4D4o4X4W4C4B4A4;4c7  ",
"  g7:437q6P6p6c69484j47464M6L696D65444j4j434W5w5V5f5e4r5r52414I5H5G5Y404z3r5y3X4C4B4A4x3w3v3g7  ",
"g7R7u3q6p6c6n6a6t3j4j4s3L696E6867666r3j4j444V5f5L5K5e4r5r5q3H5G5;5:5p3p4o3r5r5n3A4x3w3m3l3k3j3g7",
"i3h3p6o6n6a6g3Z6f3j4e3d3E686y56656c346b3j444L5e5B5A5a3r5Z3Y3;5q495p4X3W3V3U3r5T3w3m3S3R3Q3P3O3N3",
"M3L3c6b6a6Z6F6N6K3j4J3D6C666o556x5w5n5I3j444d5A5J5I5a3r5H3Y495p4o4X4G3C4A4F3r5E3D3R3Q3P3C3B3A3M3",
"d7;3a6Z6F6N6M6L6:3j49376o556x5w5K4V5f583j444J573I5H5a3r563p3o4X4W4C453A4x343r533Q323C31303z2y2d7",
"c7x2O6F6M6L6E6D6w2j4v256x5W5w5V5f5L5d5u2j4t2I5H5s2Y4a3r5r2X4W4C4B4A4x3w3D3q2r5p2C31303z2o2n2m2c7",
"c7l2M6L696O58676k2j4j2x5w5V5f5L5K5B5A5i2j4t2G5;5:5p3a3r5h2G3C4A4x3w3D3l3R3g2r5e4f203o2n2e2d2c2c7",
"d7b296E686y56656a2j4Z2n5m5L5K5B5A5J5I5Y2j4t2q495p4X3a3r5X2A4W2w3m3l3R3Q3P3V2r5U2o2T2e2d2S2R2Q2P2",
"M3O286C666o556x5N2j4M2l5e5d5A5J5I5I5H5L2j4t2p4o4X4G3a3r5K2x3m3D3R3Q3P3C3J2I2r5H2n2G2d2R2F2E2D2M3",
"i3C266o556x5w5n5B2j4j4A2c5J573I5H5;5;2k2j4t2X4W4C4A4a3r5:292R3Q323C3130382r5r572d2R2F2E2625242N3",
"g7W6y5x5W5w5V5f53222j41202I5H5;5Y4z1y1j4j4t2C4B4A4x3a3r5r5x1w1C31303z2v1u1r5t1s1r1F262q1p1o1j3g7",
"  g7n1w5V5f5L5d5c5i2j4j4m1l1k1j1i1h1j4g1j4t2A4x3w3D3a3r5f1r5e1d1c1b1a1Z1r5r5Y1F262q1X1W1V1U1g7  ",
"  c7T1f5L5K5B5A5J5T5S1j4j4j4j4j4j4j4R1Q1j4t2w3m3l3R3P1:2O1N1r5r5r5r5r5r5r5M1L1q1X1p1V1K1J1I1H1  ",
"  b7G1L5B5A5J5I5r4H5;5F1E1D1C1D1B1A153;1j4t2S3R3Q3P3V2:10391817161e45141312152p1V1K1J11101z0z6  ",
"    g7y0J5I5I5H5;5Y495p4o4X4W4C4A4x0x3w0j4t2Q323C3B303z2v0n2G2d2R2F2E26252p1W1u0J1t011s0r0g7    ",
"    d7q0I5H5;5Y495p3o4X4W4C4B4A4x3m3D3p0j4M4C31303z2o2n2G2d2R2F2F262q1p1W1u0o0n011s0s0s0m0d7    ",
"      g7l0Y4:5p3p4X4W4C4B4A4x3w3D3R3k0j0j4M4f291o2n2e2d2R2i0F262q1X1W1V1o0n011s0s0s0s0h0g7      ",
"      c7g095p4X3W3G3C4A4x3w3m3l3R3Q3C3;1j4M4o2n2e2d2S2R2F262q1X1p1V1K1J111s0s0s0s0s0f0e0d0      ",
"        g7c0W3G3C4A4W2w3m3S3R3Q3P3C3B3b0j4M4e2G2a0R2F2E22152p1V1K1J111Z0s0s0s0s0s0s0Y0g7        ",
"        i5j5X0A4x0x3m3D3R3Q3P3C3B303o2W0j4M4d2R2F2E26252p1W1K1J1t011s0s0s0s0s0s0s0V0U0i5        ",
"          j6T0S0m3D3R3Q323C31303z2o2n2R0Q0P0F2F262q1p1W1u0o0t011s0s0s0s0s0s0s0s0O0N0d0          ",
"            k6M0k3k0Q3C31303z2o2n2e2d2R2r1F262q1X1W1V1o0n011s0s0s0s0s0s0s0s0s0L0K0k6            ",
"              g7J0I013f203o2n2e2d2S2R2F262q1X1H0V1K1J111s0s0s0s0s0s0s0s0s0s0O0K0g7              ",
"                k6G0F0o2T2e2d2S2R2F2E2q1X1p1V1K1J111Z0s0s0s0s0s0s0s0s0s0s0E0N0k6                ",
"                  d0D0C0B0d2R2F2E26252p1V1K1J1t011s0s0s0s0s0s0s0s0s0s0f0Y0U0d0                  ",
"                    i5g7A0;0E26252p1W1u0J1t011s0s0s0s0s0s0s0s0s0s0s0h0e0g7i5                    ",
"                        d0g7:09080u0o0n011s0s0s0s0s0s0s0s0s0s0f0r0m0g7d0                        ",
"                            d7g7z0706050s0s0s0s0s0s0s0s0504070z0g7d7                            ",
"                                d7H1g7j33020100000102030j3g7H1z6                                ",
"                                      g7N3M3d0c7c7d0M3N3g7                                      "};
