/* XPM */
static char *image[] = {
"32 32 233 2",
"   c None",
"00 c #5a5a5a",
"10 c #1c1c1c",
"20 c #757574",
"30 c #191919",
"40 c #f1f1f1",
"50 c #50504f",
"60 c #4e4e4e",
"70 c #605f5f",
"80 c #313131",
"90 c #4d4d4d",
":0 c #373737",
";0 c #343433",
"A0 c #3a3a3a",
"B0 c #9c9c9c",
"C0 c #c6c6c6",
"D0 c #5b5b5b",
"E0 c #c2c2c1",
"F0 c #424242",
"G0 c #070707",
"H0 c #262626",
"I0 c #f6f6f6",
"J0 c #707070",
"K0 c #161615",
"L0 c #050505",
"M0 c #a1a1a1",
"N0 c #282828",
"O0 c #2f2f2f",
"P0 c #6b6b6b",
"Q0 c #404040",
"R0 c #7d7d7d",
"S0 c #000101",
"T0 c #929191",
"U0 c #e1e0df",
"V0 c #333233",
"W0 c #505050",
"X0 c #161616",
"Y0 c #929291",
"Z0 c #e0e0df",
"a0 c #2d2d2d",
"b0 c #060606",
"c0 c #8f8f8f",
"d0 c #141414",
"e0 c #9a9a99",
"f0 c #dfdede",
"g0 c #272727",
"h0 c #000000",
"i0 c #8a8a8a",
"j0 c #131313",
"k0 c #a0a1a0",
"l0 c #dadad9",
"m0 c #232323",
"n0 c #868686",
"o0 c #111111",
"p0 c #a7a6a6",
"q0 c #d6d6d5",
"r0 c #1e1e1e",
"s0 c #828282",
"t0 c #adacab",
"u0 c #d3d3d1",
"v0 c #202020",
"w0 c #1d1d1d",
"x0 c #383838",
"y0 c #131009",
"z0 c #7f7f7f",
"01 c #101010",
"11 c #b2b2b0",
"21 c #aeadac",
"31 c #121212",
"41 c #d9dbdf",
"51 c #927d3d",
"61 c #221b06",
"71 c #808080",
"81 c #333334",
"91 c #828284",
":1 c #b6aa87",
";1 c #b69a3e",
"A1 c #30270c",
"B1 c #0b0b0b",
"C1 c #919191",
"D1 c #ffffff",
"E1 c #151518",
"F1 c #141411",
"G1 c #776323",
"H1 c #a9903e",
"I1 c #d9b951",
"J1 c #bb9f44",
"K1 c #231c07",
"L1 c #1a1a1a",
"M1 c #616161",
"N1 c #e8e8ef",
"O1 c #8a825a",
"P1 c #332809",
"Q1 c #211a06",
"R1 c #86712f",
"S1 c #ebc858",
"T1 c #eecb5a",
"U1 c #9f8739",
"V1 c #1d1705",
"W1 c #151517",
"X1 c #b7b7b3",
"Y1 c #fbfab5",
"Z1 c #ffff83",
"a1 c #d3bb53",
"b1 c #564a1d",
"c1 c #79672a",
"d1 c #ab913e",
"e1 c #d2b24e",
"f1 c #d2b34e",
"g1 c #695823",
"h1 c #171201",
"i1 c #181406",
"j1 c #5d4f1a",
"k1 c #ffff90",
"l1 c #fdf47c",
"m1 c #b79c44",
"n1 c #79662a",
"o1 c #645421",
"p1 c #87722f",
"q1 c #a48c3b",
"r1 c #907832",
"s1 c #806c2c",
"t1 c #100c00",
"u1 c #100d00",
"v1 c #8b7933",
"w1 c #e9d567",
"x1 c #f5d15c",
"y1 c #e9ca5a",
"z1 c #b69b43",
"02 c #655522",
"12 c #4f4218",
"22 c #4d4017",
"32 c #9f8638",
"42 c #b39841",
"52 c #715f27",
"62 c #261d07",
"72 c #988036",
"82 c #d6b650",
"92 c #fce36b",
":2 c #efd460",
";2 c #af9541",
"A2 c #6c5b24",
"B2 c #34290c",
"C2 c #a68d3c",
"D2 c #af943f",
"E2 c #665622",
"F2 c #1e1805",
"G2 c #917d36",
"H2 c #d6b750",
"I2 c #f6d35e",
"J2 c #e6c456",
"K2 c #cab04b",
"L2 c #292008",
"M2 c #2c240a",
"N2 c #816d2d",
"O2 c #a38b3b",
"P2 c #aa913e",
"Q2 c #5b4d1d",
"R2 c #201806",
"S2 c #85702e",
"T2 c #ecd460",
"U2 c #ffff8b",
"V2 c #cbb24e",
"W2 c #2a2209",
"X2 c #2d240b",
"Y2 c #826e2d",
"Z2 c #a08839",
"a2 c #a58c3c",
"b2 c #413613",
"c2 c #5b4d1e",
"d2 c #ffff82",
"e2 c #cbb14d",
"f2 c #261e07",
"g2 c #2f270c",
"h2 c #806c2d",
"i2 c #a48b3b",
"j2 c #625321",
"k2 c #58491b",
"l2 c #ffff81",
"m2 c #c8af4c",
"n2 c #271f08",
"o2 c #32290c",
"p2 c #594b1d",
"q2 c #86712b",
"r2 c #4b463b",
"s2 c #58491a",
"t2 c #ffff85",
"u2 c #ffff8e",
"v2 c #ffff80",
"w2 c #c5ad4c",
"x2 c #342b0d",
"y2 c #30270b",
"z2 c #816f2f",
"03 c #737375",
"13 c #343332",
"23 c #57491a",
"33 c #ffff84",
"43 c #ffff92",
"53 c #f6e46b",
"63 c #b79c43",
"73 c #1d1600",
"83 c #24211a",
"93 c #757472",
":3 c #646360",
";3 c #6f5c24",
"A3 c #e9d562",
"B3 c #ffff89",
"C3 c #8b8270",
"D3 c #181614",
"E3 c #3a3937",
"F3 c #666562",
"G3 c #4f4f4e",
"H3 c #3e3c2e",
"I3 c #a8a9b3",
"J3 c #adadae",
"K3 c #737371",
"L3 c #14110d",
"M3 c #4f4d48",
"N3 c #666665",
"O3 c #1f1f1f",
"P3 c #858685",
"Q3 c #a9a9a8",
"R3 c #62615e",
"S3 c #181610",
"T3 c #646362",
"U3 c #494948",
"V3 c #4a4a4a",
"W3 c #cecdce",
"X3 c #767574",
"Y3 c #1b1b1b",
"Z3 c #61615f",
"a3 c #a2a2a2",
"b3 c #a6a6a6",
"  b3a3                                                          ",
"Z3Y3X3W3V3                                                      ",
"U3T3S3R3Q3P3O3                                                  ",
"  N3M3L3K3J3I3H3                                                ",
"  G3F3E3D3C3B3B3A3;3                                            ",
"    :39383736353433323                                          ",
"    1303z2y2x2w2v2u2t2s2                                        ",
"      r2q2p2o2n2m2l2u233k2                                      ",
"        j2i2h2g2f2e2d2u233c2                                    ",
"        b2a2Z2Y2X2W2V2l2U2T2S2R2                                ",
"          Q2P2O2N2M2L2K2J2I2H2G2F2                              ",
"            E2D2C2Y2B2A2;2:292827262                            ",
"              524232221202z1y1x1w1v1u1                          ",
"              t1s1r1q1p1o1n1m1l1k1l2j1i1                        ",
"                h1g1f1e1d1c1b1a1Z1Y1X1W1                        ",
"                  V1U1T1S1R1Q1P1O1N1M1L1                        ",
"                    K1J1I1H1G1F1E1D1C1B1                        ",
"                      A1a2;1:19181L1D171                        ",
"                        61514131211101D1z0                      ",
"                          y0x0w0v0u0t001D1s0                    ",
"                            Y3    r0q0p0o0D1n0                  ",
"                                    m0l0k0j0D1i0h0              ",
"                                      g0f0e0d0D1c0b0            ",
"                                        a0Z0Y0X0D1W0h0          ",
"                                          V0U0T0S0R0a3h0        ",
"                                            Q0P0O0N0D1M0L0      ",
"                                              K0f0J0m0I0H0G0    ",
"                                                F0E0D0h0C0B0    ",
"                                                  A0b0;0:0D190  ",
"                                                    8070605040  ",
"                                                      30201000  ",
"                                                        w0m0L1  "};
