/* XPM */
static char *image[] = {
"64 64 267 2",
"   c None",
"00 c #764134",
"10 c #ae604c",
"20 c #ae604d",
"30 c #5bb13d",
"40 c #5cb03e",
"50 c #59af28",
"60 c #b56450",
"70 c #b66751",
"80 c #63c12e",
"90 c #5eb23a",
":0 c #af5947",
";0 c #56a827",
"A0 c #eff5ea",
"B0 c #7e4638",
"C0 c #ae5847",
"D0 c #5bbc29",
"E0 c #b15d4b",
"F0 c #61bf2c",
"G0 c #61bd2c",
"H0 c #b87164",
"I0 c #fafdfa",
"J0 c #5bb229",
"K0 c #bee3b0",
"L0 c #b35f4c",
"M0 c #7bc85c",
"N0 c #b66451",
"O0 c #ae5746",
"P0 c #a05747",
"Q0 c #bb776b",
"R0 c #ecdad6",
"S0 c #52b629",
"T0 c #4e9824",
"U0 c #fdfbfa",
"V0 c #78c759",
"W0 c #b1614f",
"X0 c #aedc9d",
"Y0 c #fafcf9",
"Z0 c #45861f",
"a0 c #fdfdfc",
"b0 c #61c02c",
"c0 c #5cbd2a",
"d0 c #62be2d",
"e0 c #7d4537",
"f0 c #e3c7c2",
"g0 c #c6e7b9",
"h0 c #b05f51",
"i0 c #5fbf2b",
"j0 c #ae5948",
"k0 c #54b829",
"l0 c #63c22e",
"m0 c #62bf2d",
"n0 c #b3604d",
"o0 c #b66450",
"p0 c #fcfafa",
"q0 c #57b928",
"r0 c #47a10d",
"s0 c #b46450",
"t0 c #b76652",
"u0 c #b46555",
"v0 c #b76551",
"w0 c #ab5444",
"x0 c #fbfdfa",
"y0 c #5ebe25",
"z0 c #b76552",
"01 c #b36556",
"11 c #b56554",
"21 c #b35e4c",
"31 c #53b728",
"41 c #b86652",
"51 c #b66552",
"61 c #af685e",
"71 c #af665c",
"81 c #af645a",
"91 c #e2cbc9",
":1 c #fdfefd",
";1 c #5dbd2a",
"A1 c #4cad0e",
"B1 c #af6251",
"C1 c #b0655a",
"D1 c #a75a51",
"E1 c #e4f3de",
"F1 c #ae645b",
"G1 c #ae6359",
"H1 c #e5d1cf",
"I1 c #67bf45",
"J1 c #2267a2",
"K1 c #af675d",
"L1 c #b0655b",
"M1 c #a95c54",
"N1 c #53b729",
"O1 c #ac6d65",
"P1 c #af6c62",
"Q1 c #af655b",
"R1 c #a2564f",
"S1 c #53b828",
"T1 c #62c02b",
"U1 c #377c0a",
"V1 c #ae6d63",
"W1 c #ad675d",
"X1 c #f4ecec",
"Y1 c #51b627",
"Z1 c #62c12d",
"a1 c #63c12d",
"b1 c #4fb30f",
"c1 c #12577a",
"d1 c #2990c4",
"e1 c #a9665c",
"f1 c #7cb44a",
"g1 c #62c02c",
"h1 c #50b50f",
"i1 c #1d88bd",
"j1 c #937376",
"k1 c #d09c72",
"l1 c #63c02d",
"m1 c #56ba17",
"n1 c #1e8cc4",
"o1 c #ac6d64",
"p1 c #a45d55",
"q1 c #c88250",
"r1 c #71b82f",
"s1 c #5ebe24",
"t1 c #1d89be",
"u1 c #a35e55",
"v1 c #bf6f32",
"w1 c #66c02e",
"x1 c #64c22e",
"y1 c #60bf28",
"z1 c #50b60f",
"02 c #104966",
"12 c #ad6d63",
"22 c #a15a52",
"32 c #c27534",
"42 c #ca853b",
"52 c #ca863b",
"62 c #7ea727",
"72 c #4fb40f",
"82 c #1e8bc9",
"92 c #9f5952",
":2 c #c77f38",
";2 c #ad761f",
"A2 c #7b9112",
"B2 c #52b510",
"C2 c #51b610",
"D2 c #51b710",
"E2 c #4fb20f",
"F2 c #1e8bc8",
"G2 c #c39b98",
"H2 c #ab685e",
"I2 c #fdfcfb",
"J2 c #dac9b4",
"K2 c #a16f13",
"L2 c #a27113",
"M2 c #a17213",
"N2 c #9f7317",
"O2 c #1d8dca",
"P2 c #d8e6f2",
"Q2 c #a25c54",
"R2 c #a66057",
"S2 c #955f13",
"T2 c #957f33",
"U2 c #2a85c5",
"V2 c #f2eae9",
"W2 c #d3b3b0",
"X2 c #fdfcfc",
"Y2 c #a06d13",
"Z2 c #a27114",
"a2 c #888d51",
"b2 c #fafcfd",
"c2 c #f7f1f1",
"d2 c #ac695f",
"e2 c #a8645b",
"f2 c #aa6b65",
"g2 c #6d3d19",
"h2 c #854a1a",
"i2 c #9c6815",
"j2 c #a27014",
"k2 c #a37114",
"l2 c #a07219",
"m2 c #888d52",
"n2 c #888e53",
"o2 c #848a51",
"p2 c #2092cd",
"q2 c #1d7fc2",
"r2 c #c69c98",
"s2 c #a45f56",
"t2 c #aa685e",
"u2 c #ad6b61",
"v2 c #af6d63",
"w2 c #ae6c62",
"x2 c #ac6a60",
"y2 c #a7635a",
"z2 c #a05951",
"03 c #faf7f7",
"13 c #fdfdfd",
"23 c #804719",
"33 c #854a1b",
"43 c #606e6d",
"53 c #166892",
"63 c #1d8dc9",
"73 c #3c8eca",
"83 c #fefefe",
"93 c #fdfbfb",
":3 c #d5b7b4",
";3 c #a05b54",
"A3 c #a35d54",
"B3 c #a56158",
"C3 c #a66158",
"D3 c #a76259",
"E3 c #a35d55",
"F3 c #a25b53",
"G3 c #b8847f",
"H3 c #f5efee",
"I3 c #fefdfd",
"J3 c #6f3e19",
"K3 c #844a1b",
"L3 c #606d6b",
"M3 c #5e6d6d",
"N3 c #1d7ec2",
"O3 c #fbfcfd",
"P3 c #fafbfc",
"Q3 c #1e5794",
"R3 c #62a2d3",
"S3 c #fcfdfe",
"T3 c #fafbfd",
"U3 c #3c699f",
"V3 c #1d5f9c",
"W3 c #5b6969",
"X3 c #1e8ec6",
"Y3 c #1f90cb",
"Z3 c #1c8bc8",
"a3 c #1d81c4",
"b3 c #80b5dc",
"c3 c #fdfefe",
"d3 c #ffffff",
"e3 c #fdfdfe",
"f3 c #f9fbfd",
"g3 c #6baad6",
"h3 c #1d82c4",
"i3 c #1d619e",
"j3 c #1f66a2",
"k3 c #5b6d72",
"l3 c #1f91cc",
"m3 c #1d8eca",
"n3 c #1d88c8",
"o3 c #1c87c7",
"p3 c #1d8cc9",
"q3 c #1e8eca",
"r3 c #1e90cb",
"s3 c #2168a2",
"t3 c #2069a4",
"u3 c #606f6f",
"v3 c #2080ba",
"w3 c #5f6e6f",
"x3 c #5f6e6e",
"y3 c #2091cb",
"z3 c #556d76",
"04 c #1f67a3",
"14 c #2068a4",
"24 c #2067a3",
"34 c #1d6097",
"44 c #1f91ca",
"54 c #1f92cb",
"64 c #2092cc",
"74 c #2093cd",
"84 c #1f92cc",
"94 c #1f91cb",
"                                                                                                                                ",
"                                                                                                                                ",
"                                                        948484747464848454                                                      ",
"                                              84847474747474747474747474747474748444                                            ",
"                                        84747474747474747474747474747474747474747474747484                                      ",
"                                  342464747474747474747474747474747474747474747474747474747484                                  ",
"                              34141414647474747474747474747474747474747474747474747474747474747484                              ",
"                            04141414146474747474747474747474747474747474747474747474747474747474747484                          ",
"                        z3141414141414y37474747474747474747474747474747474747474747474747474747474747474                        ",
"                      x3w3141414141414v374747474747474747474747474747474747474747474747474747474747474747454                    ",
"                    x3u3u3141414141414t37474747474747474747474747474747474747474747474747474747474747474747494                  ",
"                  x3u3u3u3s3141414141414748484r3q3p3o3n3n3n3o3p3m3r3l3847474747474747474747474747474747474747494                ",
"                x3u3u3u3u3k314141404j3i3h3g3f3e3d3d3d3d3d3d3d3d3d3c3f3b3a3Z3Y38474747474747474747474747474747474X3              ",
"              W3u3u3u3u3u3w324j3V3U3T3d3d3d3d3d3d3d3d3d3d3d3d3d3d3d3d3d3d3d3S3R3o3r3847474747474747474747474747474              ",
"              u3u3u3u3u3u3x3Q3P3d3d3d3d3d3d3d3d3d3d3d3d3d3d3d3d3d3d3d3d3d3d3d3d3d3O3N3m38474747474747474747474747484            ",
"            M3u3u3u3u3u3L3K3J3d3d3d3d3d3d3d3d3d3d3d3d3d3I3H3G3F3E3D3C3D3B3A3;3:39383d3c3736384747474747474747474747453          ",
"            u3u3u3u343K333332313d3d3d3d3d3d3d3d3d303z2y2x2w2w2v2v2v2v2v2v2v2v2w2u2t2s2r2I3c3q2r3p274747474747474747464          ",
"          o2n2n2m2l2k2j2j2i2h2g2d3d3d3d3d3d3I3f2e2u2w2v2v2v2v2v2v2v2v2v2v2v2v2v2v2v2v2w2d2A3c2b2o384747474747474747474          ",
"          n2n2a2Z2k2k2k2k2k2k2Y2X2d3d3d3d3d3W2w2v2v2v2v2v2v2v2v2v2v2v2v2v2v2v2v2v2v2v2v2v2v2u2C3V2U2r3747474747474747444        ",
"          n2T2k2k2k2k2k2k2k2k2j2S2d3d3d3d3d3d3R2w2v2v2v2v2v2v2v2v2v2v2v2v2v2v2v2v2v2v2v2v2v2v2v2u2Q2P2O2p274747474747474        ",
"          N2M2M2L2k2k2k2k2k2k2k2K2J2d3d3d3d3d3I2d2v2v2v2v2v2v2v2v2v2v2v2v2v2v2v2v2v2v2v2v2v2v2v2v2w2H2G2F284747474747474        ",
"        E2D2D2D2D2D2C2B2A2L2k2k2;2:2I3d3d3d3d3d3G3u2v2v2v2v2v2v2v2v2v2v2v2v2v2v2v2v2v2v2v2v2v2v2v2v2v2u29282747474747474        ",
"        72D2D2D2D2D2D2D2D2D2C26252423283d3d3d3d3d322w2v2v2v2v2v2v2v2v2v2v2v2v2v2v2v2v2v2v2v2v2v2v2v2v2v2w21264747474747402      ",
"        z1D2D2D2D2D2D2D2D2D2y1x1x1w152v1d3d3d3d3d383u1w2v2v2v2v2v2v2v2v2v2v2v2v2v2v2v2v2v2v2v2v2v2v2v2v2v2v2126474747474t1      ",
"        z1D2D2D2D2D2D2D2D2s1x1x1x1x1x1r1q1d3d3d3d3d383p1w2v2v2v2v2v2v2v2v2v2v2v2v2v2v2v2v2v2v2v2v2v2v2v2v2v2v2o174747474n1      ",
"        z1D2D2D2D2D2D2D2m1x1x1x1x1x1x1x1l1k1d3d3d3d3d383D3w2v2v2v2v2v2v2v2v2v2v2v2v2v2v2v2v2v2v2v2v2v2v2v2v2v2v2j1747474i1      ",
"        h1D2D2D2D2D2D2D2x1x1x1x1x1x1x1x1x1g1f1d3d3d3d3d313e1v2v2v2v2v2v2v2v2v2v2v2v2v2v2v2v2v2v2v2v2v2v2v2v2v2v2v2d17474c1      ",
"        b1D2D2D2D2D2D2a1x1x1x1x1x1x1x1x1x1x1Z1Y1d3d3d3d3d3X1W1v2v2v2v2v2v2v2v2v2v2v2v2v2v2v2v2v2v2v2v2v2v2v2v2v2v2V16474        ",
"        U1D2D2D2D2D2T1x1x1x1x1x1x1x1x1x1x1x1x1a1S183d3d3d3d3R1Q1P1v2v2v2v2v2v2v2v2v2v2v2v2v2v2v2v2v2v2v2v2v2v2v2v2v2O164        ",
"          D2D2D2D2D2x1x1x1x1x1x1x1x1x1x1x1x1x1x1a1N1d3d3d3d383M1L1Q1P1v2v2v2v2v2v2v2v2v2v2v2v2v2v2v2v2v2v2v2v2v2v2P1K1J1        ",
"          D2D2D2D2a1x1x1x1x1x1x1x1x1x1x1x1x1x1x1x1Z1I1d3d3d3d3H1G1L1L1Q1P1v2v2v2v2v2v2v2v2v2v2v2v2v2v2v2v2v2v2P1Q1L1L1F1        ",
"          z1D2D2D2x1x1x1x1x1x1x1x1x1x1x1x1x1x1x1x1x1g1E1d3d3d3d3D1L1L1L1L1L1Q1P1P1v2v2v2v2v2v2v2v2v2v2P1P1K1Q1L1L1L1C1B1        ",
"          A1D2D2a1x1x1x1x1x1x1x1x1x1x1x1x1x1x1x1x1x1x1;1:1d3d3d39181L1L1L1L1L1L1L1L1Q1Q1716161K1Q1Q1L1L1L1L1L1L1C15141          ",
"            D2D2x1x1x1x1x1x1x1x1x1x1x1x1x1x1x1x1x1x1x1a131d3d3d3832111C1L1L1L1L1L1L1L1L1L1L1L1L1L1L1L1L1L1C101z0414141          ",
"            z1y0x1x1x1x1x1x1x1x1x1x1x1x1x1x1x1x1x1x1x1x1g1x0d3d3d3w0v04141z0u0C1C1C1L1L1L1L1L1L1C1C101z0t04141414141s0          ",
"            r0a1x1x1x1x1x1x1x1x1x1x1x1x1x1x1x1x1x1x1x1x1x1q0d3d3d3p0o04141414141414141414141414141414141414141414141            ",
"              x1x1x1x1x1x1x1x1x1x1x1x1x1x1x1x1x1x1x1x1x1x1g1x0d3d3d3n041414141414141414141414141414141414141414141v0            ",
"              m0x1x1x1x1x1x1x1x1x1x1x1x1x1x1x1x1x1x1x1x1x1l0k0d3d3d3j041414141414141414141414141414141414141414141              ",
"                x1x1x1x1x1x1x1x1x1x1x1x1x1x1x1x1x1x1x1x1x1x1i083d3d3h0v04141414141414141414141414141414141414141v0              ",
"                m0x1x1x1x1x1x1x1x1x1x1x1x1x1x1x1x1x1x1x1x1x1a1g0d3d3f0v04141414141414141414141414141414141414141e0              ",
"                  x1x1x1x1x1x1x1x1x1x1x1x1x1x1x1x1x1x1x1x1x1x1S1d3d3p0v041414141414141414141414141414141414141v0                ",
"                  d0x1x1x1x1x1x1x1x1x1x1x1x1x1x1x1x1x1x1x1x1x1c0d3d3X2o041414141414141414141414141414141414141                  ",
"                    x1x1x1x1x1x1x1x1x1x1x1x1x1x1x1x1x1x1x1x1x1b0:1d3a0o0414141414141414141414141414141414141v0                  ",
"                    Z0x1x1x1x1x1x1x1x1x1x1x1x1x1x1x1x1x1x1x1x1a1Y0d3a0o0414141414141414141414141414141414141                    ",
"                      a1x1x1x1x1x1x1x1x1x1x1x1x1x1x1x1x1x1x1x1a1X0d3X2o04141414141414141414141414141414141W0                    ",
"                        x1x1x1x1x1x1x1x1x1x1x1x1x1x1x1x1x1x1x1l0V0d3U0o041414141414141414141414141414141v0                      ",
"                        T0x1x1x1x1x1x1x1x1x1x1x1x1x1x1x1x1x1x1x1S0d3R0v041414141414141414141414141414141                        ",
"                          l1x1x1x1x1x1x1x1x1x1x1x1x1x1x1x1x1x1x1S0d3Q0v0414141414141414141414141414141P0                        ",
"                            a1x1x1x1x1x1x1x1x1x1x1x1x1x1x1x1x1x1S0d3O0414141414141414141414141414141N0                          ",
"                              x1x1x1x1x1x1x1x1x1x1x1x1x1x1x1x1l0M0d3L04141414141414141414141414141v0                            ",
"                                x1x1x1x1x1x1x1x1x1x1x1x1x1x1x1a1K0I2o04141414141414141414141414141                              ",
"                                J0x1x1x1x1x1x1x1x1x1x1x1x1x1x1Z1I0H0v041414141414141414141414141                                ",
"                                  G0x1x1x1x1x1x1x1x1x1x1x1x1x1F083E041414141414141414141414141                                  ",
"                                    m0x1x1x1x1x1x1x1x1x1x1x1x1D003o0414141414141414141414141e0                                  ",
"                                      m0x1x1x1x1x1x1x1x1x1x1l031C0414141414141414141414141B0                                    ",
"                                        G0x1x1x1x1x1x1x1x1x1a1A0o04141414141414141414141                                        ",
"                                          ;0x1x1x1x1x1x1x1x1i0:04141414141414141414141                                          ",
"                                              x1x1x1x1x1x1x190v0414141414141414141v0                                            ",
"                                                a1x1x1x1x1807041414141414141414160                                              ",
"                                                  50x1x180404141414141414141v0                                                  ",
"                                                      m030704141414141414120                                                    ",
"                                                          10v0414141v000                                                        ",
"                                                                                                                                ",
"                                                                                                                                "};
