/* XPM */
static char *image[] = {
"48 48 870 2",
"   c None",
"00 c #4d514a",
"10 c #545751",
"20 c #545750",
"30 c #4d514b",
"40 c #747670",
"50 c #868984",
"60 c #90918c",
"70 c #959692",
"80 c #979994",
"90 c #999a96",
":0 c #9a9c97",
";0 c #9c9e99",
"A0 c #a7a8a4",
"B0 c #a9aaa6",
"C0 c #acaeaa",
"D0 c #aeafac",
"E0 c #b0b1ae",
"F0 c #b2b3af",
"G0 c #b4b5b2",
"H0 c #b5b6b3",
"I0 c #b7b8b5",
"J0 c #b9bab7",
"K0 c #bbbcb9",
"L0 c #bdbebb",
"M0 c #bebfbd",
"N0 c #c2c3c0",
"O0 c #c4c5c2",
"P0 c #c6c7c4",
"Q0 c #c8c8c6",
"R0 c #c9cac8",
"S0 c #cdcecb",
"T0 c #cecfcd",
"U0 c #c5c6c3",
"V0 c #9d9f9a",
"W0 c #575b54",
"X0 c #83857f",
"Y0 c #92948f",
"Z0 c #959693",
"a0 c #8d8f8b",
"b0 c #868783",
"c0 c #848680",
"d0 c #b3b4b0",
"e0 c #5a5e58",
"f0 c #52554f",
"g0 c #747771",
"h0 c #858781",
"i0 c #787974",
"j0 c #737470",
"k0 c #92d151",
"l0 c #b6b8b4",
"m0 c #a0a29e",
"n0 c #5a5d57",
"o0 c #555851",
"p0 c #888a84",
"q0 c #7a7c76",
"r0 c #848682",
"s0 c #9fd665",
"t0 c #d7eebf",
"u0 c #5e625a",
"v0 c #52564f",
"w0 c #90928d",
"x0 c #7a7b76",
"y0 c #72746f",
"z0 c #676964",
"01 c #6b6d68",
"11 c #80827c",
"21 c #d9d9d8",
"31 c #5f625b",
"41 c #92938e",
"51 c #828480",
"61 c #999999",
"71 c #989898",
"81 c #979797",
"91 c #959595",
":1 c #949494",
";1 c #929292",
"A1 c #919191",
"B1 c #909090",
"C1 c #8e8e8e",
"D1 c #8d8d8d",
"E1 c #8c8c8c",
"F1 c #898a88",
"G1 c #80827d",
"H1 c #848580",
"I1 c #dbdcdb",
"J1 c #62665f",
"K1 c #999a99",
"L1 c #1e221b",
"M1 c #1f221c",
"N1 c #878887",
"O1 c #888a85",
"P1 c #dcdddb",
"Q1 c #656961",
"R1 c #7b7d77",
"S1 c #969695",
"T1 c #8b8b8b",
"U1 c #8c8e89",
"V1 c #dededd",
"W1 c #686c64",
"X1 c #989994",
"Y1 c #0a0c07",
"Z1 c #1e2715",
"a1 c #1e2714",
"b1 c #1d2714",
"c1 c #1e2915",
"d1 c #24361c",
"e1 c #1d2614",
"f1 c #090c06",
"g1 c #090b06",
"h1 c #898989",
"i1 c #91928d",
"j1 c #dfe0de",
"k1 c #6b6e67",
"l1 c #999b96",
"m1 c #242e19",
"n1 c #232d19",
"o1 c #26341b",
"p1 c #6e8f69",
"q1 c #a2c09f",
"r1 c #a2c0a0",
"s1 c #a2bfa0",
"t1 c #a1c09f",
"u1 c #60825b",
"v1 c #212c17",
"w1 c #202a17",
"x1 c #090c07",
"y1 c #959792",
"z1 c #6d7169",
"02 c #9b9d98",
"12 c #969796",
"22 c #232d18",
"32 c #232d17",
"42 c #222d17",
"52 c #25341a",
"62 c #89aa85",
"72 c #eefaee",
"82 c #f1fbf1",
"92 c #ebf9eb",
":2 c #759570",
";2 c #222c17",
"A2 c #222b17",
"B2 c #212b17",
"C2 c #212a17",
"D2 c #0b0e07",
"E2 c #0a0d07",
"F2 c #858585",
"G2 c #949591",
"H2 c #9a9b97",
"I2 c #e1e2e1",
"J2 c #70746c",
"K2 c #979796",
"L2 c #2a361d",
"M2 c #2a351d",
"N2 c #2a351c",
"O2 c #2b361d",
"P2 c #4d6743",
"Q2 c #65865e",
"R2 c #4b6d42",
"S2 c #29351c",
"T2 c #29341c",
"U2 c #28331c",
"V2 c #28321b",
"W2 c #0c0f08",
"X2 c #0b0e08",
"Y2 c #989a95",
"Z2 c #9d9f9b",
"a2 c #73776f",
"b2 c #a0a19d",
"c2 c #28341b",
"d2 c #28331b",
"e2 c #28321a",
"f2 c #27321a",
"g2 c #27311a",
"h2 c #26311a",
"i2 c #0d1009",
"j2 c #0c1008",
"k2 c #818181",
"l2 c #9d9e9a",
"m2 c #a2a39f",
"n2 c #e4e5e3",
"o2 c #767971",
"p2 c #a1a39e",
"q2 c #323e21",
"r2 c #313e21",
"s2 c #313e20",
"t2 c #313d20",
"u2 c #303c20",
"v2 c #2f3c20",
"w2 c #303d20",
"x2 c #354b27",
"y2 c #2f3b1f",
"z2 c #0e1109",
"03 c #0d1109",
"13 c #a1a39f",
"23 c #a6a8a4",
"33 c #e5e6e5",
"43 c #797c74",
"53 c #a3a5a1",
"63 c #777973",
"73 c #7a7c77",
"83 c #979896",
"93 c #2d3a1e",
":3 c #2d391e",
";3 c #2d391d",
"A3 c #2d381d",
"B3 c #2d3a1f",
"C3 c #344c27",
"D3 c #618158",
"E3 c #5d8154",
"F3 c #2c381d",
"G3 c #2b381d",
"H3 c #2b371d",
"I3 c #0e1209",
"J3 c #abaca9",
"K3 c #7b8077",
"L3 c #a5a6a2",
"M3 c #787a74",
"N3 c #7c7e79",
"O3 c #989896",
"P3 c #10150b",
"Q3 c #11150b",
"R3 c #384725",
"S3 c #384625",
"T3 c #394a27",
"U3 c #415d32",
"V3 c #7a9d72",
"W3 c #bdd9ba",
"X3 c #e5f7e5",
"Y3 c #7c9f73",
"Z3 c #364424",
"a3 c #364423",
"b3 c #10140a",
"c3 c #0f130a",
"d3 c #7b7b7b",
"e3 c #afb1ad",
"f3 c #e8e8e7",
"g3 c #7e8279",
"h3 c #aaaaa7",
"i3 c #7d7f79",
"j3 c #81827d",
"k3 c #11160b",
"l3 c #334121",
"m3 c #334021",
"n3 c #323f21",
"o3 c #323f20",
"p3 c #323e20",
"q3 c #344624",
"r3 c #425f35",
"s3 c #82a47b",
"t3 c #c9e1c7",
"u3 c #f0fbf0",
"v3 c #ffffff",
"w3 c #7a9c72",
"x3 c #334022",
"y3 c #344123",
"z3 c #364325",
"04 c #13170e",
"14 c #12160d",
"24 c #afb0ad",
"34 c #e9eae8",
"44 c #81837e",
"54 c #858682",
"64 c #989997",
"74 c #12170c",
"84 c #405029",
"94 c #404f29",
":4 c #3f4f29",
";4 c #3f4e29",
"A4 c #3e4e28",
"B4 c #41582d",
"C4 c #547544",
"D4 c #91b489",
"E4 c #d5ebd3",
"F4 c #f3fcf3",
"G4 c #ecfaec",
"H4 c #d4ead4",
"I4 c #abcaa7",
"J4 c #6e9163",
"K4 c #4e5c3b",
"L4 c #4e5d3b",
"M4 c #4f5d3c",
"N4 c #181c12",
"O4 c #161a11",
"P4 c #777777",
"Q4 c #ebebea",
"R4 c #848780",
"S4 c #868882",
"T4 c #898b86",
"U4 c #13180d",
"V4 c #394725",
"W4 c #384724",
"X4 c #384624",
"Y4 c #374624",
"Z4 c #374524",
"a4 c #3b4f29",
"b4 c #82a479",
"c4 c #daf1d9",
"d4 c #e7f8e7",
"e4 c #def0de",
"f4 c #b2d0af",
"g4 c #90b089",
"h4 c #6d8b64",
"i4 c #526b43",
"j4 c #4f623f",
"k4 c #4b5a3b",
"l4 c #4c593b",
"m4 c #4d593c",
"n4 c #4f5b3d",
"o4 c #191e14",
"p4 c #181c13",
"q4 c #ececec",
"r4 c #868a81",
"s4 c #b8b9b6",
"t4 c #8a8c87",
"u4 c #8d8e8a",
"v4 c #14190d",
"w4 c #47592e",
"x4 c #47582e",
"y4 c #47582d",
"z4 c #46582d",
"05 c #46572d",
"15 c #475f31",
"25 c #a1c39b",
"35 c #e4f7e4",
"45 c #d0e9cd",
"55 c #96b78d",
"65 c #719462",
"75 c #5f7c4d",
"85 c #5c6f47",
"95 c #5c6b46",
":5 c #5b6a46",
";5 c #5c6b47",
"A5 c #5d6c48",
"B5 c #5e6c49",
"C5 c #5d6c4a",
"D5 c #1a1e14",
"E5 c #bcbdbb",
"F5 c #c0c2bf",
"G5 c #ededed",
"H5 c #8f918c",
"I5 c #91938e",
"J5 c #999a98",
"K5 c #151b0e",
"L5 c #161c0e",
"M5 c #3e4d28",
"N5 c #3d4d28",
"O5 c #3d4d27",
"P5 c #3c4c27",
"Q5 c #43572f",
"R5 c #7e9f73",
"S5 c #c8dfc5",
"T5 c #eefaef",
"U5 c #f5fcf5",
"V5 c #cae1c8",
"W5 c #a2c09c",
"X5 c #7e9d75",
"Y5 c #617952",
"Z5 c #5c6f4b",
"a5 c #5a6747",
"b5 c #5a6649",
"c5 c #5b684a",
"d5 c #1c2016",
"e5 c #eeefee",
"f5 c #8c8f87",
"g5 c #c0c1be",
"h5 c #939590",
"i5 c #969793",
"j5 c #171c0e",
"k5 c #4e6132",
"l5 c #4e6031",
"m5 c #4d6031",
"n5 c #4f6133",
"o5 c #5c6c42",
"p5 c #65744c",
"q5 c #66784f",
"r5 c #698356",
"s5 c #8bab7f",
"t5 c #bed9ba",
"u5 c #ecf9ec",
"v5 c #fbfdfc",
"w5 c #fafcfb",
"x5 c #effaf0",
"y5 c #ddf0db",
"z5 c #8fb084",
"06 c #6c7a55",
"16 c #6b7b55",
"26 c #6c7c56",
"36 c #20241a",
"46 c #1e2218",
"56 c #c8cac8",
"66 c #c5c5c3",
"76 c #989995",
"86 c #999b97",
"96 c #9a9b98",
":6 c #171d0f",
";6 c #181e0f",
"A6 c #43532b",
"B6 c #42532b",
"C6 c #42532a",
"D6 c #43542b",
"E6 c #50603a",
"F6 c #5d6c49",
"G6 c #5f6d4b",
"H6 c #606f4c",
"I6 c #606d4d",
"J6 c #616e4e",
"K6 c #627050",
"L6 c #677d55",
"M6 c #809e75",
"N6 c #b5d0b0",
"O6 c #eaf8e9",
"P6 c #fafdfa",
"Q6 c #f7fdf7",
"R6 c #9ab791",
"S6 c #677454",
"T6 c #687455",
"U6 c #687555",
"V6 c #202519",
"W6 c #6d6d6d",
"X6 c #91958c",
"Y6 c #c8c9c6",
"Z6 c #9c9e9a",
"a6 c #9e9f9b",
"b6 c #9a9c99",
"c6 c #191e0f",
"d6 c #1a2010",
"e6 c #566a36",
"f6 c #556936",
"g6 c #556935",
"h6 c #546935",
"i6 c #556a36",
"j6 c #5f7342",
"k6 c #6d7e52",
"l6 c #718158",
"m6 c #728258",
"n6 c #728359",
"o6 c #738359",
"p6 c #74845a",
"q6 c #74845c",
"r6 c #74855c",
"s6 c #75855d",
"t6 c #788d61",
"u6 c #87a476",
"v6 c #b5d0ad",
"w6 c #dff2df",
"x6 c #a2bf97",
"y6 c #798961",
"z6 c #7a8962",
"07 c #798863",
"17 c #22261b",
"27 c #94978f",
"37 c #535750",
"47 c #cccdcb",
"57 c #a1a29e",
"67 c #a2a3a0",
"77 c #999a97",
"87 c #192010",
"97 c #485a2e",
":7 c #48592e",
";7 c #4a5b30",
"A7 c #596841",
"B7 c #667450",
"C7 c #6a7854",
"D7 c #6a7855",
"E7 c #6b7955",
"F7 c #6c7956",
"G7 c #6c7957",
"H7 c #6d7a58",
"I7 c #6d7b59",
"J7 c #6e7b59",
"K7 c #6e7b5a",
"L7 c #6e7c5b",
"M7 c #707d5c",
"N7 c #717e5d",
"O7 c #727f5e",
"P7 c #738461",
"Q7 c #7c956e",
"R7 c #85a37a",
"S7 c #73815f",
"T7 c #748160",
"U7 c #748262",
"V7 c #24281d",
"W7 c #696969",
"X7 c #979a91",
"Y7 c #555952",
"Z7 c #d0d1ce",
"a7 c #a5a7a3",
"b7 c #a6a7a3",
"c7 c #979895",
"d7 c #1b2111",
"e7 c #1c2211",
"f7 c #5d733a",
"g7 c #5c723a",
"h7 c #637842",
"i7 c #6f8351",
"j7 c #7a8c5e",
"k7 c #7d8d61",
"l7 c #7c8e62",
"m7 c #7d8f63",
"n7 c #7e8f63",
"o7 c #7e9064",
"p7 c #7e8f64",
"q7 c #809165",
"r7 c #809166",
"s7 c #819167",
"t7 c #819168",
"u7 c #819269",
"v7 c #829369",
"w7 c #83936a",
"x7 c #83936b",
"y7 c #84946c",
"z7 c #84946d",
"08 c #86986e",
"18 c #87966f",
"28 c #87976f",
"38 c #282c21",
"48 c #262a1f",
"58 c #9a9d94",
"68 c #585c55",
"78 c #d3d4d2",
"88 c #aaaba8",
"98 c #aaaca8",
":8 c #969794",
";8 c #1b2211",
"A8 c #4e6131",
"B8 c #4f6233",
"C8 c #58693c",
"D8 c #63724a",
"E8 c #6f7d57",
"F8 c #73825d",
"G8 c #73825e",
"H8 c #75845f",
"I8 c #758460",
"J8 c #768461",
"K8 c #778561",
"L8 c #778462",
"M8 c #778562",
"N8 c #788663",
"O8 c #788763",
"P8 c #798765",
"Q8 c #798766",
"R8 c #7a8866",
"S8 c #7b8867",
"T8 c #7c8967",
"U8 c #7c8a68",
"V8 c #7d8a69",
"W8 c #7e8b6a",
"X8 c #7f8b6a",
"Y8 c #7f8c6b",
"Z8 c #7f8d6c",
"a8 c #808d6d",
"b8 c #818e6e",
"c8 c #2a2e22",
"d8 c #272c20",
"e8 c #9da097",
"f8 c #5b5f57",
"g8 c #d6d7d5",
"h8 c #aeb0ac",
"i8 c #afafad",
"j8 c #949592",
"k8 c #1d2312",
"l8 c #1e2513",
"m8 c #677e42",
"n8 c #6e834a",
"o8 c #758954",
"p8 c #7e915e",
"q8 c #859768",
"r8 c #869969",
"s8 c #86996a",
"t8 c #879a6b",
"u8 c #88996b",
"v8 c #87996c",
"w8 c #88996d",
"x8 c #899a6e",
"y8 c #8a9b6e",
"z8 c #8b9c6f",
"09 c #8a9b70",
"19 c #8a9c71",
"29 c #8b9c71",
"39 c #8c9d71",
"49 c #8d9e72",
"59 c #8e9e73",
"69 c #8e9e75",
"79 c #8f9f75",
"89 c #90a075",
"99 c #8fa076",
":9 c #90a077",
";9 c #91a178",
"A9 c #90a078",
"B9 c #91a179",
"C9 c #92a17a",
"D9 c #93a37b",
"E9 c #94a37b",
"F9 c #292e22",
"G9 c #9fa299",
"H9 c #5e615a",
"I9 c #dadbd9",
"J9 c #b3b4b1",
"K9 c #b1b2af",
"L9 c #929490",
"M9 c #252a1b",
"N9 c #282e1f",
"O9 c #7a8a62",
"P9 c #7b8a63",
"Q9 c #7b8b64",
"R9 c #7c8b65",
"S9 c #7c8c66",
"T9 c #7d8c67",
"U9 c #7f8e68",
"V9 c #7f8d69",
"W9 c #7e8e69",
"X9 c #7f8f6a",
"Y9 c #808f6a",
"Z9 c #818f6b",
"a9 c #81906c",
"b9 c #82916d",
"c9 c #83916e",
"d9 c #84926e",
"e9 c #84926f",
"f9 c #859370",
"g9 c #869471",
"h9 c #869472",
"i9 c #879473",
"j9 c #889674",
"k9 c #899775",
"l9 c #899675",
"m9 c #899676",
"n9 c #8a9777",
"o9 c #8b9778",
"p9 c #8c9878",
"q9 c #8c9a79",
"r9 c #2d3226",
"s9 c #2b3024",
"t9 c #60645d",
"u9 c #dddedd",
"v9 c #b7b9b6",
"w9 c #b6b7b4",
"x9 c #92938f",
"y9 c #282e20",
"z9 c #2b3022",
"0: c #8fa272",
"1: c #91a373",
"2: c #91a374",
"3: c #91a474",
"4: c #91a475",
"5: c #92a575",
"6: c #93a576",
"7: c #93a677",
"8: c #94a578",
"9: c #94a679",
":: c #95a779",
";: c #96a77a",
"A: c #97a87b",
"B: c #97a87c",
"C: c #96a87d",
"D: c #97a87d",
"E: c #99aa7e",
"F: c #99aa7f",
"G: c #9aab80",
"H: c #99aa80",
"I: c #9aaa80",
"J: c #9baa81",
"K: c #9cab81",
"L: c #9cac82",
"M: c #9cac83",
"N: c #9cac84",
"O: c #9dad85",
"P: c #9eae85",
"Q: c #9eae86",
"R: c #9fae86",
"S: c #2f3328",
"T: c #2d3126",
"U: c #63675f",
"V: c #e0e1df",
"W: c #bcbdba",
"X: c #b9bab9",
"Y: c #90918e",
"Z: c #2a3021",
"a: c #2c3223",
"b: c #86956d",
"c: c #86956e",
"d: c #86966f",
"e: c #879670",
"f: c #879671",
"g: c #889771",
"h: c #899872",
"i: c #8a9973",
"j: c #8b9a74",
"k: c #8c9a75",
"l: c #8b9a76",
"m: c #8c9b77",
"n: c #8d9c77",
"o: c #8e9d78",
"p: c #8d9c79",
"q: c #8e9c7a",
"r: c #8f9d7a",
"s: c #8f9d7b",
"t: c #909e7b",
"u: c #919e7d",
"v: c #919f7e",
"w: c #92a07e",
"x: c #93a07f",
"y: c #94a17f",
"z: c #94a280",
"0; c #95a281",
"1; c #96a382",
"2; c #97a483",
"3; c #98a584",
"4; c #2e3327",
"5; c #666a62",
"6; c #e3e4e3",
"7; c #c1c2bf",
"8; c #bebfbc",
"9; c #8e908c",
":; c #2c3123",
";; c #2e3425",
"A; c #9baf7d",
"B; c #9caf7e",
"C; c #9daf7f",
"D; c #9eb080",
"E; c #9daf81",
"F; c #9eb181",
"G; c #9fb181",
"H; c #9fb182",
"I; c #a0b283",
"J; c #9fb184",
"K; c #a0b184",
"L; c #a0b285",
"M; c #a1b385",
"N; c #a3b387",
"O; c #a2b387",
"P; c #a2b388",
"Q; c #a3b489",
"R; c #a4b589",
"S; c #a5b58a",
"T; c #a5b68b",
"U; c #a6b68c",
"V; c #a6b78c",
"W; c #a7b78c",
"X; c #a8b78d",
"Y; c #a7b88e",
"Z; c #a8b88f",
"a; c #a9b88f",
"b; c #a8b890",
"c; c #a9b891",
"d; c #aaba92",
"e; c #303429",
"f; c #696c65",
"g; c #e6e7e6",
"h; c #c5c6c4",
"i; c #c1c2c1",
"j; c #2d3224",
"k; c #2f3428",
"l; c #303529",
"m; c #313529",
"n; c #313629",
"o; c #606060",
"p; c #f1f1f0",
"q; c #6b6f68",
"r; c #e8e9e8",
"s; c #cacbc9",
"t; c #8e8f8c",
"u; c #4b533d",
"v; c #2e3325",
"w; c #2e3326",
"x; c #2e3426",
"y; c #2f3426",
"z; c #2f3427",
"0A c #303427",
"1A c #303428",
"2A c #303528",
"3A c #31362a",
"4A c #32362a",
"5A c #32362b",
"6A c #32372b",
"7A c #33382c",
"8A c #33372c",
"9A c #4f5744",
":A c #6c6d69",
";A c #cdcecc",
"AA c #72766f",
"BA c #e3e3e2",
"CA c #b8b8b7",
"DA c #8d8e8b",
"EA c #878787",
"FA c #868686",
"GA c #848484",
"HA c #838383",
"IA c #828282",
"JA c #808080",
"KA c #7f7f7f",
"LA c #7d7d7d",
"MA c #7c7c7c",
"NA c #7a7a7a",
"OA c #797979",
"PA c #787878",
"QA c #767676",
"RA c #757575",
"SA c #737373",
"TA c #727272",
"UA c #717171",
"VA c #6f6f6f",
"WA c #6e6e6e",
"XA c #6c6c6c",
"YA c #6b6b6b",
"ZA c #6a6a6a",
"aA c #686868",
"bA c #676767",
"cA c #656565",
"dA c #646464",
"eA c #636363",
"fA c #616161",
"gA c #6b6d69",
"hA c #b2b2b1",
"iA c #d2d3d1",
"jA c #ebebeb",
"kA c #a4a69e",
"lA c #777a73",
"mA c #c3c5c1",
"nA c #dfdfde",
"oA c #e5e5e4",
"pA c #d4d5d3",
"qA c #7d827a",
"rA c #e1e2e0",
"sA c #e0e0df",
"tA c #cfd0ce",
"uA c #cbccca",
"vA c #d0d1cf",
"wA c #e4e5e4",
"xA c #e9e9e8",
"yA c #a6a9a1",
"zA c #81847d",
"0B c #c8cac7",
"1B c #e8e9e7",
"2B c #f0f0ef",
"3B c #f0f1f0",
"4B c #f1f1f1",
"5B c #f2f2f1",
"6B c #f2f3f2",
"7B c #f3f3f3",
"8B c #edeeed",
"9B c #d6d7d3",
":B c #a7aaa1",
";B c #83867f",
"AB c #81847c",
"BB c #82867e",
"CB c #84877f",
"DB c #858981",
"EB c #878a82",
"FB c #898c84",
"GB c #8a8d85",
"HB c #8c8f86",
"IB c #8d9088",
"JB c #8f9289",
"KB c #90938b",
"LB c #92958c",
"MB c #93968e",
"NB c #95988f",
"OB c #969991",
"PB c #989b92",
"QB c #999c94",
"RB c #9b9e95",
"SB c #9c9f97",
"TB c #9ea198",
"UB c #9fa29a",
"VB c #a1a49b",
"WB c #a2a59c",
"XB c #a3a69e",
"YB c #a5a89f",
"                                                                                                ",
"                                                                                                ",
"                                                                                                ",
"        YBXBWBWBWBWBWBWBWBWBWBWBWBWBWBWBVBUBTBSBRBQBPBOBNBMBLBKBJBIBHBGBFBEBDBCBBBABBB;B        ",
"      :B9B8B7B7B7B7B7B7B7B7B7B7B7B7B7B7B7B7B7B7B7B7B7B7B7B7B7B7B7B7B7B7B7B6B5B4B3B2B1B0BzA      ",
"    yAxAwAvAuAuAuAuAuAuAuAuAuAuAuAuAuAuAuAuAuAuAuAuAuAuAuAuAuAuAuAuAuAuAuAuAuAuAuAuAtAsArAqA    ",
"  YBpAoAuAuAuAuAuAuAuAuAuAuAuAuAuAuAuAuAuAuAuAuAuAuAuAuAuAuAuAuAuAuAuAuAuAuAuAuAuAuAuAuAnAmAlA  ",
"  kAjAiAuAhAgAfAfAfAfAfAfAfAeAdAcAbAaAZAYAXAWAVAUATASARAQAPAOANAMALAKAJAIAHAGAFAEADACAuAtABAAA  ",
"  WB3B;AuA:A9A8A7A7A8A8A8A8A6A5A5A5A5A4A4A3A3A3A2A2A1A1A0Az;z;z;y;y;x;w;x;w;w;v;v;u;t;s;s;r;q;  ",
"  WBp;;AuAo;6A6A5A5A5A5A4A4A4A3A3A3An;n;m;l;l;l;2A2A2A1Ak;z;z;z;z;x;x;w;x;w;w;v;v;j;DAi;h;g;f;  ",
"  WBp;;AuAo;e;6Ad;c;b;a;Z;Y;X;W;V;U;T;S;R;R;Q;P;O;N;M;L;K;J;I;H;G;F;E;D;C;C;B;A;;;:;9;8;7;6;5;  ",
"  WBp;;AuAo;4;m;3;2;1;1;0;z:y:x:w:v:v:u:t:s:r:q:p:o:n:m:l:k:j:i:i:h:g:f:e:d:c:b:a:Z:Y:X:W:V:U:  ",
"  WBp;;AuAo;T:S:R:Q:P:O:N:M:L:K:J:I:H:G:F:E:D:C:B:A:;:;:::9:8:7:6:5:4:3:2:3:1:0:z9y9x9w9v9u9t9  ",
"  WBp;;AuAfAs9r9q9p9o9n9m9l9k9j9i9h9g9g9f9f9e9d9c9b9a9Z9Y9X9W9V9U9T9S9R9R9Q9P9O9N9M9L9K9J9I9H9  ",
"  G9p;;AuAeAF9s9E9D9C9B9A9;9:99989796959493939291909z8y8x8w8v8u8t8s8r8q8p8o8n8m8l8k8j8i8h8g8f8  ",
"  e8p;;AuAcAd8c8b8a8Z8Y8X8W8V8U8T8S8R8Q8P8O8N8M8L8K8J8I8H8G8F8F8E8D8C8B8A8A8A8A8k8;8:898887868  ",
"  58p;;AuAbA48382818c:08z7y7x7w7v7u7t7t7s7r7q7p7o7n7m7l7k7j7i7h7g7g7g7g7g7g7f7f7e7d7c7b7a7Z7Y7  ",
"  X7p;;AuAW7V748U7T7S7R7Q7P7O7N7M7L7K7J7I7H7G7F7E7D7C7B7A7;7:7:79797979797979797d7877767574737  ",
"  27p;;AuAYA17V707z6y6x6w6v6u6t6s6s6r6q6p6o6n6m6l6k6j6i6h6g6f6f6f6f6f6i6i6i6i6e6d6c6b6a6Z6Y637  ",
"  X6p;;As;W6V617U6T6S6R6Q6P6O6N6M6L6K6J6I6H6G6F6E6D6C6C6C6C6C6B6B6B6B6A6A6D6D6D6;6:69686766637  ",
"  JB2B56h;VA4636261606z5y5x5w5v5u5t5s5r5q5p5o5n5m5m5m5m5m5m5m5l5A8k5k5k5k5k5k5k5:6j596i5h5g537  ",
"  f5e5h;7;UAd546c5b5a5Z5Y5X5W5V5u5U5T5S5R5Q5P5P5P5P5O5O5O5O5O5O5O5O5O5N5M5M5M5M5L5K5J5I5H5W:37  ",
"  FBG5F5E5SAD5d5C5B5A5;5:595857565554535251505050505050505z4z4z4y4y4y4y4x4w4w4w4K5v4J5u4t4s437  ",
"  r4q4W:s4RAp4o4n4m4l4k4j4i4h4g4f4e4d4c4b4a4Z4Y4Y4Y4Y4Y4X4X4X4X4W4W4W4W4W4W4V4V4v4U477T4S4J937  ",
"  R4Q4v9J9P4O4N4M4L4K4J4I4H4G4Q6F4E4D4C4B4A4A4;4;4;4:4:4:4:4:4:4:494848484848484U474645444h837  ",
"  AB34J924OA1404z3y3x3w3U5v3u3t3s3r3q3p3o3o3o3o3n3n3n3n3n3m3m3m3m3m3m3m3m3l3l3l374k364j3i3h337  ",
"  g3f3e388d3c3b3a3Z3Z3Y3X3W3V3U3T3Z4Z4Z4Z4Z4Z4Y4Y4X4S3S3S3S3S3R3R3R3R3V4V4V4V4V4Q3P3O3N3M3L337  ",
"  K3g;J3b7LAI3c3H3G3F3E3D3C3B3F3F3F3F3F3A3A3A3A3A3A3;3;3:3:3:3:3:3:3939393939393b3c38373635337  ",
"  43332313KA03z2y2y2y2x2w2v2v2v2u2u2u2u2w2w2w2w2w2w2t2t2s2s2r2r2r2r2r2r2q2n3n3n3c3I3837363p237  ",
"  o2n2m2l2k2j2i2h2h2h2h2g2g2g2f2f2f2f2f2f2f2e2e2e2e2e2e2e2e2e2d2d2d2d2d2d2d2d2c2I303837363b237  ",
"  a2BAZ2Y2HAX2W2V2d2d2d2d2d2d2d2U2T2S2R2Q2Q2Q2Q2Q2Q2Q2Q2Q2Q2P2O2N2M2L2L2L2O2O2O2i2W2K27363Z237  ",
"  J2I2H2G2F2E2D2C2C2C2C2B2A2A2A2A2A2;2:29282828282828282827262524232322222222222W2X21273630237  ",
"  z1V:y1H5EAx1x1w1C2C2C2C2C2B2B2B2B2v1u1t1s1s1r1r1r1r1r1r1q1p1o122222222n1n1n1m1D2E2127363l137  ",
"  k1j1i1t4h1g1f1e1e1e1e1e1e1e1e1e1e1e1d1d1d1d1d1d1d1d1d1d1d1d1c1e1e1b1a1a1a1Z1Z1Y1x1127363X137  ",
"  W1V1U1S4T1g1g1E2E2E2E2E2E2E2E2E2E2E2E2E2E2E2E2E2E2E2E2E2E2E2E2E2E2E2E2E2E2E2E2g1g1S1R163y137  ",
"  Q1P1O144N1M1f1g1g1g1g1g1g1g1g1g1g1g1g1g1g1g1g1g1g1g1g1g1g1g1g1g1g1g1g1g1g1g1g1g1L1K16363G237  ",
"  J1I1H1i3G1F1E1D1C1B1A1;1:1918171717171717171717171717171717171717171717171717161835163634137  ",
"  312111M363636363636363636363636363636363636363636363636363636363636301z001y0x06363636363w0v0  ",
"  u0uAO163636363636363636363636363636363636363636363636363636363t0s063z0636363r0M3636363q0p0o0  ",
"  n0m0l063636363636363636363636363636363636363636363636363636363s0k063j063i063Y:M3636363h0g0f0  ",
"    e07;d0c06363636363636363636363636363636363636363636363636363636363N3b0a0Z0Y06363q0h0X0Y7    ",
"      W0V0U0T0S0uAR0Q0P0O0N07;M0L0K0J0I0H0G0F0E0D0C088B0A0L353m2b2a6;0:0908070h5I5605040Y7      ",
"        30203737373737373737373737373737373737373737373737373737373737373737373737371000        ",
"                                                                                                ",
"                                                                                                ",
"                                                                                                ",
"                                                                                                ",
"                                                                                                "};
