/* XPM */
static char *image[] = {
"48 48 121 2",
"   c None",
"00 c #a7b1b7",
"10 c #a9b1b9",
"20 c #bec6cb",
"30 c #cdd4d8",
"40 c #cfd5d9",
"50 c #c1c8cd",
"60 c #abb2b9",
"70 c #bec6cc",
"80 c #d2d8dc",
"90 c #c2cbcf",
":0 c #c9d0d5",
";0 c #d0d7db",
"A0 c #cdd5d9",
"B0 c #bac3c7",
"C0 c #bec5ca",
"D0 c #bdc4ca",
"E0 c #acb4b9",
"F0 c #abb4b9",
"G0 c #9da6ac",
"H0 c #99a2a8",
"I0 c #9ba4aa",
"J0 c #909ba1",
"K0 c #879197",
"L0 c #8d989d",
"M0 c #869097",
"N0 c #828c94",
"O0 c #758087",
"P0 c #848f97",
"Q0 c #858e95",
"R0 c #a5aeb5",
"S0 c #a6afb5",
"T0 c #04abdf",
"U0 c #eef2f5",
"V0 c #01aade",
"W0 c #f0f3f5",
"X0 c #02abde",
"Y0 c #006585",
"Z0 c #00a8dc",
"a0 c #007093",
"b0 c #005e7b",
"c0 c #003b4e",
"d0 c #006f91",
"e0 c #004257",
"f0 c #004359",
"g0 c #009dce",
"h0 c #00394b",
"i0 c #004156",
"j0 c #00a0d0",
"k0 c #00a5d7",
"l0 c #003f52",
"m0 c #006584",
"n0 c #004961",
"o0 c #004358",
"p0 c #006483",
"q0 c #005d7a",
"r0 c #00a9dd",
"s0 c #006484",
"t0 c #006c8d",
"u0 c #005c79",
"v0 c #00a8db",
"w0 c #005975",
"x0 c #005b79",
"y0 c #00a9dc",
"z0 c #005772",
"01 c #00a7db",
"11 c #007da4",
"21 c #003546",
"31 c #00546e",
"41 c #0099c7",
"51 c #0082aa",
"61 c #0082ab",
"71 c #00516b",
"81 c #0099c9",
"91 c #00445a",
":1 c #003547",
";1 c #0083ac",
"A1 c #0087b1",
"B1 c #003648",
"C1 c #00a5d8",
"D1 c #00a4d7",
"E1 c #004e67",
"F1 c #003849",
"G1 c #008ab5",
"H1 c #008cb7",
"I1 c #00384b",
"J1 c #004c65",
"K1 c #00a4d6",
"L1 c #004a62",
"M1 c #00394c",
"N1 c #008fbc",
"O1 c #0092be",
"P1 c #003a4d",
"Q1 c #004c63",
"R1 c #00a2d4",
"S1 c #00a1d2",
"T1 c #004a61",
"U1 c #003c4f",
"V1 c #0094c1",
"W1 c #00a0d2",
"X1 c #00485e",
"Y1 c #003445",
"Z1 c #00506a",
"a1 c #00475e",
"b1 c #009fd1",
"c1 c #009ece",
"d1 c #00455b",
"e1 c #004f68",
"f1 c #eff2f5",
"g1 c #03abde",
"h1 c #f1f3f5",
"i1 c #00aade",
"j1 c #a7afb7",
"k1 c #344958",
"l1 c #a8b0b7",
"m1 c #a9b2b9",
"n1 c #d1d7db",
"o1 c #c9d0d4",
"p1 c #a9b2b8",
"q1 c #a7b0b7",
"r1 c #aab3b9",
"                                                                                                ",
"                                                                                                ",
"                                                                                                ",
"                                                                                                ",
"      r1q1q1q1q1q1q1q1q1q1q1q1q1q1q1q1q1q1q1q1q1q1q1q1q1q1q1q1q1q1q1q1q1q1q1q1q1q1q1q1q1p1      ",
"    p1o1n1n1n1n1n1n1n1n1n1n1n1n1n1n1n1n1n1n1n1n1n1n1n1n1n1n1n1n1n1n1n1n1n1n1n1n1n1n1n1n1o1m1    ",
"    l1n1k1k1k1k1k1k1k1k1k1k1k1k1k1k1k1k1k1k1k1k1k1k1k1k1k1k1k1k1k1k1k1k1k1k1k1k1k1k1k1k1n1l1    ",
"    j1n1k1i1i1i1i1i1i1i1i1i1i1i1i1i1i1i1i1i1i1i1i1i1i1i1i1i1i1i1i1i1i1i1i1i1i1i1i1i1i1k1n1j1    ",
"    j1n1k1i1i1i1i1i1i1i1i1i1i1i1i1i1i1i1i1i1i1i1i1i1i1i1i1i1i1i1i1i1i1i1i1i1i1i1i1i1i1k1n1j1    ",
"    j1n1k1i1i1h1i1h1g1f1g1f1g1f1g1f1g1f1g1f1g1f1g1f1g1f1g1f1g1f1g1f1g1f1g1f1g1f1i1i1i1k1n1j1    ",
"    j1n1k1i1i1i1i1i1i1i1i1i1i1i1i1i1i1i1i1i1i1i1i1i1i1i1i1i1i1i1i1i1i1i1i1i1i1i1i1i1i1k1n1j1    ",
"    j1n1k1i1i1h1i1i1i1i1i1i1i1i1i1i1i1i1i1i1i1i1i1i1i1i1i1i1i1i1i1i1i1i1i1i1i1i1h1i1i1k1n1j1    ",
"    j1n1k1i1i1i1i1i1i1i1i1i1i1i1i1e1d1c1i1i1i1i1i1i1i1i1b1a1e1i1i1i1i1i1i1i1i1i1i1i1i1k1n1j1    ",
"    j1n1k1i1i1h1i1i1i1i1i1i1i1i1i1Z1Y1X1W1i1i1i1i1i1i1W1X1Y1Z1i1i1i1i1i1i1i1i1i1h1i1i1k1n1j1    ",
"    j1n1k1i1i1i1i1i1i1i1i1i1i1i1i1V1U1Y1T1S1i1i1i1i1R1Q1Y1P1O1i1i1i1i1i1i1i1i1i1i1i1i1k1n1j1    ",
"    j1n1k1i1i1h1i1i1i1i1i1i1i1i1i1i1N1M1Y1L1R1i1i1K1J1Y1I1H1i1i1i1i1i1i1i1i1i1i1h1i1i1k1n1j1    ",
"    j1n1k1i1i1i1i1i1i1i1i1i1i1i1i1i1i1G1F1Y1E1D1C1Z1Y1B1A1i1i1i1i1i1i1i1i1i1i1i1i1i1i1k1n1j1    ",
"    j1n1k1i1i1h1i1i1i1i1i1i1i1i1i1i1i1i1;1:1918171Y1:161i1i1i1i1i1i1i1i1i1i1i1i1h1i1i1k1n1j1    ",
"    j1n1k1i1i1i1i1i1i1i1i1i1i1i1i1i1i1i1i1514131Y12111i1i1i1i1i1i1i1i1i1i1i1i1i1i1i1i1k1n1j1    ",
"    j1n1k1i1i1h1i1i1i1i1i1i1i1i1i1i1i1i1i101z0Y1Y1T101i1i1i1i1i1i1i1i1i1i1i1i1i1h1i1i1k1n1j1    ",
"    j1n1k1i1i1i1i1i1i1i1i1i1i1i1i1i1i1i1y0x0Y1Y1Y1Y1w0v0i1i1i1i1i1i1i1i1i1i1i1i1i1i1i1k1n1j1    ",
"    j1n1k1i1i1h1i1i1i1i1i1i1i1i1i1i1D1c1u0Y1Y1t0t0Y1Y1u0c1D1i1i1i1i1i1i1i1i1i1i1h1i1i1k1n1j1    ",
"    j1n1k1i1i1i1i1i1i1i1i1i1i1i1D1u021Y1Y1Y1s0r0r0s0Y1Y1Y1:1q0D1i1i1i1i1i1i1i1i1i1i1i1k1n1j1    ",
"    j1n1k1i1i1h1i1i1i1i1i1i1i1i1p0Y191T1Y1o0r0i1i1r0o0Y1n091Y1m0i1i1i1i1i1i1i1i1h1i1i1k1n1j1    ",
"    j1n1k1i1i1i1i1i1i1i1i1i1i1i1l0U1k0r0T1Y1b1i1i1j0Y1n0r0k0U1l0i1i1i1i1i1i1i1i1i1i1i1k1n1j1    ",
"    j1n1k1i1i1h1i1i1i1i1i1i1i1i1i0h0g0D1f0:1D1i1i1D1:191D1g0h0e0i1i1i1i1i1i1i1i1h1i1i1k1n1j1    ",
"    j1n1k1i1i1i1i1i1i1i1i1i1i1i1d0Y1h0c0Y1b0i1i1i1i1q0Y1U1h0Y1a0i1i1i1i1i1i1i1i1i1i1i1k1n1j1    ",
"    j1n1k1i1i1h1i1i1i1i1i1i1i1i1Z0d0e0l0Y0D1i1i1i1i1D1m0l0e0a0Z0i1i1i1i1i1i1i1i1h1i1i1k1n1j1    ",
"    j1n1k1i1i1i1i1i1i1i1i1i1i1i1i1i1i1i1i1i1i1i1i1i1i1i1i1i1i1i1i1i1i1i1i1i1i1i1i1i1i1k1n1j1    ",
"    j1n1k1i1i1i1h1i1h1g1f1X0W0X0W0X0W0X0W0X0W0V0h1V0h1V0h1V0h1V0h1i1h1i1h1i1h1i1U0T0i1k1n1j1    ",
"    j1n1k1i1i1i1i1i1i1i1i1i1i1i1i1i1i1i1i1i1i1i1i1i1i1i1i1i1i1i1i1i1i1i1i1i1i1i1i1i1i1k1n1j1    ",
"    j1n1k1i1i1i1i1i1i1i1i1i1i1i1i1i1i1i1i1i1i1i1i1i1i1i1i1i1i1i1i1i1i1i1i1i1i1i1i1i1i1k1n1j1    ",
"    j1n1k1k1k1k1k1k1k1k1k1k1k1k1k1k1k1k1k1k1k1k1k1k1k1k1k1k1k1k1k1k1k1k1k1k1k1k1k1k1k1k1n1j1    ",
"    S0o1n1n1n1n1n1n1n1n1n1n1n1n1n1n1n1n1n1n1n1n1n1n1n1n1n1n1n1n1n1n1n1n1n1n1n1n1n1n1n1n1o1R0    ",
"    Q0R0q1q1q1q1q1q1q1q1q1q1q1q1q1q1q1q1q1q1q1q1q1q1q1q1q1q1q1q1q1q1q1q1q1q1q1q1q1q1q1q1R0P0    ",
"      O0O0O0O0O0O0O0O0O0O0O0O0O0O0O0O0O0O0O0O0O0O0O0O0O0O0O0O0O0O0O0O0O0O0O0O0O0O0O0O0O0O0      ",
"                                N0O0O0O0O0O0O0O0O0O0O0O0O0O0O0M0                                ",
"                                L0K0K0K0K0K0K0K0K0K0K0K0K0K0K0J0                                ",
"                                I0H0H0H0H0H0H0H0H0H0H0H0H0H0H0G0                                ",
"                                F0E0E0E0E0E0E0E0E0E0E0E0E0E0E0F0                                ",
"                                D0C0C0C0C0C0C0C0C0C0C0C0C0C0C0B0                                ",
"                                A0;0;0;0;0;0;0;0;0;0;0;0;0;0;0:0                                ",
"                                90808080808080808080808080808070                                ",
"                                60504080808080808080808080302010                                ",
"                                  l1q1q1q1q1q1q1q1q1q1q1q100l1                                  ",
"                                                                                                ",
"                                                                                                ",
"                                                                                                "};
