/* XPM */
static char *image[] = {
"64 64 42 1",
"  c None",
"0 c #b1c6d0",
"1 c #91aebd",
"2 c #b5c9d3",
"3 c #93b0be",
"4 c #009119",
"5 c #fdfefe",
"6 c #00aa00",
"7 c #00901a",
"8 c #004f5b",
"9 c #00a505",
": c #009416",
"; c #006d3d",
"A c #004465",
"B c #d5e0e6",
"C c #3c708a",
"D c #a0b9c6",
"E c #41748d",
"F c #fefefe",
"G c #3b6f89",
"H c #145372",
"I c #b2c7d1",
"J c #c0d1d9",
"K c #044768",
"L c #92afbe",
"M c #bfd0d9",
"N c #1b5876",
"O c #004565",
"P c #497a92",
"Q c #d7e2e7",
"R c #f3f6f8",
"S c #c8d7de",
"T c #668fa3",
"U c #024567",
"V c #054869",
"W c #4a7a92",
"X c #a1bac7",
"Y c #d6e1e6",
"Z c #f2f5f7",
"a c #ffffff",
"b c #004566",
"c c #004466",
"                                                                ",
"                                                                ",
"                                                                ",
"                                                                ",
"        ccccccccccccccb                  bcccccccccccccc        ",
"        cccccccccccccccccc            cccccccccccccccccc        ",
"        ccccccccccccccccccc          ccccccccccccccccccc        ",
"        cccccccccccccccccccc        cccccccccccccccccccc        ",
"        ccccccccccccccccccccc      ccccccccccccccccccccc        ",
"        ccccaaaaZYXWVccccccccc    ccccccccUTSRRSTUcccccc        ",
"        ccccaaaaaaaaQPccccccccO  ccccccccNMaaaaaaMNccccc        ",
"        ccccaaaaaaaaaaLKccccccc  cccccccUJaaaaaaaaMUcccc        ",
"        ccccaaaaaaaaaaaIKcccccc  cccccccTaaaaaaaaaaTcccc        ",
"        ccccaaaaaaaaaaaaLccccccbbcccccccSaaaaaaaaaaScccc        ",
"        ccccaaaaaaaaaaaaaPccccccccccccccRaaaaaaaaaaRcccc        ",
"        ccccccccHGLFaaaaaQVcccccccccccccRaaaaaaaaaaRcccc        ",
"        cccccccccccEFaaaaaPcccccccccccccSaaaaaaaaaaScccc        ",
"        ccccccccccccLaaaaaDcccccccccccccTaaaaaaaaaaTcccc        ",
"        ccccccccccccCaaaaaBcccccccccccccUMaaaaaaaaMUcccc        ",
"        ccccccccccccHaaaaaZccccccccccccccNMaaaaaaMNccccc        ",
"              cccccccaaaaaacccccccccccccccUTSRRSTUcccccc        ",
"               ccccccaaaaaaccccccccccccccccccccccccccccc        ",
"                cccccaaaaaaccccccccccccccccccccccccccccc        ",
"                cccccaaaaaaccccccccccccccccccccccccccccc        ",
"                cccccZaaaaaHcccccccccccccccccccccccccccc        ",
"                cccccYaaaaaGcccccccccccccccccccccccccccc        ",
"                cccccXaaaaaLccccccccccccccA;:99:;Acccccc        ",
"                cccccWaaaaaFEcccccccccccc8766666678ccccc        ",
"                cccccVQaaaaa5LCHccccccccA4666666667Acccc        ",
"                ccccccPaaaaaaaaacccccccc;6666666666;cccc        ",
"                ccccccc3aaaaaaaacccccccc:6666666666:cccc        ",
"                cccccccK2aaaaaaacccccccc966666666669cccc        ",
"                cccccccK2aaaaaaacccccccc966666666669cccc        ",
"                ccccccc3aaaaaaaacccccccc:6666666666:cccc        ",
"                ccccccPaaaaaaaaacccccccc;6666666666;cccc        ",
"                cccccVQaaaaa51GHccccccccA7666666667Acccc        ",
"                cccccWaaaaa5Ecccccccccccc8766666678ccccc        ",
"                cccccXaaaaaLccccccccccccccA;:99:;Acccccc        ",
"                cccccYaaaaaGcccccccccccccccccccccccccccc        ",
"                cccccZaaaaaHcccccccccccccccccccccccccccc        ",
"                cccccaaaaaaccccccccccccccccccccccccccccc        ",
"                cccccaaaaaaccccccccccccccccccccccccccccc        ",
"               ccccccaaaaaaccccccccccccccccccccccccccccc        ",
"              cccccccaaaaaacccccccccccccccUTSRRSTUcccccc        ",
"        ccccccccccccHaaaaaZccccccccccccccNMaaaaaaMNccccc        ",
"        ccccccccccccCaaaaaBcccccccccccccUJaaaaaaaaMUcccc        ",
"        ccccccccccccLaaaaaDcccccccccccccTaaaaaaaaaaTcccc        ",
"        cccccccccccEFaaaaaPcccccccccccccSaaaaaaaaaaScccc        ",
"        ccccccccHCLFaaaaaYVcccccccccccccRaaaaaaaaaaRcccc        ",
"        ccccaaaaaaaaaaaaaPccccccccccccccRaaaaaaaaaaRcccc        ",
"        ccccaaaaaaaaaaaaLccccccbbcccccccSaaaaaaaaaaScccc        ",
"        ccccaaaaaaaaaaa0Kcccccc  cccccccTaaaaaaaaaaTcccc        ",
"        ccccaaaaaaaaaa1Kccccccc  cccccccUMaaaaaaaaMUcccc        ",
"        ccccaaaaaaaaQPccccccccO  ccccccccNMaaaaaaMNccccc        ",
"        ccccaaaaZBDPVccccccccc    ccccccccUTSRRSTUcccccc        ",
"        ccccccccccccccccccccc      ccccccccccccccccccccc        ",
"        cccccccccccccccccccc        cccccccccccccccccccc        ",
"        ccccccccccccccccccc          ccccccccccccccccccc        ",
"        cccccccccccccccccO            Occccccccccccccccc        ",
"        ccccccccccccccb                  bcccccccccccccc        ",
"                                                                ",
"                                                                ",
"                                                                ",
"                                                                "};
