/* XPM */
static char *image[] = {
"48 48 547 2",
"   c None",
"00 c #4b4b49",
"10 c #494948",
"20 c #484846",
"30 c #4a4a49",
"40 c #3e443a",
"50 c #e3eade",
"60 c #dae4d3",
"70 c #cbd8c1",
"80 c #aabc9e",
"90 c #7f9072",
":0 c #3d443a",
";0 c #474747",
"A0 c #41493c",
"B0 c #cedbc5",
"C0 c #8da080",
"D0 c #40483c",
"E0 c #484847",
"F0 c #3e423b",
"G0 c #9bae8e",
"H0 c #edefeb",
"I0 c #9caf8f",
"J0 c #3c403a",
"K0 c #464646",
"L0 c #494949",
"M0 c #d2e4c6",
"N0 c #c2dcb0",
"O0 c #b4d69c",
"P0 c #a6d089",
"Q0 c #b3d69b",
"R0 c #c0dcad",
"S0 c #d0e3c4",
"T0 c #879a7a",
"U0 c #4a4a48",
"V0 c #3f423c",
"W0 c #bacbaf",
"X0 c #c3ddb1",
"Y0 c #72b941",
"Z0 c #71b840",
"a0 c #99ca77",
"b0 c #eff1ee",
"c0 c #bbcbaf",
"d0 c #3d403b",
"e0 c #424240",
"f0 c #4c4c4a",
"g0 c #464e41",
"h0 c #c4ddb2",
"i0 c #80b05f",
"j0 c #7cbd4f",
"k0 c #c4ddb3",
"l0 c #d3dfcb",
"m0 c #454d40",
"n0 c #4e4e4d",
"o0 c #484f42",
"p0 c #86c25d",
"q0 c #dfe9d7",
"r0 c #e2eadd",
"s0 c #464e42",
"t0 c #41433f",
"u0 c #d2dec9",
"v0 c #68b135",
"w0 c #73b943",
"x0 c #cde1be",
"y0 c #d3dfca",
"z0 c #3f413d",
"01 c #b8c9ac",
"11 c #bedbaa",
"21 c #80af60",
"31 c #89be63",
"41 c #6cb638",
"51 c #bbd9a6",
"61 c #b9caad",
"71 c #474746",
"81 c #889b7a",
"91 c #cee2c1",
":1 c #6cb639",
";1 c #65ac34",
"A1 c #e4e9e0",
"B1 c #e7ece4",
"C1 c #6cb538",
"D1 c #cce0be",
"E1 c #889b7b",
"F1 c #42473e",
"G1 c #dfead8",
"H1 c #74b943",
"I1 c #65ad35",
"J1 c #dee6d9",
"K1 c #c7ddb9",
"L1 c #cadabe",
"M1 c #69b436",
"N1 c #6ab436",
"O1 c #6ab536",
"P1 c #72b741",
"Q1 c #dde8d6",
"R1 c #e7ece3",
"S1 c #42463e",
"T1 c #474745",
"U1 c #464645",
"V1 c #9db190",
"W1 c #85c05c",
"X1 c #d3decb",
"Y1 c #8ec36a",
"Z1 c #93ba78",
"a1 c #eceeea",
"b1 c #67b235",
"c1 c #68b235",
"d1 c #68b336",
"e1 c #69b336",
"f1 c #82bc5b",
"g1 c #f1f2f1",
"h1 c #9eb291",
"i1 c #495145",
"j1 c #c2dcb1",
"k1 c #5fa432",
"l1 c #cedbc6",
"m1 c #8bc06a",
"n1 c #91b878",
"o1 c #65af35",
"p1 c #66b035",
"q1 c #66b135",
"r1 c #67b135",
"s1 c #c0d9af",
"t1 c #edf0eb",
"u1 c #495143",
"v1 c #484848",
"w1 c #454544",
"x1 c #92a586",
"y1 c #78b84e",
"z1 c #5da232",
"02 c #a2bf90",
"12 c #8abe6a",
"22 c #90b778",
"32 c #62ac34",
"42 c #63ad34",
"52 c #64ad34",
"62 c #64ae34",
"72 c #65ae35",
"82 c #73b14c",
"92 c #94a687",
":2 c #434343",
";2 c #cddac4",
"A2 c #c0daaf",
"B2 c #87b36e",
"C2 c #89bc69",
"D2 c #8fb577",
"E2 c #62ab34",
"F2 c #63ac34",
"G2 c #63ab34",
"H2 c #bed6ad",
"I2 c #cedac5",
"J2 c #414141",
"K2 c #474e43",
"L2 c #91c273",
"M2 c #5da633",
"N2 c #5fa534",
"O2 c #b9cfac",
"P2 c #86b968",
"Q2 c #8db477",
"R2 c #5fa833",
"S2 c #60a833",
"T2 c #60a933",
"U2 c #61aa34",
"V2 c #8ebc72",
"W2 c #f1f1f1",
"X2 c #454d42",
"Y2 c #494947",
"Z2 c #839577",
"a2 c #eef0ed",
"b2 c #66ab3d",
"c2 c #5aa232",
"d2 c #5b9839",
"e2 c #e5e9e2",
"f2 c #84b668",
"g2 c #8cb177",
"h2 c #ebeeea",
"i2 c #5da533",
"j2 c #5ea633",
"k2 c #5ea733",
"l2 c #5fa733",
"m2 c #64a53c",
"n2 c #eff0ed",
"o2 c #839578",
"p2 c #cbdec1",
"q2 c #579536",
"r2 c #c6d5be",
"s2 c #83b268",
"t2 c #8aae77",
"u2 c #ebeee9",
"v2 c #589e31",
"w2 c #599f31",
"x2 c #5ca332",
"y2 c #5ca432",
"z2 c #5da532",
"03 c #5ca433",
"13 c #cbdcc1",
"23 c #abbda0",
"33 c #3e3e3c",
"43 c #454543",
"53 c #454545",
"63 c #b9d4aa",
"73 c #559235",
"83 c #80af67",
"93 c #89ac77",
":3 c #569a32",
";3 c #59a132",
"A3 c #5aa132",
"B3 c #5ba232",
"C3 c #5ba332",
"D3 c #b8d0a9",
"E3 c #c7d5be",
"F3 c #444444",
"G3 c #d6e0cf",
"H3 c #a9cb97",
"I3 c #569d31",
"J3 c #77a85e",
"K3 c #7eab67",
"L3 c #87aa77",
"M3 c #529530",
"N3 c #549930",
"O3 c #589f31",
"P3 c #59a031",
"Q3 c #59a032",
"R3 c #a7c696",
"S3 c #d6e1d0",
"T3 c #99c283",
"U3 c #7fad69",
"V3 c #7ca866",
"W3 c #86a775",
"X3 c #ebede9",
"Y3 c #50912f",
"Z3 c #569c31",
"a3 c #579d31",
"b3 c #579e31",
"c3 c #96bb82",
"d3 c #dfe7db",
"e3 c #40403f",
"f3 c #444443",
"g3 c #95bf80",
"h3 c #51972f",
"i3 c #7da76a",
"j3 c #79a566",
"k3 c #84a576",
"l3 c #4e8e30",
"m3 c #529830",
"n3 c #549a30",
"o3 c #559b30",
"p3 c #559c30",
"q3 c #91b87d",
"r3 c #dfe6db",
"s3 c #3f3f3f",
"t3 c #434342",
"u3 c #d5dfcf",
"v3 c #a0c48d",
"w3 c #49882d",
"x3 c #c5d1c0",
"y3 c #77a265",
"z3 c #82a275",
"04 c #4a8a2f",
"14 c #4e922f",
"24 c #4f932f",
"34 c #529730",
"44 c #539830",
"54 c #539930",
"64 c #9bbd89",
"74 c #d6e0d0",
"84 c #3a3a38",
"94 c #3f3f3d",
":4 c #424242",
";4 c #c5d3be",
"A4 c #aecba0",
"B4 c #45812c",
"C4 c #ced7ca",
"D4 c #8ca981",
"E4 c #99b08f",
"F4 c #eaede9",
"G4 c #48862d",
"H4 c #4e922e",
"I4 c #50952f",
"J4 c #51962f",
"K4 c #52962f",
"L4 c #a8c59b",
"M4 c #c6d4be",
"N4 c #414140",
"O4 c #404040",
"P4 c #a9baa1",
"Q4 c #ceddc6",
"R4 c #498d2d",
"S4 c #447e2c",
"T4 c #d9dfd7",
"U4 c #eaece9",
"V4 c #46822e",
"W4 c #4a8e2e",
"X4 c #4c912e",
"Y4 c #4d922e",
"Z4 c #4e932f",
"a4 c #4f942f",
"b4 c #4e902e",
"c4 c #c9d9c1",
"d4 c #aabba0",
"e4 c #40403e",
"f4 c #3f3f3e",
"g4 c #84957c",
"h4 c #ecefeb",
"i4 c #529533",
"j4 c #488c2d",
"k4 c #46872c",
"l4 c #3e7429",
"m4 c #ebedea",
"n4 c #437d2c",
"o4 c #4b8f2e",
"p4 c #4c902e",
"q4 c #4d912e",
"r4 c #4b892f",
"s4 c #e8ece6",
"t4 c #82947b",
"u4 c #3a3a39",
"v4 c #353533",
"w4 c #3c3c3b",
"x4 c #4c5149",
"y4 c #7fae6a",
"z4 c #43822c",
"05 c #4a7a3b",
"15 c #b4c3af",
"25 c #b5c5b0",
"35 c #51853d",
"45 c #44842d",
"55 c #4a8d2d",
"65 c #4b8e2e",
"75 c #4c8f2e",
"85 c #75a261",
"95 c #484e45",
":5 c #424241",
";5 c #cad6c4",
"A5 c #b7cfac",
"B5 c #41802b",
"C5 c #618854",
"D5 c #e5e8e4",
"E5 c #699559",
"F5 c #43832d",
"G5 c #46892c",
"H5 c #488b2d",
"I5 c #498c2d",
"J5 c #488a2c",
"K5 c #b0c8a6",
"L5 c #cbd7c5",
"M5 c #3c3c3c",
"N5 c #3e3e3e",
"O5 c #91a388",
"P5 c #5d9845",
"Q5 c #47892d",
"R5 c #46882c",
"S5 c #43842c",
"T5 c #41812c",
"U5 c #527f43",
"V5 c #e3e7e2",
"W5 c #e5e9e4",
"X5 c #598c48",
"Y5 c #42822b",
"Z5 c #44872c",
"a5 c #46892d",
"b5 c #478a2d",
"c5 c #548a3e",
"d5 c #90a389",
"e5 c #323232",
"f5 c #4f554c",
"g5 c #adc8a2",
"h5 c #45882c",
"i5 c #42842b",
"j5 c #3c762b",
"k5 c #d1d9ce",
"l5 c #d3dcd1",
"m5 c #41802e",
"n5 c #41822b",
"o5 c #45872c",
"p5 c #44852b",
"q5 c #a5c09b",
"r5 c #eceeeb",
"s5 c #4c524a",
"t5 c #353534",
"u5 c #393937",
"v5 c #3e3e3d",
"w5 c #9dad94",
"x5 c #f1f1f0",
"y5 c #6b9e58",
"z5 c #43852c",
"06 c #42832b",
"16 c #719466",
"26 c #77a16b",
"36 c #43842b",
"46 c #44862c",
"56 c #619050",
"66 c #eff0ef",
"76 c #9daf95",
"86 c #393938",
"96 c #484c46",
":6 c #d7e1d3",
";6 c #4a8834",
"A6 c #40822b",
"B6 c #3b7829",
"C6 c #c5d1c2",
"D6 c #c7d4c3",
"E6 c #40812b",
"F6 c #41832b",
"G6 c #447d30",
"H6 c #d2dece",
"I6 c #e4e9e2",
"J6 c #424640",
"K6 c #3d3d3c",
"L6 c #889a81",
"M6 c #bcd0b5",
"N6 c #40812d",
"O6 c #3d7d2a",
"P6 c #39742a",
"Q6 c #eeefed",
"R6 c #eff0ee",
"S6 c #3e7e2c",
"T6 c #3e7f2a",
"U6 c #3f802b",
"V6 c #3d7a2a",
"W6 c #b7cbb0",
"X6 c #899b82",
"Y6 c #30302f",
"Z6 c #3d3d3d",
"a6 c #b3c4ae",
"b6 c #acc5a3",
"c6 c #3e7f2c",
"d6 c #3c7c2a",
"e6 c #4f8041",
"f6 c #548c45",
"g6 c #3d7e2a",
"h6 c #3c782a",
"i6 c #a7c09f",
"j6 c #b6c5b0",
"k6 c #323231",
"l6 c #373736",
"m6 c #434642",
"n6 c #ced9cb",
"o6 c #b9cdb3",
"p6 c #428032",
"q6 c #5f8b52",
"r6 c #c6d4c0",
"s6 c #90b07f",
"t6 c #8ead7f",
"u6 c #c5d2bf",
"v6 c #639655",
"w6 c #3e772d",
"x6 c #b6caaf",
"y6 c #424341",
"z6 c #4e554c",
"07 c #d7e1d4",
"17 c #739a68",
"27 c #a7c09c",
"37 c #47802b",
"47 c #4a832b",
"57 c #49822b",
"67 c #477f2c",
"77 c #a3b999",
"87 c #739969",
"97 c #d6e0d3",
":7 c #f2f2f2",
";7 c #dfe5dd",
"A7 c #4d544a",
"B7 c #50574e",
"C7 c #cfd9cb",
"D7 c #e9ece7",
"E7 c #4a8332",
"F7 c #48822d",
"G7 c #4a832d",
"H7 c #477e31",
"I7 c #e8ebe7",
"J7 c #f2f2f1",
"K7 c #d0dbcd",
"L7 c #4f554b",
"M7 c #b7c6b3",
"N7 c #cad7c5",
"O7 c #46802e",
"P7 c #48812d",
"Q7 c #47822d",
"R7 c #447c2c",
"S7 c #c8d3c4",
"T7 c #b8c7b3",
"U7 c #424541",
"V7 c #333333",
"W7 c #31312f",
"X7 c #8c9e88",
"Y7 c #e5eae4",
"Z7 c #e8ece7",
"a7 c #9eb894",
"b7 c #90ae83",
"c7 c #8fad83",
"d7 c #9fb894",
"e7 c #afc4a6",
"f7 c #e7ebe6",
"g7 c #f3f3f3",
"h7 c #e6eae5",
"i7 c #8d9e87",
"j7 c #3b3b3b",
"k7 c #313130",
"l7 c #383837",
"m7 c #464b45",
"n7 c #9daf98",
"o7 c #edefec",
"p7 c #9eaf99",
"q7 c #484c47",
"r7 c #2e2e2e",
"s7 c #303030",
"t7 c #4b5149",
"u7 c #92a58d",
"v7 c #f5f5f5",
"w7 c #f4f4f4",
"x7 c #f3f3f2",
"y7 c #cad7c7",
"z7 c #93a58e",
"08 c #4e544c",
"18 c #2f2f2e",
"28 c #2c2c2c",
"38 c #343433",
"48 c #4c534a",
"58 c #849680",
"68 c #acbca8",
"78 c #e2e7e0",
"88 c #d8e0d5",
"98 c #c7d3c4",
":8 c #acbca7",
";8 c #859580",
"A8 c #4f534c",
"B8 c #2f2f2f",
"C8 c #2b2b2b",
"D8 c #2d2d2d",
"E8 c #333332",
"F8 c #353535",
"G8 c #373737",
"H8 c #393939",
"I8 c #3a3a3a",
"J8 c #383838",
"K8 c #363636",
"L8 c #343434",
"M8 c #2e2e2d",
"N8 c #2b2b29",
"O8 c #292927",
"P8 c #292928",
"Q8 c #2b2b2a",
"R8 c #2a2a2a",
"S8 c #2a2a29",
"T8 c #282828",
"U8 c #272727",
"V8 c #2a2a28",
"                                                                                                ",
"                                      V8U8T8S8R8R8Q8P8O8N8                                      ",
"                                V8R8M8L8K8J8I8I8I8H8G8F8E8D8C8R8                                ",
"                            S8B8L8I8A8;8:8988878788898685848G838B828                            ",
"                        S818J808z7y7x7w7w7w7w7v7v7w7w7w7w7x7y7u7t7K8s7D8                        ",
"                      r7G8q7p7o7w7w7w7w7w7w7v7v7v7v7w7w7w7w7w7w7o7n7m7l7k7D8                    ",
"                  C8k7j7i7h7g7g7w7w7w7w7f7e7d7c7b7a7e7Z7w7w7w7w7g7g7Y7X7I8L8W7                  ",
"                28V7U7T7g7g7g7g7w7w7w7w7S7R7Q7P7P7P7O7N7w7w7w7w7g7g7g7g7M7U7K8k7                ",
"              r7L8L7K7g7g7g7J7g7w7w7w7w7I7H7P7G7G7F7E7D7w7w7w7w7g7J7g7g7g7C7B7J838              ",
"            D8V7A7;7:7g7g79787g7w7w7w7w7w7776757473727w7w7w7w7w7g71707g7g7:7;7z6J838            ",
"            k7y6C7:7:7g7x6w6v6g7g7w7w7w7w7w7u6t6s6r6w7w7w7w7w7g7g7q6p6o6g7:7:7n6m6l6K8          ",
"          k6H8j6:7:7:7i6h6g6f6g7g7w7w7w7w7w7w7w7w7w7w7w7w7w7w7g7g7e6d6c6b6:7:7:7a6Z6G8          ",
"        Y6F8X6:7:7:7W6V6U6T6S6R6g7g7w7w7w7w7w7w7w7w7w7w7w7w7g7g7Q6P6O6T6N6M6:7:7:7L6K6G8        ",
"        38J6I6:7:7H6G6F6E6U6T6D6g7g7g7w7w7w7w7w7w7w7w7w7w7g7g7g7C6B6T6U6A6;6:6:7:7I69686        ",
"      V7J876:7:766564636F6A6U626g7g7g7g7g7w7w7w7w7w7w7g7g7g7g7g716T6U6A606z5y5x5:7:7w5v5u5      ",
"      t5s5r5:7:7q5p5o546z506n5m5l5g7g7g7g7g7g7g7g7g7g7g7g7g7g7k5j5E6n5i5z546h5g5:7:7r5f5I8      ",
"    e5J8d5:7:7o7c5b5a5h5Z5z536Y5X5W5g7g7g7g7g7g7g7g7g7g7g7g7V5U5T506S546o5R5Q5P5R6:7:7O5N5Z6    ",
"    F8M5L5:7:7K5J5I5H5b5G5h5Z546F5E5D5g7g7g7g7g7g7g7g7g7g7V5C5B5z546Z5h5G5b5H5I5A5:7:7;5:5I8    ",
"    l795x5:7:785756555I5H5b5G5R5o5453525g7g7g7g7g7g7g7g71505z4Z5o5R5a5b5H5I55565y4:7:7x5x4w4    ",
"  v4u4t4:7:7s4r4q4p4o46555I5H5H5b5a5R5n4m4g7g7g7g7g7g7D5l4k4G5Q5b5H5j4I5556575p4i4h4:7:7g4f4e4  ",
"  G8j7d4:7:7c4b4a4Z4Y4X4p4o4W455I5I5H5V4U4:7g7g7g7g7:7T4S4H5H5I5R455W4o4p4q4Y4Z4a4Q4:7:7P4O4N4  ",
"  u5Z6M4:7:7L4K4J4I4a4Z4H4q4X4p4o4o4W4G4F4E4D4:7:7:7:7C4B4W465o4o4p4X4q4H4Z4a4I4J4A4:7:7;4:494  ",
"  84N574:7:764544434J4I4I4a42414H4q4q404F4z3y3:7:7:7:7x3w3X4q4q4H4Z424a4I4J4J43444v3:7:7u3t3s3  ",
"  86N5r3:7:7q3p3o3n354m334J4J4I4I4a4a4l3F4k3j3:7:7:7:7Q6i324a4a4I4I4J4h3344454n3o3g3:7:7r3f3e3  ",
"  u4Z6d3:7:7c3b3a3Z3o3o3n35444m33434h3Y3X3W3V3:7:7:7:7:7Q6U3h33434m35454n3o3o3Z3a3T3:7:7d3:5N4  ",
"  u4O4S3:7:7R3Q3P3O3b3a3Z3Z3o3o3n3n3N3M3X3L3K3:7:7:7:7:7:7Q6J3n3n3o3o3Z3I3a3b3O3P3H3:7:7G3F3:4  ",
"  j7O4E3:7:7D3C3B3A3;3P3O3O3b3a3a3I3Z3:3m49383:7:7:7:7:7:7M473I3a3b3b3O3O3P3;3A3B363:7:7E35343  ",
"  33O423:7:71303z2y2x2B3B3A3A3Q3P3w2O3v2u2t2s2:7:7:7:7:7r2q2O3w2P3Q3A3A3B3C3x2y2z2p2:7:723f343  ",
"  33f4o2:7:7n2m2l2k2j2i2z2y2x2C3C3B3B3A3h2g2f2:7:7:7:7e2d2c2B3B3C3x2y2y2z2i2j2k2b2a2:7:7Z2:4Y2  ",
"    N5X2W2:7:7V2U2T2S2R2l2l2j2j2i2i2z2z2h2Q2P2:7:7:7:7:7O2N2i2i2M2j2j2l2l2R2T2T2L2:7:7W2K2N4    ",
"    N5J2I2:7:7H2G2F2E2E2U2U2T2T2S2R2R2l2h2D2C2:7:7:7:7:7:7B2R2R2S2T2T2U2U2E2E2F2A2:7:7;253:2    ",
"    s3N492:7:7a28272625242F2F232E2E2E2U2h22212:7:7:7:7:702z1E2E2E232F2F2425262y1R6:7:7x1w1v1    ",
"      s3u1t1:7:7s1r1q1p1p1o1o17262625252h2n1m1:7:7:7:7l1k15252626272o1o1p1p1r1j1:7:7h4i1:5      ",
"      33t3h1:7:7g1f1e1d1c1c1b1r1r1q1p1p1a1Z1Y1:7:7:7:7X1G2p1p1q1r1r1b1c1c1d1W1g1:7:7V1U1T1      ",
"        O4S1R1:7:7Q1P1O1O1O1N1M1M1e1e1d1a1L1K1:7:7:7:7J1I1d1e1e1M1M1N1O1O1H1G1:7:7R1F1:5        ",
"        s3w1E1:7:7:7D1C1O1O1O1O1O1O1O1O1B1:7:7:7:7:7:7A1;1O1O1O1O1O1O1O1:191:7:7:78171v1        ",
"          N4M561:7:7:75141O1O1O1O1O1O1O131h2:7:7:7:7h221c1O1O1O1O1O1O1:111:7:7:701N5w1          ",
"            t3z0y0:7:7:7x0w0O1O1O1O1O1O1O131h2:7:7h221v0O1O1O1O1O1O1w091:7:7:7u0t0f3            ",
"            4353s0r0:7:7:7q0p0O1O1O1O1O1O1O131h2h221v0O1O1O1O1O1O1p0q0:7:7:7r0o0w1n0            ",
"              t353m0l0:7:7:7g1k0j0O1O1O1O1O1O131i0v0O1O1O1O1O1j0h0g1:7:7:7l0g0U1f0              ",
"                e053d0c0:7:7:7:7b0h0a0Z0O1O1O1O1O1O1O1O1Y0a0X0b0:7:7:7:7W0V0U1U0                ",
"                  w1f3K6T0B1:7:7:7:7:7b0S0R0Q0P0P0O0N0M0b0:7:7:7:7:7B1T0s3w1L0                  ",
"                      :5K0J0I0H0:7:7:7:7:7:7:7:7:7:7:7:7:7:7:7:7H0G0F0E0w1                      ",
"                        :2:253D0C0B0g1:7:7:7:7:7:7:7:7:7:7g1B0C0A0U1f3;0                        ",
"                            f3f3E0K6:09080706050506070809040Z630w1U0                            ",
"                                ;053t3E071N5J8L8L8J8N5E071f3K0L0                                ",
"                                      20Y2E0K0U171K010E000                                      ",
"                                                                                                "};
